<svg width="20" height="21" viewBox="0 0 20 21" fill="none" xmlns="http://www.w3.org/2000/svg">
<path d="M15.6836 15.8276V11.4604H13.5V15.8276H15.6836ZM11.3164 15.8276V4.96045H9.18359V15.8276H11.3164ZM7 15.8276V8.21045H4.81641V15.8276H7ZM17.8164 0.644043C18.3919 0.644043 18.8997 0.864095 19.3398 1.3042C19.7799 1.7443 20 2.25212 20 2.82764V17.9604C20 18.536 19.7799 19.0438 19.3398 19.4839C18.8997 19.924 18.3919 20.144 17.8164 20.144H2.68359C2.10807 20.144 1.60026 19.924 1.16016 19.4839C0.720052 19.0438 0.5 18.536 0.5 17.9604V2.82764C0.5 2.25212 0.720052 1.7443 1.16016 1.3042C1.60026 0.864095 2.10807 0.644043 2.68359 0.644043H17.8164Z" fill="white"/>
</svg>
