<svg width="22" height="23" viewBox="0 0 22 23" fill="none" xmlns="http://www.w3.org/2000/svg">
<path d="M8.55859 14.3433C9.30339 15.0881 10.2005 15.4604 11.25 15.4604C12.2995 15.4604 13.1966 15.0881 13.9414 14.3433C14.6862 13.5985 15.0586 12.7013 15.0586 11.6519C15.0586 10.6024 14.6862 9.70524 13.9414 8.96045C13.1966 8.21566 12.2995 7.84326 11.25 7.84326C10.2005 7.84326 9.30339 8.21566 8.55859 8.96045C7.8138 9.70524 7.44141 10.6024 7.44141 11.6519C7.44141 12.7013 7.8138 13.5985 8.55859 14.3433ZM19.3242 12.7183L21.6094 14.4956C21.8464 14.6649 21.8802 14.9019 21.7109 15.2065L19.5273 18.9644C19.3919 19.2013 19.1719 19.269 18.8672 19.1675L16.1758 18.1011C15.4648 18.6089 14.8555 18.9644 14.3477 19.1675L13.9414 22.0112C13.8737 22.3159 13.7044 22.4683 13.4336 22.4683H9.06641C8.79557 22.4683 8.6263 22.3159 8.55859 22.0112L8.15234 19.1675C7.50911 18.8966 6.89974 18.5412 6.32422 18.1011L3.63281 19.1675C3.32812 19.269 3.10807 19.2013 2.97266 18.9644L0.789062 15.2065C0.619792 14.9019 0.653646 14.6649 0.890625 14.4956L3.17578 12.7183C3.14193 12.4813 3.125 12.1258 3.125 11.6519C3.125 11.1779 3.14193 10.8224 3.17578 10.5854L0.890625 8.80811C0.653646 8.63883 0.619792 8.40186 0.789062 8.09717L2.97266 4.33936C3.10807 4.10238 3.32812 4.03467 3.63281 4.13623L6.32422 5.20264C7.03516 4.69482 7.64453 4.33936 8.15234 4.13623L8.55859 1.29248C8.6263 0.987793 8.79557 0.835449 9.06641 0.835449H13.4336C13.7044 0.835449 13.8737 0.987793 13.9414 1.29248L14.3477 4.13623C14.9909 4.40706 15.6003 4.76253 16.1758 5.20264L18.8672 4.13623C19.1719 4.03467 19.3919 4.10238 19.5273 4.33936L21.7109 8.09717C21.8802 8.40186 21.8464 8.63883 21.6094 8.80811L19.3242 10.5854C19.3581 10.8224 19.375 11.1779 19.375 11.6519C19.375 12.1258 19.3581 12.4813 19.3242 12.7183Z" fill="white"/>
</svg>
