<svg width="22" height="22" viewBox="0 0 22 22" fill="none" xmlns="http://www.w3.org/2000/svg">
<path d="M12.4336 11.4604L16.75 7.14404L21.0664 11.4604H17.8164V13.187C17.8164 14.5073 17.3424 15.6414 16.3945 16.5894C15.4805 17.5034 14.3633 17.9604 13.043 17.9604H11.3164V21.2104L7 16.894L11.3164 12.5776V15.8276H13.043C13.7539 15.8276 14.3633 15.5737 14.8711 15.0659C15.4128 14.5581 15.6836 13.9318 15.6836 13.187V11.4604H12.4336ZM2.68359 20.144C2.10807 20.144 1.60026 19.924 1.16016 19.4839C0.720052 19.0438 0.5 18.536 0.5 17.9604V8.21045H5.93359V20.144H2.68359ZM0.5 6.07764V2.82764C0.5 2.25212 0.720052 1.7443 1.16016 1.3042C1.60026 0.864095 2.10807 0.644043 2.68359 0.644043H5.93359V6.07764H0.5ZM8.06641 6.07764V0.644043H17.8164C18.3919 0.644043 18.8997 0.864095 19.3398 1.3042C19.7799 1.7443 20 2.25212 20 2.82764V6.07764H8.06641Z" fill="white"/>
</svg>
