<svg width="26" height="31" viewBox="0 0 26 31" fill="none" xmlns="http://www.w3.org/2000/svg">
<g clip-path="url(#clip0_756_227)">
<path d="M25.9184 30.1252C25.9184 30.1252 21.6586 28.422 18.213 27.0586H3.72205C2.00783 27.0586 0.616211 25.5583 0.616211 23.7101V4.09034C0.616211 2.24395 2.00783 0.744629 3.72205 0.744629H22.8116C24.5268 0.744629 25.9175 2.24304 25.9175 4.09126V20.9887H25.9184V30.1252ZM22.1782 19.124C22.1105 19.0357 22.0255 18.9627 21.9286 18.9096C21.8317 18.8564 21.725 18.8243 21.6153 18.8152C21.5055 18.8062 21.3951 18.8203 21.291 18.8569C21.1869 18.8935 21.0915 18.9516 21.0107 19.0276C20.9836 19.0515 18.2862 21.4891 13.2664 21.4891C8.30897 21.4891 5.57001 19.0689 5.52122 19.0248C5.44032 18.9492 5.34487 18.8915 5.2409 18.8553C5.13694 18.819 5.0267 18.8051 4.91717 18.8143C4.80763 18.8236 4.70117 18.8558 4.60449 18.9089C4.50782 18.962 4.42304 19.035 4.35551 19.1231C4.21086 19.3065 4.14013 19.5388 4.15761 19.7731C4.17288 20.0063 4.27576 20.2245 4.44497 20.3828C4.57329 20.5003 7.64118 23.2749 13.2664 23.2749C18.8925 23.2749 21.9604 20.5003 22.0887 20.3828C22.2576 20.2244 22.3601 20.0061 22.3752 19.7731C22.3927 19.5392 22.3223 19.3073 22.1782 19.124Z" fill="white"/>
</g>
<defs>
<clipPath id="clip0_756_227">
<rect width="25.3022" height="29.3805" fill="white" transform="translate(0.616211 0.744629)"/>
</clipPath>
</defs>
</svg>
