<svg width="24" height="20" viewBox="0 0 24 20" fill="none" xmlns="http://www.w3.org/2000/svg">
<path d="M12.4561 5.88379H14.0811V10.4541L17.8896 12.7393L17.0771 14.0596L12.4561 11.2666V5.88379ZM6.61621 3.29395C8.5459 1.39811 10.848 0.450195 13.5225 0.450195C16.1969 0.450195 18.4821 1.39811 20.3779 3.29395C22.3076 5.18978 23.2725 7.49186 23.2725 10.2002C23.2725 12.9085 22.3076 15.2106 20.3779 17.1064C18.4821 19.0023 16.1969 19.9502 13.5225 19.9502C10.848 19.9502 8.56283 19.0023 6.66699 17.1064L8.19043 15.5322C9.68001 17.0218 11.4574 17.7666 13.5225 17.7666C15.6214 17.7666 17.4157 17.0387 18.9053 15.583C20.3949 14.0934 21.1396 12.2992 21.1396 10.2002C21.1396 8.10124 20.3949 6.32389 18.9053 4.86816C17.4157 3.37858 15.6214 2.63379 13.5225 2.63379C11.4235 2.63379 9.62923 3.37858 8.13965 4.86816C6.68392 6.32389 5.95605 8.10124 5.95605 10.2002H9.20605L4.83887 14.5674L4.7373 14.415L0.522461 10.2002H3.77246C3.77246 7.49186 4.72038 5.18978 6.61621 3.29395Z" fill="#555555"/>
</svg>
