<svg width="15" height="15" viewBox="0 0 15 15" fill="none" xmlns="http://www.w3.org/2000/svg">
<path d="M14.6328 0.178467L12.6406 2.17065C13.1875 2.69149 13.6562 3.42065 14.0469 4.35815C14.4375 5.26961 14.6328 6.10295 14.6328 6.85815C14.6328 8.08211 14.2943 9.25399 13.6172 10.3738L12.3672 9.16284C12.7578 8.38159 12.9531 7.61336 12.9531 6.85815C12.9531 6.28524 12.8099 5.66024 12.5234 4.98315C12.237 4.30607 11.8854 3.7592 11.4688 3.34253L9.63281 5.17847V0.178467H14.6328ZM0.335938 1.35034L1.39062 0.295654L14.4766 13.4207L13.4219 14.4753L11.4688 12.5222C10.8438 12.8868 10.2188 13.1472 9.59375 13.3035V11.5847C9.80208 11.5066 10.0234 11.4024 10.2578 11.2722L3.53906 4.55347C3.14844 5.33472 2.95312 6.10295 2.95312 6.85815C2.95312 7.43107 3.09635 8.05607 3.38281 8.73315C3.66927 9.41024 4.02083 9.95711 4.4375 10.3738L6.27344 8.53784V13.5378H1.27344L3.26562 11.5457C2.71875 11.0248 2.25 10.3087 1.85938 9.39722C1.46875 8.45972 1.27344 7.61336 1.27344 6.85815C1.27344 5.6342 1.61198 4.46232 2.28906 3.34253L0.335938 1.35034ZM6.27344 2.13159C6.11719 2.18368 5.90885 2.28784 5.64844 2.44409L4.4375 1.19409C5.08854 0.803467 5.70052 0.54305 6.27344 0.412842V2.13159Z" fill="black" fill-opacity="0.2"/>
</svg>
