<svg width="22" height="12" viewBox="0 0 22 12" fill="none" xmlns="http://www.w3.org/2000/svg">
<path d="M16.5254 0.963867C18.015 0.963867 19.2845 1.50553 20.334 2.58887C21.3835 3.63835 21.9082 4.90788 21.9082 6.39746C21.9082 7.88704 21.3835 9.1735 20.334 10.2568C19.2845 11.3063 18.015 11.8311 16.5254 11.8311H12.1582V9.74902H16.5254C17.4395 9.74902 18.2181 9.42741 18.8613 8.78418C19.5384 8.1071 19.877 7.31152 19.877 6.39746C19.877 5.4834 19.5384 4.70475 18.8613 4.06152C18.2181 3.38444 17.4395 3.0459 16.5254 3.0459H12.1582V0.963867H16.5254ZM6.77539 7.46387V5.33105H15.4082V7.46387H6.77539ZM3.27148 4.06152C2.62826 4.70475 2.30664 5.4834 2.30664 6.39746C2.30664 7.31152 2.62826 8.1071 3.27148 8.78418C3.94857 9.42741 4.74414 9.74902 5.6582 9.74902H10.0254V11.8311H5.6582C4.16862 11.8311 2.89909 11.3063 1.84961 10.2568C0.80013 9.1735 0.275391 7.88704 0.275391 6.39746C0.275391 4.90788 0.80013 3.63835 1.84961 2.58887C2.89909 1.50553 4.16862 0.963867 5.6582 0.963867H10.0254V3.0459H5.6582C4.74414 3.0459 3.94857 3.38444 3.27148 4.06152Z" fill="black"/>
</svg>
