<svg width="28" height="18" viewBox="0 0 28 18" fill="none" xmlns="http://www.w3.org/2000/svg">
<path d="M7.50098 4.03174H0.875977V1.34424H7.50098V4.03174ZM7.50098 8.03174H0.875977V10.7192H7.50098V8.03174ZM25.626 17.3442L20.5635 12.2817C20.0218 12.6151 19.4385 12.8859 18.8135 13.0942C18.1885 13.2609 17.5426 13.3442 16.876 13.3442C15.626 13.3442 14.501 13.0526 13.501 12.4692C12.501 11.8859 11.6885 11.0942 11.0635 10.0942C10.4801 9.05257 10.1885 7.92757 10.1885 6.71924C10.1885 5.46924 10.4801 4.34424 11.0635 3.34424C11.6885 2.34424 12.501 1.55257 13.501 0.969238C14.501 0.344238 15.626 0.0317383 16.876 0.0317383C18.0843 0.0317383 19.1885 0.344238 20.1885 0.969238C21.2301 1.55257 22.0426 2.34424 22.626 3.34424C23.2093 4.34424 23.501 5.46924 23.501 6.71924C23.501 7.3859 23.3968 8.03174 23.1885 8.65674C23.0218 9.28174 22.7718 9.84424 22.4385 10.3442L27.501 15.4692L25.626 17.3442ZM20.876 6.71924C20.876 5.96924 20.6885 5.30257 20.3135 4.71924C19.9385 4.09424 19.4385 3.61507 18.8135 3.28174C18.2301 2.90674 17.5843 2.71924 16.876 2.71924C16.126 2.71924 15.4385 2.90674 14.8135 3.28174C14.2301 3.61507 13.751 4.09424 13.376 4.71924C13.0426 5.30257 12.876 5.96924 12.876 6.71924C12.876 7.42757 13.0426 8.09424 13.376 8.71924C13.751 9.30257 14.2301 9.78174 14.8135 10.1567C15.4385 10.5317 16.126 10.7192 16.876 10.7192C17.5843 10.7192 18.2301 10.5317 18.8135 10.1567C19.4385 9.78174 19.9385 9.30257 20.3135 8.71924C20.6885 8.09424 20.876 7.42757 20.876 6.71924ZM0.875977 17.3442H14.1885V14.7192H0.875977V17.3442Z" fill="#555555"/>
</svg>
