<svg width="24" height="17" viewBox="0 0 24 17" fill="none" xmlns="http://www.w3.org/2000/svg">
<path d="M9.73926 5.94727C10.3825 5.30404 11.1442 4.98242 12.0244 4.98242C12.9046 4.98242 13.6663 5.30404 14.3096 5.94727C14.9528 6.59049 15.2744 7.35221 15.2744 8.23242C15.2744 9.11263 14.9528 9.87435 14.3096 10.5176C13.6663 11.1608 12.9046 11.4824 12.0244 11.4824C11.1442 11.4824 10.3825 11.1608 9.73926 10.5176C9.09603 9.87435 8.77441 9.11263 8.77441 8.23242C8.77441 7.35221 9.09603 6.59049 9.73926 5.94727ZM8.16504 12.0918C9.24837 13.1413 10.5348 13.666 12.0244 13.666C13.514 13.666 14.7835 13.1413 15.833 12.0918C16.9163 11.0085 17.458 9.72201 17.458 8.23242C17.458 6.74284 16.9163 5.47331 15.833 4.42383C14.7835 3.34049 13.514 2.79883 12.0244 2.79883C10.5348 2.79883 9.24837 3.34049 8.16504 4.42383C7.11556 5.47331 6.59082 6.74284 6.59082 8.23242C6.59082 9.72201 7.11556 11.0085 8.16504 12.0918ZM4.7627 2.3418C6.92936 0.852214 9.34993 0.107422 12.0244 0.107422C14.6989 0.107422 17.1195 0.852214 19.2861 2.3418C21.4528 3.83138 23.0101 5.79492 23.958 8.23242C23.0101 10.6699 21.4528 12.6335 19.2861 14.123C17.1195 15.6126 14.6989 16.3574 12.0244 16.3574C9.34993 16.3574 6.92936 15.6126 4.7627 14.123C2.59603 12.6335 1.03874 10.6699 0.0908203 8.23242C1.03874 5.79492 2.59603 3.83138 4.7627 2.3418Z" fill="#555555"/>
</svg>
