<svg width="23" height="23" viewBox="0 0 23 23" fill="none" xmlns="http://www.w3.org/2000/svg">
<path d="M13.9753 11.1714V7.92139H15.0417V11.1714H13.9753ZM3.10815 5.22998V20.4136H18.2917V22.5464H3.10815C2.53263 22.5464 2.02482 22.3433 1.58472 21.937C1.17847 21.4969 0.975342 20.9891 0.975342 20.4136V5.22998H3.10815ZM8.54175 9.03857V7.92139H9.60815V9.03857H8.54175ZM20.9832 7.92139V6.29639H17.7332V12.7964H19.3582V10.6636H20.9832V9.03857H19.3582V7.92139H20.9832ZM16.6667 11.1714V7.92139C16.6667 7.48128 16.5144 7.10889 16.2097 6.8042C15.905 6.46566 15.5157 6.29639 15.0417 6.29639H12.3503V12.7964H15.0417C15.5157 12.7964 15.905 12.644 16.2097 12.3394C16.5144 12.0008 16.6667 11.6115 16.6667 11.1714ZM11.2332 9.03857V7.92139C11.2332 7.48128 11.0639 7.10889 10.7253 6.8042C10.4207 6.46566 10.0483 6.29639 9.60815 6.29639H6.91675V12.7964H8.54175V10.6636H9.60815C10.0483 10.6636 10.4207 10.5112 10.7253 10.2065C11.0639 9.868 11.2332 9.47868 11.2332 9.03857ZM20.4753 0.913574C21.0509 0.913574 21.5417 1.13363 21.948 1.57373C22.3881 1.97998 22.6082 2.47087 22.6082 3.04639V16.0464C22.6082 16.6219 22.3881 17.1297 21.948 17.5698C21.5417 18.0099 21.0509 18.23 20.4753 18.23H7.47534C6.89982 18.23 6.39201 18.0099 5.9519 17.5698C5.5118 17.1297 5.29175 16.6219 5.29175 16.0464V3.04639C5.29175 2.47087 5.5118 1.97998 5.9519 1.57373C6.39201 1.13363 6.89982 0.913574 7.47534 0.913574H20.4753Z" fill="#555555"/>
</svg>
