<svg width="21" height="20" viewBox="0 0 21 20" fill="none" xmlns="http://www.w3.org/2000/svg">
<path d="M13.6545 6.69092V2.37451H2.83813V6.69092H13.6545ZM8.11938 16.5425C8.76261 17.1857 9.52433 17.5073 10.4045 17.5073C11.2847 17.5073 12.0465 17.1857 12.6897 16.5425C13.3329 15.8993 13.6545 15.1375 13.6545 14.2573C13.6545 13.3771 13.3329 12.6154 12.6897 11.9722C12.0465 11.3289 11.2847 11.0073 10.4045 11.0073C9.52433 11.0073 8.76261 11.3289 8.11938 11.9722C7.47616 12.6154 7.15454 13.3771 7.15454 14.2573C7.15454 15.1375 7.47616 15.8993 8.11938 16.5425ZM15.8381 0.190918L20.1545 4.50732V17.5073C20.1545 18.0828 19.9345 18.5907 19.4944 19.0308C19.0543 19.4709 18.5465 19.6909 17.9709 19.6909H2.83813C2.22876 19.6909 1.70402 19.4878 1.26392 19.0815C0.857666 18.6414 0.654541 18.1167 0.654541 17.5073V2.37451C0.654541 1.76514 0.857666 1.25732 1.26392 0.851074C1.70402 0.41097 2.22876 0.190918 2.83813 0.190918H15.8381Z" fill="#8ECC3C"/>
</svg>
