<svg width="20" height="21" viewBox="0 0 20 21" fill="none" xmlns="http://www.w3.org/2000/svg">
<path d="M4.81641 6.07764L0.500002 6.07763L0.500002 0.644041L5.9336 0.644041L5.9336 3.94482L10.25 8.51514L14.5664 3.94482L14.5664 0.644042L20 0.644043L20 6.07764L15.6836 6.07764L11.3164 10.394L11.3164 13.8472C11.9596 14.0841 12.4844 14.4735 12.8906 15.0151C13.2969 15.5568 13.5 16.1831 13.5 16.894C13.5 17.7743 13.1784 18.536 12.5352 19.1792C11.8919 19.8224 11.1302 20.144 10.25 20.144C9.36979 20.144 8.60807 19.8224 7.96484 19.1792C7.32162 18.536 7 17.7742 7 16.894C7 16.1831 7.20313 15.5568 7.60938 15.0151C8.01563 14.4735 8.54037 14.0841 9.18359 13.8472L9.1836 10.394L4.81641 6.07764Z" fill="white"/>
</svg>
