<svg width="20" height="22" viewBox="0 0 20 22" fill="none" xmlns="http://www.w3.org/2000/svg">
<path d="M4.80762 9.92871H10.2412V15.3623H4.80762V9.92871ZM17.8076 19.6787V7.7959H2.6748V19.6787H17.8076ZM17.8076 2.3623C18.3831 2.3623 18.891 2.58236 19.3311 3.02246C19.7712 3.46257 19.9912 3.97038 19.9912 4.5459V19.6787C19.9912 20.2542 19.7712 20.762 19.3311 21.2021C18.891 21.6423 18.3831 21.8623 17.8076 21.8623H2.6748C2.06543 21.8623 1.54069 21.6592 1.10059 21.2529C0.694336 20.8128 0.491211 20.2881 0.491211 19.6787V4.5459C0.491211 3.97038 0.694336 3.46257 1.10059 3.02246C1.54069 2.58236 2.06543 2.3623 2.6748 2.3623H3.74121V0.178711H5.9248V2.3623H14.5576V0.178711H16.7412V2.3623H17.8076Z" fill="black" fill-opacity="0.6"/>
</svg>
