<svg width="23" height="16" viewBox="0 0 23 16" fill="none" xmlns="http://www.w3.org/2000/svg">
<path d="M16.4453 8.95605H13.6953V5.30371H10V8.95605H7.25L11.8477 13.5537L16.4453 8.95605ZM18.5938 6.24902C19.7682 6.33496 20.7708 6.82194 21.6016 7.70996C22.4323 8.56934 22.8477 9.60059 22.8477 10.8037C22.8477 12.0641 22.3893 13.1527 21.4727 14.0693C20.5846 14.9574 19.5104 15.4014 18.25 15.4014H6.34766C4.82943 15.4014 3.52604 14.8714 2.4375 13.8115C1.3776 12.723 0.847656 11.4196 0.847656 9.90137C0.847656 8.55501 1.32031 7.35189 2.26562 6.29199C3.23958 5.20345 4.39974 4.58757 5.74609 4.44434C6.34766 3.32715 7.19271 2.4248 8.28125 1.7373C9.36979 1.0498 10.5586 0.706055 11.8477 0.706055C13.3945 0.706055 14.8268 1.25033 16.1445 2.33887C17.4909 3.42741 18.3073 4.73079 18.5938 6.24902Z" fill="black"/>
</svg>
