<svg width="25" height="25" viewBox="0 0 25 25" fill="none" xmlns="http://www.w3.org/2000/svg">
<path d="M22.2008 16.6162V3.30371H3.51326V16.6162H8.88826C8.88826 17.6995 9.2841 18.637 10.0758 19.4287C10.8674 20.2204 11.8049 20.6162 12.8883 20.6162C13.9716 20.6162 14.9091 20.2204 15.7008 19.4287C16.4924 18.637 16.8883 17.6995 16.8883 16.6162H22.2008ZM22.2008 0.616211C22.9508 0.616211 23.5758 0.887044 24.0758 1.42871C24.6174 1.92871 24.8883 2.55371 24.8883 3.30371V21.9287C24.8883 22.637 24.6174 23.262 24.0758 23.8037C23.5341 24.3454 22.9091 24.6162 22.2008 24.6162H3.51326C2.76326 24.6162 2.13826 24.3662 1.63826 23.8662C1.13826 23.3245 0.888264 22.6787 0.888264 21.9287V3.30371C0.888264 2.55371 1.13826 1.92871 1.63826 1.42871C2.13826 0.887044 2.76326 0.616211 3.51326 0.616211H22.2008Z" fill="black"/>
</svg>
