<svg width="23" height="23" viewBox="0 0 23 23" fill="none" xmlns="http://www.w3.org/2000/svg">
<path d="M14.5811 10.4199C15.2581 9.74284 15.5967 8.93034 15.5967 7.98242C15.5967 6.79753 15.1735 5.7819 14.3271 4.93555C13.4808 4.08919 12.4652 3.66602 11.2803 3.66602C10.0954 3.66602 9.07975 4.08919 8.2334 4.93555C7.38704 5.7819 6.96387 6.79753 6.96387 7.98242H9.09668C9.09668 7.4069 9.31673 6.89909 9.75684 6.45898C10.1969 6.01888 10.7048 5.79883 11.2803 5.79883C11.8558 5.79883 12.3636 6.01888 12.8037 6.45898C13.2438 6.89909 13.4639 7.4069 13.4639 7.98242C13.4639 8.55794 13.2438 9.06576 12.8037 9.50586L11.4834 10.877C10.637 11.791 10.2139 12.8066 10.2139 13.9238V14.4824H12.3467C12.3467 13.3652 12.7699 12.3496 13.6162 11.4355L14.5811 10.4199ZM12.3467 18.7988V16.666H10.2139V18.7988H12.3467ZM3.6123 3.61523C5.74512 1.48242 8.30111 0.416016 11.2803 0.416016C14.2594 0.416016 16.7985 1.48242 18.8975 3.61523C21.0303 5.71419 22.0967 8.25326 22.0967 11.2324C22.0967 14.2116 21.0303 16.7676 18.8975 18.9004C16.7985 20.9993 14.2594 22.0488 11.2803 22.0488C8.30111 22.0488 5.74512 20.9993 3.6123 18.9004C1.51335 16.7676 0.463867 14.2116 0.463867 11.2324C0.463867 8.25326 1.51335 5.71419 3.6123 3.61523Z" fill="black" fill-opacity="0.3"/>
</svg>
