<svg width="18" height="19" viewBox="0 0 18 19" fill="none" xmlns="http://www.w3.org/2000/svg">
<path d="M5.83582 3.70215L7.90614 4.87402L6.73426 2.80371L7.90614 0.733398L5.83582 1.90527L3.76551 0.733398L4.93739 2.80371L3.76551 4.87402L5.83582 3.70215ZM15.8358 11.9053L13.7655 10.7334L14.9374 12.8037L13.7655 14.874L15.8358 13.7021L17.9061 14.874L16.7343 12.8037L17.9061 10.7334L15.8358 11.9053ZM17.9061 0.733398L15.8358 1.90527L13.7655 0.733398L14.9374 2.80371L13.7655 4.87402L15.8358 3.70215L17.9061 4.87402L16.7343 2.80371L17.9061 0.733398ZM11.578 5.14746C11.3957 4.96517 11.1874 4.87402 10.953 4.87402C10.7447 4.87402 10.5494 4.96517 10.3671 5.14746L0.679573 14.835C0.497281 15.0173 0.406136 15.2256 0.406136 15.46C0.406136 15.6683 0.497281 15.8636 0.679573 16.0459L2.59364 17.96C2.77593 18.1423 2.97124 18.2334 3.17957 18.2334C3.41395 18.2334 3.62228 18.1423 3.80457 17.96L13.4921 8.27246C13.6744 8.09017 13.7655 7.89486 13.7655 7.68652C13.7655 7.45215 13.6744 7.25684 13.4921 7.10059L11.578 5.14746ZM10.7186 9.71777L8.92176 7.9209L10.953 5.88965L12.7499 7.68652L10.7186 9.71777Z" fill="#666666"/>
</svg>
