<svg width="25" height="22" viewBox="0 0 25 22" fill="none" xmlns="http://www.w3.org/2000/svg">
<path d="M20.2637 4.43359V2.25H2.89648V4.43359H20.2637ZM20.2637 15.25V8.75H2.89648V15.25H20.2637ZM20.2637 0.0664062C20.873 0.0664062 21.3809 0.286458 21.7871 0.726562C22.1934 1.13281 22.3965 1.64062 22.3965 2.25V15.25C22.3965 15.8594 22.1934 16.3841 21.7871 16.8242C21.3809 17.2305 20.873 17.4336 20.2637 17.4336H2.89648C2.28711 17.4336 1.7793 17.2305 1.37305 16.8242C0.966797 16.3841 0.763672 15.8594 0.763672 15.25V2.25C0.763672 1.64062 0.966797 1.13281 1.37305 0.726562C1.7793 0.286458 2.28711 0.0664062 2.89648 0.0664062H20.2637Z" fill="#5A5A59"/>
</svg>
