<svg width="19" height="18" viewBox="0 0 19 18" fill="none" xmlns="http://www.w3.org/2000/svg">
<path d="M14.7676 0.803711V4.45605H3.76758V0.803711H14.7676ZM15.0254 8.7959C15.1973 8.96777 15.4121 9.05371 15.6699 9.05371C15.9277 9.05371 16.1426 8.96777 16.3145 8.7959C16.515 8.62402 16.6152 8.40918 16.6152 8.15137C16.6152 7.89355 16.515 7.67871 16.3145 7.50684C16.1426 7.30632 15.9277 7.20605 15.6699 7.20605C15.4121 7.20605 15.1973 7.30632 15.0254 7.50684C14.8535 7.67871 14.7676 7.89355 14.7676 8.15137C14.7676 8.40918 14.8535 8.62402 15.0254 8.7959ZM12.9199 15.4561V10.9014H5.61523V15.4561H12.9199ZM15.6699 5.40137C16.4147 5.40137 17.0592 5.6735 17.6035 6.21777C18.1478 6.76204 18.4199 7.40658 18.4199 8.15137V13.6514H14.7676V17.3037H3.76758V13.6514H0.115234V8.15137C0.115234 7.40658 0.38737 6.76204 0.931641 6.21777C1.47591 5.6735 2.12044 5.40137 2.86523 5.40137H15.6699Z" fill="black"/>
</svg>
