<svg width="19" height="19" viewBox="0 0 19 19" fill="none" xmlns="http://www.w3.org/2000/svg">
<path d="M15.543 3.29956L18.082 0.760498V8.37769H10.4648L13.9688 4.87378C12.6823 3.58732 11.1589 2.94409 9.39844 2.94409C7.60417 2.94409 6.0638 3.58732 4.77734 4.87378C3.52474 6.12638 2.89844 7.64982 2.89844 9.44409C2.89844 11.2384 3.52474 12.7787 4.77734 14.0652C6.0638 15.3178 7.60417 15.9441 9.39844 15.9441C10.651 15.9441 11.8698 15.5209 13.0547 14.6746C14.2734 13.8282 15.1029 12.8126 15.543 11.6277H17.7773C17.3034 13.5235 16.2878 15.0808 14.7305 16.2996C13.1732 17.5183 11.3958 18.1277 9.39844 18.1277C7.02865 18.1277 4.9974 17.2813 3.30469 15.5886C1.61198 13.8959 0.765625 11.8477 0.765625 9.44409C0.765625 7.04045 1.61198 4.99227 3.30469 3.29956C4.9974 1.60685 7.02865 0.760498 9.39844 0.760498C10.4141 0.760498 11.5143 1.0144 12.6992 1.52222C13.918 1.99618 14.8659 2.58862 15.543 3.29956Z" fill="#555555"/>
</svg>
