<svg width="20" height="20" viewBox="0 0 20 20" fill="none" xmlns="http://www.w3.org/2000/svg">
<path d="M13.25 17.1816C14.9766 17.1816 16.5 16.6061 17.8203 15.4551L19.75 17.3848C17.9219 19.0436 15.7552 19.873 13.25 19.873C11.151 19.873 9.25521 19.2637 7.5625 18.0449C5.90365 16.8262 4.73568 15.2689 4.05859 13.373H0.25V11.1895H3.55078C3.51693 10.9863 3.5 10.6309 3.5 10.123C3.5 9.61523 3.51693 9.25977 3.55078 9.05664H0.25V6.87305H4.05859C4.73568 4.97721 5.90365 3.41992 7.5625 2.20117C9.25521 0.982422 11.151 0.373047 13.25 0.373047C14.2656 0.373047 15.4167 0.626953 16.7031 1.13477C17.9896 1.60872 19.0052 2.18424 19.75 2.86133L17.8203 4.79102C16.5 3.63997 14.9766 3.06445 13.25 3.06445C12.0651 3.06445 10.8633 3.43685 9.64453 4.18164C8.42578 4.92643 7.54557 5.82357 7.00391 6.87305H13.25V9.05664H6.29297C6.22526 9.5306 6.19141 9.88607 6.19141 10.123C6.19141 10.36 6.22526 10.7155 6.29297 11.1895H13.25V13.373H7.00391C7.54557 14.4225 8.42578 15.3197 9.64453 16.0645C10.8633 16.8092 12.0651 17.1816 13.25 17.1816Z" fill="white"/>
</svg>
