<?xml version="1.0" encoding="utf-8"?>
<!-- Generator: Adobe Illustrator 26.5.0, SVG Export Plug-In . SVG Version: 6.00 Build 0)  -->
<svg version="1.1" id="Camada_1" xmlns="http://www.w3.org/2000/svg" xmlns:xlink="http://www.w3.org/1999/xlink" x="0px" y="0px"
	 viewBox="0 0 21 16.3" style="enable-background:new 0 0 21 16.3;" xml:space="preserve">
<path d="M16.5,5.1V3.7l-6,3.8l-6-3.8v1.5l6,3.8L16.5,5.1z M16.5,2.1c0.4,0,0.7,0.2,1,0.5c0.3,0.3,0.5,0.7,0.5,1.1v9
	c0,0.4-0.2,0.7-0.5,1.1c-0.2,0.3-0.7,0.5-1,0.5H4.5c-0.4,0-0.7-0.2-1.1-0.5c-0.2-0.3-0.4-0.7-0.4-1.1v-9c0-0.4,0.2-0.7,0.4-1.1
	c0.3-0.3,0.7-0.5,1.1-0.5C4.5,2.1,16.5,2.1,16.5,2.1z"/>
</svg>
