<svg width="6" height="18" viewBox="0 0 6 18" fill="none" xmlns="http://www.w3.org/2000/svg">
<path d="M1.56738 13.874C2.00749 13.4339 2.5153 13.2139 3.09082 13.2139C3.66634 13.2139 4.17415 13.4339 4.61426 13.874C5.05436 14.3141 5.27441 14.8219 5.27441 15.3975C5.27441 15.973 5.05436 16.4808 4.61426 16.9209C4.17415 17.361 3.66634 17.5811 3.09082 17.5811C2.5153 17.5811 2.00749 17.361 1.56738 16.9209C1.12728 16.4808 0.907227 15.973 0.907227 15.3975C0.907227 14.8219 1.12728 14.3141 1.56738 13.874ZM1.56738 7.37402C2.00749 6.93392 2.5153 6.71387 3.09082 6.71387C3.66634 6.71387 4.17415 6.93392 4.61426 7.37402C5.05436 7.81413 5.27441 8.32194 5.27441 8.89746C5.27441 9.47298 5.05436 9.98079 4.61426 10.4209C4.17415 10.861 3.66634 11.0811 3.09082 11.0811C2.5153 11.0811 2.00749 10.861 1.56738 10.4209C1.12728 9.98079 0.907227 9.47298 0.907227 8.89746C0.907227 8.32194 1.12728 7.81413 1.56738 7.37402ZM4.61426 3.9209C4.17415 4.361 3.66634 4.58105 3.09082 4.58105C2.5153 4.58105 2.00749 4.361 1.56738 3.9209C1.12728 3.48079 0.907227 2.97298 0.907227 2.39746C0.907227 1.82194 1.12728 1.31413 1.56738 0.874023C2.00749 0.433919 2.5153 0.213867 3.09082 0.213867C3.66634 0.213867 4.17415 0.433919 4.61426 0.874023C5.05436 1.31413 5.27441 1.82194 5.27441 2.39746C5.27441 2.97298 5.05436 3.48079 4.61426 3.9209Z" fill="black" fill-opacity="0.75"/>
</svg>
