<svg width="22" height="23" viewBox="0 0 22 23" fill="none" xmlns="http://www.w3.org/2000/svg">
<path d="M16.5244 15.3076L12.6143 11.3975L16.5244 7.4873L15.001 5.96387L11.0908 9.87402L7.18066 5.96387L5.65723 7.4873L9.56738 11.3975L5.65723 15.3076L7.18066 16.8311L11.0908 12.9209L15.001 16.8311L16.5244 15.3076ZM3.42285 3.78027C5.55566 1.64746 8.11165 0.581055 11.0908 0.581055C14.07 0.581055 16.609 1.64746 18.708 3.78027C20.8408 5.87923 21.9072 8.41829 21.9072 11.3975C21.9072 14.3766 20.8408 16.9326 18.708 19.0654C16.609 21.1644 14.07 22.2139 11.0908 22.2139C8.11165 22.2139 5.55566 21.1644 3.42285 19.0654C1.32389 16.9326 0.274414 14.3766 0.274414 11.3975C0.274414 8.41829 1.32389 5.87923 3.42285 3.78027Z" fill="black" fill-opacity="0.75"/>
</svg>
