<svg width="27" height="18" viewBox="0 0 27 18" fill="none" xmlns="http://www.w3.org/2000/svg">
<path d="M15.7637 9.81641H19.0137L13.5801 4.43359L8.14648 9.81641H11.3965V14.1836H15.7637V9.81641ZM21.5527 6.61719C22.9408 6.71875 24.1257 7.29427 25.1074 8.34375C26.0892 9.35938 26.5801 10.5781 26.5801 12C26.5801 13.4896 26.0384 14.776 24.9551 15.8594C23.9056 16.9089 22.6361 17.4336 21.1465 17.4336H7.08008C5.28581 17.4336 3.74544 16.8073 2.45898 15.5547C1.20638 14.2682 0.580078 12.7279 0.580078 10.9336C0.580078 9.27474 1.13867 7.83594 2.25586 6.61719C3.37305 5.36458 4.74414 4.65365 6.36914 4.48438C7.08008 3.16406 8.07878 2.09766 9.36523 1.28516C10.6517 0.472656 12.0566 0.0664062 13.5801 0.0664062C15.5436 0.0664062 17.2702 0.692708 18.7598 1.94531C20.2493 3.16406 21.1803 4.72135 21.5527 6.61719Z" fill="#5A5A59"/>
</svg>
