<svg width="13" height="25" viewBox="0 0 13 25" fill="none" xmlns="http://www.w3.org/2000/svg">
<path d="M11.125 5.771H12.75V18.2124C12.75 19.8713 12.1745 21.2931 11.0234 22.478C9.8724 23.6291 8.46745 24.2046 6.80859 24.2046C5.14974 24.2046 3.72786 23.6291 2.54297 22.478C1.39193 21.2931 0.816406 19.8713 0.816406 18.2124V4.70459C0.816406 3.51969 1.23958 2.50407 2.08594 1.65771C2.96615 0.777507 3.9987 0.337402 5.18359 0.337402C6.36849 0.337402 7.38411 0.777507 8.23047 1.65771C9.07682 2.50407 9.5 3.51969 9.5 4.70459V16.0796C9.5 16.8244 9.22917 17.4676 8.6875 18.0093C8.17969 18.5171 7.55339 18.771 6.80859 18.771C6.0638 18.771 5.42057 18.5171 4.87891 18.0093C4.33724 17.4676 4.06641 16.8244 4.06641 16.0796V5.771H5.69141V16.0796C5.69141 16.3843 5.79297 16.6382 5.99609 16.8413C6.23307 17.0444 6.50391 17.146 6.80859 17.146C7.11328 17.146 7.36719 17.0444 7.57031 16.8413C7.77344 16.6382 7.875 16.3843 7.875 16.0796V4.70459C7.875 3.9598 7.60417 3.31657 7.0625 2.7749C6.55469 2.23324 5.92839 1.9624 5.18359 1.9624C4.4388 1.9624 3.79557 2.23324 3.25391 2.7749C2.71224 3.31657 2.44141 3.9598 2.44141 4.70459V18.2124C2.44141 19.3973 2.86458 20.4299 3.71094 21.3101C4.59115 22.1564 5.6237 22.5796 6.80859 22.5796C7.99349 22.5796 9.00911 22.1564 9.85547 21.3101C10.7018 20.4299 11.125 19.3973 11.125 18.2124V5.771Z" fill="white"/>
</svg>
