<svg width="18" height="23" viewBox="0 0 18 23" fill="none" xmlns="http://www.w3.org/2000/svg">
<path d="M10.3164 8.021H16.3086L10.3164 2.07959V8.021ZM13.5664 13.4546V11.271H4.93359V13.4546H13.5664ZM13.5664 17.771V15.5874H4.93359V17.771H13.5664ZM11.4336 0.45459L17.9336 6.95459V19.9546C17.9336 20.5301 17.7135 21.0379 17.2734 21.478C16.8333 21.8843 16.3255 22.0874 15.75 22.0874H2.75C2.17448 22.0874 1.66667 21.8843 1.22656 21.478C0.786458 21.0379 0.566406 20.5301 0.566406 19.9546L0.617188 2.5874C0.617188 2.01188 0.820312 1.521 1.22656 1.11475C1.66667 0.674642 2.17448 0.45459 2.75 0.45459H11.4336Z" fill="white"/>
</svg>
