<svg width="20" height="20" viewBox="0 0 20 20" fill="none" xmlns="http://www.w3.org/2000/svg">
<path d="M4.13574 10.6199C5.08366 11.5678 6.2347 12.0417 7.58887 12.0417C8.94303 12.0417 10.0941 11.5678 11.042 10.6199C11.9899 9.67196 12.4639 8.52091 12.4639 7.16675C12.4639 5.81258 11.9899 4.66154 11.042 3.71362C10.0941 2.76571 8.94303 2.29175 7.58887 2.29175C6.2347 2.29175 5.08366 2.76571 4.13574 3.71362C3.18783 4.66154 2.71387 5.81258 2.71387 7.16675C2.71387 8.52091 3.18783 9.67196 4.13574 10.6199ZM14.0889 12.0417L19.4717 17.4246L17.8467 19.0496L12.4639 13.6667V12.8035L12.1592 12.4988C10.8727 13.616 9.34928 14.1746 7.58887 14.1746C5.62533 14.1746 3.94954 13.4975 2.56152 12.1433C1.20736 10.7891 0.530273 9.13029 0.530273 7.16675C0.530273 5.20321 1.20736 3.54435 2.56152 2.19019C3.94954 0.802165 5.62533 0.108154 7.58887 0.108154C9.55241 0.108154 11.2113 0.802165 12.5654 2.19019C13.9196 3.54435 14.5967 5.20321 14.5967 7.16675C14.5967 7.87769 14.4274 8.69019 14.0889 9.60425C13.7503 10.4845 13.361 11.1954 12.9209 11.7371L13.2256 12.0417H14.0889Z" fill="black" fill-opacity="0.6"/>
</svg>
