<svg width="18" height="23" viewBox="0 0 18 23" fill="none" xmlns="http://www.w3.org/2000/svg">
<path d="M6.96484 14.7456C6.32161 14.1024 6 13.3407 6 12.4604C6 11.5802 6.32161 10.8185 6.96484 10.1753C7.60807 9.53206 8.36979 9.21045 9.25 9.21045C10.1302 9.21045 10.8919 9.53206 11.5352 10.1753C12.1784 10.8185 12.5 11.5802 12.5 12.4604C12.5 13.3407 12.1784 14.1024 11.5352 14.7456C10.8919 15.3888 10.1302 15.7104 9.25 15.7104C8.36979 15.7104 7.60807 15.3888 6.96484 14.7456ZM17.9336 19.6206L13.7695 15.4565C14.3789 14.5086 14.6836 13.5099 14.6836 12.4604C14.6836 10.9709 14.1419 9.70133 13.0586 8.65186C12.0091 7.60238 10.7396 7.07764 9.25 7.07764C7.76042 7.07764 6.47396 7.60238 5.39062 8.65186C4.34115 9.70133 3.81641 10.9709 3.81641 12.4604C3.81641 13.95 4.34115 15.2365 5.39062 16.3198C6.47396 17.3693 7.76042 17.894 9.25 17.894C10.2995 17.894 11.2982 17.5894 12.2461 16.98L17.0195 21.8042C16.6471 22.075 16.224 22.2104 15.75 22.2104H2.75C2.17448 22.2104 1.66667 22.0073 1.22656 21.6011C0.786458 21.161 0.566406 20.6532 0.566406 20.0776L0.617188 2.71045C0.617188 2.13493 0.820312 1.64404 1.22656 1.23779C1.66667 0.797689 2.17448 0.577637 2.75 0.577637H11.4336L17.9336 7.07764V19.6206Z" fill="white"/>
</svg>
