<svg width="16" height="21" viewBox="0 0 16 21" fill="none" xmlns="http://www.w3.org/2000/svg">
<path d="M11.1559 7.40137V5.55371C11.1559 4.78027 10.8694 4.12142 10.2965 3.57715C9.75225 3.00423 9.09339 2.71777 8.31995 2.71777C7.54652 2.71777 6.87334 3.00423 6.30042 3.57715C5.75615 4.12142 5.48402 4.78027 5.48402 5.55371V7.40137H11.1559ZM7.03089 15.0928C7.40329 15.4652 7.83297 15.6514 8.31995 15.6514C8.80693 15.6514 9.23662 15.4652 9.60902 15.0928C9.98141 14.7204 10.1676 14.2907 10.1676 13.8037C10.1676 13.3167 9.98141 12.887 9.60902 12.5146C9.23662 12.1423 8.80693 11.9561 8.31995 11.9561C7.83297 11.9561 7.40329 12.1423 7.03089 12.5146C6.6585 12.887 6.4723 13.3167 6.4723 13.8037C6.4723 14.2907 6.6585 14.7204 7.03089 15.0928ZM13.82 7.40137C14.3069 7.40137 14.7366 7.58757 15.109 7.95996C15.4814 8.30371 15.6676 8.71908 15.6676 9.20605V18.4014C15.6676 18.8883 15.4814 19.318 15.109 19.6904C14.7366 20.0342 14.3069 20.2061 13.82 20.2061H2.81995C2.33297 20.2061 1.90329 20.0342 1.53089 19.6904C1.1585 19.318 0.972298 18.8883 0.972298 18.4014V9.20605C0.972298 8.71908 1.1585 8.30371 1.53089 7.95996C1.90329 7.58757 2.33297 7.40137 2.81995 7.40137H3.7223V5.55371C3.7223 4.29329 4.16631 3.21908 5.05433 2.33105C5.971 1.41439 7.05954 0.956055 8.31995 0.956055C9.58037 0.956055 10.6546 1.41439 11.5426 2.33105C12.4593 3.21908 12.9176 4.29329 12.9176 5.55371V7.40137H13.82Z" fill="black"/>
</svg>
