<svg width="29" height="46" viewBox="0 0 29 46" fill="none" xmlns="http://www.w3.org/2000/svg">
<path d="M14.3705 0.908691C6.69526 0.908691 0.490234 7.08865 0.490234 14.7328C0.490234 22.377 6.69526 28.557 14.3705 28.557C22.0457 28.557 28.2507 22.377 28.2507 14.7328C28.2507 7.08865 22.0457 0.908691 14.3705 0.908691ZM14.3705 25.3917C8.46812 25.3917 3.66842 20.6329 3.66842 14.7328C3.66842 8.85435 8.4465 4.07404 14.3705 4.07404C20.2728 4.07404 25.0725 8.83282 25.0725 14.7328C25.0725 20.6113 20.2728 25.3917 14.3705 25.3917Z" fill="white"/>
<path d="M14.373 45.6325C12.9245 45.6325 11.7354 44.4482 11.7354 43.0055V28.3846C11.7354 26.9419 12.9245 25.7576 14.373 25.7576C15.8216 25.7576 17.0107 26.9203 17.0107 28.3846V43.0055C17.0107 44.4697 15.8432 45.6325 14.373 45.6325Z" fill="white"/>
<path d="M20.0776 11.1364C20.0344 11.2656 20.0992 11.4164 20.2506 11.4594C20.6613 11.5671 20.7262 11.6102 21.4613 11.7394C22.1315 11.8686 22.5639 11.9116 22.9963 11.9762C23.1693 11.9978 23.3206 11.8255 23.2557 11.6532C23.2125 11.481 23.1476 11.3087 23.0828 11.1149C22.9747 10.8135 22.8017 10.4474 22.6936 10.189C22.6504 10.1244 22.5855 10.0598 22.499 10.0598C21.8504 9.97368 21.3532 9.84448 20.7478 9.67222C20.6181 9.62915 20.4668 9.71528 20.4451 9.86601C20.4235 10.0167 20.3803 10.2536 20.3154 10.512C20.2073 10.7489 20.1425 10.9642 20.0776 11.1364Z" fill="white"/>
<path d="M16.2266 7.45412C15.1023 6.67894 14.3672 6.05448 13.5673 5.3439C13.5024 5.30083 13.4376 5.2793 13.3511 5.2793C13.1349 5.32236 12.616 5.36543 12.3782 5.43003C12.2052 5.47309 11.9025 5.53769 11.6863 5.62382C11.5134 5.68842 11.4701 5.90375 11.5998 6.03295C11.9674 6.37748 12.6592 7.02346 13.2214 7.49719C13.87 8.03551 14.2375 8.33697 14.497 8.53077C14.5618 8.59537 14.6699 8.59537 14.7564 8.5523L16.2049 7.86325C16.3563 7.79865 16.3779 7.56179 16.2266 7.45412Z" fill="white"/>
<path d="M14.8695 22.6562C14.8046 22.5916 14.7181 22.57 14.6316 22.5916C14.4154 22.6562 13.9614 22.7854 13.5722 22.8715C13.356 22.9146 13.1182 22.9792 12.9453 23.0222C12.7507 23.0653 12.6858 23.3022 12.8155 23.4314C13.0101 23.6252 13.2263 23.862 13.4425 24.0558C13.4858 24.0989 13.529 24.1204 13.5939 24.1204C14.3938 24.185 15.0424 24.142 15.7775 24.0343C15.9937 24.0128 16.0586 23.7328 15.8856 23.6036L15.2802 23.0653L14.8695 22.6562Z" fill="white"/>
<path d="M15.0168 9.95128L15.5141 10.1451C15.6871 10.2097 15.7303 10.425 15.6006 10.5542C15.3411 10.7911 14.9952 11.1356 14.0655 11.7816C13.0494 12.4706 12.1846 12.9443 11.7522 13.1812C11.6224 13.2458 11.5792 13.3965 11.6441 13.5257L12.444 14.6885C12.5089 14.7962 12.6602 14.8608 12.7683 14.7962C13.2656 14.5593 14.2169 13.9995 15.3411 13.2243C16.3357 12.5137 17.0059 11.9538 17.3302 11.6524C17.4383 11.5447 17.6329 11.5662 17.6977 11.717L18.1085 12.406C18.2166 12.5998 18.4977 12.5568 18.5626 12.363L19.9463 7.84105C20.0111 7.64726 19.8165 7.45346 19.622 7.53959L15.0168 9.52062C14.8006 9.58522 14.8222 9.86514 15.0168 9.95128Z" fill="white"/>
<path d="M14.9309 19.1033L14.412 18.6511C14.239 18.5003 14.3471 18.2204 14.5633 18.2204L19.6225 18.0266C19.8387 18.0266 19.9468 18.2635 19.8387 18.4142L16.8551 22.3978C16.7254 22.5701 16.4443 22.5055 16.4227 22.2901L16.2929 21.3427C16.2713 21.192 16.0984 21.0843 15.9686 21.1489C15.4714 21.3427 14.3471 21.7518 12.8553 22.0533C10.996 22.4409 9.72036 22.5916 9.41767 22.6131C9.37443 22.6131 9.30957 22.6131 9.26633 22.5916C9.09336 22.4839 8.5961 22.204 8.16369 21.8164C7.94749 21.6226 7.75291 21.4288 7.60156 21.2781C7.45022 21.1274 7.55832 20.8905 7.7529 20.869C8.68258 20.7828 10.7365 20.589 12.1851 20.266C13.5904 19.943 14.4552 19.6846 14.8876 19.5339C15.0173 19.4693 15.0606 19.2325 14.9309 19.1033Z" fill="white"/>
<path d="M7.81814 9.11181C7.92624 8.98261 8.01272 8.87495 8.01272 8.87495C8.0992 8.74575 8.29378 8.72422 8.40188 8.83188L8.87752 9.30561C9.02886 9.45634 9.2883 9.34867 9.2883 9.13334C9.2883 8.68115 9.33154 8.1859 9.37478 7.75524C9.3964 7.47531 9.48288 7.23845 9.5045 7.02312C9.52612 6.80779 9.2883 6.67859 9.11534 6.78626C8.87752 6.95852 8.3154 7.38918 8.3154 7.38918C8.3154 7.38918 7.62356 8.01363 7.49384 8.14283C7.4506 8.1859 7.42898 8.25049 7.42898 8.29356C7.42898 8.44429 7.38574 8.70269 7.38574 8.98261C7.38574 9.24101 7.71004 9.26254 7.81814 9.11181Z" fill="white"/>
<path d="M20.9212 18.3496C20.9212 18.3496 20.9861 18.0266 21.0726 17.7897C21.159 17.5744 20.9645 17.4237 20.8131 17.3806C20.5321 17.316 20.4888 16.9715 20.7266 16.8208C21.2239 16.5193 21.9157 16.1102 22.3481 15.7872C22.6941 15.5503 23.0616 15.2704 23.3427 15.0766C23.5589 14.9259 23.8399 15.0766 23.8183 15.335C23.7967 15.5718 23.7751 15.8087 23.7534 16.0456C23.6886 16.4978 23.5372 17.0361 23.4724 17.2729C23.4508 17.3375 23.4075 17.4021 23.3427 17.4452C23.1697 17.5529 22.7589 17.8328 22.2617 18.1343C21.959 18.3065 21.6347 18.5219 21.3752 18.6726C21.159 18.8018 20.878 18.5865 20.9212 18.3496Z" fill="white"/>
<path d="M5.11478 15.572C5.00668 15.6151 4.92019 15.7228 4.94181 15.8519C4.96343 16.0457 5.00667 16.2611 5.04991 16.4979C5.07154 16.6702 5.1364 16.8855 5.17964 17.0578C5.22288 17.2516 5.41747 17.3593 5.61205 17.3377H5.67692C5.89313 17.2947 6.73632 17.1439 6.34715 16.7779C5.95798 16.4118 5.80664 16.4549 5.50395 15.8735C5.41747 15.7228 5.26613 15.529 5.11478 15.572Z" fill="white"/>
<path d="M10.1963 14.7965L10.953 14.9903C11.1692 15.0549 11.3421 14.818 11.234 14.6242L8.50987 10.3607C8.40177 10.1884 8.14232 10.21 8.07746 10.4253L6.47757 15.2271C6.41271 15.4209 6.60729 15.6147 6.80187 15.5286L7.6883 15.141C7.81802 15.0764 7.99099 15.1625 8.03423 15.2917C8.29367 16.1531 8.63959 17.079 8.89904 17.6819C9.13686 18.2417 9.56926 19.0169 9.78547 19.4045C9.82871 19.4907 9.9368 19.5337 10.0233 19.5337C10.2395 19.5122 10.6287 19.4476 10.9313 19.4045C11.1475 19.3615 11.3854 19.3399 11.5799 19.2969C11.7529 19.2753 11.8394 19.06 11.7529 18.9308C11.4935 18.5217 11.1475 18.0049 10.7151 17.1005C10.2395 16.11 10.0449 15.5286 9.91518 15.0764C9.85032 14.9041 10.0017 14.7534 10.1963 14.7965Z" fill="white"/>
</svg>
