<svg width="148" height="34" viewBox="0 0 148 34" fill="none" xmlns="http://www.w3.org/2000/svg">
<path d="M61.9627 27.4137C61.1004 27.4137 60.3926 26.7031 60.3926 25.8374V17.0386C60.3926 16.1729 61.1004 15.4623 61.9627 15.4623C62.825 15.4623 63.5329 16.1729 63.5329 17.0386V25.8374C63.5329 26.7031 62.8379 27.4137 61.9627 27.4137Z" fill="white"/>
<path d="M72.2492 16.5217H70.2929L70.4988 15.5914H72.4551L73.0857 12.5681C73.5748 10.3199 75.0162 9.62219 76.4834 9.62219C77.4616 9.62219 78.0665 10.0227 78.0665 10.0227L77.513 10.8367C77.513 10.8367 76.8309 10.5525 76.3933 10.5525C75.3895 10.5525 74.5787 11.0434 74.2054 12.8265L73.6263 15.5914H76.522L76.3161 16.5217H73.4332L70.9493 28.1243C70.2672 31.3285 67.7832 32.7369 65.9814 33.2537L65.8398 32.2717C67.5644 31.7291 69.1989 30.8634 69.8038 27.9951L72.2492 16.5217Z" fill="white"/>
<path d="M78.3455 24.2481C78.2554 24.7391 78.2039 25.1525 78.2039 25.5143C78.2039 26.38 78.6286 26.4963 79.2979 26.4963V27.4265C79.2979 27.4265 79.0147 27.4524 78.886 27.4524C77.8178 27.4524 76.9941 26.9614 76.9941 25.5789C76.9941 25.2947 77.0456 24.9717 77.11 24.597L79.0019 15.5914H80.1731L78.3455 24.2481ZM79.1177 11.9866L80.5849 10.7721L81.5373 11.9608L80.0701 13.1753L79.1177 11.9866Z" fill="white"/>
<path d="M90.6776 27.2845H89.5064L90.832 19.5581C90.8835 19.261 90.8964 18.9509 90.8964 18.6666C90.8964 17.2583 90.2014 16.3539 88.657 16.3539C86.4948 16.3539 84.487 18.6925 84.294 19.584L82.6595 27.2845H81.4883L83.9851 15.5916H85.0276L84.7444 17.3875C84.7444 17.3875 86.3532 15.4236 88.7985 15.4236C90.9221 15.4236 92.0804 16.6381 92.0804 18.447C92.0804 18.7312 92.0547 19.0025 92.0161 19.3126L90.6776 27.2845Z" fill="white"/>
<path d="M103.893 27.2846H102.825L103.198 25.1139C102.143 26.4447 100.303 27.4525 98.6038 27.4525C95.9526 27.4525 94.125 25.5532 94.125 22.7495C94.125 18.9638 97.1366 15.4236 100.959 15.4236C102.851 15.4236 104.228 16.4314 104.756 17.7622L105.296 15.5916H106.364L103.893 27.2846ZM104.112 20.0103C104.112 17.7363 102.787 16.3668 100.779 16.3668C97.9088 16.3668 95.3219 19.0801 95.3219 22.7495C95.3219 24.9976 96.6475 26.5093 98.7711 26.5093C101.294 26.5093 104.112 23.8994 104.112 20.0103Z" fill="white"/>
<path d="M116.429 27.2845H115.271L116.596 19.5581C116.648 19.261 116.661 18.9509 116.661 18.6666C116.661 17.2583 115.966 16.3539 114.421 16.3539C112.259 16.3539 110.251 18.6925 110.058 19.584L108.424 27.2845H107.266L109.737 15.5916H110.779L110.496 17.3875C110.496 17.3875 112.105 15.4236 114.55 15.4236C116.674 15.4236 117.832 16.6381 117.832 18.447C117.832 18.7312 117.806 19.0025 117.768 19.3126L116.429 27.2845Z" fill="white"/>
<path d="M128.115 25.721L128.295 26.7029C128.295 26.7029 126.686 27.4523 124.82 27.4523C121.86 27.4523 120.109 25.5142 120.109 22.6846C120.109 18.899 123.16 15.4363 127.355 15.4363C129.363 15.4363 130.251 16.1857 130.251 16.1857L129.646 17.0772C129.646 17.0772 128.694 16.3795 127.175 16.3795C124.099 16.3795 121.306 19.0282 121.306 22.8139C121.306 25.0878 122.748 26.5349 124.923 26.5349C126.532 26.5091 128.115 25.721 128.115 25.721Z" fill="white"/>
<path d="M142.145 21.9353H132.312C132.312 21.9353 132.261 22.3358 132.261 22.7363C132.261 24.8682 133.445 26.522 135.967 26.522C138.014 26.522 139.931 25.4755 139.931 25.4755L140.098 26.4057C140.098 26.4057 138.142 27.4523 135.877 27.4523C132.634 27.4523 131.051 25.2558 131.051 22.6846C131.051 18.7956 134.217 15.4363 138.322 15.4363C141.192 15.4363 142.582 17.4906 142.582 19.7129C142.595 20.9275 142.145 21.9353 142.145 21.9353ZM141.308 20.9921C141.308 20.9921 141.476 20.3331 141.476 19.8938C141.476 17.8524 140.292 16.3666 138.078 16.3666C135.44 16.3666 133.187 18.3821 132.479 20.9921H141.308Z" fill="white"/>
<path d="M15.3101 27.4136H15.0785C14.2676 27.4136 13.6113 26.7805 13.5855 25.9665L13.3539 19.9585C13.3024 18.8086 12.8262 18.098 11.6679 18.098C10.4066 18.098 9.81459 19.3383 9.84033 19.7259L10.0334 25.8761C10.0591 26.7288 9.37701 27.4265 8.54045 27.4265H8.33453C7.52371 27.4265 6.85446 26.7805 6.84159 25.9536L6.68715 19.9456C6.63567 18.744 5.99217 18.1109 5.09126 18.1109C4.11313 18.1109 3.2637 19.2867 3.2637 19.713V25.9278C3.2637 26.7547 2.59446 27.4265 1.7579 27.4265H1.59059C0.766902 27.4265 0.0976562 26.7547 0.0976562 25.9278V16.9868C0.0976562 16.1599 0.766902 15.488 1.59059 15.488H2.51724C2.68455 15.488 2.83899 15.6043 2.8776 15.7723L2.89047 15.8369C2.95482 16.0824 3.23796 16.1987 3.44388 16.0565C3.93295 15.7335 4.80812 15.2684 5.82485 15.2684C7.099 15.2684 7.98703 15.9532 8.37314 16.3279C8.50184 16.4571 8.70776 16.4571 8.84933 16.3537C9.51858 15.8369 10.5868 15.2426 12.1441 15.2426C14.5765 15.2426 16.4041 17.1031 16.5199 19.5709L16.8031 25.8632C16.8545 26.703 16.1724 27.4136 15.3101 27.4136Z" fill="white"/>
<path d="M29.2351 27.0389C29.2351 27.2456 29.0678 27.4136 28.8619 27.4136H26.7512C26.571 27.4136 26.4294 27.2844 26.3908 27.1164C26.3393 26.8709 26.069 26.7417 25.8503 26.8709C25.284 27.181 24.2157 27.6591 22.9287 27.6591C20.1874 27.6591 18.9004 26.1345 18.9004 24.0672C18.9004 20.8759 22.5684 19.8939 25.6829 19.713C25.9017 19.7001 26.069 19.4934 26.0304 19.2737C25.9017 18.6019 25.477 17.8783 24.2415 17.8783C22.9931 17.8783 21.8348 18.4726 21.2814 18.8215C21.0883 18.9378 20.8438 18.8603 20.7537 18.6535L19.93 16.8059C19.8528 16.625 19.93 16.4183 20.0973 16.3279C20.7537 15.979 22.4139 15.2296 24.2415 15.2296C27.8065 15.2296 29.248 17.116 29.248 20.2686V27.0389H29.2351ZM25.979 23.8992C26.0562 23.8346 26.0948 23.7313 26.0948 23.6279V22.5555C26.0948 22.3488 25.9146 22.1679 25.7087 22.1808C23.7653 22.31 22.0278 22.9044 22.0278 23.9509C22.0278 24.5711 22.504 24.9587 23.4822 24.9587C24.6662 24.9458 25.6443 24.1835 25.979 23.8992Z" fill="white"/>
<path d="M37.498 25.8892C40.9086 25.9409 43.6371 28.7834 43.6371 32.0781C43.6371 32.4786 43.5856 32.9179 43.547 33.1763C43.5341 33.3055 43.4183 33.396 43.2896 33.396H40.6255C40.471 33.396 40.3552 33.2668 40.3809 33.1117C40.4067 32.8663 40.4453 32.4916 40.4453 32.1427C40.4453 30.4243 38.9652 28.68 37.0604 28.68C36.4684 28.68 35.6833 28.9514 35.0398 29.3519C34.5379 29.662 33.8815 29.5715 33.4954 29.1193L32.543 28.0082C32.4529 27.9048 32.4658 27.7627 32.5559 27.6593C33.0964 27.1167 33.8558 26.574 34.4478 26.3156C34.5379 26.2768 34.6022 26.1864 34.6022 26.083V25.3207C34.6022 25.2174 34.5379 25.1269 34.4478 25.0882C32.8519 24.3646 31.6035 22.5557 31.6035 20.566C31.6035 17.6201 33.8429 15.4753 36.9317 15.4753H43.0579C43.1995 15.4753 43.3153 15.5916 43.3153 15.7338V17.8398C43.3153 17.9819 43.1995 18.0982 43.0579 18.0982L41.7966 18.0594C41.6036 18.0465 41.4749 18.2532 41.565 18.4341C41.8224 18.9122 42.0283 19.6228 42.0283 20.5789C42.0283 23.0596 40.1235 25.3853 37.4852 25.437V25.8892H37.498ZM36.8288 22.8271C38.1415 22.8271 39.1325 21.871 39.1325 20.5143C39.1325 19.1318 38.1287 18.124 36.8288 18.124C35.619 18.124 34.5636 19.1318 34.5636 20.5143C34.5765 21.871 35.619 22.8271 36.8288 22.8271Z" fill="white"/>
<path d="M55.2442 27.4137H54.6136C53.9186 27.4137 53.3523 26.8581 53.3137 26.1604L53.0563 19.7777C53.0048 18.8474 52.5286 18.0851 51.4604 18.0851C50.1219 18.0851 48.9379 19.3513 48.9379 19.9069V26.1087C48.9379 26.8323 48.3587 27.4137 47.638 27.4137H47.046C46.3252 27.4137 45.7461 26.8323 45.7461 26.1087V16.7543C45.7461 16.0308 46.3252 15.4494 47.046 15.4494H48.2172C48.3845 15.4494 48.5389 15.5656 48.5775 15.7465V15.7724C48.629 16.2634 48.925 16.1471 49.1309 16.0049C49.6329 15.669 50.5466 15.2168 51.7693 15.2168C54.0988 15.2168 56.0808 16.7931 56.2224 19.5193L56.5312 26.0441C56.5827 26.7935 55.9907 27.4137 55.2442 27.4137Z" fill="white"/>
<path d="M61.9618 0.60376C57.3929 0.60376 53.6992 4.31193 53.6992 8.89868C53.6992 13.4854 57.3929 17.1936 61.9618 17.1936C66.5307 17.1936 70.2244 13.4854 70.2244 8.89868C70.2244 4.31193 66.5307 0.60376 61.9618 0.60376ZM61.9618 15.2943C58.4483 15.2943 55.5911 12.4389 55.5911 8.89868C55.5911 5.3714 58.4354 2.50306 61.9618 2.50306C65.4754 2.50306 68.3325 5.35848 68.3325 8.89868C68.3325 12.426 65.4754 15.2943 61.9618 15.2943Z" fill="white"/>
<path d="M61.9627 27.4394C61.1004 27.4394 60.3926 26.7287 60.3926 25.8631V17.0901C60.3926 16.2244 61.1004 15.5138 61.9627 15.5138C62.825 15.5138 63.5329 16.2115 63.5329 17.0901V25.8631C63.5329 26.7417 62.8379 27.4394 61.9627 27.4394Z" fill="white"/>
<path d="M65.3594 6.74083C65.3337 6.81835 65.3723 6.9088 65.4624 6.93464C65.7069 6.99924 65.7455 7.02508 66.1831 7.1026C66.582 7.18013 66.8394 7.20597 67.0968 7.24473C67.1998 7.25765 67.2899 7.15428 67.2513 7.05092C67.2255 6.94756 67.1869 6.84419 67.1483 6.72791C67.084 6.54703 66.981 6.32738 66.9167 6.17233C66.8909 6.13357 66.8523 6.09481 66.8008 6.09481C66.4147 6.04313 66.1187 5.96561 65.7584 5.86224C65.6811 5.8364 65.5911 5.88808 65.5782 5.97853C65.5653 6.06897 65.5396 6.21109 65.501 6.36614C65.4366 6.50826 65.398 6.63747 65.3594 6.74083Z" fill="white"/>
<path d="M63.0667 4.5314C62.3974 4.06627 61.9598 3.69158 61.4837 3.2652C61.445 3.23936 61.4064 3.22644 61.355 3.22644C61.2263 3.25228 60.9174 3.27812 60.7758 3.31688C60.6728 3.34272 60.4927 3.38149 60.364 3.43317C60.261 3.47193 60.2353 3.60113 60.3125 3.67866C60.5313 3.88538 60.9431 4.273 61.2777 4.55725C61.6638 4.88026 61.8826 5.06114 62.0371 5.17743C62.0757 5.21619 62.14 5.21619 62.1915 5.19035L63.0538 4.77689C63.1439 4.73813 63.1568 4.59601 63.0667 4.5314Z" fill="white"/>
<path d="M62.2589 13.6531C62.2203 13.6143 62.1688 13.6014 62.1174 13.6143C61.9887 13.6531 61.7184 13.7306 61.4867 13.7823C61.358 13.8081 61.2164 13.8469 61.1135 13.8728C60.9977 13.8986 60.959 14.0407 61.0363 14.1182C61.1521 14.2345 61.2808 14.3767 61.4095 14.4929C61.4352 14.5188 61.461 14.5317 61.4996 14.5317C61.9758 14.5705 62.3619 14.5446 62.7995 14.48C62.9282 14.4671 62.9668 14.2991 62.8638 14.2216L62.5035 13.8986L62.2589 13.6531Z" fill="white"/>
<path d="M62.3477 6.0299L62.6438 6.14618C62.7467 6.18495 62.7725 6.31415 62.6952 6.39167C62.5408 6.5338 62.3349 6.74052 61.7815 7.12814C61.1766 7.54159 60.6618 7.82584 60.4044 7.96797C60.3271 8.00673 60.3014 8.09717 60.34 8.17469L60.8162 8.8724C60.8548 8.937 60.9449 8.97576 61.0093 8.937C61.3053 8.79487 61.8715 8.45894 62.5408 7.99381C63.1328 7.56743 63.5318 7.2315 63.7248 7.05062C63.7892 6.98601 63.905 6.99893 63.9436 7.08938L64.1882 7.50283C64.2525 7.61911 64.4198 7.59327 64.4584 7.47699L65.2821 4.7637C65.3207 4.64741 65.2049 4.53113 65.0891 4.58281L62.3477 5.77149C62.219 5.81025 62.2319 5.97822 62.3477 6.0299Z" fill="white"/>
<path d="M62.296 11.5213L61.9872 11.2499C61.8842 11.1595 61.9485 10.9915 62.0772 10.9915L65.0889 10.8752C65.2176 10.8752 65.2819 11.0174 65.2176 11.1078L63.4415 13.4981C63.3643 13.6015 63.197 13.5627 63.1841 13.4335L63.1069 12.865C63.094 12.7746 62.991 12.7099 62.9138 12.7487C62.6178 12.865 61.9485 13.1105 61.0605 13.2914C59.9537 13.5239 59.1943 13.6144 59.0142 13.6273C58.9884 13.6273 58.9498 13.6273 58.9241 13.6144C58.8211 13.5498 58.5251 13.3818 58.2677 13.1492C58.139 13.033 58.0232 12.9167 57.9331 12.8262C57.843 12.7358 57.9073 12.5937 58.0232 12.5807C58.5766 12.5291 59.7992 12.4128 60.6615 12.219C61.4981 12.0252 62.0129 11.8701 62.2703 11.7797C62.3475 11.7409 62.3733 11.5988 62.296 11.5213Z" fill="white"/>
<path d="M58.0621 5.52629C58.1264 5.44877 58.1779 5.38417 58.1779 5.38417C58.2294 5.30665 58.3452 5.29372 58.4096 5.35833L58.6927 5.64258C58.7828 5.73302 58.9372 5.66842 58.9372 5.53921C58.9372 5.26788 58.963 4.97071 58.9887 4.71231C59.0016 4.54434 59.0531 4.40222 59.0659 4.27301C59.0788 4.14381 58.9372 4.06628 58.8343 4.13089C58.6927 4.23425 58.3581 4.49266 58.3581 4.49266C58.3581 4.49266 57.9463 4.86735 57.869 4.94487C57.8433 4.97071 57.8304 5.00948 57.8304 5.03532C57.8304 5.12576 57.8047 5.2808 57.8047 5.44877C57.8047 5.60381 57.9977 5.61673 58.0621 5.52629Z" fill="white"/>
<path d="M65.8601 11.0691C65.8601 11.0691 65.8987 10.8753 65.9502 10.7332C66.0016 10.604 65.8858 10.5135 65.7957 10.4877C65.6284 10.4489 65.6027 10.2422 65.7442 10.1518C66.0402 9.97088 66.4521 9.72539 66.7095 9.53158C66.9154 9.38946 67.1342 9.22149 67.3015 9.10521C67.4302 9.01477 67.5975 9.10521 67.5846 9.26025C67.5718 9.40238 67.5589 9.54451 67.546 9.68663C67.5074 9.95796 67.4173 10.281 67.3787 10.4231C67.3659 10.4619 67.3401 10.5006 67.3015 10.5265C67.1986 10.5911 66.954 10.759 66.658 10.9399C66.4778 11.0433 66.2848 11.1725 66.1303 11.2629C66.0016 11.3404 65.8343 11.2112 65.8601 11.0691Z" fill="white"/>
<path d="M56.4526 9.40259C56.3883 9.42843 56.3368 9.49303 56.3496 9.57055C56.3625 9.68684 56.3883 9.81604 56.414 9.95817C56.4269 10.0615 56.4655 10.1907 56.4912 10.2941C56.517 10.4104 56.6328 10.475 56.7486 10.4621H56.7872C56.9159 10.4362 57.4179 10.3458 57.1862 10.1261C56.9545 9.90648 56.8645 9.93233 56.6843 9.58347C56.6328 9.49303 56.5427 9.37675 56.4526 9.40259Z" fill="white"/>
<path d="M59.4771 8.93719L59.9275 9.05347C60.0562 9.09223 60.1592 8.95011 60.0948 8.83382L58.4732 6.27557C58.4089 6.17221 58.2544 6.18513 58.2158 6.31434L57.2634 9.1956C57.2248 9.31188 57.3407 9.42816 57.4565 9.37648L57.9842 9.14391C58.0614 9.10515 58.1643 9.15683 58.1901 9.23436C58.3445 9.75117 58.5504 10.3068 58.7049 10.6685C58.8465 11.0045 59.1039 11.4696 59.2326 11.7022C59.2583 11.7538 59.3226 11.7797 59.3741 11.7797C59.5028 11.7668 59.7345 11.728 59.9147 11.7022C60.0434 11.6763 60.1849 11.6634 60.3008 11.6376C60.4037 11.6246 60.4552 11.4954 60.4037 11.4179C60.2493 11.1724 60.0434 10.8623 59.786 10.3197C59.5028 9.72533 59.387 9.37648 59.3098 9.10515C59.2712 9.00179 59.3613 8.91135 59.4771 8.93719Z" fill="white"/>
<path d="M145.451 15.7336C144.525 15.7336 143.791 16.4959 143.791 17.4262C143.791 18.3436 144.512 19.1059 145.451 19.1059C146.378 19.1059 147.111 18.3307 147.111 17.4133C147.099 16.496 146.378 15.7336 145.451 15.7336ZM145.438 18.9121C144.602 18.9121 143.971 18.2402 143.971 17.4133C143.971 16.5864 144.602 15.9145 145.438 15.9145C146.275 15.9145 146.893 16.5864 146.893 17.4133C146.906 18.2402 146.275 18.9121 145.438 18.9121Z" fill="white"/>
<path d="M145.85 17.62C146.069 17.5425 146.236 17.3616 146.236 17.0644C146.236 16.6897 145.966 16.4701 145.541 16.4701H144.756V18.266H145.142V17.6846H145.451L145.824 18.266H146.275L145.85 17.62ZM145.541 17.3487H145.155V16.8189H145.541C145.734 16.8189 145.85 16.9094 145.85 17.0774C145.837 17.2453 145.734 17.3487 145.541 17.3487Z" fill="white"/>
</svg>
