<svg xmlns="http://www.w3.org/2000/svg">
<defs>
<font id="JTMarnie-Medium" horiz-adv-x="0" >
  <font-face 
    font-family="JT Marnie"
    font-weight="400"
    font-stretch="normal"
    units-per-em="2048"
    panose-1="0 0 5 0 0 0 0 0 0 0"
    ascent="1638"
    descent="-410"
    x-height="1051"
    cap-height="1434"
    bbox="-1096 -698.985 2533.08 2468.39"
    underline-thickness="0"
    underline-position="0"
    stemh="139"
    stemv="184"
    unicode-range="U+0020-F8FF"
  />
<missing-glyph horiz-adv-x="1468" 
d="M119 948c0 41 35 76 76 76c40 0 75 -35 75 -76c0 -44 -35 -78 -75 -78c-41 0 -76 34 -76 78zM700 813v-336c0 -11 -5 -16 -16 -16h-102c-9 0 -16 5 -19 16l-4 25c-29 -34 -63 -51 -102 -51c-41 0 -77 17 -110 51s-50 81 -50 141c0 61 16 109 48 144c32 34 68 51 108 51
c38 0 74 -16 108 -47l2 22c3 11 9 16 19 16h102c11 0 16 -5 16 -16zM1386 662v-185c0 -11 -6 -16 -18 -16h-100c-12 0 -18 5 -19 16v185c0 33 -17 49 -51 49c-41 0 -61 -25 -61 -76v-158c0 -11 -6 -16 -17 -16h-104c-11 0 -16 5 -17 16v185c0 33 -17 49 -51 49
c-39 0 -60 -25 -61 -76v-158c0 -11 -6 -16 -19 -16h-100c-12 0 -18 5 -18 16v336c0 11 6 16 18 16h100c9 0 16 -5 19 -16l4 -20c33 30 68 45 106 45c52 0 91 -25 117 -74c34 49 78 74 133 74c39 0 72 -16 99 -49s40 -75 40 -127zM102 322l-28 73c-5 8 -1 16 12 23
c27 13 41 35 41 65v330c0 11 5 16 16 16h103c11 0 16 -5 16 -16v-330c0 -42 -13 -81 -39 -116c-26 -36 -60 -55 -102 -58c-10 -1 -16 4 -19 13zM573 645c0 55 -26 82 -77 82c-52 0 -78 -27 -78 -82c0 -57 34 -84 78 -84c51 0 77 28 77 84zM461 94c-12 -5 -26 -8 -41 -8
c-47 0 -70 27 -70 80v162h-35c-3 0 -4 1 -4 2v14c0 3 1 4 4 4h35v76c0 3 1 4 2 4h19c3 0 4 -1 4 -4v-76h82c3 0 4 -1 4 -4v-14c0 -1 -1 -2 -4 -2h-82v-162c0 -39 16 -59 49 -60c13 0 24 2 33 7c3 3 4 2 4 -2l4 -11c0 -4 -1 -6 -4 -6zM1046 317c26 -25 39 -57 39 -95
c0 -39 -13 -71 -38 -97c-26 -26 -57 -39 -93 -39c-52 0 -91 24 -116 72v-154c0 -3 -1 -4 -2 -4h-19c-3 0 -4 1 -4 4v342c0 1 1 2 4 2h12c4 0 6 -1 7 -2l4 -55c22 42 60 63 114 63c35 0 66 -12 92 -37zM1397 223v-12c0 -1 -1 -2 -4 -2h-228c5 -60 50 -103 113 -103

<glyph glyph-name="f_f.liga" unicode="ff" horiz-adv-x="1343" 
d="M1141 1368c-120 0 -180 -63 -180 -188v-129h311c18 0 27 -9 26 -27v-109c0 -18 -9 -27 -26 -26h-311v-862c0 -18 -9 -27 -27 -27h-139c-18 0 -27 9 -27 27v862h-377v-862c0 -18 -9 -27 -26 -27h-140c-18 0 -27 9 -26 27v862h-129c-18 0 -27 9 -27 26v109c0 18 9 27 27 27
h129v114c0 236 110 354 331 355c108 0 217 -28 326 -84c53 56 133 84 238 84c74 0 144 -11 211 -33c18 -7 24 -18 18 -33l-33 -90c-5 -18 -18 -23 -37 -16c-37 13 -74 20 -112 20zM391 1051h377v114c0 49 5 96 16 140c-87 42 -160 63 -219 63c-116 0 -174 -63 -174 -188
v-129z" />
    <glyph glyph-name="f_f_i.liga" unicode="ffi" horiz-adv-x="1826" 
d="M1577 1282c-35 0 -65 12 -90 37s-37 54 -37 88s12 64 37 89s55 38 90 38c34 0 63 -13 88 -38s37 -55 37 -89s-12 -63 -37 -88s-54 -37 -88 -37zM961 1051h688c18 0 27 -9 26 -27v-997c0 -18 -9 -27 -26 -27h-146c-18 0 -27 9 -26 27v862h-516v-862c0 -18 -9 -27 -27 -27
h-139c-18 0 -27 9 -27 27v862h-377v-862c0 -18 -9 -27 -26 -27h-140c-18 0 -27 9 -26 27v862h-129c-18 0 -27 9 -27 26v109c0 18 9 27 27 27h129v114c0 236 110 354 331 355c108 0 217 -28 326 -84c53 56 133 84 238 84c74 0 144 -11 211 -33c18 -7 24 -18 18 -33l-33 -90
c-5 -18 -18 -23 -37 -16c-37 13 -74 20 -112 20c-120 0 -180 -63 -180 -188v-129zM391 1051h377v114c0 49 5 96 16 140c-87 42 -160 63 -219 63c-116 0 -174 -63 -174 -188v-129z" />
    <glyph glyph-name="f_j.liga" unicode="fj" horiz-adv-x="1259" 
d="M1006 1282c-34 0 -63 12 -88 37s-37 54 -37 88s12 64 37 89c24 25 53 38 88 38c34 0 64 -13 89 -38s38 -55 38 -89s-12 -63 -37 -88s-55 -37 -90 -37zM391 1051h688c18 0 27 -9 27 -27v-1038c0 -119 -34 -216 -102 -293c-55 -61 -121 -95 -199 -101c-33 0 -52 8 -57 23
l-31 104c-4 21 9 34 39 39c38 8 71 29 100 62c34 41 51 99 51 176v893h-516v-862c0 -18 -9 -27 -26 -27h-140c-18 0 -27 9 -26 27v862h-129c-18 0 -27 9 -27 26v109c0 18 9 27 27 27h129v114c0 236 108 354 325 355c74 0 144 -11 211 -33c18 -7 24 -18 19 -33l-33 -90
c-5 -18 -18 -23 -37 -16c-37 13 -74 20 -113 20c-120 0 -180 -63 -180 -188v-129z" />
    <glyph glyph-name="f_t.liga" unicode="ft" horiz-adv-x="1568" 
d="M1477 143l30 -88c5 -13 1 -24 -14 -32c-71 -31 -144 -47 -221 -48c-209 0 -313 127 -314 381v533h-567v-862c0 -18 -9 -27 -26 -27h-140c-18 0 -27 9 -26 27v862h-129c-18 0 -27 9 -27 26v109c0 18 9 27 27 27h129v114c0 236 108 354 325 355c74 0 144 -11 211 -33
c18 -7 24 -18 19 -33l-33 -90c-5 -18 -18 -23 -37 -16c-37 13 -74 20 -113 20c-120 0 -180 -63 -180 -188v-129h567v270c0 18 9 27 27 27h139c18 0 27 -9 27 -27v-270h305c18 0 27 -9 27 -27v-109c0 -18 -9 -27 -27 -26h-305v-547c0 -82 13 -136 38 -163s70 -40 134 -40
c37 0 76 7 119 21c19 7 31 1 35 -17z" />
    <glyph glyph-name="f_i.liga" unicode="fi" horiz-adv-x="1257" 
d="M1008 1282c-35 0 -65 12 -90 37s-37 54 -37 88s12 64 37 89c24 25 54 38 90 38c34 0 63 -13 88 -38s37 -55 37 -89s-12 -63 -37 -88s-54 -37 -88 -37zM391 1051h688c18 0 27 -9 27 -27v-997c0 -18 -9 -27 -27 -27h-145c-18 0 -27 9 -27 27v862h-516v-862
c0 -18 -9 -27 -26 -27h-140c-18 0 -27 9 -26 27v862h-129c-18 0 -27 9 -27 26v109c0 18 9 27 27 27h129v114c0 236 108 354 325 355c74 0 144 -11 211 -33c18 -7 24 -18 19 -33l-33 -90c-5 -18 -18 -23 -37 -16c-37 13 -74 20 -113 20c-120 0 -180 -63 -180 -188v-129z" />
    <glyph glyph-name="f_l.liga" unicode="fl" horiz-adv-x="1060" 
d="M530 1520c127 0 252 -38 377 -113v-1380c0 -18 -9 -27 -26 -27h-146c-18 0 -27 9 -26 27v1310c-55 21 -103 31 -144 31c-116 0 -174 -63 -174 -188v-129h189c18 0 27 -9 26 -27v-109c0 -18 -9 -27 -26 -26h-189v-862c0 -18 -9 -27 -26 -27h-140c-18 0 -27 9 -26 27v862
h-129c-18 0 -27 9 -27 26v109c0 18 9 27 27 27h129v114c-1 237 110 355 331 355z" />
    <glyph glyph-name=".notdef" horiz-adv-x="1468" 
d="M119 948c0 41 35 76 76 76c40 0 75 -35 75 -76c0 -44 -35 -78 -75 -78c-41 0 -76 34 -76 78zM700 813v-336c0 -11 -5 -16 -16 -16h-102c-9 0 -16 5 -19 16l-4 25c-29 -34 -63 -51 -102 -51c-41 0 -77 17 -110 51s-50 81 -50 141c0 61 16 109 48 144c32 34 68 51 108 51
c38 0 74 -16 108 -47l2 22c3 11 9 16 19 16h102c11 0 16 -5 16 -16zM1386 662v-185c0 -11 -6 -16 -18 -16h-100c-12 0 -18 5 -19 16v185c0 33 -17 49 -51 49c-41 0 -61 -25 -61 -76v-158c0 -11 -6 -16 -17 -16h-104c-11 0 -16 5 -17 16v185c0 33 -17 49 -51 49
c-39 0 -60 -25 -61 -76v-158c0 -11 -6 -16 -19 -16h-100c-12 0 -18 5 -18 16v336c0 11 6 16 18 16h100c9 0 16 -5 19 -16l4 -20c33 30 68 45 106 45c52 0 91 -25 117 -74c34 49 78 74 133 74c39 0 72 -16 99 -49s40 -75 40 -127zM102 322l-28 73c-5 8 -1 16 12 23
c27 13 41 35 41 65v330c0 11 5 16 16 16h103c11 0 16 -5 16 -16v-330c0 -42 -13 -81 -39 -116c-26 -36 -60 -55 -102 -58c-10 -1 -16 4 -19 13zM573 645c0 55 -26 82 -77 82c-52 0 -78 -27 -78 -82c0 -57 34 -84 78 -84c51 0 77 28 77 84zM461 94c-12 -5 -26 -8 -41 -8
c-47 0 -70 27 -70 80v162h-35c-3 0 -4 1 -4 2v14c0 3 1 4 4 4h35v76c0 3 1 4 2 4h19c3 0 4 -1 4 -4v-76h82c3 0 4 -1 4 -4v-14c0 -1 -1 -2 -4 -2h-82v-162c0 -39 16 -59 49 -60c13 0 24 2 33 7c3 3 4 2 4 -2l4 -11c0 -4 -1 -6 -4 -6zM1046 317c26 -25 39 -57 39 -95
c0 -39 -13 -71 -38 -97c-26 -26 -57 -39 -93 -39c-52 0 -91 24 -116 72v-154c0 -3 -1 -4 -2 -4h-19c-3 0 -4 1 -4 4v342c0 1 1 2 4 2h12c4 0 6 -1 7 -2l4 -55c22 42 60 63 114 63c35 0 66 -12 92 -37zM1397 223v-12c0 -1 -1 -2 -4 -2h-228c5 -60 50 -103 113 -103
c42 0 75 19 98 56h4l13 -10c1 -1 1 -3 0 -5c-27 -41 -66 -61 -117 -61c-38 0 -70 13 -95 39s-38 58 -38 96c0 37 12 68 37 94s55 39 92 39c34 0 63 -13 88 -38s37 -56 37 -93zM741 344l-112 -289c-13 -37 -35 -55 -64 -55c-17 0 -30 3 -39 10c-1 1 -2 3 -2 4l6 13
c0 1 2 2 5 2c9 -7 18 -10 26 -11c21 0 37 17 49 52l8 20l-108 254c-3 3 -2 4 2 4h18c3 0 4 -1 5 -2l94 -225l88 223c1 3 3 4 6 4h16c1 0 2 -1 2 -4zM1061 221c0 63 -50 111 -113 111c-60 0 -110 -42 -110 -105c0 -33 11 -61 33 -85c21 -24 47 -36 77 -36
c63 0 113 50 113 115zM1165 229h209c-3 60 -45 103 -102 103c-60 0 -102 -43 -107 -103z" />
    <glyph glyph-name="glyph1" 
 />
    <glyph glyph-name="glyph2" horiz-adv-x="681" 
 />
    <glyph glyph-name="space" unicode=" " horiz-adv-x="727" 
 />
    <glyph glyph-name="exclam" unicode="!" horiz-adv-x="614" 
d="M365 453h-125c-18 0 -27 9 -27 26l-20 981c0 18 9 27 26 27h166c18 0 27 -9 27 -27l-21 -981c0 -18 -9 -27 -26 -26zM303 -25c-41 0 -76 15 -105 44s-44 65 -44 106c0 39 15 74 44 103s64 44 105 44c39 0 74 -15 104 -44c29 -29 44 -64 44 -103c0 -41 -15 -76 -44 -105
c-30 -30 -65 -45 -104 -45z" />
    <glyph glyph-name="quotedbl" unicode="&#x22;" horiz-adv-x="796" 
d="M223 922l-20 475c0 18 9 27 26 26h76c13 0 30 -13 27 -26l-29 -475c-3 -15 -12 -24 -27 -27h-26c-13 -3 -27 12 -27 27zM489 922l-20 475c0 18 9 27 27 26h75c13 0 30 -13 27 -26l-29 -475c-3 -15 -11 -24 -26 -27h-27c-13 -3 -27 12 -27 27z" />
    <glyph glyph-name="numbersign" unicode="#" horiz-adv-x="1605" 
d="M1219 1061h270c13 0 23 -14 20 -27l-18 -63c-3 -18 -13 -27 -31 -27h-272l-107 -420h295c13 0 24 -13 21 -26l-19 -64c-3 -18 -13 -27 -30 -26h-295l-99 -385c-5 -18 -16 -27 -32 -27h-64c-16 0 -25 12 -20 27l98 385h-420l-98 -385c-5 -18 -16 -27 -33 -27h-66
c-13 0 -23 12 -18 27l98 385h-280c-18 0 -26 9 -23 26l19 64c5 18 16 27 32 26h281l107 420h-304c-18 0 -25 9 -22 27l18 63c5 18 16 27 33 27h305l94 373c5 18 16 27 33 26h64c19 0 26 -9 20 -26l-94 -373h420l94 373c5 18 16 27 33 26h65c18 0 24 -9 19 -26zM545 524h420
l106 420h-420z" />
    <glyph glyph-name="dollar" unicode="$" horiz-adv-x="1236" 
d="M1126 406c0 -125 -39 -226 -118 -302s-187 -118 -324 -127v-153c0 -18 -9 -27 -27 -27h-63c-18 0 -27 9 -27 27v153c-175 15 -327 91 -458 226c-9 11 -11 24 -5 39l68 106c11 15 24 17 39 4c117 -125 252 -188 403 -188c94 0 169 21 226 64c56 42 84 102 84 180
c0 68 -24 118 -71 149s-130 61 -247 90c-39 9 -69 17 -88 22s-49 14 -89 27s-71 25 -92 37c-21 11 -47 28 -78 50c-61 43 -87 86 -111 157c-13 35 -19 74 -19 115c0 116 40 211 120 284s186 114 318 123v160c0 18 9 27 27 27h63c18 0 27 -9 27 -27v-160
c150 -13 287 -72 410 -176c11 -7 14 -20 10 -39l-57 -106c-9 -15 -22 -19 -37 -11c-123 101 -250 152 -383 152c-89 0 -160 -20 -215 -60c-55 -41 -82 -94 -82 -161c0 -60 29 -108 62 -136c16 -15 39 -28 69 -39c30 -12 55 -20 75 -25c19 -5 47 -11 82 -19
c61 -13 111 -25 150 -35c38 -11 82 -28 133 -51s90 -49 119 -77c57 -56 106 -153 106 -273z" />
    <glyph glyph-name="percent" unicode="%" horiz-adv-x="1808" 
d="M547 -84h-158l871 1643h159zM416 721c-90 0 -159 38 -208 114c-49 75 -73 172 -73 291c0 121 25 218 76 290s120 108 207 108c86 0 154 -36 204 -107c49 -72 74 -170 74 -294c0 -125 -25 -223 -74 -294c-50 -72 -119 -108 -206 -108zM418 887c93 0 139 78 139 235
c0 151 -52 238 -141 238c-93 0 -139 -79 -140 -238c1 -157 48 -235 142 -235zM1393 -37c-90 0 -159 38 -208 113s-73 172 -73 291c0 123 25 220 75 292c50 71 119 107 206 107s156 -36 206 -107c49 -72 74 -170 74 -294c0 -125 -25 -223 -74 -294
c-50 -72 -119 -108 -206 -108zM1393 127c96 0 141 95 141 240c0 151 -51 233 -143 233c-93 0 -139 -78 -140 -235c0 -151 51 -238 142 -238z" />
    <glyph glyph-name="ampersand" unicode="&#x26;" horiz-adv-x="1443" 
d="M1122 311l193 -211c15 -19 15 -37 0 -53l-64 -61c-13 -16 -40 -20 -53 0l-174 194c-127 -138 -279 -207 -457 -207c-131 0 -237 34 -317 103c-81 68 -121 158 -121 270c0 86 28 163 83 230s146 137 271 210c-116 130 -174 246 -174 347c0 93 36 170 107 233
s160 94 268 94c105 0 191 -31 258 -92s100 -143 100 -246c0 -83 -24 -150 -71 -199c-48 -50 -130 -108 -246 -175l295 -324c44 75 81 164 110 266c9 22 26 28 50 19l71 -23c21 -7 28 -23 21 -49c-44 -127 -94 -235 -150 -326zM684 1309c-60 0 -109 -17 -146 -52
c-38 -35 -57 -80 -57 -133c0 -39 11 -77 33 -113c22 -37 59 -86 111 -147c100 56 167 102 201 138c34 35 51 75 51 120c0 115 -78 187 -193 187zM580 129c130 0 245 55 344 164l-334 375c-97 -59 -167 -111 -211 -158s-66 -101 -66 -162c0 -67 24 -120 73 -159
c49 -40 113 -60 194 -60z" />
    <glyph glyph-name="quotesingle" unicode="'" horiz-adv-x="530" 
d="M223 922l-20 475c0 18 9 27 26 26h76c13 0 30 -13 27 -26l-29 -475c-3 -15 -12 -24 -27 -27h-26c-13 -3 -27 12 -27 27z" />
    <glyph glyph-name="parenleft" unicode="(" horiz-adv-x="800" 
d="M639 -252c-180 137 -315 275 -405 414c-91 139 -136 311 -136 516c0 216 50 395 154 544c52 74 108 140 167 198s133 121 220 188c12 11 24 8 35 -9l53 -81c9 -12 7 -24 -6 -35c-59 -51 -104 -91 -136 -120s-71 -71 -117 -124s-80 -104 -103 -152
c-46 -97 -89 -245 -89 -409c0 -161 43 -310 89 -406c23 -49 57 -100 103 -153s85 -95 117 -124s77 -69 136 -120c13 -11 15 -23 6 -37l-53 -82c-11 -16 -23 -19 -35 -8z" />
    <glyph glyph-name="parenright" unicode=")" horiz-adv-x="800" 
d="M162 -252c-12 -11 -24 -8 -35 8l-53 82c-9 13 -7 26 6 37c60 51 107 92 140 123s72 74 117 127c44 53 78 104 101 152c47 95 86 240 86 401c0 164 -41 312 -88 408c-23 47 -58 98 -104 152c-47 54 -85 96 -116 125s-76 69 -136 120c-13 11 -15 22 -6 35l53 81
c11 17 22 20 35 9c87 -67 161 -129 220 -187c59 -59 115 -125 167 -199c104 -149 153 -328 153 -544c0 -205 -45 -377 -135 -516s-225 -277 -405 -414z" />
    <glyph glyph-name="asterisk" unicode="*" horiz-adv-x="917" 
d="M459 1176l-115 -213c-5 -16 -28 -22 -41 -11l-84 68c-15 12 -15 25 0 39l156 151l-215 41c-21 5 -28 17 -21 35l37 111c5 16 24 25 37 14l205 -113l-41 220c-5 16 8 32 24 32h113c19 0 32 -16 27 -32l-43 -220l202 115c19 12 33 7 41 -14l37 -113c7 -18 0 -30 -20 -35
l-217 -41l155 -151c17 -12 17 -25 0 -39l-84 -66c-18 -15 -32 -12 -41 9z" />
    <glyph glyph-name="plus" unicode="+" horiz-adv-x="1220" 
d="M670 741h401c18 0 27 -9 27 -26v-64c0 -18 -9 -27 -27 -26h-401v-404c0 -18 -9 -27 -27 -26h-63c-13 0 -27 13 -27 26v402h-403c-18 0 -27 9 -27 26v66c0 18 9 27 27 26h401v402c0 18 9 27 27 26h65c18 0 27 -9 27 -26v-402z" />
    <glyph glyph-name="comma" unicode="," horiz-adv-x="641" 
d="M193 -319c-12 -3 -20 1 -23 10l-16 45c-1 12 3 21 14 26c44 15 84 39 120 71s54 69 54 110c0 31 -20 47 -61 47c-33 0 -59 13 -80 39s-31 57 -31 92c0 42 15 78 44 107s66 44 110 44c99 0 149 -84 149 -219c1 -171 -93 -295 -280 -372z" />
    <glyph glyph-name="hyphen" unicode="-" horiz-adv-x="929" 
d="M752 510l-574 -2c-18 0 -27 9 -26 27v86c0 18 9 27 26 26h574c18 0 27 -9 26 -26v-84c0 -18 -9 -27 -26 -27z" />
    <glyph glyph-name="period" unicode="." horiz-adv-x="665" 
d="M334 -25c-41 0 -76 15 -105 44c-30 29 -45 65 -45 106c0 39 15 74 44 103s65 44 106 44c39 0 74 -15 103 -44s44 -64 44 -103c0 -41 -15 -76 -44 -105c-29 -30 -64 -45 -103 -45z" />
    <glyph glyph-name="slash" unicode="/" horiz-adv-x="1044" 
d="M180 -49h-153l835 1583h154z" />
    <glyph glyph-name="zero" unicode="0" horiz-adv-x="1300" 
d="M649 -25c-171 0 -302 71 -394 212s-138 324 -138 548c0 229 48 412 143 548s225 204 389 204s294 -68 390 -204c95 -136 143 -321 143 -554s-48 -417 -143 -552c-96 -135 -226 -202 -390 -202zM649 166c119 0 206 51 263 154c57 102 85 239 85 411
c0 363 -126 565 -350 565c-119 0 -206 -52 -262 -155c-56 -104 -84 -242 -84 -414c0 -363 124 -561 348 -561z" />
    <glyph glyph-name="one" unicode="1" horiz-adv-x="792" 
d="M500 1470h84c18 0 27 -9 26 -26v-1417c0 -18 -9 -27 -26 -27h-146c-18 0 -27 9 -26 27v1210l-262 -96c-18 -4 -30 1 -37 16l-43 135c-4 15 1 26 16 33l371 137c19 5 34 8 43 8z" />
    <glyph glyph-name="two" unicode="2" horiz-adv-x="1200" 
d="M379 174h686c21 0 31 -10 31 -31v-112c0 -16 -15 -31 -31 -31h-938c-16 0 -33 14 -33 31v98c0 18 6 32 19 41c56 55 140 135 251 241c111 105 201 192 270 260c69 67 120 122 154 163c74 86 111 165 111 237c0 75 -28 134 -84 175s-130 61 -223 61
c-77 0 -144 -16 -202 -47c-58 -32 -116 -84 -175 -156c-17 -19 -32 -20 -47 -2l-78 74c-12 11 -13 23 -4 38c82 95 161 165 237 208c75 43 164 65 267 65c141 0 258 -37 352 -110c94 -74 141 -181 141 -322c0 -81 -16 -149 -47 -206s-79 -117 -143 -181
c-63 -64 -158 -157 -287 -278c-129 -122 -205 -194 -227 -216z" />
    <glyph glyph-name="three" unicode="3" horiz-adv-x="1210" 
d="M852 758c167 -69 250 -186 250 -350c0 -131 -47 -236 -141 -315c-95 -79 -220 -118 -375 -118c-224 0 -394 82 -510 246c-11 12 -10 24 2 37l88 80c13 11 26 10 39 -2c93 -120 220 -180 383 -180c220 0 330 85 330 254c0 172 -123 264 -347 264h-63c-18 0 -27 9 -27 26
v105c0 18 9 27 27 26h67c188 0 302 93 302 248c0 151 -101 227 -304 228c-143 0 -255 -52 -335 -156c-13 -13 -26 -14 -37 -2l-82 78c-12 12 -13 24 -4 37c125 156 264 221 460 221c149 0 267 -35 355 -104c87 -70 131 -166 131 -289c0 -152 -70 -263 -209 -334z" />
    <glyph glyph-name="four" unicode="4" horiz-adv-x="1257" 
d="M987 557h170c13 0 29 -12 29 -27v-108c0 -18 -9 -27 -27 -27h-172v-366c0 -18 -9 -27 -26 -27h-127c-18 0 -27 9 -27 27v366h-707c-19 0 -29 9 -28 27v86c0 17 6 31 18 43l719 870c13 18 31 27 53 27h99c18 0 27 -9 26 -27v-864zM807 1151l-490 -594h490v594z" />
    <glyph glyph-name="five" unicode="5" horiz-adv-x="1206" 
d="M598 932c141 0 262 -45 363 -134s151 -204 151 -345c0 -145 -53 -260 -159 -347c-107 -87 -241 -131 -402 -131c-194 0 -350 68 -467 205c-8 11 -7 22 2 35l74 92c13 17 28 17 43 0c89 -105 204 -158 346 -157c116 0 208 26 277 78c68 51 102 124 102 218
c0 91 -32 167 -97 226s-154 88 -266 88c-61 0 -119 -9 -174 -26c-55 -18 -96 -39 -125 -64c-12 -12 -26 -13 -41 -4l-65 47c-13 9 -20 20 -21 32l107 676c3 18 11 27 26 27h709c18 0 27 -9 27 -27v-108c0 -18 -9 -27 -27 -27h-592l-65 -416c87 41 179 62 274 62z" />
    <glyph glyph-name="six" unicode="6" horiz-adv-x="1183" 
d="M596 975c142 0 260 -47 355 -141c94 -95 141 -214 141 -359c0 -143 -47 -262 -141 -357c-95 -95 -215 -143 -361 -143c-143 0 -262 46 -356 137c-95 91 -142 208 -142 351c0 190 45 368 134 533s211 304 366 419c19 12 39 18 59 19h191c30 0 44 -8 41 -23
c0 -7 -3 -11 -9 -12c-215 -98 -376 -253 -483 -465c63 27 131 41 205 41zM588 141c95 0 172 30 231 89s88 141 88 245s-29 186 -88 245s-134 89 -225 89c-93 0 -168 -31 -227 -93s-89 -144 -91 -247v-4c0 -103 29 -182 88 -239c58 -57 133 -85 224 -85z" />
    <glyph glyph-name="seven" unicode="7" horiz-adv-x="1189" 
d="M94 1448h998c18 0 27 -9 26 -27v-57c0 -15 -3 -30 -10 -43l-637 -1296c-8 -17 -21 -25 -39 -25h-131c-19 0 -33 18 -25 37l629 1249h-811c-18 0 -27 9 -26 27v108c0 18 9 27 26 27z" />
    <glyph glyph-name="eight" unicode="8" horiz-adv-x="1243" 
d="M883 772c169 -73 254 -197 254 -373c0 -129 -46 -231 -139 -308s-218 -116 -375 -116s-283 38 -376 115c-94 77 -141 180 -141 309c0 177 96 308 256 373c-138 68 -207 177 -206 326c0 115 43 208 128 281c85 72 198 108 339 108c139 0 252 -36 337 -107
c85 -72 127 -166 127 -282c1 -152 -67 -261 -204 -326zM839 1256c-51 46 -124 69 -218 69c-95 0 -167 -22 -217 -67c-51 -45 -76 -103 -76 -173c0 -71 26 -131 77 -180s123 -74 216 -74c94 0 167 25 218 75s76 110 76 179c0 68 -25 125 -76 171zM376 215
c57 -52 138 -78 245 -78c106 0 188 26 245 79s86 116 86 190c0 73 -29 136 -86 188s-138 78 -243 78c-107 0 -189 -26 -246 -78s-86 -116 -86 -191c0 -74 28 -137 85 -188z" />
    <glyph glyph-name="nine" unicode="9" horiz-adv-x="1183" 
d="M594 1458c143 0 262 -45 357 -136c94 -91 141 -208 141 -351c0 -190 -45 -368 -134 -533c-90 -165 -212 -305 -366 -420c-18 -12 -38 -18 -60 -18h-190c-30 0 -44 8 -41 23c0 7 3 11 8 12c215 98 376 253 484 465c-63 -27 -131 -41 -205 -41c-142 0 -260 47 -354 141
c-95 94 -142 213 -142 358c0 143 47 263 142 358c94 95 214 142 360 142zM590 625c93 0 168 31 227 93s89 144 90 247v4c0 103 -29 182 -87 239c-58 56 -133 84 -224 84c-95 0 -172 -30 -231 -89s-89 -141 -89 -244c0 -104 30 -186 89 -245s134 -89 225 -89z" />
    <glyph glyph-name="colon" unicode=":" horiz-adv-x="624" 
d="M313 719c-41 0 -76 15 -105 44s-44 64 -44 105c0 39 15 74 44 104c29 29 64 44 105 44c39 0 74 -15 104 -44c29 -29 44 -64 44 -104c0 -41 -15 -76 -44 -105c-30 -29 -65 -44 -104 -44zM313 80c-41 0 -76 15 -105 44s-44 64 -44 105c0 39 15 74 44 104
c29 29 64 44 105 44c39 0 74 -15 104 -44c29 -29 44 -64 44 -104c0 -41 -15 -76 -44 -105c-30 -29 -65 -44 -104 -44z" />
    <glyph glyph-name="semicolon" unicode=";" horiz-adv-x="628" 
d="M309 506c-41 0 -76 15 -105 44s-44 64 -44 105c0 39 15 74 44 104c29 29 64 44 105 44c39 0 74 -15 104 -44c29 -29 44 -64 44 -104c0 -41 -15 -76 -44 -105c-30 -29 -65 -44 -104 -44zM190 -319c-12 -3 -19 1 -22 10l-16 45c-1 12 3 21 14 26c44 15 84 39 120 71
s54 69 54 110c0 31 -20 47 -61 47c-33 0 -59 13 -80 39s-31 57 -31 92c0 42 15 78 44 107s66 44 110 44c99 0 149 -84 149 -219c0 -171 -94 -295 -281 -372z" />
    <glyph glyph-name="less" unicode="&#x3c;" horiz-adv-x="1150" 
d="M1001 1114v-70c0 -19 -8 -31 -24 -34l-698 -291l698 -291c17 -4 25 -16 24 -35v-69c0 -16 -15 -27 -28 -19l-826 359c-13 8 -20 18 -20 30v51c0 13 7 23 20 29l826 361c13 5 28 -5 28 -21z" />
    <glyph glyph-name="equal" unicode="=" horiz-adv-x="1415" 
d="M1167 874l-921 -2c-18 0 -27 9 -27 27v64c0 18 9 27 27 26l921 2c18 0 27 -9 27 -26v-64c0 -18 -9 -27 -27 -27zM1167 457l-921 -2c-18 0 -27 9 -27 26v64c0 18 9 27 27 26l921 2c18 0 27 -9 27 -26v-64c0 -18 -9 -27 -27 -26z" />
    <glyph glyph-name="greater" unicode="&#x3e;" horiz-adv-x="1150" 
d="M178 1135l826 -361c13 -5 20 -15 20 -29v-51c0 -12 -7 -22 -20 -30l-826 -359c-16 -8 -28 2 -28 19v69c0 19 8 31 24 35l698 291l-698 291c-17 4 -25 15 -24 34v70c0 21 9 28 28 21z" />
    <glyph glyph-name="question" unicode="?" horiz-adv-x="1181" 
d="M96 1315c109 150 267 225 473 225c147 0 267 -38 360 -114c92 -77 138 -181 138 -312c0 -159 -68 -271 -203 -338c-18 -9 -45 -20 -80 -33s-59 -24 -72 -32c-26 -17 -59 -64 -59 -144v-88c0 -18 -9 -27 -26 -26h-117c-18 0 -27 9 -27 26v137c0 88 19 145 74 190
c27 23 53 41 78 54s61 28 108 47c101 41 146 94 146 203c0 177 -119 270 -314 270c-147 0 -267 -58 -358 -174c-11 -13 -30 -15 -41 -2l-76 78c-9 11 -11 22 -4 33zM565 -25c-41 0 -76 15 -105 44s-44 65 -44 106c0 39 15 74 44 103s64 44 105 44c39 0 74 -15 104 -44
c29 -29 44 -64 44 -103c0 -41 -15 -76 -44 -105c-30 -30 -65 -45 -104 -45z" />
    <glyph glyph-name="at" unicode="@" horiz-adv-x="1785" 
d="M893 1339c211 0 389 -71 532 -213s215 -320 215 -534c0 -150 -36 -273 -107 -368c-72 -96 -167 -137 -284 -124c-139 13 -218 107 -207 246c-77 -93 -166 -139 -268 -139c-91 0 -160 35 -207 105c-47 69 -61 161 -40 276c20 115 65 206 136 273c70 67 149 100 238 100
c104 0 179 -44 225 -132l19 105c1 11 9 16 22 16h80c15 0 21 -7 17 -22l-101 -578c-13 -81 22 -147 99 -155c79 -12 147 23 204 106c56 82 84 184 84 307c0 187 -66 342 -198 464c-133 122 -286 183 -459 183s-325 -61 -454 -183c-130 -122 -195 -280 -195 -474
c0 -191 63 -350 189 -477c125 -128 278 -191 458 -191c103 0 199 23 289 70c12 4 20 0 24 -12l17 -45c4 -12 0 -20 -13 -25c-105 -51 -213 -76 -323 -76c-202 0 -375 73 -520 219c-145 145 -218 323 -218 533c0 207 71 383 212 528s319 217 534 217zM817 328
c128 0 219 99 250 260c31 164 -29 252 -149 252c-63 0 -117 -23 -163 -69s-76 -109 -91 -189c-31 -164 30 -254 153 -254z" />
    <glyph glyph-name="A" unicode="A" horiz-adv-x="1476" 
d="M834 1413l567 -1380c8 -22 0 -33 -23 -33h-153c-15 0 -25 6 -29 18l-139 338h-627l-149 -338c-4 -12 -14 -18 -29 -18h-156c-23 0 -30 11 -20 33l608 1380c5 12 15 18 29 19h92c15 0 25 -6 29 -19zM997 508l-241 635l-262 -635h503z" />
    <glyph glyph-name="B" unicode="B" horiz-adv-x="1439" 
d="M1077 743c161 -57 260 -185 260 -368c0 -245 -176 -375 -481 -375h-639c-18 0 -27 9 -27 27v1380c0 18 9 27 27 27h541c311 0 485 -127 485 -375c0 -148 -55 -253 -166 -316zM776 1249h-387v-442h359c205 0 307 72 307 217c0 150 -93 225 -279 225zM389 182h469
c188 0 277 87 277 230c0 139 -120 225 -328 225h-418v-455z" />
    <glyph glyph-name="C" unicode="C" horiz-adv-x="1486" 
d="M846 -27c-210 0 -385 72 -524 215s-209 319 -209 527c0 203 68 377 203 522s298 217 489 217c237 0 435 -72 594 -215c11 -9 11 -20 0 -31l-101 -102c-9 -9 -19 -9 -28 0c-108 108 -258 162 -449 162c-145 0 -267 -54 -366 -161c-100 -107 -150 -238 -150 -392
c0 -155 51 -286 152 -393s224 -160 370 -160c100 0 175 10 224 30c49 19 112 58 190 115c9 7 18 7 25 0l108 -106c12 -12 12 -23 0 -33c-154 -130 -330 -195 -528 -195z" />
    <glyph glyph-name="D" unicode="D" horiz-adv-x="1519" 
d="M217 1434h531c199 0 358 -65 477 -195s178 -304 178 -522c0 -223 -58 -398 -175 -525c-117 -128 -277 -192 -480 -192h-531c-18 0 -27 9 -27 27v1380c0 18 9 27 27 27zM389 184h359c145 0 257 47 337 140c79 93 119 222 119 389c0 168 -40 299 -120 394
c-81 95 -193 142 -336 142h-359v-1065z" />
    <glyph glyph-name="E" unicode="E" horiz-adv-x="1345" 
d="M389 184h832c18 0 27 -9 26 -26v-131c0 -18 -9 -27 -26 -27h-1004c-18 0 -27 9 -27 27v1380c0 18 9 27 27 27h995c18 0 27 -9 27 -27v-131c0 -18 -9 -27 -27 -27h-823v-448h698c18 0 27 -9 27 -27v-102c0 -18 -9 -27 -27 -27h-698v-461z" />
    <glyph glyph-name="F" unicode="F" horiz-adv-x="1316" 
d="M217 1434h995c18 0 27 -9 27 -27v-131c0 -18 -9 -27 -27 -27h-823v-448h698c18 0 27 -9 27 -27v-102c0 -18 -9 -27 -27 -27h-698v-618c0 -18 -9 -27 -27 -27h-145c-18 0 -27 9 -27 27v1380c0 18 9 27 27 27z" />
    <glyph glyph-name="G" unicode="G" horiz-adv-x="1556" 
d="M821 737h568c18 0 27 -9 26 -26v-684c0 -18 -9 -27 -26 -27h-101c-17 0 -26 9 -28 27l-17 114c-112 -108 -258 -162 -438 -161c-199 0 -364 68 -495 205c-131 136 -197 311 -197 524c0 211 65 388 195 530c129 142 292 216 489 223c104 3 210 -14 317 -50
s200 -89 279 -159c11 -9 11 -19 0 -30l-99 -99c-8 -8 -17 -8 -28 0c-52 35 -94 63 -127 83s-79 39 -138 56c-60 17 -122 23 -186 19c-154 -8 -279 -65 -374 -170c-96 -105 -144 -238 -144 -399c0 -164 50 -298 149 -402c99 -105 230 -157 394 -157c172 0 323 62 399 182v246
h-418c-19 0 -29 9 -28 26v103c0 18 9 27 28 26z" />
    <glyph glyph-name="H" unicode="H" horiz-adv-x="1519" 
d="M1157 1434h146c18 0 27 -9 26 -27v-1380c0 -18 -9 -27 -26 -27h-146c-18 0 -27 9 -27 27v618h-741v-618c0 -18 -9 -27 -27 -27h-145c-18 0 -27 9 -27 27v1380c0 18 9 27 27 27h145c18 0 27 -9 27 -27v-606h741v606c0 18 9 27 27 27z" />
    <glyph glyph-name="I" unicode="I" horiz-adv-x="579" 
d="M362 0h-145c-18 0 -27 9 -27 27v1380c0 18 9 27 27 27h145c18 0 27 -9 27 -27v-1380c0 -18 -9 -27 -27 -27z" />
    <glyph glyph-name="J" unicode="J" horiz-adv-x="1071" 
d="M457 -23c-153 0 -296 70 -383 185c-7 11 -6 21 2 31l84 92c13 17 28 16 43 -2c23 -25 43 -43 59 -56c15 -13 38 -26 67 -37c29 -12 62 -18 97 -18c172 0 276 117 276 320v915c0 18 9 27 27 27h145c18 0 27 -9 27 -27v-918c0 -154 -41 -278 -123 -371
c-83 -94 -190 -141 -321 -141z" />
    <glyph glyph-name="K" unicode="K" horiz-adv-x="1415" 
d="M702 834l637 -797c16 -21 6 -37 -18 -37h-184c-11 0 -21 5 -31 14l-543 682l-174 -174v-495c0 -18 -9 -27 -27 -27h-145c-18 0 -27 9 -27 27v1380c0 18 9 27 27 27h145c18 0 27 -9 27 -27v-639l623 651c8 9 18 14 30 15h213c24 0 34 -20 15 -39z" />
    <glyph glyph-name="L" unicode="L" horiz-adv-x="1323" 
d="M389 184h832c18 0 27 -9 26 -26v-131c0 -18 -9 -27 -26 -27h-1004c-18 0 -27 9 -27 27v1380c0 18 9 27 27 27h145c18 0 27 -9 27 -27v-1223z" />
    <glyph glyph-name="M" unicode="M" horiz-adv-x="1761" 
d="M1425 1434h119c18 0 27 -9 27 -27v-1380c0 -18 -9 -27 -27 -27h-145c-18 0 -27 9 -27 27v981l-411 -678c-7 -12 -16 -18 -29 -19h-98c-12 0 -22 6 -29 19l-416 682v-985c0 -18 -9 -27 -27 -27h-145c-18 0 -27 9 -27 27v1380c0 18 9 27 27 27h117c13 0 24 -6 31 -17
l518 -848l514 848c7 11 16 16 28 17z" />
    <glyph glyph-name="N" unicode="N" horiz-adv-x="1632" 
d="M1270 1434h145c18 0 27 -9 27 -27v-1380c0 -18 -9 -27 -27 -27h-112c-15 0 -26 5 -31 14l-883 1061v-1048c0 -18 -9 -27 -27 -27h-145c-18 0 -27 9 -27 27v1380c0 18 9 27 27 27h113c12 0 22 -5 30 -15l883 -1057v1045c0 18 9 27 27 27z" />
    <glyph glyph-name="O" unicode="O" horiz-adv-x="1689" 
d="M1378 174c-132 -133 -309 -199 -532 -199s-400 66 -531 199c-132 133 -198 310 -198 533c0 224 66 404 199 539c132 135 309 202 530 202c223 0 400 -68 532 -203c131 -135 197 -315 197 -538s-66 -400 -197 -533zM458 308c95 -96 224 -144 388 -144s293 48 388 144
c95 95 142 228 142 399s-48 306 -143 405s-224 148 -387 148s-292 -49 -387 -148c-96 -99 -144 -234 -144 -405s48 -304 143 -399z" />
    <glyph glyph-name="P" unicode="P" horiz-adv-x="1349" 
d="M217 1434h545c147 0 266 -39 356 -117s135 -181 135 -309c0 -131 -45 -240 -136 -326s-209 -129 -355 -129h-373v-526c0 -18 -9 -27 -27 -27h-145c-18 0 -27 9 -27 27v1380c0 18 9 27 27 27zM389 731h373c93 0 166 24 220 72c54 47 81 109 81 184s-27 138 -82 188
c-55 49 -128 74 -219 74h-373v-518z" />
    <glyph glyph-name="Q" unicode="Q" horiz-adv-x="1697" 
d="M1393 190l139 -143c9 -9 9 -19 0 -29l-102 -102c-11 -11 -21 -10 -31 2l-152 156c-115 -65 -248 -98 -401 -99c-223 0 -400 66 -531 199c-132 133 -198 310 -198 533c0 224 66 404 199 539c132 135 309 202 530 202c223 0 400 -68 532 -203c131 -135 197 -315 197 -538
c0 -212 -61 -384 -182 -517zM846 164c101 0 189 18 262 55l-195 201c-11 9 -11 20 0 31l105 100c11 11 21 10 31 -2l208 -217c79 97 119 222 119 375c0 171 -48 306 -143 405s-224 148 -387 148s-292 -49 -387 -148c-96 -99 -144 -234 -144 -405s48 -304 143 -399
c95 -96 224 -144 388 -144z" />
    <glyph glyph-name="R" unicode="R" horiz-adv-x="1372" 
d="M977 592l285 -559c11 -19 0 -33 -21 -33h-156c-15 0 -25 6 -28 18l-271 535h-24h-373v-526c0 -18 -9 -27 -27 -27h-145c-18 0 -27 9 -27 27v1380c0 18 9 27 27 27h545c147 0 266 -39 356 -117s135 -181 135 -309c0 -94 -24 -178 -73 -252s-117 -129 -203 -164zM762 1249
h-373v-518h373c93 0 166 24 220 72c54 47 81 109 81 184s-27 138 -82 188c-55 49 -128 74 -219 74z" />
    <glyph glyph-name="S" unicode="S" horiz-adv-x="1236" 
d="M635 -25c-205 0 -380 75 -526 226c-11 12 -12 24 -5 37l68 104c11 17 24 18 39 4c119 -124 253 -186 403 -186c94 0 170 21 228 64c57 42 86 102 86 179c0 68 -24 118 -73 149s-132 60 -249 89c-47 11 -81 19 -103 26c-23 6 -57 17 -102 33c-46 15 -82 32 -107 50
c-25 17 -53 40 -82 67s-50 60 -63 99c-13 38 -20 80 -20 126c0 123 45 221 136 295s210 111 358 111c173 0 330 -59 471 -176c12 -8 15 -20 10 -37l-57 -107c-8 -13 -20 -17 -37 -10c-123 101 -250 152 -383 152c-89 0 -161 -20 -216 -60c-55 -41 -83 -95 -83 -163
c0 -60 29 -106 61 -133c15 -14 38 -27 68 -39c30 -13 55 -21 75 -26c19 -5 48 -11 86 -20c60 -13 110 -25 149 -36s83 -28 134 -50c51 -23 90 -48 119 -76c57 -56 106 -151 106 -268c0 -130 -44 -233 -133 -309c-89 -77 -208 -115 -358 -115z" />
    <glyph glyph-name="T" unicode="T" horiz-adv-x="1388" 
d="M104 1434h1180c18 0 27 -9 27 -27v-135c0 -18 -9 -27 -27 -27h-491v-1218c0 -18 -9 -27 -27 -27h-145c-18 0 -27 9 -27 27v1218h-490c-18 0 -27 9 -26 27v135c0 18 9 27 26 27z" />
    <glyph glyph-name="U" unicode="U" horiz-adv-x="1482" 
d="M1168 157c-104 -120 -246 -180 -426 -180c-181 0 -323 60 -426 180c-104 119 -156 282 -156 488v762c0 18 9 27 26 27h146c18 0 27 -9 26 -27v-762c0 -300 138 -469 384 -469s382 169 382 469v762c0 18 9 27 27 27h145c18 0 27 -9 27 -27v-762c0 -206 -52 -369 -155 -488
z" />
    <glyph glyph-name="V" unicode="V" horiz-adv-x="1470" 
d="M1212 1434h160c19 0 29 -12 21 -33l-570 -1383c-4 -12 -13 -18 -28 -18h-95c-13 0 -23 6 -30 18l-596 1383c-8 16 3 33 22 33h160c15 0 25 -7 29 -21l460 -1120l437 1120c7 13 17 20 30 21z" />
    <glyph glyph-name="W" unicode="W" horiz-adv-x="2158" 
d="M1907 1434h147c21 0 30 -17 25 -33l-455 -1381c-4 -13 -14 -20 -29 -20h-125c-15 0 -25 7 -28 20l-365 992l-362 -992c-4 -13 -14 -20 -29 -20h-125c-17 0 -26 7 -29 20l-452 1381c-5 16 3 33 22 33h150c17 0 26 -7 27 -21l352 -1098l362 1033c7 15 17 23 31 22h109
c12 0 21 -7 28 -22l361 -1047l356 1112c4 13 14 20 29 21z" />
    <glyph glyph-name="X" unicode="X" horiz-adv-x="1593" 
d="M928 737l588 -700c13 -19 6 -37 -19 -37h-176c-13 0 -24 5 -31 14l-493 590l-496 -590c-7 -9 -17 -14 -31 -14h-174c-24 0 -34 18 -18 37l586 702l-549 658c-16 19 -6 37 18 37h170c11 0 21 -5 31 -15l461 -551l460 551c7 9 16 14 29 15h178c24 0 33 -18 17 -37z" />
    <glyph glyph-name="Y" unicode="Y" horiz-adv-x="1441" 
d="M1182 1434h170c24 0 31 -24 18 -37l-549 -742v-628c0 -18 -9 -27 -26 -27h-146c-18 0 -27 9 -26 27v635l-549 735c-16 19 -6 37 18 37h170c15 0 26 -6 31 -17l432 -590l426 590c5 11 16 16 31 17z" />
    <glyph glyph-name="Z" unicode="Z" horiz-adv-x="1497" 
d="M365 164h1013c18 0 27 -9 27 -27v-110c0 -18 -9 -27 -27 -27h-1261c-18 0 -27 9 -27 27v84c0 11 4 20 12 28l1018 1131h-989c-18 0 -27 9 -27 26v111c0 18 9 27 27 27h1231c18 0 27 -9 27 -27v-88c0 -9 -4 -20 -13 -31z" />
    <glyph glyph-name="bracketleft" unicode="[" horiz-adv-x="694" 
d="M594 1444l-264 -2v-1680l262 2c19 0 29 -9 29 -26v-94c0 -18 -9 -27 -27 -27l-385 -2c-18 0 -27 10 -27 29v1921c0 18 9 27 27 26h383c19 0 29 -9 29 -26v-95c0 -17 -9 -26 -27 -26z" />
    <glyph glyph-name="backslash" unicode="\" horiz-adv-x="1026" 
d="M999 -49h-133l-837 1583h135z" />
    <glyph glyph-name="bracketright" unicode="]" horiz-adv-x="694" 
d="M100 1591h385c18 0 27 -9 27 -26v-1921c0 -16 -14 -29 -29 -29l-383 2c-18 0 -27 9 -26 27v94c0 18 9 27 26 26l262 -2v1680l-262 2c-18 0 -27 9 -26 26v95c0 18 9 27 26 26z" />
    <glyph glyph-name="asciicircum" unicode="^" horiz-adv-x="1124" 
d="M616 1450l388 -825c5 -16 -6 -29 -19 -29h-72c-17 0 -28 8 -34 25l-318 700l-315 -700c-7 -17 -19 -25 -37 -25h-70c-13 0 -23 12 -18 29l385 825c5 13 15 20 29 20h51c12 0 22 -7 30 -20z" />
    <glyph glyph-name="underscore" unicode="_" horiz-adv-x="1538" 
d="M1300 -137l-1062 -2c-18 0 -27 9 -27 26v86c0 18 9 27 27 27h1062c18 0 27 -9 27 -27v-84c0 -18 -9 -27 -27 -26z" />
    <glyph glyph-name="a" unicode="a" horiz-adv-x="1361" 
d="M1069 1051h115c18 0 27 -9 26 -27v-997c0 -18 -9 -27 -26 -27h-115c-13 0 -22 9 -27 27l-14 153c-105 -137 -245 -205 -418 -205c-149 0 -273 51 -373 153c-101 102 -151 234 -151 396c0 164 50 297 151 400c100 102 222 153 367 153c172 0 325 -79 424 -211l14 158
c3 18 12 27 27 27zM651 139c104 0 192 33 264 100c71 66 107 156 107 271c0 116 -36 212 -109 288c-73 75 -163 113 -270 113c-103 0 -189 -36 -258 -107c-69 -72 -104 -165 -104 -280s35 -207 105 -278s158 -107 265 -107z" />
    <glyph glyph-name="b" unicode="b" horiz-adv-x="1374" 
d="M770 1077c145 0 267 -51 368 -153c100 -103 150 -236 150 -400c0 -163 -50 -295 -150 -396c-101 -102 -225 -153 -374 -153c-180 0 -322 73 -426 218l-16 -166c-4 -18 -13 -27 -27 -27h-115c-18 0 -27 9 -26 27v1433c0 18 9 27 26 27h146c18 0 27 -9 26 -27v-586
c108 135 247 203 418 203zM723 139c107 0 195 36 266 107c70 71 105 163 105 278s-35 208 -104 280c-70 71 -156 107 -259 107c-107 0 -196 -38 -269 -113c-73 -76 -110 -172 -110 -288c0 -115 36 -205 108 -271c71 -67 159 -100 263 -100z" />
    <glyph glyph-name="c" unicode="c" horiz-adv-x="1091" 
d="M631 -25c-159 0 -290 53 -393 160c-104 107 -156 237 -156 391c0 153 52 283 156 390c103 107 234 161 391 161c153 0 282 -57 389 -170c12 -12 11 -25 -4 -39l-88 -67c-13 -9 -26 -8 -37 4c-74 71 -160 106 -258 106c-104 0 -191 -37 -260 -111
c-70 -75 -105 -167 -105 -276s35 -201 105 -274c69 -74 158 -111 266 -111c77 0 133 20 179 45c32 18 43 27 65 44c11 8 17 13 18 14c15 9 28 10 37 2l88 -66c15 -12 17 -24 6 -37c-103 -111 -236 -166 -399 -166z" />
    <glyph glyph-name="d" unicode="d" horiz-adv-x="1374" 
d="M1049 1487h145c18 0 27 -9 27 -27v-1433c0 -18 -9 -27 -27 -27h-115c-13 0 -22 9 -26 27l-17 166c-104 -145 -246 -217 -426 -218c-149 0 -273 51 -373 153c-101 102 -151 234 -151 396c0 164 50 297 151 400c100 102 222 153 367 153c171 0 310 -68 418 -203v586
c0 18 9 27 27 27zM651 139c104 0 192 33 264 100c71 66 107 156 107 271c0 116 -36 212 -109 288c-73 75 -163 113 -270 113c-103 0 -189 -36 -258 -107c-69 -72 -104 -165 -104 -280s35 -207 105 -278s158 -107 265 -107z" />
    <glyph glyph-name="e" unicode="e" horiz-adv-x="1210" 
d="M608 1077c150 0 274 -51 372 -154c97 -103 146 -236 146 -397c0 -13 -1 -26 -2 -37c-1 -17 -11 -25 -28 -24h-830c9 -103 49 -183 118 -240s158 -86 267 -86c79 0 144 16 195 47s97 77 139 138c12 12 25 13 39 2l76 -80c11 -13 10 -28 -2 -43
c-99 -145 -270 -228 -463 -228c-160 0 -292 52 -395 155c-104 103 -156 234 -156 392c0 155 49 287 148 394c98 107 223 161 376 161zM844 833c-61 52 -138 78 -229 78c-92 0 -169 -26 -232 -78c-63 -53 -101 -126 -115 -219h684c-11 94 -47 167 -108 219z" />
    <glyph glyph-name="f" unicode="f" horiz-adv-x="774" 
d="M571 1368c-120 0 -180 -63 -180 -188v-129h311c18 0 27 -9 27 -27v-109c0 -18 -9 -27 -27 -26h-311v-862c0 -18 -9 -27 -26 -27h-140c-18 0 -27 9 -26 27v862h-129c-18 0 -27 9 -27 26v109c0 18 9 27 27 27h129v114c0 236 108 354 325 355c74 0 144 -11 211 -33
c18 -7 24 -18 19 -33l-33 -90c-5 -18 -18 -23 -37 -16c-37 13 -75 20 -113 20z" />
    <glyph glyph-name="g" unicode="g" horiz-adv-x="1323" 
d="M1020 1053h125c18 0 27 -9 26 -27v-956c0 -151 -53 -269 -158 -354c-106 -84 -243 -126 -411 -126c-143 0 -281 38 -412 113c-13 7 -17 18 -12 35l43 96c8 18 20 22 37 12c94 -65 204 -98 330 -98c113 0 206 27 278 81c71 54 107 128 107 222v168
c-97 -111 -225 -166 -385 -166c-145 0 -265 47 -361 142c-97 94 -145 217 -145 369c0 151 48 275 144 370c95 95 213 143 352 143c161 0 307 -74 403 -194l12 143c4 18 13 27 27 27zM614 217c98 0 182 30 253 89s106 140 106 243c0 104 -36 190 -107 259
c-72 69 -158 103 -258 103c-95 0 -176 -32 -242 -96c-67 -64 -100 -148 -100 -251c0 -104 33 -188 99 -251c66 -64 149 -96 249 -96z" />
    <glyph glyph-name="h" unicode="h" horiz-adv-x="1275" 
d="M729 1077c131 0 234 -43 308 -129c73 -86 110 -210 110 -373v-548c0 -18 -9 -27 -27 -27h-145c-18 0 -27 9 -27 27v548c0 104 -25 186 -74 246c-50 60 -118 90 -204 90c-177 0 -298 -127 -318 -362v-522c0 -18 -9 -27 -26 -27h-146c-18 0 -27 9 -26 27v1433
c0 18 9 27 26 27h146c18 0 27 -9 26 -27v-559c94 117 220 176 377 176z" />
    <glyph glyph-name="i" unicode="i" horiz-adv-x="501" 
d="M252 1282c-35 0 -65 12 -90 37s-37 54 -37 88s13 64 38 89s55 38 89 38s63 -13 88 -38s37 -55 37 -89s-12 -63 -37 -88s-54 -37 -88 -37zM324 0h-146c-18 0 -27 9 -26 27v997c0 18 9 27 26 27h146c18 0 27 -9 26 -27v-997c0 -18 -9 -27 -26 -27z" />
    <glyph glyph-name="j" unicode="j" horiz-adv-x="503" 
d="M250 1282c-34 0 -63 12 -88 37s-37 54 -37 88s12 64 37 89s54 38 88 38c35 0 65 -13 90 -38s37 -55 37 -89s-12 -63 -37 -88s-55 -37 -90 -37zM49 -408c-33 0 -52 8 -57 23l-31 104c-4 21 9 34 39 39c91 16 152 95 152 238v1028c0 18 9 27 26 27h146c18 0 27 -9 26 -27
v-1038c0 -107 -28 -198 -85 -273s-129 -116 -216 -121z" />
    <glyph glyph-name="k" unicode="k" horiz-adv-x="1183" 
d="M668 612l473 -579c13 -21 3 -33 -17 -33h-151c-15 0 -27 5 -35 16l-399 473l-187 -178v-284c0 -18 -9 -27 -26 -27h-146c-18 0 -27 9 -26 27v1433c0 18 9 27 26 27h146c18 0 27 -9 26 -27v-928l516 502c8 9 20 14 35 15h172c21 0 31 -17 15 -33z" />
    <glyph glyph-name="l" unicode="l" horiz-adv-x="505" 
d="M326 0h-146c-18 0 -27 9 -26 27v1433c0 18 9 27 26 27h146c18 0 27 -9 26 -27v-1433c0 -18 -9 -27 -26 -27z" />
    <glyph glyph-name="m" unicode="m" horiz-adv-x="2062" 
d="M1513 1077c133 0 236 -44 310 -131c73 -87 110 -211 110 -371v-548c0 -18 -9 -27 -26 -27h-146c-18 0 -27 9 -26 27v548c0 104 -25 186 -75 246s-118 90 -204 90c-177 0 -298 -127 -317 -362v-522c0 -18 -9 -27 -27 -27h-133c-18 0 -27 9 -27 27v548
c0 104 -26 186 -77 246c-52 60 -121 90 -207 90c-177 0 -298 -127 -318 -362v-522c0 -18 -9 -27 -26 -27h-146c-18 0 -27 9 -26 27v997c0 18 9 27 26 27h115c13 0 22 -9 26 -27l13 -150c97 135 228 203 395 203c177 0 299 -77 365 -231c98 154 238 231 421 231z" />
    <glyph glyph-name="n" unicode="n" horiz-adv-x="1286" 
d="M739 1077c131 0 234 -43 308 -129c73 -86 110 -210 110 -373v-548c0 -18 -9 -27 -27 -27h-145c-18 0 -27 9 -27 27v548c0 104 -25 186 -74 246c-50 60 -118 90 -204 90c-89 0 -163 -31 -224 -94s-96 -152 -106 -268v-522c0 -18 -9 -27 -26 -27h-146c-18 0 -27 9 -26 27
v997c0 18 9 27 26 27h115c13 0 22 -9 26 -27l13 -154c101 138 236 207 407 207z" />
    <glyph glyph-name="o" unicode="o" horiz-adv-x="1267" 
d="M1027 132c-105 -105 -236 -157 -394 -157c-159 0 -290 52 -393 157c-104 105 -156 236 -156 395c0 158 52 289 155 394c103 104 234 156 394 156c159 0 291 -52 395 -156c104 -105 156 -236 156 -394c0 -159 -52 -290 -157 -395zM633 139c104 0 191 36 260 109
c69 72 104 165 104 278s-35 206 -104 278c-70 71 -157 107 -260 107s-189 -35 -258 -106c-70 -71 -105 -164 -105 -279s35 -208 105 -279c69 -72 155 -108 258 -108z" />
    <glyph glyph-name="p" unicode="p" horiz-adv-x="1374" 
d="M770 1081c145 0 267 -51 368 -153c100 -103 150 -236 150 -400c0 -163 -50 -295 -150 -396c-101 -101 -225 -152 -374 -152c-169 0 -307 66 -412 198v-522c0 -18 -9 -27 -26 -27h-146c-18 0 -27 9 -26 27v1370c0 18 9 27 26 27h115c13 0 22 -9 27 -27l14 -170
c99 139 257 225 434 225zM723 143c107 0 195 36 266 107c70 71 105 163 105 278s-35 208 -104 280c-70 71 -156 107 -259 107c-107 0 -196 -38 -269 -113c-73 -76 -110 -172 -110 -288c0 -115 36 -205 108 -271c71 -67 159 -100 263 -100z" />
    <glyph glyph-name="q" unicode="q" horiz-adv-x="1374" 
d="M1079 1051h115c18 0 27 -9 27 -27v-1370c0 -18 -9 -27 -27 -27h-145c-18 0 -27 9 -27 27v524c-105 -133 -243 -199 -412 -198c-149 0 -273 51 -373 153c-101 101 -151 233 -151 395c0 164 50 297 151 400c100 102 222 153 367 153c177 0 337 -85 434 -225l15 168
c4 18 13 27 26 27zM651 143c104 0 192 33 264 100c71 66 107 156 107 271c0 116 -36 212 -109 288c-73 75 -163 113 -270 113c-103 0 -189 -36 -258 -107c-69 -72 -104 -165 -104 -280s35 -207 105 -278s158 -107 265 -107z" />
    <glyph glyph-name="r" unicode="r" horiz-adv-x="841" 
d="M791 1067c22 -5 27 -18 16 -37l-86 -149c-4 -8 -12 -12 -23 -13c-5 0 -32 4 -59 4c-167 0 -264 -106 -293 -317v-528c0 -18 -9 -27 -27 -27h-139c-18 0 -27 9 -26 27l-2 997c0 18 9 27 26 27h115c13 0 22 -9 26 -27l13 -160c69 124 185 193 346 207c45 4 83 3 113 -4z
" />
    <glyph glyph-name="s" unicode="s" horiz-adv-x="999" 
d="M502 -25c-93 0 -176 15 -249 46c-73 30 -129 69 -167 118c-12 12 -13 25 -2 39l53 80c11 17 24 18 41 4c67 -82 173 -123 320 -123c159 0 238 55 237 164c0 55 -17 88 -70 113c-27 12 -52 21 -75 28c-23 6 -60 14 -111 25c-59 12 -106 24 -143 35s-75 27 -116 49
c-82 44 -124 114 -124 213c0 95 37 171 112 227c74 56 172 84 294 84c141 0 266 -44 377 -133c17 -9 19 -22 6 -39l-54 -76c-9 -15 -22 -18 -38 -8c-77 60 -170 90 -281 90c-153 0 -229 -46 -229 -139c0 -31 12 -57 36 -78c23 -21 49 -36 77 -44c28 -9 67 -18 116 -27
c9 -1 17 -3 23 -5c127 -26 223 -61 289 -105c65 -45 98 -114 98 -208c0 -100 -37 -180 -110 -240c-74 -60 -177 -90 -310 -90z" />
    <glyph glyph-name="t" unicode="t" horiz-adv-x="817" 
d="M725 143l31 -88c5 -13 0 -24 -15 -32c-71 -31 -144 -47 -221 -48c-209 0 -313 127 -313 381v533h-135c-18 0 -27 9 -27 26v109c0 18 9 27 27 27h135v270c0 18 9 27 26 27h140c18 0 27 -9 26 -27v-270h306c18 0 27 -9 26 -27v-109c0 -18 -9 -27 -26 -26h-306v-547
c0 -82 13 -136 38 -163s70 -40 134 -40c49 0 73 4 101 13l18 8c19 7 31 1 35 -17z" />
    <glyph glyph-name="u" unicode="u" horiz-adv-x="1275" 
d="M952 1051h146c18 0 27 -9 26 -27v-997c0 -18 -9 -27 -26 -27h-115c-15 0 -24 9 -27 27l-12 131c-94 -121 -227 -182 -399 -183c-271 0 -416 171 -416 502v547c0 18 9 27 27 27h145c18 0 27 -9 27 -27v-547c0 -105 25 -188 76 -248c50 -60 118 -90 204 -90
c175 0 295 128 318 363v522c0 18 9 27 26 27z" />
    <glyph glyph-name="v" unicode="v" horiz-adv-x="1110" 
d="M901 1051h146c19 0 26 -15 18 -31l-399 -1000c-4 -13 -14 -20 -29 -20h-133c-15 0 -25 6 -29 18l-432 1002c-8 13 1 31 20 31h148c15 0 26 -8 33 -23l323 -799l299 797c7 17 18 25 35 25z" />
    <glyph glyph-name="w" unicode="w" horiz-adv-x="1644" 
d="M1442 1051h133c21 0 28 -10 22 -31l-352 -1000c-4 -13 -13 -20 -28 -20h-117c-15 0 -25 7 -29 20l-254 725l-246 -725c-7 -13 -17 -20 -30 -20h-117c-15 0 -25 7 -29 20l-346 1000c-4 21 4 31 23 31h133c18 0 29 -8 33 -23l245 -786l252 768c4 17 15 25 33 24h104
c17 0 28 -8 33 -24l256 -777l248 795c4 15 15 23 33 23z" />
    <glyph glyph-name="x" unicode="x" horiz-adv-x="1142" 
d="M690 530l402 -493c13 -21 4 -37 -19 -37h-166c-11 0 -21 5 -30 14l-304 373l-307 -373c-7 -9 -16 -14 -28 -14h-170c-24 0 -32 24 -19 37l408 493l-396 484c-15 25 -9 37 19 37h168c12 0 22 -5 31 -15l294 -362l299 362c5 9 15 14 29 15h170c27 0 32 -21 19 -37z" />
    <glyph glyph-name="y" unicode="y" horiz-adv-x="1107" 
d="M891 1051h151c22 0 29 -10 21 -31l-451 -1159c-71 -180 -178 -270 -323 -271c-67 0 -128 18 -185 54c-13 11 -16 23 -8 37l41 90c8 15 20 19 37 12c30 -17 62 -25 96 -25c81 0 134 53 183 185l22 59l-432 1018c-8 13 1 31 20 31h152c15 0 26 -8 33 -23l317 -780l293 780
c7 15 18 23 33 23z" />
    <glyph glyph-name="z" unicode="z" horiz-adv-x="1060" 
d="M989 1026v-96c0 -9 -5 -19 -14 -29l-645 -727h631c18 0 27 -9 26 -27v-120c0 -18 -9 -27 -26 -27h-869c-18 0 -27 9 -26 27v88c0 13 4 23 12 28l647 736h-606c-18 0 -27 9 -27 26v121c0 18 9 27 27 27h844c18 0 27 -9 26 -27z" />
    <glyph glyph-name="braceleft" unicode="{" horiz-adv-x="692" 
d="M592 1524c-31 -7 -55 -12 -72 -17s-36 -15 -55 -28c-19 -14 -33 -32 -41 -54c-11 -56 -16 -110 -16 -161c0 -52 3 -124 9 -217s9 -150 9 -170c0 -120 -41 -204 -123 -252c82 -45 123 -131 123 -256c0 -27 -3 -83 -8 -168s-8 -160 -8 -228c0 -67 5 -116 16 -149
c21 -44 68 -74 100 -82c15 -4 37 -9 66 -14c19 -4 29 -14 29 -29v-76c0 -16 -14 -32 -33 -29c-168 12 -277 65 -328 160c-18 38 -27 96 -27 175s5 165 14 260c9 94 13 155 13 182c0 52 -12 92 -35 119s-68 48 -135 63c-18 3 -27 12 -27 27v90c0 17 9 26 27 28
c67 15 112 37 135 64s35 66 35 117c0 27 -5 88 -14 182c-10 94 -15 180 -14 257s11 136 30 177c45 95 154 149 326 162c19 3 33 -12 33 -25v-80c0 -15 -10 -24 -29 -28z" />
    <glyph glyph-name="bar" unicode="|" horiz-adv-x="606" 
d="M350 -410h-94c-18 0 -27 9 -27 27v1995c0 18 9 27 27 26h94c18 0 27 -9 27 -26v-1995c0 -18 -9 -27 -27 -27z" />
    <glyph glyph-name="braceright" unicode="}" horiz-adv-x="690" 
d="M600 698c18 -3 27 -12 27 -28v-90c0 -15 -9 -24 -27 -27c-67 -15 -112 -37 -135 -65s-35 -68 -35 -121c0 -27 5 -88 14 -181c9 -94 13 -179 13 -257c0 -77 -9 -135 -27 -175c-51 -94 -160 -147 -328 -160c-19 -3 -32 13 -32 29v76c0 15 9 25 28 29c49 9 86 20 109 33
s42 34 57 63c21 65 20 208 9 377c-6 85 -9 141 -9 168c0 125 41 211 123 256c-82 47 -123 131 -123 252c0 22 2 62 5 119s7 110 11 161c3 51 4 102 3 155s-7 90 -17 113c-16 41 -62 72 -97 81c-17 5 -41 11 -71 18c-19 4 -29 13 -28 28v80c0 13 13 28 32 25
c161 -11 282 -69 326 -162c19 -41 29 -100 29 -177s-4 -163 -13 -256s-14 -154 -14 -181c0 -52 12 -92 35 -119s68 -49 135 -64z" />
    <glyph glyph-name="asciitilde" unicode="~" horiz-adv-x="1220" 
d="M285 487c-7 -13 -16 -17 -29 -12l-66 31c-12 5 -16 14 -12 26c51 125 126 188 225 189c53 0 122 -25 206 -74s145 -74 184 -74c57 0 104 32 139 97c8 12 18 16 29 12l65 -27c13 -5 18 -15 14 -28c-52 -135 -128 -203 -227 -203c-53 0 -123 26 -208 77s-147 77 -185 77
c-52 -1 -97 -31 -135 -91z" />
    <glyph glyph-name="exclamdown" unicode="&#xa1;" horiz-adv-x="626" 
d="M311 1124c41 0 76 -15 106 -44c29 -29 44 -64 44 -105c0 -39 -15 -74 -44 -103c-29 -30 -65 -45 -106 -45c-39 0 -74 15 -103 44s-44 64 -44 104c0 41 15 76 44 105s64 44 103 44zM250 647h125c18 0 27 -9 26 -26l21 -981c0 -18 -9 -27 -27 -27h-166c-18 0 -27 9 -26 27
l20 981c0 18 9 27 27 26z" />
    <glyph glyph-name="cent" unicode="&#xa2;" horiz-adv-x="1091" 
d="M936 442l88 -67c13 -11 15 -22 6 -35c-104 -111 -237 -166 -399 -166c-23 0 -41 1 -53 2l-25 -164c-3 -18 -13 -25 -31 -22l-63 10c-13 0 -26 14 -23 29l25 170c-115 34 -206 99 -275 196c-69 96 -104 205 -104 328c0 153 51 282 153 388c101 106 231 160 388 161l24 164
c3 18 13 25 31 22l63 -10c18 -3 26 -12 23 -29l-23 -157c105 -21 198 -73 277 -158c12 -12 11 -24 -4 -37l-88 -68c-13 -12 -26 -10 -37 5c-73 69 -158 104 -256 104c-105 0 -193 -37 -262 -111c-70 -75 -105 -166 -105 -274c0 -109 35 -201 106 -274
c70 -74 160 -111 269 -111c74 0 127 18 171 42c32 17 42 25 66 44c11 9 18 15 21 16c15 9 28 10 37 2z" />
    <glyph glyph-name="sterling" unicode="&#xa3;" horiz-adv-x="1351" 
d="M778 1303c-201 0 -301 -109 -301 -326v-252l520 2c18 0 27 -9 27 -27v-63c0 -18 -9 -27 -27 -27l-520 -2v-456h672c18 0 27 -9 27 -27v-98c0 -18 -9 -27 -27 -27l-975 -2c-18 0 -27 9 -27 27v100c0 18 9 27 27 27h127v456h-127c-18 0 -27 9 -27 27v63c0 18 9 27 27 27
h127v268c0 154 42 272 126 353s194 122 329 122c186 0 338 -75 456 -225c9 -11 8 -22 -4 -35l-73 -69c-12 -12 -25 -11 -39 2c-35 38 -64 66 -86 84c-22 17 -53 35 -94 52s-87 26 -138 26z" />
    <glyph glyph-name="currency" unicode="&#xa4;" horiz-adv-x="1517" 
d="M1194 340l119 -117c11 -13 11 -26 0 -39l-47 -43c-11 -13 -23 -13 -37 0l-117 117c-98 -75 -215 -113 -350 -113c-137 0 -255 39 -354 117l-121 -121c-13 -12 -26 -12 -39 0l-43 45c-13 13 -13 26 0 37l121 121c-79 97 -119 213 -119 348c0 137 40 253 119 350l-123 123
c-11 13 -11 26 0 39l47 43c11 13 23 13 37 0l121 -121c100 78 216 117 348 117s248 -40 348 -119l125 125c13 13 26 13 39 0l45 -47c11 -11 11 -23 0 -37l-127 -125c82 -104 123 -225 123 -362c0 -134 -38 -247 -115 -338zM762 307c104 0 193 34 267 102
c73 67 110 158 110 271c0 115 -37 210 -112 286c-75 75 -165 113 -271 113c-104 0 -193 -36 -267 -107c-75 -72 -112 -165 -112 -280c0 -113 37 -206 112 -277c74 -72 165 -108 273 -108z" />
    <glyph glyph-name="yen" unicode="&#xa5;" horiz-adv-x="1441" 
d="M1161 1434h191c24 0 31 -24 18 -37l-528 -715h305c17 0 25 -9 24 -27l3 -51c0 -18 -9 -27 -27 -26h-326v-197h326c17 0 25 -9 24 -27l3 -53c0 -18 -9 -27 -27 -27h-326v-247c0 -18 -9 -27 -26 -27h-148c-18 0 -27 9 -26 27v247h-326c-18 0 -27 9 -27 27v51
c0 18 9 27 27 27h326v196h-326c-18 0 -27 9 -27 27v51c0 18 9 27 27 27h313l-534 717c-16 19 -6 37 18 37h191c13 0 23 -6 30 -17l410 -577l407 577c7 11 17 16 31 17z" />
    <glyph glyph-name="brokenbar" unicode="&#xa6;" horiz-adv-x="602" 
d="M348 766h-94c-18 0 -27 9 -27 27v612c0 18 9 27 27 27h94c18 0 27 -9 27 -27v-612c0 -18 -9 -27 -27 -27zM348 -199h-94c-18 0 -27 9 -27 27v616c0 18 9 27 27 27h94c18 0 27 -9 27 -27v-616c0 -18 -9 -27 -27 -27z" />
    <glyph glyph-name="section" unicode="&#xa7;" horiz-adv-x="1122" 
d="M555 -137c-181 0 -314 55 -399 166c-7 11 -7 21 -2 32l51 76c11 15 22 15 35 0c63 -89 162 -133 299 -133c153 0 241 63 241 172c0 49 -18 85 -53 108c-35 22 -98 43 -188 64c-44 9 -78 18 -103 25s-56 18 -95 34c-39 15 -68 33 -89 52c-41 38 -80 103 -80 184
c0 109 53 188 158 236c-91 51 -137 123 -137 217c0 89 35 160 104 215s160 82 272 82c119 0 241 -44 367 -131c13 -5 15 -16 6 -31l-43 -78c-8 -11 -19 -13 -33 -6c-108 71 -206 106 -295 106c-65 0 -119 -14 -160 -42c-42 -28 -63 -66 -63 -113c0 -36 6 -65 37 -85
c15 -11 27 -19 34 -25s24 -12 50 -19s42 -12 47 -13s23 -5 53 -12c48 -11 85 -19 111 -26s60 -19 102 -36c41 -17 73 -36 95 -55c43 -40 86 -111 86 -198c0 -105 -46 -184 -138 -236c78 -48 117 -121 117 -219c0 -95 -34 -171 -103 -227s-164 -84 -284 -84zM328 655
c0 -55 23 -94 80 -118c29 -13 50 -21 65 -25c14 -4 39 -10 76 -18c33 -5 77 -14 133 -27c79 26 119 78 119 156c0 52 -18 90 -53 114c-36 23 -94 43 -175 60l-79 12c-104 -13 -166 -70 -166 -154z" />
    <glyph glyph-name="copyright" unicode="&#xa9;" horiz-adv-x="1288" 
d="M649 614c-142 0 -259 46 -351 137s-138 206 -138 345s46 255 137 346s206 137 344 137c141 0 257 -48 349 -143c92 -96 138 -214 138 -353c0 -138 -45 -251 -136 -338s-205 -131 -343 -131zM649 688c109 0 203 35 281 106c78 70 117 167 117 291c0 125 -40 227 -119 304
s-175 116 -287 116c-108 0 -201 -37 -280 -110c-79 -74 -119 -173 -119 -297c0 -125 40 -225 120 -299c79 -74 175 -111 287 -111zM651 836c-78 0 -141 25 -190 74s-74 111 -74 188c0 76 24 138 73 187c48 49 110 73 187 73c94 0 161 -40 201 -121c1 -8 -1 -13 -6 -16
l-68 -15c-7 -1 -12 2 -16 11c-26 38 -64 57 -113 57c-91 0 -156 -71 -156 -178c0 -104 64 -174 164 -174c42 0 78 18 109 53c5 7 11 9 16 8l68 -16c5 -4 7 -10 6 -17c-30 -76 -97 -114 -201 -114z" />
    <glyph glyph-name="guillemotleft" unicode="&#xab;" horiz-adv-x="1073" 
d="M109 623l372 262c13 11 33 3 33 -17v-90c0 -15 -5 -28 -14 -37l-260 -186l258 -184c11 -9 16 -22 16 -37v-90c0 -19 -18 -30 -33 -19l-372 262c-11 7 -16 17 -17 31v72c0 15 6 26 17 33zM946 868v-90c0 -15 -5 -28 -16 -37l-258 -186l258 -184c11 -11 16 -23 16 -37v-90
c0 -19 -18 -30 -33 -19l-372 262c-11 7 -16 17 -17 31v72c0 15 6 26 17 33l372 262c13 11 33 3 33 -17z" />
    <glyph glyph-name="logicalnot" unicode="&#xac;" horiz-adv-x="1337" 
d="M1108 737l2 -491c0 -13 -12 -25 -27 -25l-63 -2c-18 0 -27 9 -27 27l-2 401l-829 -2c-18 0 -27 9 -27 27v63c0 18 9 27 27 27l854 2h2h63h2c13 0 25 -14 25 -27z" />
    <glyph glyph-name="registered" unicode="&#xae;" horiz-adv-x="1288" 
d="M645 1579c139 0 255 -48 346 -143c91 -96 137 -214 137 -355c0 -138 -45 -250 -136 -337s-206 -130 -347 -130c-139 0 -255 46 -347 138c-92 91 -138 206 -138 344c0 139 46 255 137 346s207 137 348 137zM361 799c79 -74 173 -111 284 -111s205 35 284 106
c79 70 118 166 118 289c0 125 -40 227 -119 305s-174 117 -283 117c-111 0 -205 -37 -284 -110c-79 -74 -119 -173 -119 -297c0 -125 40 -225 119 -299zM752 1057l90 -174c5 -11 2 -16 -11 -17h-61c-5 0 -10 4 -14 11l-84 165h-103v-163c0 -8 -4 -12 -12 -13h-61
c-8 0 -12 4 -13 13v442c0 7 4 10 13 10h176c99 0 164 -58 164 -145c0 -61 -28 -104 -84 -129zM672 1257h-103v-139h103c52 0 82 29 82 70s-33 69 -82 69z" />
    <glyph glyph-name="degree" unicode="&#xb0;" horiz-adv-x="919" 
d="M459 985c-82 0 -149 27 -202 80s-79 121 -79 203s26 150 79 203s120 79 202 79c83 0 151 -26 204 -79c52 -53 78 -121 78 -203s-27 -150 -80 -203c-54 -53 -121 -80 -202 -80zM459 1092c51 0 92 16 125 49s49 75 49 127s-16 94 -49 127s-74 49 -125 49s-92 -16 -124 -49
s-48 -75 -48 -127s16 -94 49 -127s74 -49 123 -49z" />
    <glyph glyph-name="plusminus" unicode="&#xb1;" horiz-adv-x="1257" 
d="M1114 733l2 -65c0 -13 -13 -27 -26 -27h-402v-281c0 -18 -9 -27 -26 -26h-64c-18 0 -27 8 -27 24v283h-403c-18 0 -27 9 -27 27v63c0 18 9 27 27 27h401v282c0 18 9 27 27 27h63c18 0 27 -9 27 -27v-280h404c13 0 24 -14 24 -27zM195 193h868c18 0 27 -9 27 -27v-66
c0 -18 -9 -27 -27 -26l-868 2c-18 0 -27 9 -27 26v64c0 18 9 27 27 27z" />
    <glyph glyph-name="paragraph" unicode="&#xb6;" horiz-adv-x="1343" 
d="M1114 1364l2 -1589c0 -18 -9 -27 -26 -27h-64c-18 0 -27 9 -27 27l-2 1499l-338 -2v-1497c0 -18 -9 -27 -26 -27h-64c-18 0 -27 9 -26 27v788c-115 0 -213 40 -294 121s-122 178 -122 293c0 113 41 211 122 292s179 122 294 122h544c18 0 27 -9 27 -27z" />
    <glyph glyph-name="middot" unicode="&#xb7;" horiz-adv-x="665" 
d="M334 444c-41 0 -76 15 -105 44c-30 29 -45 65 -45 106c0 39 15 74 44 103s65 44 106 44c39 0 74 -15 103 -44s44 -64 44 -103c0 -41 -15 -76 -44 -105c-29 -30 -64 -45 -103 -45z" />
    <glyph glyph-name="guillemotright" unicode="&#xbb;" horiz-adv-x="1075" 
d="M158 885l372 -262c11 -7 16 -18 17 -33v-72c0 -13 -6 -24 -17 -31l-372 -262c-13 -11 -33 -1 -33 19v90c0 13 5 26 16 37l258 184l-258 186c-11 9 -16 22 -16 37v90c0 19 18 28 33 17zM590 885l373 -262c11 -7 16 -18 16 -33v-72c0 -13 -5 -24 -16 -31l-373 -262
c-13 -11 -33 -1 -33 19v90c0 15 5 28 16 37l258 184l-260 186c-9 9 -14 22 -14 37v90c0 19 20 28 33 17z" />
    <glyph glyph-name="onequarter" unicode="&#xbc;" horiz-adv-x="1773" 
d="M418 1528v-922c0 -21 -18 -37 -37 -37h-94c-25 0 -37 12 -37 37v762l-146 -53c-23 -11 -40 -4 -49 20l-28 90c-8 18 -1 32 20 43l254 93c13 3 22 4 25 4h55c19 0 37 -18 37 -37zM324 -49l837 1583h172l-835 -1583h-174zM1616 395h92c19 0 37 -15 37 -35v-71
c0 -23 -12 -35 -37 -35h-92v-219c0 -21 -18 -37 -37 -37h-82c-19 0 -37 17 -37 37v219h-440c-25 0 -37 12 -37 35v57c0 7 5 20 14 39l467 567c15 17 33 25 52 25h63c19 0 37 -18 37 -37v-545zM1460 709l-258 -314h258v314z" />
    <glyph glyph-name="onehalf" unicode="&#xbd;" horiz-adv-x="1867" 
d="M418 1528v-922c0 -21 -18 -37 -37 -37h-94c-25 0 -37 12 -37 37v762l-146 -53c-23 -11 -40 -4 -49 20l-28 90c-8 18 -1 32 20 43l254 93c13 3 22 4 25 4h55c19 0 37 -18 37 -37zM324 -49l837 1583h172l-835 -1583h-174zM1380 145h402c21 0 39 -15 39 -36v-74
c0 -21 -18 -39 -39 -39h-613c-19 0 -41 16 -41 39v63c0 18 7 32 21 43c18 18 42 41 72 69s56 52 78 73c21 20 35 33 40 39c120 113 203 196 248 249c44 51 66 97 66 140c0 88 -70 137 -178 137c-71 0 -135 -29 -162 -52c-14 -12 -29 -27 -45 -45c-17 -19 -26 -29 -27 -30
c-19 -19 -38 -20 -57 -2l-56 51c-9 15 -9 31 0 47c57 65 112 112 164 141s112 43 181 43c101 0 183 -27 245 -80c61 -54 92 -127 92 -219c0 -41 -7 -79 -22 -115c-15 -37 -30 -64 -44 -82c-15 -19 -36 -42 -63 -69c-52 -53 -130 -129 -233 -227c-13 -11 -56 -54 -68 -64z
" />
    <glyph glyph-name="threequarters" unicode="&#xbe;" horiz-adv-x="2025" 
d="M737 854c0 -90 -33 -162 -98 -217s-151 -82 -258 -82c-153 0 -268 55 -346 166c-17 19 -15 36 4 49l57 51c17 17 35 17 54 0c53 -75 131 -113 233 -112c131 0 197 49 197 147c0 101 -70 152 -209 152h-39c-19 0 -39 15 -39 36v68c0 19 16 37 39 37h43
c115 0 178 52 178 141c0 87 -59 131 -178 131c-89 0 -157 -33 -205 -98c-15 -13 -31 -15 -47 -6l-57 55c-17 17 -19 34 -7 51c82 100 187 150 316 150c104 0 186 -25 246 -74s90 -116 90 -199c0 -94 -38 -166 -115 -217c94 -50 141 -126 141 -229zM575 -49l838 1583h172
l-835 -1583h-175zM1868 395h92c19 0 37 -15 37 -35v-71c0 -23 -12 -35 -37 -35h-92v-219c0 -21 -18 -37 -37 -37h-82c-21 0 -37 17 -37 37v219h-440c-25 0 -37 12 -37 35v57c0 7 5 20 14 39l467 567c13 17 30 25 51 25h64c21 0 37 -18 37 -37v-545zM1712 709l-258 -314h258
v314z" />
    <glyph glyph-name="questiondown" unicode="&#xbf;" horiz-adv-x="1181" 
d="M616 829c-39 0 -74 15 -103 45c-29 29 -44 64 -44 103c0 41 15 76 44 105s64 44 103 44c41 0 76 -15 106 -44c29 -29 44 -64 44 -105c0 -39 -15 -74 -44 -103c-30 -30 -65 -45 -106 -45zM612 -438c-147 0 -267 38 -359 114c-92 77 -138 181 -138 312
c0 159 67 271 202 338c18 9 45 21 81 34c35 13 59 23 72 31c25 16 58 64 58 144v88c0 18 9 27 27 26h117c18 0 27 -9 26 -26v-138c0 -88 -18 -144 -73 -189c-27 -23 -53 -40 -78 -53s-61 -29 -109 -48c-101 -41 -145 -94 -145 -203c0 -177 120 -271 313 -271
c147 0 267 58 359 175c11 13 29 15 41 2l75 -78c9 -11 11 -22 4 -33c-109 -150 -267 -225 -473 -225z" />
    <glyph glyph-name="Agrave" unicode="&#xc0;" horiz-adv-x="1476" 
d="M664 1591l-170 324c-11 21 7 45 28 45h123c15 0 24 -7 27 -21l137 -325c11 -21 -4 -39 -29 -39h-90c-13 0 -22 5 -26 16zM834 1413l567 -1380c8 -22 0 -33 -23 -33h-153c-15 0 -25 6 -29 18l-139 338h-627l-149 -338c-4 -12 -14 -18 -29 -18h-156c-23 0 -30 11 -20 33
l608 1380c5 12 15 18 29 19h92c15 0 25 -6 29 -19zM997 508l-241 635l-262 -635h503z" />
    <glyph glyph-name="Aacute" unicode="&#xc1;" horiz-adv-x="1476" 
d="M819 1575h-92c-21 0 -37 16 -29 39l138 325c5 13 14 20 26 21h123c24 0 40 -24 29 -45l-170 -324c-4 -11 -12 -16 -25 -16zM834 1413l567 -1380c8 -22 0 -33 -23 -33h-153c-15 0 -25 6 -29 18l-139 338h-627l-149 -338c-4 -12 -14 -18 -29 -18h-156c-23 0 -30 11 -20 33
l608 1380c5 12 15 18 29 19h92c15 0 25 -6 29 -19zM997 508l-241 635l-262 -635h503z" />
    <glyph glyph-name="Acircumflex" unicode="&#xc2;" horiz-adv-x="1476" 
d="M539 1585h-72c-19 0 -32 16 -21 35l240 344c7 11 17 16 31 16h69c17 0 28 -5 33 -14l240 -346c11 -16 1 -35 -19 -35h-73c-21 0 -36 8 -47 23l-166 211l-166 -211c-11 -15 -27 -23 -49 -23zM834 1413l567 -1380c8 -22 0 -33 -23 -33h-153c-15 0 -25 6 -29 18l-139 338
h-627l-149 -338c-4 -12 -14 -18 -29 -18h-156c-23 0 -30 11 -20 33l608 1380c5 12 15 18 29 19h92c15 0 25 -6 29 -19zM997 508l-241 635l-262 -635h503z" />
    <glyph glyph-name="Atilde" unicode="&#xc3;" horiz-adv-x="1476" 
d="M496 1606l-58 26c-11 4 -14 13 -10 27c34 107 93 160 176 160c41 0 91 -17 152 -51c60 -35 102 -52 127 -52c38 0 69 23 94 70c8 17 19 21 33 12l57 -24c11 -4 15 -13 12 -27c-33 -113 -92 -170 -178 -170c-41 0 -91 18 -152 55c-61 36 -103 54 -126 54
c-35 0 -66 -23 -93 -68c-8 -15 -19 -19 -34 -12zM834 1413l567 -1380c8 -22 0 -33 -23 -33h-153c-15 0 -25 6 -29 18l-139 338h-627l-149 -338c-4 -12 -14 -18 -29 -18h-156c-23 0 -30 11 -20 33l608 1380c5 12 15 18 29 19h92c15 0 25 -6 29 -19zM997 508l-241 635
l-262 -635h503z" />
    <glyph glyph-name="Adieresis" unicode="&#xc4;" horiz-adv-x="1476" 
d="M635 1602c-44 -44 -112 -44 -157 0c-23 21 -34 48 -34 80c0 31 11 58 34 80c45 43 113 43 157 0c22 -22 33 -49 33 -80c0 -32 -11 -59 -33 -80zM1029 1602c-45 -44 -113 -44 -157 0c-23 21 -34 48 -34 80c0 31 11 58 34 80c44 43 112 43 157 0c23 -22 34 -49 34 -80
c0 -32 -11 -59 -34 -80zM834 1413l567 -1380c8 -22 0 -33 -23 -33h-153c-15 0 -25 6 -29 18l-139 338h-627l-149 -338c-4 -12 -14 -18 -29 -18h-156c-23 0 -30 11 -20 33l608 1380c5 12 15 18 29 19h92c15 0 25 -6 29 -19zM997 508l-241 635l-262 -635h503z" />
    <glyph glyph-name="Aring" unicode="&#xc5;" horiz-adv-x="1476" 
d="M907 1607c-41 -41 -92 -61 -153 -61s-112 20 -152 60c-41 39 -61 90 -61 153s20 114 61 155c40 40 91 60 152 60c63 0 114 -20 154 -60c39 -41 59 -92 59 -153c0 -63 -20 -114 -60 -154zM841 1849c-23 22 -52 33 -87 33c-36 0 -65 -11 -87 -33c-23 -23 -34 -52 -34 -88
c0 -73 49 -123 121 -123c35 0 64 11 87 33c22 22 33 52 33 89s-11 66 -33 89zM834 1413l567 -1380c8 -22 0 -33 -23 -33h-153c-15 0 -25 6 -29 18l-139 338h-627l-149 -338c-4 -12 -14 -18 -29 -18h-156c-23 0 -30 11 -20 33l608 1380c5 12 15 18 29 19h92
c15 0 25 -6 29 -19zM997 508l-241 635l-262 -635h503z" />
    <glyph glyph-name="AE" unicode="&#xc6;" horiz-adv-x="1996" 
d="M1040 184h832c18 0 27 -9 26 -26v-131c0 -18 -9 -27 -26 -27h-1004c-18 0 -27 9 -26 27v329h-391l-164 -338c-5 -12 -15 -18 -29 -18h-162c-23 0 -30 11 -20 33l676 1382c7 12 16 18 28 19h1084c18 0 27 -9 26 -27v-131c0 -18 -9 -27 -26 -27h-824v-448h699
c18 0 27 -9 26 -27v-102c0 -18 -9 -27 -26 -27h-699v-461zM842 1190l-320 -682h320v682z" />
    <glyph glyph-name="Ccedilla" unicode="&#xc7;" horiz-adv-x="1486" 
d="M821 1268c-145 0 -267 -54 -366 -161c-100 -107 -150 -238 -150 -392c0 -155 51 -286 152 -393s224 -160 370 -160c100 0 175 10 224 30c49 19 112 58 190 115c9 7 18 7 25 0l108 -106c12 -12 12 -23 0 -33c-154 -130 -330 -195 -528 -195h-29l-22 -63
c112 -22 168 -79 168 -170c0 -123 -107 -197 -312 -197c-19 0 -29 9 -28 27v49c0 15 9 24 28 25c3 0 34 -1 54 2c19 3 54 6 76 15c35 15 65 42 65 89c0 60 -41 77 -141 98c-17 4 -23 12 -19 25l33 111c-179 30 -324 113 -437 250c-113 136 -169 296 -169 481
c0 203 68 377 203 522s298 217 489 217c237 0 435 -72 594 -215c11 -9 11 -20 0 -31l-101 -102c-9 -9 -19 -9 -28 0c-108 108 -258 162 -449 162z" />
    <glyph glyph-name="Egrave" unicode="&#xc8;" horiz-adv-x="1345" 
d="M627 1591l-170 324c-11 21 7 45 28 45h123c15 0 24 -7 27 -21l137 -325c11 -21 -4 -39 -29 -39h-90c-13 0 -22 5 -26 16zM389 184h832c18 0 27 -9 26 -26v-131c0 -18 -9 -27 -26 -27h-1004c-18 0 -27 9 -27 27v1380c0 18 9 27 27 27h995c18 0 27 -9 27 -27v-131
c0 -18 -9 -27 -27 -27h-823v-448h698c18 0 27 -9 27 -27v-102c0 -18 -9 -27 -27 -27h-698v-461z" />
    <glyph glyph-name="Eacute" unicode="&#xc9;" horiz-adv-x="1345" 
d="M782 1575h-92c-21 0 -37 16 -28 39l137 325c5 13 14 20 26 21h123c24 0 40 -24 29 -45l-170 -324c-4 -11 -12 -16 -25 -16zM389 184h832c18 0 27 -9 26 -26v-131c0 -18 -9 -27 -26 -27h-1004c-18 0 -27 9 -27 27v1380c0 18 9 27 27 27h995c18 0 27 -9 27 -27v-131
c0 -18 -9 -27 -27 -27h-823v-448h698c18 0 27 -9 27 -27v-102c0 -18 -9 -27 -27 -27h-698v-461z" />
    <glyph glyph-name="Ecircumflex" unicode="&#xca;" horiz-adv-x="1345" 
d="M502 1585h-72c-19 0 -32 16 -20 35l239 344c7 11 17 16 31 16h70c17 0 27 -5 32 -14l240 -346c11 -16 1 -35 -18 -35h-74c-21 0 -36 8 -47 23l-166 211l-166 -211c-11 -15 -27 -23 -49 -23zM389 184h832c18 0 27 -9 26 -26v-131c0 -18 -9 -27 -26 -27h-1004
c-18 0 -27 9 -27 27v1380c0 18 9 27 27 27h995c18 0 27 -9 27 -27v-131c0 -18 -9 -27 -27 -27h-823v-448h698c18 0 27 -9 27 -27v-102c0 -18 -9 -27 -27 -27h-698v-461z" />
    <glyph glyph-name="Edieresis" unicode="&#xcb;" horiz-adv-x="1345" 
d="M598 1602c-44 -44 -112 -44 -156 0c-23 21 -34 48 -34 80c0 31 11 58 34 80c44 43 112 43 156 0c22 -22 33 -49 33 -80c0 -32 -11 -59 -33 -80zM992 1602c-45 -44 -113 -44 -157 0c-23 21 -34 48 -34 80c0 31 11 58 34 80c44 43 112 43 157 0c23 -22 34 -49 34 -80
c0 -32 -11 -59 -34 -80zM389 184h832c18 0 27 -9 26 -26v-131c0 -18 -9 -27 -26 -27h-1004c-18 0 -27 9 -27 27v1380c0 18 9 27 27 27h995c18 0 27 -9 27 -27v-131c0 -18 -9 -27 -27 -27h-823v-448h698c18 0 27 -9 27 -27v-102c0 -18 -9 -27 -27 -27h-698v-461z" />
    <glyph glyph-name="Igrave" unicode="&#xcc;" horiz-adv-x="579" 
d="M315 1575h-90c-13 0 -22 5 -26 16l-170 324c-11 21 7 45 28 45h123c15 0 24 -7 27 -21l137 -325c11 -21 -4 -39 -29 -39zM362 0h-145c-18 0 -27 9 -27 27v1380c0 18 9 27 27 27h145c18 0 27 -9 27 -27v-1380c0 -18 -9 -27 -27 -27z" />
    <glyph glyph-name="Iacute" unicode="&#xcd;" horiz-adv-x="579" 
d="M354 1575h-92c-21 0 -37 16 -29 39l138 325c5 13 14 20 26 21h123c24 0 40 -24 29 -45l-170 -324c-4 -11 -12 -16 -25 -16zM362 0h-145c-18 0 -27 9 -27 27v1380c0 18 9 27 27 27h145c18 0 27 -9 27 -27v-1380c0 -18 -9 -27 -27 -27z" />
    <glyph glyph-name="Icircumflex" unicode="&#xce;" horiz-adv-x="579" 
d="M354 1966l240 -346c11 -16 1 -35 -19 -35h-73c-21 0 -36 8 -47 23l-166 211l-166 -211c-11 -15 -27 -23 -49 -23h-72c-19 0 -32 16 -20 35l239 344c7 11 17 16 31 16h70c17 0 27 -5 32 -14zM217 1434h145c18 0 27 -9 27 -27v-1380c0 -18 -9 -27 -27 -27h-145
c-18 0 -27 9 -27 27v1380c0 18 9 27 27 27z" />
    <glyph glyph-name="Idieresis" unicode="&#xcf;" horiz-adv-x="579" 
d="M92 1569c-63 0 -112 49 -112 113c0 63 49 112 112 112c60 0 111 -49 111 -112c0 -64 -51 -113 -111 -113zM565 1602c-22 -22 -49 -33 -80 -33s-58 11 -79 33c-22 21 -33 48 -33 80c0 31 11 58 33 80c21 21 48 32 79 32s58 -11 80 -32c22 -22 33 -49 33 -80
c0 -32 -11 -59 -33 -80zM362 0h-145c-18 0 -27 9 -27 27v1380c0 18 9 27 27 27h145c18 0 27 -9 27 -27v-1380c0 -18 -9 -27 -27 -27z" />
    <glyph glyph-name="Eth" unicode="&#xd0;" horiz-adv-x="1519" 
d="M217 1434h531c199 0 358 -65 477 -195s178 -304 178 -522c0 -223 -58 -398 -175 -525c-117 -128 -277 -192 -480 -192h-531c-18 0 -27 9 -27 27v616h-149c-18 0 -27 9 -27 27v90c0 18 9 27 27 26h149v621c0 18 9 27 27 27zM389 184h359c145 0 257 47 337 140
c79 93 119 222 119 389c0 168 -40 299 -120 394c-81 95 -193 142 -336 142h-359v-461h275c18 0 27 -9 26 -26v-92c0 -18 -9 -27 -26 -27h-275v-459z" />
    <glyph glyph-name="Ntilde" unicode="&#xd1;" horiz-adv-x="1632" 
d="M559 1606l-57 26c-11 4 -14 13 -10 27c34 107 93 160 176 160c41 0 91 -17 151 -51c60 -35 102 -52 127 -52c38 0 69 23 94 70c8 17 19 21 33 12l57 -24c11 -4 15 -13 13 -27c-33 -113 -92 -170 -178 -170c-41 0 -91 18 -152 55c-61 36 -104 54 -127 54
c-35 0 -66 -23 -92 -68c-8 -15 -20 -19 -35 -12zM1270 1434h145c18 0 27 -9 27 -27v-1380c0 -18 -9 -27 -27 -27h-112c-15 0 -26 5 -31 14l-883 1061v-1048c0 -18 -9 -27 -27 -27h-145c-18 0 -27 9 -27 27v1380c0 18 9 27 27 27h113c12 0 22 -5 30 -15l883 -1057v1045
c0 18 9 27 27 27z" />
    <glyph glyph-name="Ograve" unicode="&#xd2;" horiz-adv-x="1689" 
d="M872 1575h-90c-13 0 -22 5 -26 16l-170 324c-11 21 7 45 28 45h123c15 0 24 -7 27 -21l137 -325c11 -21 -4 -39 -29 -39zM1378 174c-132 -133 -309 -199 -532 -199s-400 66 -531 199c-132 133 -198 310 -198 533c0 224 66 404 199 539c132 135 309 202 530 202
c223 0 400 -68 532 -203c131 -135 197 -315 197 -538s-66 -400 -197 -533zM458 308c95 -96 224 -144 388 -144s293 48 388 144c95 95 142 228 142 399s-48 306 -143 405s-224 148 -387 148s-292 -49 -387 -148c-96 -99 -144 -234 -144 -405s48 -304 143 -399z" />
    <glyph glyph-name="Oacute" unicode="&#xd3;" horiz-adv-x="1689" 
d="M911 1575h-92c-21 0 -37 16 -28 39l137 325c5 13 14 20 26 21h123c24 0 40 -24 29 -45l-170 -324c-4 -11 -12 -16 -25 -16zM1378 174c-132 -133 -309 -199 -532 -199s-400 66 -531 199c-132 133 -198 310 -198 533c0 224 66 404 199 539c132 135 309 202 530 202
c223 0 400 -68 532 -203c131 -135 197 -315 197 -538s-66 -400 -197 -533zM458 308c95 -96 224 -144 388 -144s293 48 388 144c95 95 142 228 142 399s-48 306 -143 405s-224 148 -387 148s-292 -49 -387 -148c-96 -99 -144 -234 -144 -405s48 -304 143 -399z" />
    <glyph glyph-name="Ocircumflex" unicode="&#xd4;" horiz-adv-x="1689" 
d="M631 1585h-72c-19 0 -32 16 -20 35l239 344c7 11 17 16 31 16h70c17 0 27 -5 32 -14l240 -346c11 -16 1 -35 -18 -35h-74c-21 0 -36 8 -47 23l-166 211l-166 -211c-11 -15 -27 -23 -49 -23zM846 1448c223 0 400 -68 532 -203c131 -135 197 -315 197 -538
s-66 -400 -197 -533c-132 -133 -309 -199 -532 -199s-400 66 -531 199c-132 133 -198 310 -198 533c0 224 66 404 199 539c132 135 309 202 530 202zM458 308c95 -96 224 -144 388 -144s293 48 388 144c95 95 142 228 142 399s-48 306 -143 405s-224 148 -387 148
s-292 -49 -387 -148c-96 -99 -144 -234 -144 -405s48 -304 143 -399z" />
    <glyph glyph-name="Otilde" unicode="&#xd5;" horiz-adv-x="1689" 
d="M623 1618c-8 -15 -20 -19 -35 -12l-58 26c-11 4 -14 13 -10 27c34 107 93 160 176 160c41 0 91 -17 152 -51c60 -35 102 -52 127 -52c38 0 69 23 94 70c8 17 19 21 33 12l57 -24c11 -4 15 -13 12 -27c-33 -113 -92 -170 -178 -170c-41 0 -91 18 -152 55
c-61 36 -103 54 -126 54c-35 0 -66 -23 -92 -68zM1378 174c-132 -133 -309 -199 -532 -199s-400 66 -531 199c-132 133 -198 310 -198 533c0 224 66 404 199 539c132 135 309 202 530 202c223 0 400 -68 532 -203c131 -135 197 -315 197 -538s-66 -400 -197 -533zM458 308
c95 -96 224 -144 388 -144s293 48 388 144c95 95 142 228 142 399s-48 306 -143 405s-224 148 -387 148s-292 -49 -387 -148c-96 -99 -144 -234 -144 -405s48 -304 143 -399z" />
    <glyph glyph-name="Odieresis" unicode="&#xd6;" horiz-adv-x="1689" 
d="M649 1569c-63 0 -112 49 -112 113c0 63 49 112 112 112c60 0 111 -49 111 -112c0 -64 -51 -113 -111 -113zM1123 1602c-22 -22 -49 -33 -80 -33c-32 0 -59 11 -80 33c-22 21 -33 48 -33 80c0 31 11 58 33 80c21 21 48 32 80 32c31 0 58 -11 80 -32c21 -22 32 -49 32 -80
c0 -32 -11 -59 -32 -80zM1378 174c-132 -133 -309 -199 -532 -199s-400 66 -531 199c-132 133 -198 310 -198 533c0 224 66 404 199 539c132 135 309 202 530 202c223 0 400 -68 532 -203c131 -135 197 -315 197 -538s-66 -400 -197 -533zM458 308c95 -96 224 -144 388 -144
s293 48 388 144c95 95 142 228 142 399s-48 306 -143 405s-224 148 -387 148s-292 -49 -387 -148c-96 -99 -144 -234 -144 -405s48 -304 143 -399z" />
    <glyph glyph-name="multiply" unicode="&#xd7;" horiz-adv-x="1079" 
d="M623 682l309 -309c12 -9 12 -22 0 -37l-45 -45c-12 -12 -24 -12 -37 0l-309 309l-310 -311c-8 -8 -25 -9 -36 2l-45 45c-11 8 -11 29 -3 37l310 309l-310 309c-12 12 -12 24 0 37l46 45c12 12 25 12 38 0l308 -307l309 309c13 12 26 12 39 0l45 -45c12 -12 12 -25 0 -39z
" />
    <glyph glyph-name="Oslash" unicode="&#xd8;" horiz-adv-x="1689" 
d="M1333 1507l-86 -161c104 -61 185 -147 242 -258s86 -238 86 -381c0 -223 -66 -400 -197 -533c-132 -133 -309 -199 -532 -199c-111 0 -210 17 -297 50l-53 -101h-140l82 154c-205 123 -321 345 -321 629c0 224 66 404 199 539c132 135 309 202 530 202
c107 0 203 -16 289 -49l57 108h141zM315 707c0 -211 71 -364 213 -457l516 979c-60 21 -126 31 -198 31c-163 0 -292 -49 -387 -148c-96 -99 -144 -234 -144 -405zM846 164c164 0 293 48 388 144c95 95 142 228 142 399c0 217 -73 373 -219 467l-518 -979
c61 -21 130 -31 207 -31z" />
    <glyph glyph-name="Ugrave" unicode="&#xd9;" horiz-adv-x="1482" 
d="M768 1554h-90c-13 0 -22 6 -27 17l-170 323c-11 21 8 45 29 45h123c15 0 24 -7 26 -20l138 -326c11 -21 -5 -39 -29 -39zM1168 157c-104 -120 -246 -180 -426 -180c-181 0 -323 60 -426 180c-104 119 -156 282 -156 488v762c0 18 9 27 26 27h146c18 0 27 -9 26 -27v-762
c0 -300 138 -469 384 -469s382 169 382 469v762c0 18 9 27 27 27h145c18 0 27 -9 27 -27v-762c0 -206 -52 -369 -155 -488z" />
    <glyph glyph-name="Uacute" unicode="&#xda;" horiz-adv-x="1482" 
d="M807 1554h-92c-21 0 -37 18 -29 39l137 326c5 13 14 20 27 20h123c24 0 40 -22 28 -45l-170 -323c-4 -11 -12 -16 -24 -17zM1168 157c-104 -120 -246 -180 -426 -180c-181 0 -323 60 -426 180c-104 119 -156 282 -156 488v762c0 18 9 27 26 27h146c18 0 27 -9 26 -27
v-762c0 -300 138 -469 384 -469s382 169 382 469v762c0 18 9 27 27 27h145c18 0 27 -9 27 -27v-762c0 -206 -52 -369 -155 -488z" />
    <glyph glyph-name="Ucircumflex" unicode="&#xdb;" horiz-adv-x="1482" 
d="M526 1565h-71c-19 0 -32 15 -21 34l240 345c7 11 17 16 31 16h69c17 0 28 -5 33 -14l240 -347c11 -16 0 -34 -19 -34h-74c-21 0 -36 7 -47 22l-166 211l-166 -211c-11 -15 -27 -23 -49 -22zM1151 1434h145c18 0 27 -9 27 -27v-762c0 -206 -52 -369 -155 -488
c-104 -120 -246 -180 -426 -180c-181 0 -323 60 -426 180c-104 119 -156 282 -156 488v762c0 18 9 27 26 27h146c18 0 27 -9 26 -27v-762c0 -300 138 -469 384 -469s382 169 382 469v762c0 18 9 27 27 27z" />
    <glyph glyph-name="Udieresis" unicode="&#xdc;" horiz-adv-x="1482" 
d="M623 1581c-44 -44 -112 -44 -157 0s-45 116 0 160s113 44 157 0c42 -44 42 -116 0 -160zM1017 1581c-45 -44 -113 -44 -158 0s-45 116 0 160s113 44 158 0s45 -116 0 -160zM1168 157c-104 -120 -246 -180 -426 -180c-181 0 -323 60 -426 180c-104 119 -156 282 -156 488
v762c0 18 9 27 26 27h146c18 0 27 -9 26 -27v-762c0 -300 138 -469 384 -469s382 169 382 469v762c0 18 9 27 27 27h145c18 0 27 -9 27 -27v-762c0 -206 -52 -369 -155 -488z" />
    <glyph glyph-name="Yacute" unicode="&#xdd;" horiz-adv-x="1441" 
d="M791 1575h-93c-21 0 -36 16 -28 39l137 325c5 13 14 20 27 21h122c24 0 40 -24 29 -45l-170 -324c-4 -11 -12 -16 -24 -16zM1182 1434h170c24 0 31 -24 18 -37l-549 -742v-628c0 -18 -9 -27 -26 -27h-146c-18 0 -27 9 -26 27v635l-549 735c-16 19 -6 37 18 37h170
c15 0 26 -6 31 -17l432 -590l426 590c5 11 16 16 31 17z" />
    <glyph glyph-name="Thorn" unicode="&#xde;" horiz-adv-x="1349" 
d="M391 1145h371c147 0 266 -39 356 -117s135 -181 135 -309c0 -130 -45 -234 -135 -312c-90 -79 -209 -118 -356 -118h-371v-262c0 -18 -9 -27 -26 -27h-148c-18 0 -27 9 -27 27v1380c0 18 9 27 27 27h148c18 0 27 -9 26 -27v-262zM391 463h371c93 0 166 24 220 73
c54 48 81 110 81 185s-27 137 -82 186c-55 48 -128 72 -219 72h-371v-516z" />
    <glyph glyph-name="germandbls" unicode="&#xdf;" horiz-adv-x="1366" 
d="M895 -25c-78 0 -148 13 -209 40s-107 61 -137 102c-8 9 -9 19 -4 28l59 91c8 13 18 16 29 8c64 -77 150 -115 258 -115c136 0 215 57 215 164c0 60 -22 101 -74 131c-26 15 -50 26 -71 34c-22 7 -54 16 -95 27c-37 11 -66 20 -89 29c-23 8 -49 21 -78 39
c-59 36 -89 95 -89 174c0 99 56 163 128 193c35 15 71 29 107 44c72 28 128 78 128 154c0 63 -29 110 -86 143c-57 32 -129 48 -215 48c-100 0 -172 -27 -216 -80c-45 -53 -67 -146 -67 -279v-923c0 -18 -9 -27 -27 -27h-145c-18 0 -27 9 -27 27v946c0 344 156 516 467 516
c169 0 317 -43 417 -159c50 -58 75 -130 75 -216c0 -120 -57 -206 -126 -248c-35 -21 -69 -40 -103 -55c-69 -31 -125 -54 -125 -90c0 -28 27 -44 70 -59c24 -9 38 -15 71 -24c17 -5 30 -8 41 -11c207 -64 311 -174 311 -330c0 -95 -36 -173 -107 -232
c-72 -60 -167 -90 -286 -90z" />
    <glyph glyph-name="agrave" unicode="&#xe0;" horiz-adv-x="1361" 
d="M592 1202l-170 324c-11 21 6 45 29 45h122c15 0 24 -7 27 -21l137 -325c11 -21 -4 -39 -28 -39h-91c-13 0 -22 5 -26 16zM1069 1051h115c18 0 27 -9 26 -27v-997c0 -18 -9 -27 -26 -27h-115c-13 0 -22 9 -27 27l-14 153c-105 -137 -245 -205 -418 -205
c-149 0 -273 51 -373 153c-101 102 -151 234 -151 396c0 164 50 297 151 400c100 102 222 153 367 153c172 0 325 -79 424 -211l14 158c3 18 12 27 27 27zM651 139c104 0 192 33 264 100c71 66 107 156 107 271c0 116 -36 212 -109 288c-73 75 -163 113 -270 113
c-103 0 -189 -36 -258 -107c-69 -72 -104 -165 -104 -280s35 -207 105 -278s158 -107 265 -107z" />
    <glyph glyph-name="aacute" unicode="&#xe1;" horiz-adv-x="1361" 
d="M748 1186h-93c-21 0 -36 16 -28 39l137 325c5 13 14 20 27 21h122c24 0 40 -24 29 -45l-170 -324c-4 -11 -12 -16 -24 -16zM1069 1051h115c18 0 27 -9 26 -27v-997c0 -18 -9 -27 -26 -27h-115c-13 0 -22 9 -27 27l-14 153c-105 -137 -245 -205 -418 -205
c-149 0 -273 51 -373 153c-101 102 -151 234 -151 396c0 164 50 297 151 400c100 102 222 153 367 153c172 0 325 -79 424 -211l14 158c3 18 12 27 27 27zM651 139c104 0 192 33 264 100c71 66 107 156 107 271c0 116 -36 212 -109 288c-73 75 -163 113 -270 113
c-103 0 -189 -36 -258 -107c-69 -72 -104 -165 -104 -280s35 -207 105 -278s158 -107 265 -107z" />
    <glyph glyph-name="acircumflex" unicode="&#xe2;" horiz-adv-x="1361" 
d="M467 1196h-72c-19 0 -31 16 -20 35l239 344c7 11 17 16 31 16h70c17 0 28 -5 33 -14l239 -346c11 -16 1 -35 -18 -35h-74c-21 0 -36 8 -47 23l-166 211l-166 -211c-11 -15 -27 -23 -49 -23zM1069 1051h115c18 0 27 -9 26 -27v-997c0 -18 -9 -27 -26 -27h-115
c-13 0 -22 9 -27 27l-14 153c-105 -137 -245 -205 -418 -205c-149 0 -273 51 -373 153c-101 102 -151 234 -151 396c0 164 50 297 151 400c100 102 222 153 367 153c172 0 325 -79 424 -211l14 158c3 18 12 27 27 27zM651 139c104 0 192 33 264 100c71 66 107 156 107 271
c0 116 -36 212 -109 288c-73 75 -163 113 -270 113c-103 0 -189 -36 -258 -107c-69 -72 -104 -165 -104 -280s35 -207 105 -278s158 -107 265 -107z" />
    <glyph glyph-name="atilde" unicode="&#xe3;" horiz-adv-x="1361" 
d="M424 1217l-57 26c-11 4 -14 13 -11 27c34 107 93 160 176 160c41 0 91 -17 152 -51c60 -35 102 -52 127 -52c38 0 69 23 94 70c8 17 19 21 33 12l57 -25c11 -4 15 -13 13 -26c-33 -113 -92 -170 -179 -170c-41 0 -91 18 -152 54s-103 54 -126 54c-35 0 -66 -22 -92 -67
c-8 -15 -20 -19 -35 -12zM1069 1051h115c18 0 27 -9 26 -27v-997c0 -18 -9 -27 -26 -27h-115c-13 0 -22 9 -27 27l-14 153c-105 -137 -245 -205 -418 -205c-149 0 -273 51 -373 153c-101 102 -151 234 -151 396c0 164 50 297 151 400c100 102 222 153 367 153
c172 0 325 -79 424 -211l14 158c3 18 12 27 27 27zM651 139c104 0 192 33 264 100c71 66 107 156 107 271c0 116 -36 212 -109 288c-73 75 -163 113 -270 113c-103 0 -189 -36 -258 -107c-69 -72 -104 -165 -104 -280s35 -207 105 -278s158 -107 265 -107z" />
    <glyph glyph-name="adieresis" unicode="&#xe4;" horiz-adv-x="1361" 
d="M485 1180c-63 0 -112 49 -112 112s49 113 112 113c30 0 56 -11 78 -33s33 -49 33 -80c0 -63 -51 -112 -111 -112zM959 1213c-22 -22 -49 -33 -80 -33c-32 0 -59 11 -80 33c-22 21 -33 48 -33 79s11 58 33 80c21 22 48 33 80 33c31 0 58 -11 80 -33c21 -22 32 -49 32 -80
s-11 -58 -32 -79zM1069 1051h115c18 0 27 -9 26 -27v-997c0 -18 -9 -27 -26 -27h-115c-13 0 -22 9 -27 27l-14 153c-105 -137 -245 -205 -418 -205c-149 0 -273 51 -373 153c-101 102 -151 234 -151 396c0 164 50 297 151 400c100 102 222 153 367 153
c172 0 325 -79 424 -211l14 158c3 18 12 27 27 27zM651 139c104 0 192 33 264 100c71 66 107 156 107 271c0 116 -36 212 -109 288c-73 75 -163 113 -270 113c-103 0 -189 -36 -258 -107c-69 -72 -104 -165 -104 -280s35 -207 105 -278s158 -107 265 -107z" />
    <glyph glyph-name="aring" unicode="&#xe5;" horiz-adv-x="1361" 
d="M835 1218c-41 -41 -92 -61 -153 -61s-112 20 -152 60c-41 39 -61 90 -61 153s20 114 61 155c40 40 91 60 152 60c63 0 114 -20 154 -60c39 -41 59 -92 59 -153c0 -63 -20 -114 -60 -154zM769 1459c-23 23 -52 34 -87 34s-64 -11 -87 -34s-34 -52 -34 -87
c0 -73 50 -123 121 -123c35 0 64 11 87 33s34 51 34 88s-11 66 -34 89zM1069 1051h115c18 0 27 -9 26 -27v-997c0 -18 -9 -27 -26 -27h-115c-13 0 -22 9 -27 27l-14 153c-105 -137 -245 -205 -418 -205c-149 0 -273 51 -373 153c-101 102 -151 234 -151 396
c0 164 50 297 151 400c100 102 222 153 367 153c172 0 325 -79 424 -211l14 158c3 18 12 27 27 27zM651 139c104 0 192 33 264 100c71 66 107 156 107 271c0 116 -36 212 -109 288c-73 75 -163 113 -270 113c-103 0 -189 -36 -258 -107c-69 -72 -104 -165 -104 -280
s35 -207 105 -278s158 -107 265 -107z" />
    <glyph glyph-name="ae" unicode="&#xe6;" horiz-adv-x="2215" 
d="M1614 1077c150 0 274 -51 372 -154c97 -103 146 -236 146 -397c0 -13 -1 -26 -2 -37c-3 -17 -12 -25 -29 -24h-829c9 -103 49 -183 118 -240s158 -86 267 -86c79 0 144 16 195 47c50 31 96 77 139 138c12 12 25 13 39 2l75 -80c11 -13 10 -28 -2 -43
c-99 -145 -268 -228 -463 -228c-180 0 -323 64 -430 193v-141c0 -18 -9 -27 -26 -27h-115c-13 0 -22 9 -27 27l-14 153c-105 -137 -245 -205 -418 -205c-149 0 -273 51 -373 153c-101 102 -151 234 -151 396c0 164 50 297 151 400c100 102 222 153 367 153
c172 0 325 -79 424 -211l14 158c3 18 12 27 27 27h115c18 0 27 -9 26 -27v-139c100 128 235 192 404 192zM651 139c104 0 192 33 264 100c71 66 107 156 107 271c0 116 -36 212 -109 288c-73 75 -163 113 -270 113c-103 0 -189 -36 -258 -107c-69 -72 -104 -165 -104 -280
s35 -207 105 -278s158 -107 265 -107zM1850 833c-62 52 -139 78 -230 78s-168 -26 -231 -78c-63 -53 -102 -126 -115 -219h684c-11 94 -47 167 -108 219z" />
    <glyph glyph-name="ccedilla" unicode="&#xe7;" horiz-adv-x="1091" 
d="M936 244l88 -66c15 -12 17 -24 6 -37c-100 -107 -227 -162 -381 -166l-24 -65c112 -22 168 -79 168 -170c0 -123 -107 -197 -312 -197c-19 0 -29 9 -28 27v49c0 15 9 24 28 25c3 0 34 -1 54 2c19 3 54 6 76 15c35 15 65 42 65 89c0 60 -41 77 -141 98
c-17 4 -23 12 -19 25l31 109c-138 19 -250 80 -336 182s-129 223 -129 362c0 153 52 283 156 390c103 107 234 161 391 161c153 0 282 -57 389 -170c12 -12 11 -25 -4 -39l-88 -67c-13 -9 -26 -8 -37 4c-74 71 -160 106 -258 106c-104 0 -191 -37 -260 -111
c-70 -75 -105 -167 -105 -276s35 -201 105 -274c69 -74 158 -111 266 -111c77 0 133 20 179 45c32 18 43 27 65 44c11 8 17 13 18 14c15 9 28 10 37 2z" />
    <glyph glyph-name="egrave" unicode="&#xe8;" horiz-adv-x="1210" 
d="M524 1202l-170 324c-11 21 8 45 29 45h123c15 0 24 -7 26 -21l138 -325c11 -21 -5 -39 -29 -39h-90c-14 0 -23 5 -27 16zM608 1077c150 0 274 -51 372 -154c97 -103 146 -236 146 -397c0 -13 -1 -26 -2 -37c-1 -17 -11 -25 -28 -24h-830c9 -103 49 -183 118 -240
s158 -86 267 -86c79 0 144 16 195 47s97 77 139 138c12 12 25 13 39 2l76 -80c11 -13 10 -28 -2 -43c-99 -145 -270 -228 -463 -228c-160 0 -292 52 -395 155c-104 103 -156 234 -156 392c0 155 49 287 148 394c98 107 223 161 376 161zM844 833c-61 52 -138 78 -229 78
c-92 0 -169 -26 -232 -78c-63 -53 -101 -126 -115 -219h684c-11 94 -47 167 -108 219z" />
    <glyph glyph-name="eacute" unicode="&#xe9;" horiz-adv-x="1210" 
d="M680 1186h-92c-21 0 -37 16 -29 39l137 325c5 13 14 20 27 21h123c24 0 40 -24 28 -45l-169 -324c-4 -11 -12 -16 -25 -16zM608 1077c150 0 274 -51 372 -154c97 -103 146 -236 146 -397c0 -13 -1 -26 -2 -37c-1 -17 -11 -25 -28 -24h-830c9 -103 49 -183 118 -240
s158 -86 267 -86c79 0 144 16 195 47s97 77 139 138c12 12 25 13 39 2l76 -80c11 -13 10 -28 -2 -43c-99 -145 -270 -228 -463 -228c-160 0 -292 52 -395 155c-104 103 -156 234 -156 392c0 155 49 287 148 394c98 107 223 161 376 161zM844 833c-61 52 -138 78 -229 78
c-92 0 -169 -26 -232 -78c-63 -53 -101 -126 -115 -219h684c-11 94 -47 167 -108 219z" />
    <glyph glyph-name="ecircumflex" unicode="&#xea;" horiz-adv-x="1210" 
d="M399 1196h-71c-19 0 -32 16 -21 35l240 344c7 11 17 16 31 16h69c17 0 28 -5 33 -14l240 -346c11 -16 0 -35 -19 -35h-74c-21 0 -36 8 -47 23l-166 211l-165 -211c-11 -15 -27 -23 -50 -23zM608 1077c150 0 274 -51 372 -154c97 -103 146 -236 146 -397
c0 -13 -1 -26 -2 -37c-1 -17 -11 -25 -28 -24h-830c9 -103 49 -183 118 -240s158 -86 267 -86c79 0 144 16 195 47s97 77 139 138c12 12 25 13 39 2l76 -80c11 -13 10 -28 -2 -43c-99 -145 -270 -228 -463 -228c-160 0 -292 52 -395 155c-104 103 -156 234 -156 392
c0 155 49 287 148 394c98 107 223 161 376 161zM844 833c-61 52 -138 78 -229 78c-92 0 -169 -26 -232 -78c-63 -53 -101 -126 -115 -219h684c-11 94 -47 167 -108 219z" />
    <glyph glyph-name="edieresis" unicode="&#xeb;" horiz-adv-x="1210" 
d="M496 1213c-44 -44 -112 -44 -157 0c-23 21 -34 48 -34 79s11 58 34 80c45 44 113 44 157 0c21 -22 32 -49 32 -80s-11 -58 -32 -79zM890 1213c-45 -44 -113 -44 -158 0c-23 21 -34 48 -34 79s11 58 34 80c45 44 113 44 158 0c23 -22 34 -49 34 -80s-11 -58 -34 -79z
M608 1077c150 0 274 -51 372 -154c97 -103 146 -236 146 -397c0 -13 -1 -26 -2 -37c-1 -17 -11 -25 -28 -24h-830c9 -103 49 -183 118 -240s158 -86 267 -86c79 0 144 16 195 47s97 77 139 138c12 12 25 13 39 2l76 -80c11 -13 10 -28 -2 -43c-99 -145 -270 -228 -463 -228
c-160 0 -292 52 -395 155c-104 103 -156 234 -156 392c0 155 49 287 148 394c98 107 223 161 376 161zM844 833c-61 52 -138 78 -229 78c-92 0 -169 -26 -232 -78c-63 -53 -101 -126 -115 -219h684c-11 94 -47 167 -108 219z" />
    <glyph glyph-name="igrave" unicode="&#xec;" horiz-adv-x="503" 
d="M279 1186h-91c-13 0 -22 5 -26 16l-170 324c-11 21 7 45 28 45h123c15 0 24 -7 27 -21l137 -325c11 -21 -4 -39 -28 -39zM326 0h-148c-18 0 -27 9 -26 27v997c0 18 9 27 26 27h148c18 0 27 -9 26 -27v-997c0 -18 -9 -27 -26 -27z" />
    <glyph glyph-name="iacute" unicode="&#xed;" horiz-adv-x="503" 
d="M317 1186h-92c-21 0 -37 16 -28 39l137 325c5 13 14 20 26 21h123c24 0 40 -24 29 -45l-170 -324c-4 -11 -12 -16 -25 -16zM326 0h-148c-18 0 -27 9 -26 27v997c0 18 9 27 26 27h148c18 0 27 -9 26 -27v-997c0 -18 -9 -27 -26 -27z" />
    <glyph glyph-name="icircumflex" unicode="&#xee;" horiz-adv-x="503" 
d="M317 1577l240 -346c11 -16 1 -35 -18 -35h-74c-21 0 -36 8 -47 23l-166 211l-166 -211c-11 -15 -27 -23 -49 -23h-72c-19 0 -31 16 -20 35l239 344c7 11 17 16 31 16h70c17 0 27 -5 32 -14zM178 1051h148c18 0 27 -9 26 -27v-997c0 -18 -9 -27 -26 -27h-148
c-18 0 -27 9 -26 27v997c0 18 9 27 26 27z" />
    <glyph glyph-name="idieresis" unicode="&#xef;" horiz-adv-x="503" 
d="M55 1180c-63 0 -112 49 -112 112s49 113 112 113c30 0 56 -11 78 -33s33 -49 33 -80c0 -63 -51 -112 -111 -112zM529 1213c-22 -22 -49 -33 -80 -33c-32 0 -59 11 -80 33c-22 21 -33 48 -33 79s11 58 33 80c21 22 48 33 80 33c31 0 58 -11 80 -33c21 -22 32 -49 32 -80
s-11 -58 -32 -79zM326 0h-148c-18 0 -27 9 -26 27v997c0 18 9 27 26 27h148c18 0 27 -9 26 -27v-997c0 -18 -9 -27 -26 -27z" />
    <glyph glyph-name="eth" unicode="&#xf0;" horiz-adv-x="1267" 
d="M801 1401l307 -584c51 -86 76 -183 76 -291c0 -159 -52 -290 -157 -394c-105 -105 -236 -157 -394 -157c-159 0 -290 52 -393 157c-104 105 -156 236 -156 395c0 158 52 289 155 394c103 104 234 156 394 156c63 0 121 -8 174 -24l-143 272l-193 -104
c-17 -8 -28 -5 -35 10l-22 41c-9 17 -5 28 12 35l192 104l-69 131c-8 15 -5 28 10 37l90 51c17 9 29 5 37 -12l70 -131l211 115c13 7 25 3 34 -11l23 -39c8 -15 4 -27 -12 -34zM633 139c104 0 191 36 261 109c70 72 105 165 105 278s-35 206 -105 278
c-71 71 -158 107 -261 107s-189 -35 -259 -106c-71 -71 -106 -164 -106 -279s35 -208 106 -279c70 -72 156 -108 259 -108z" />
    <glyph glyph-name="ntilde" unicode="&#xf1;" horiz-adv-x="1286" 
d="M391 1217l-57 26c-11 4 -14 13 -10 27c34 107 93 160 176 160c41 0 91 -17 151 -51c60 -35 102 -52 127 -52c38 0 69 23 94 70c8 17 19 21 33 12l58 -25c11 -4 15 -13 12 -26c-33 -113 -92 -170 -178 -170c-41 0 -91 18 -152 54s-104 54 -127 54c-35 0 -66 -22 -92 -67
c-8 -15 -20 -19 -35 -12zM739 1077c131 0 234 -43 308 -129c73 -86 110 -210 110 -373v-548c0 -18 -9 -27 -27 -27h-145c-18 0 -27 9 -27 27v548c0 104 -25 186 -74 246c-50 60 -118 90 -204 90c-89 0 -163 -31 -224 -94s-96 -152 -106 -268v-522c0 -18 -9 -27 -26 -27h-146
c-18 0 -27 9 -26 27v997c0 18 9 27 26 27h115c13 0 22 -9 26 -27l13 -154c101 138 236 207 407 207z" />
    <glyph glyph-name="ograve" unicode="&#xf2;" horiz-adv-x="1267" 
d="M662 1186h-91c-13 0 -22 5 -26 16l-170 324c-11 21 7 45 28 45h123c15 0 24 -7 27 -21l137 -325c11 -21 -4 -39 -28 -39zM1027 132c-105 -105 -236 -157 -394 -157c-159 0 -290 52 -393 157c-104 105 -156 236 -156 395c0 158 52 289 155 394c103 104 234 156 394 156
c159 0 291 -52 395 -156c104 -105 156 -236 156 -394c0 -159 -52 -290 -157 -395zM633 139c104 0 191 36 260 109c69 72 104 165 104 278s-35 206 -104 278c-70 71 -157 107 -260 107s-189 -35 -258 -106c-70 -71 -105 -164 -105 -279s35 -208 105 -279
c69 -72 155 -108 258 -108z" />
    <glyph glyph-name="oacute" unicode="&#xf3;" horiz-adv-x="1267" 
d="M700 1186h-92c-21 0 -37 16 -28 39l137 325c5 13 14 20 26 21h123c24 0 40 -24 29 -45l-170 -324c-4 -11 -12 -16 -25 -16zM1027 132c-105 -105 -236 -157 -394 -157c-159 0 -290 52 -393 157c-104 105 -156 236 -156 395c0 158 52 289 155 394c103 104 234 156 394 156
c159 0 291 -52 395 -156c104 -105 156 -236 156 -394c0 -159 -52 -290 -157 -395zM633 139c104 0 191 36 260 109c69 72 104 165 104 278s-35 206 -104 278c-70 71 -157 107 -260 107s-189 -35 -258 -106c-70 -71 -105 -164 -105 -279s35 -208 105 -279
c69 -72 155 -108 258 -108z" />
    <glyph glyph-name="ocircumflex" unicode="&#xf4;" horiz-adv-x="1267" 
d="M420 1196h-72c-19 0 -32 16 -20 35l239 344c7 11 17 16 31 16h70c17 0 27 -5 32 -14l240 -346c11 -16 1 -35 -18 -35h-74c-21 0 -36 8 -47 23l-166 211l-166 -211c-11 -15 -27 -23 -49 -23zM239 921c103 104 234 156 394 156c159 0 291 -52 395 -156
c104 -105 156 -236 156 -394c0 -159 -52 -290 -157 -395s-236 -157 -394 -157c-159 0 -290 52 -393 157c-104 105 -156 236 -156 395c0 158 52 289 155 394zM633 139c104 0 191 36 260 109c69 72 104 165 104 278s-35 206 -104 278c-70 71 -157 107 -260 107
s-189 -35 -258 -106c-70 -71 -105 -164 -105 -279s35 -208 105 -279c69 -72 155 -108 258 -108z" />
    <glyph glyph-name="otilde" unicode="&#xf5;" horiz-adv-x="1267" 
d="M412 1229c-8 -15 -20 -19 -35 -12l-58 26c-11 4 -14 13 -10 27c34 107 93 160 176 160c41 0 91 -17 152 -51c60 -35 102 -52 127 -52c38 0 69 23 94 70c8 17 19 21 33 12l57 -25c11 -4 15 -13 13 -26c-33 -113 -92 -170 -179 -170c-41 0 -91 18 -152 54s-103 54 -126 54
c-35 1 -66 -22 -92 -67zM1027 132c-105 -105 -236 -157 -394 -157c-159 0 -290 52 -393 157c-104 105 -156 236 -156 395c0 158 52 289 155 394c103 104 234 156 394 156c159 0 291 -52 395 -156c104 -105 156 -236 156 -394c0 -159 -52 -290 -157 -395zM633 139
c104 0 191 36 260 109c69 72 104 165 104 278s-35 206 -104 278c-70 71 -157 107 -260 107s-189 -35 -258 -106c-70 -71 -105 -164 -105 -279s35 -208 105 -279c69 -72 155 -108 258 -108z" />
    <glyph glyph-name="odieresis" unicode="&#xf6;" horiz-adv-x="1267" 
d="M516 1213c-44 -44 -112 -44 -156 0c-23 21 -34 48 -34 79s11 58 34 80c44 44 112 44 156 0c22 -22 33 -49 33 -80s-11 -58 -33 -79zM911 1213c-45 -44 -114 -44 -158 0c-23 21 -34 48 -34 79s11 58 34 80c44 44 113 44 158 0c22 -22 33 -49 33 -80s-11 -58 -33 -79z
M1027 132c-105 -105 -236 -157 -394 -157c-159 0 -290 52 -393 157c-104 105 -156 236 -156 395c0 158 52 289 155 394c103 104 234 156 394 156c159 0 291 -52 395 -156c104 -105 156 -236 156 -394c0 -159 -52 -290 -157 -395zM633 139c104 0 191 36 260 109
c69 72 104 165 104 278s-35 206 -104 278c-70 71 -157 107 -260 107s-189 -35 -258 -106c-70 -71 -105 -164 -105 -279s35 -208 105 -279c69 -72 155 -108 258 -108z" />
    <glyph glyph-name="divide" unicode="&#xf7;" horiz-adv-x="1226" 
d="M716 982c-29 -29 -64 -44 -103 -44c-40 0 -74 15 -103 44s-43 64 -43 104c0 39 14 74 43 103s63 44 103 44c39 0 74 -15 103 -44s44 -64 44 -103c0 -40 -15 -75 -44 -104zM1071 641h-921c-18 0 -27 9 -27 27v63c0 18 9 27 27 27l921 2c18 0 27 -9 27 -27v-65
c0 -18 -9 -27 -27 -27zM716 213c-29 -29 -64 -43 -103 -43c-40 0 -74 14 -103 43s-43 63 -43 102c0 41 14 76 43 105s63 43 103 43c39 0 74 -14 103 -43s44 -64 44 -105c0 -39 -15 -73 -44 -102z" />
    <glyph glyph-name="oslash" unicode="&#xf8;" horiz-adv-x="1267" 
d="M1122 1317l-174 -330c148 -99 236 -266 236 -461c0 -159 -52 -290 -157 -394c-105 -105 -236 -157 -394 -157c-69 0 -137 12 -203 35l-145 -276h-140l174 332c-148 99 -235 264 -235 460c0 159 52 290 155 395c103 104 234 156 394 156c73 0 140 -12 203 -35l145 275h141
zM270 526c0 -130 44 -232 133 -305l353 670c-37 13 -78 20 -123 20c-103 0 -189 -35 -258 -106c-70 -71 -105 -164 -105 -279zM633 139c104 0 191 36 260 109c69 72 104 165 104 278c0 129 -44 230 -133 303l-354 -669c37 -14 78 -21 123 -21z" />
    <glyph glyph-name="ugrave" unicode="&#xf9;" horiz-adv-x="1275" 
d="M539 1202l-170 324c-11 21 7 45 28 45h123c15 0 24 -7 27 -21l137 -325c11 -21 -4 -39 -29 -39h-90c-13 0 -22 5 -26 16zM952 1051h146c18 0 27 -9 26 -27v-997c0 -18 -9 -27 -26 -27h-115c-15 0 -24 9 -27 27l-12 131c-94 -121 -227 -182 -399 -183
c-271 0 -416 171 -416 502v547c0 18 9 27 27 27h145c18 0 27 -9 27 -27v-547c0 -105 25 -188 76 -248c50 -60 118 -90 204 -90c175 0 295 128 318 363v522c0 18 9 27 26 27z" />
    <glyph glyph-name="uacute" unicode="&#xfa;" horiz-adv-x="1275" 
d="M694 1186h-92c-21 0 -37 16 -29 39l138 325c5 13 14 20 26 21h123c24 0 40 -24 29 -45l-170 -324c-4 -11 -12 -16 -25 -16zM952 1051h146c18 0 27 -9 26 -27v-997c0 -18 -9 -27 -26 -27h-115c-15 0 -24 9 -27 27l-12 131c-94 -121 -227 -182 -399 -183
c-271 0 -416 171 -416 502v547c0 18 9 27 27 27h145c18 0 27 -9 27 -27v-547c0 -105 25 -188 76 -248c50 -60 118 -90 204 -90c175 0 295 128 318 363v522c0 18 9 27 26 27z" />
    <glyph glyph-name="ucircumflex" unicode="&#xfb;" horiz-adv-x="1275" 
d="M414 1196h-72c-19 0 -32 16 -20 35l239 344c7 11 17 16 31 16h70c17 0 27 -5 32 -14l240 -346c11 -16 1 -35 -19 -35h-73c-21 0 -36 8 -47 23l-166 211l-166 -211c-11 -15 -27 -23 -49 -23zM952 1051h146c18 0 27 -9 26 -27v-997c0 -18 -9 -27 -26 -27h-115
c-15 0 -24 9 -27 27l-12 131c-94 -121 -227 -182 -399 -183c-271 0 -416 171 -416 502v547c0 18 9 27 27 27h145c18 0 27 -9 27 -27v-547c0 -105 25 -188 76 -248c50 -60 118 -90 204 -90c175 0 295 128 318 363v522c0 18 9 27 26 27z" />
    <glyph glyph-name="udieresis" unicode="&#xfc;" horiz-adv-x="1275" 
d="M432 1180c-63 0 -113 49 -113 112s50 113 113 113c30 0 56 -11 78 -33s33 -49 33 -80c0 -63 -51 -112 -111 -112zM905 1213c-22 -22 -49 -33 -80 -33s-58 11 -79 33c-22 21 -33 48 -33 79s11 58 33 80c21 22 48 33 79 33s58 -11 80 -33s33 -49 33 -80s-11 -58 -33 -79z
M952 1051h146c18 0 27 -9 26 -27v-997c0 -18 -9 -27 -26 -27h-115c-15 0 -24 9 -27 27l-12 131c-94 -121 -227 -182 -399 -183c-271 0 -416 171 -416 502v547c0 18 9 27 27 27h145c18 0 27 -9 27 -27v-547c0 -105 25 -188 76 -248c50 -60 118 -90 204 -90
c175 0 295 128 318 363v522c0 18 9 27 26 27z" />
    <glyph glyph-name="yacute" unicode="&#xfd;" horiz-adv-x="1107" 
d="M621 1186h-93c-21 0 -36 16 -28 39l137 325c5 13 14 20 27 21h122c24 0 40 -24 29 -45l-170 -324c-4 -11 -12 -16 -24 -16zM891 1051h151c22 0 29 -10 21 -31l-451 -1159c-71 -180 -178 -270 -323 -271c-67 0 -128 18 -185 54c-13 11 -16 23 -8 37l41 90
c8 15 20 19 37 12c30 -17 62 -25 96 -25c81 0 134 53 183 185l22 59l-432 1018c-8 13 1 31 20 31h152c15 0 26 -8 33 -23l317 -780l293 780c7 15 18 23 33 23z" />
    <glyph glyph-name="thorn" unicode="&#xfe;" horiz-adv-x="1374" 
d="M770 1081c145 0 267 -51 368 -153c100 -103 150 -236 150 -400c0 -163 -50 -295 -150 -396c-101 -101 -225 -152 -374 -152c-169 0 -307 66 -412 198v-586c0 -18 -9 -27 -26 -26h-146c-18 0 -27 9 -26 26v1868c0 18 9 27 26 27h146c18 0 27 -9 26 -27v-581
c108 135 247 202 418 202zM723 143c107 0 195 36 266 107c70 71 105 163 105 278s-35 208 -104 280c-70 71 -156 107 -259 107c-107 0 -196 -38 -269 -113c-73 -76 -110 -172 -110 -288c0 -115 36 -205 108 -271c71 -67 159 -100 263 -100z" />
    <glyph glyph-name="ydieresis" unicode="&#xff;" horiz-adv-x="1107" 
d="M358 1180c-63 0 -112 49 -112 112s49 113 112 113c30 0 56 -11 78 -33s33 -49 33 -80c0 -63 -51 -112 -111 -112zM832 1213c-22 -22 -49 -33 -80 -33s-58 11 -80 33c-22 21 -33 48 -33 79s11 58 33 80s49 33 80 33s58 -11 80 -33c21 -22 32 -49 32 -80s-11 -58 -32 -79z
M891 1051h151c22 0 29 -10 21 -31l-451 -1159c-71 -180 -178 -270 -323 -271c-67 0 -128 18 -185 54c-13 11 -16 23 -8 37l41 90c8 15 20 19 37 12c30 -17 62 -25 96 -25c81 0 134 53 183 185l22 59l-432 1018c-8 13 1 31 20 31h152c15 0 26 -8 33 -23l317 -780l293 780
c7 15 18 23 33 23z" />
    <glyph glyph-name="Amacron" unicode="&#x100;" horiz-adv-x="1476" 
d="M1071 1667h-637c-18 0 -27 9 -26 27v90c0 18 9 27 26 26l637 2c18 0 27 -9 27 -26v-92c0 -18 -9 -27 -27 -27zM834 1413l567 -1380c8 -22 0 -33 -23 -33h-153c-15 0 -25 6 -29 18l-139 338h-627l-149 -338c-4 -12 -14 -18 -29 -18h-156c-23 0 -30 11 -20 33l608 1380
c5 12 15 18 29 19h92c15 0 25 -6 29 -19zM997 508l-241 635l-262 -635h503z" />
    <glyph glyph-name="amacron" unicode="&#x101;" horiz-adv-x="1361" 
d="M999 1278h-637c-18 0 -27 9 -26 27v90c0 18 9 27 26 26l637 2c18 0 27 -9 27 -26v-92c0 -18 -9 -27 -27 -27zM1069 1051h115c18 0 27 -9 26 -27v-997c0 -18 -9 -27 -26 -27h-115c-13 0 -22 9 -27 27l-14 153c-105 -137 -245 -205 -418 -205c-149 0 -273 51 -373 153
c-101 102 -151 234 -151 396c0 164 50 297 151 400c100 102 222 153 367 153c172 0 325 -79 424 -211l14 158c3 18 12 27 27 27zM651 139c104 0 192 33 264 100c71 66 107 156 107 271c0 116 -36 212 -109 288c-73 75 -163 113 -270 113c-103 0 -189 -36 -258 -107
c-69 -72 -104 -165 -104 -280s35 -207 105 -278s158 -107 265 -107z" />
    <glyph glyph-name="Abreve" unicode="&#x102;" horiz-adv-x="1476" 
d="M970 1668c-61 -54 -133 -81 -216 -81s-155 27 -215 82s-94 120 -103 197c-3 25 8 37 31 37h84c17 0 25 -7 24 -21c3 -45 20 -85 53 -120c32 -35 74 -52 126 -52c51 0 93 18 126 53c32 35 49 74 52 119c3 13 11 20 26 21h82c25 0 35 -13 31 -39c-7 -77 -40 -142 -101 -196
zM834 1413l567 -1380c8 -22 0 -33 -23 -33h-153c-15 0 -25 6 -29 18l-139 338h-627l-149 -338c-4 -12 -14 -18 -29 -18h-156c-23 0 -30 11 -20 33l608 1380c5 12 15 18 29 19h92c15 0 25 -6 29 -19zM997 508l-241 635l-262 -635h503z" />
    <glyph glyph-name="abreve" unicode="&#x103;" horiz-adv-x="1361" 
d="M898 1279c-61 -54 -133 -81 -216 -81s-155 27 -215 82s-94 120 -102 197c-3 25 7 37 30 36h84c17 0 25 -7 25 -20c3 -45 20 -85 52 -120s74 -52 126 -52s94 17 126 52s49 75 52 120c3 13 12 20 27 20h82c25 0 35 -13 30 -38c-7 -77 -40 -142 -101 -196zM1069 1051h115
c18 0 27 -9 26 -27v-997c0 -18 -9 -27 -26 -27h-115c-13 0 -22 9 -27 27l-14 153c-105 -137 -245 -205 -418 -205c-149 0 -273 51 -373 153c-101 102 -151 234 -151 396c0 164 50 297 151 400c100 102 222 153 367 153c172 0 325 -79 424 -211l14 158c3 18 12 27 27 27z
M651 139c104 0 192 33 264 100c71 66 107 156 107 271c0 116 -36 212 -109 288c-73 75 -163 113 -270 113c-103 0 -189 -36 -258 -107c-69 -72 -104 -165 -104 -280s35 -207 105 -278s158 -107 265 -107z" />
    <glyph glyph-name="Aogonek" unicode="&#x104;" horiz-adv-x="1476" 
d="M1493 -313l18 -60c3 -11 0 -18 -8 -22c-94 -41 -177 -45 -248 -14c-72 31 -108 85 -108 161c0 47 24 95 72 144c47 50 74 85 79 104h-73c-15 0 -25 6 -29 18l-139 338h-627l-149 -338c-4 -12 -14 -18 -29 -18h-156c-23 0 -30 11 -20 33l608 1380c5 12 15 18 29 19h92
c15 0 25 -6 29 -19l567 -1380c5 -12 5 -20 -2 -25c-5 -44 -30 -89 -73 -135c-44 -45 -66 -82 -66 -111c0 -34 18 -59 53 -75c35 -15 86 -12 153 10c12 5 21 2 27 -10zM997 508l-241 635l-262 -635h503z" />
    <glyph glyph-name="aogonek" unicode="&#x105;" horiz-adv-x="1361" 
d="M1303 -319l18 -60c3 -11 0 -18 -8 -22c-94 -41 -177 -46 -249 -15s-108 85 -108 162c0 47 24 95 73 145c49 51 76 87 81 109h-41c-13 0 -22 9 -27 27l-14 153c-105 -137 -245 -205 -418 -205c-149 0 -273 51 -373 153c-101 102 -151 234 -151 396c0 164 50 297 151 400
c100 102 222 153 367 153c172 0 325 -79 424 -211l14 158c3 18 12 27 27 27h115c18 0 27 -9 26 -27v-997c0 -65 -36 -123 -70 -154s-71 -76 -71 -117c0 -34 18 -59 54 -75c35 -15 86 -12 153 10c12 5 21 2 27 -10zM651 139c104 0 192 33 264 100c71 66 107 156 107 271
c0 116 -36 212 -109 288c-73 75 -163 113 -270 113c-103 0 -189 -36 -258 -107c-69 -72 -104 -165 -104 -280s35 -207 105 -278s158 -107 265 -107z" />
    <glyph glyph-name="Cacute" unicode="&#x106;" horiz-adv-x="1486" 
d="M864 1595h-92c-21 0 -37 18 -29 39l138 326c5 13 14 20 26 20h123c24 0 40 -22 29 -45l-170 -323c-4 -11 -12 -16 -25 -17zM846 -27c-210 0 -385 72 -524 215s-209 319 -209 527c0 203 68 377 203 522s298 217 489 217c237 0 435 -72 594 -215c11 -9 11 -20 0 -31
l-101 -102c-9 -9 -19 -9 -28 0c-108 108 -258 162 -449 162c-145 0 -267 -54 -366 -161c-100 -107 -150 -238 -150 -392c0 -155 51 -286 152 -393s224 -160 370 -160c100 0 175 10 224 30c49 19 112 58 190 115c9 7 18 7 25 0l108 -106c12 -12 12 -23 0 -33
c-154 -130 -330 -195 -528 -195z" />
    <glyph glyph-name="cacute" unicode="&#x107;" horiz-adv-x="1091" 
d="M664 1186h-93c-21 0 -36 16 -28 39l137 325c5 13 14 20 27 21h122c24 0 40 -24 29 -45l-170 -324c-4 -11 -12 -16 -24 -16zM631 -25c-159 0 -290 53 -393 160c-104 107 -156 237 -156 391c0 153 52 283 156 390c103 107 234 161 391 161c153 0 282 -57 389 -170
c12 -12 11 -25 -4 -39l-88 -67c-13 -9 -26 -8 -37 4c-74 71 -160 106 -258 106c-104 0 -191 -37 -260 -111c-70 -75 -105 -167 -105 -276s35 -201 105 -274c69 -74 158 -111 266 -111c77 0 133 20 179 45c32 18 43 27 65 44c11 8 17 13 18 14c15 9 28 10 37 2l88 -66
c15 -12 17 -24 6 -37c-103 -111 -236 -166 -399 -166z" />
    <glyph glyph-name="Cdotaccent" unicode="&#x10a;" horiz-adv-x="1486" 
d="M877 1622c-44 -44 -112 -44 -157 0s-45 116 0 160s113 44 157 0c42 -44 42 -116 0 -160zM846 -27c-210 0 -385 72 -524 215s-209 319 -209 527c0 203 68 377 203 522s298 217 489 217c237 0 435 -72 594 -215c11 -9 11 -20 0 -31l-101 -102c-9 -9 -19 -9 -28 0
c-108 108 -258 162 -449 162c-145 0 -267 -54 -366 -161c-100 -107 -150 -238 -150 -392c0 -155 51 -286 152 -393s224 -160 370 -160c100 0 175 10 224 30c49 19 112 58 190 115c9 7 18 7 25 0l108 -106c12 -12 12 -23 0 -33c-154 -130 -330 -195 -528 -195z" />
    <glyph glyph-name="cdotaccent" unicode="&#x10b;" horiz-adv-x="1091" 
d="M676 1213c-44 -44 -112 -44 -157 0c-23 21 -34 48 -34 79s11 58 34 80c45 44 113 44 157 0c22 -22 33 -49 33 -80s-11 -58 -33 -79zM631 -25c-159 0 -290 53 -393 160c-104 107 -156 237 -156 391c0 153 52 283 156 390c103 107 234 161 391 161c153 0 282 -57 389 -170
c12 -12 11 -25 -4 -39l-88 -67c-13 -9 -26 -8 -37 4c-74 71 -160 106 -258 106c-104 0 -191 -37 -260 -111c-70 -75 -105 -167 -105 -276s35 -201 105 -274c69 -74 158 -111 266 -111c77 0 133 20 179 45c32 18 43 27 65 44c11 8 17 13 18 14c15 9 28 10 37 2l88 -66
c15 -12 17 -24 6 -37c-103 -111 -236 -166 -399 -166z" />
    <glyph glyph-name="Ccaron" unicode="&#x10c;" horiz-adv-x="1486" 
d="M731 1622l-239 346c-11 16 1 33 20 33h74c22 0 38 -8 47 -23l166 -209l168 211c9 13 25 20 47 21h71c19 0 32 -17 21 -33l-242 -346c-7 -11 -17 -16 -30 -16h-70c-15 0 -26 5 -33 16zM821 1268c-145 0 -267 -54 -366 -161c-100 -107 -150 -238 -150 -392
c0 -155 51 -286 152 -393s224 -160 370 -160c100 0 175 10 224 30c49 19 112 58 190 115c9 7 18 7 25 0l108 -106c12 -12 12 -23 0 -33c-154 -130 -330 -195 -528 -195c-210 0 -385 72 -524 215s-209 319 -209 527c0 203 68 377 203 522s298 217 489 217
c237 0 435 -72 594 -215c11 -9 11 -20 0 -31l-101 -102c-9 -9 -19 -9 -28 0c-108 108 -258 162 -449 162z" />
    <glyph glyph-name="ccaron" unicode="&#x10d;" horiz-adv-x="1091" 
d="M530 1212l-239 347c-11 16 1 32 20 32h74c22 0 38 -7 47 -22l166 -209l168 211c9 13 25 20 47 20h72c19 0 31 -16 20 -32l-241 -347c-7 -11 -17 -16 -31 -16h-70c-15 0 -26 5 -33 16zM936 244l88 -66c15 -12 17 -24 6 -37c-104 -111 -237 -166 -399 -166
c-159 0 -290 53 -393 160c-104 107 -156 237 -156 391c0 153 52 283 156 390c103 107 234 161 391 161c153 0 282 -57 389 -170c12 -12 11 -25 -4 -39l-88 -67c-13 -9 -26 -8 -37 4c-74 71 -160 106 -258 106c-104 0 -191 -37 -260 -111c-70 -75 -105 -167 -105 -276
s35 -201 105 -274c69 -74 158 -111 266 -111c77 0 133 20 179 45c32 18 43 27 65 44c11 8 17 13 18 14c15 9 28 10 37 2z" />
    <glyph glyph-name="Dcaron" unicode="&#x10e;" horiz-adv-x="1519" 
d="M592 1602l-240 346c-11 16 1 32 21 32h73c22 0 38 -7 48 -22l165 -209l168 211c9 13 25 20 47 20h72c19 0 32 -16 21 -32l-242 -346c-7 -11 -17 -16 -31 -17h-69c-15 1 -26 6 -33 17zM217 1434h531c199 0 358 -65 477 -195s178 -304 178 -522c0 -223 -58 -398 -175 -525
c-117 -128 -277 -192 -480 -192h-531c-18 0 -27 9 -27 27v1380c0 18 9 27 27 27zM389 184h359c145 0 257 47 337 140c79 93 119 222 119 389c0 168 -40 299 -120 394c-81 95 -193 142 -336 142h-359v-1065z" />
    <glyph glyph-name="dcaron" unicode="&#x10f;" horiz-adv-x="1376" 
d="M1049 1487h145c18 0 27 -9 27 -27v-1433c0 -18 -9 -27 -27 -27h-115c-13 0 -22 9 -26 27l-17 166c-104 -145 -246 -217 -426 -218c-149 0 -273 51 -373 153c-101 102 -151 234 -151 396c0 164 50 297 151 400c100 102 222 153 367 153c171 0 310 -68 418 -203v586
c0 18 9 27 27 27zM1473 1438h139c24 0 42 -22 30 -43l-172 -324c-5 -12 -13 -18 -24 -18h-109c-21 0 -39 18 -30 41l137 325c5 12 15 18 29 19zM651 139c104 0 192 33 264 100c71 66 107 156 107 271c0 116 -36 212 -109 288c-73 75 -163 113 -270 113
c-103 0 -189 -36 -258 -107c-69 -72 -104 -165 -104 -280s35 -207 105 -278s158 -107 265 -107z" />
    <glyph glyph-name="Dcroat" unicode="&#x110;" horiz-adv-x="1519" 
d="M217 1434h531c199 0 358 -65 477 -195s178 -304 178 -522c0 -223 -58 -398 -175 -525c-117 -128 -277 -192 -480 -192h-531c-18 0 -27 9 -27 27v616h-149c-18 0 -27 9 -27 27v90c0 18 9 27 27 26h149v621c0 18 9 27 27 27zM389 184h359c145 0 257 47 337 140
c79 93 119 222 119 389c0 168 -40 299 -120 394c-81 95 -193 142 -336 142h-359v-461h275c18 0 27 -9 26 -26v-92c0 -18 -9 -27 -26 -27h-275v-459z" />
    <glyph glyph-name="dslash" unicode="&#x111;" horiz-adv-x="1374" 
d="M1221 1356h114c18 0 27 -9 27 -27v-92c0 -18 -9 -27 -27 -27h-114v-1183c0 -18 -9 -27 -27 -27h-115c-13 0 -22 9 -26 27l-17 166c-104 -145 -246 -217 -426 -218c-149 0 -273 51 -373 153c-101 102 -151 234 -151 396c0 164 50 297 151 400c100 102 222 153 367 153
c171 0 310 -68 418 -203v336h-309c-18 0 -27 9 -27 27v90c0 18 9 27 27 27h309v106c0 18 9 27 27 27h145c18 0 27 -9 27 -27v-104zM651 139c104 0 192 33 264 100c71 66 107 156 107 271c0 116 -36 212 -109 288c-73 75 -163 113 -270 113c-103 0 -189 -36 -258 -107
c-69 -72 -104 -165 -104 -280s35 -207 105 -278s158 -107 265 -107z" />
    <glyph glyph-name="Emacron" unicode="&#x112;" horiz-adv-x="1345" 
d="M1034 1667h-637c-18 0 -27 9 -26 27v90c0 18 9 27 26 26l637 2c18 0 27 -9 27 -26v-92c0 -18 -9 -27 -27 -27zM389 184h832c18 0 27 -9 26 -26v-131c0 -18 -9 -27 -26 -27h-1004c-18 0 -27 9 -27 27v1380c0 18 9 27 27 27h995c18 0 27 -9 27 -27v-131
c0 -18 -9 -27 -27 -27h-823v-448h698c18 0 27 -9 27 -27v-102c0 -18 -9 -27 -27 -27h-698v-461z" />
    <glyph glyph-name="emacron" unicode="&#x113;" horiz-adv-x="1210" 
d="M932 1278h-637c-18 0 -27 9 -27 27v90c0 18 9 27 27 26l637 2c18 0 27 -9 26 -26v-92c0 -18 -9 -27 -26 -27zM608 1077c150 0 274 -51 372 -154c97 -103 146 -236 146 -397c0 -13 -1 -26 -2 -37c-1 -17 -11 -25 -28 -24h-830c9 -103 49 -183 118 -240s158 -86 267 -86
c79 0 144 16 195 47s97 77 139 138c12 12 25 13 39 2l76 -80c11 -13 10 -28 -2 -43c-99 -145 -270 -228 -463 -228c-160 0 -292 52 -395 155c-104 103 -156 234 -156 392c0 155 49 287 148 394c98 107 223 161 376 161zM844 833c-61 52 -138 78 -229 78
c-92 0 -169 -26 -232 -78c-63 -53 -101 -126 -115 -219h684c-11 94 -47 167 -108 219z" />
    <glyph glyph-name="Edotaccent" unicode="&#x116;" horiz-adv-x="1345" 
d="M795 1602c-44 -44 -112 -44 -157 0c-23 21 -34 48 -34 80c0 31 11 58 34 80c45 43 113 43 157 0c21 -22 32 -49 32 -80c0 -32 -11 -59 -32 -80zM389 184h832c18 0 27 -9 26 -26v-131c0 -18 -9 -27 -26 -27h-1004c-18 0 -27 9 -27 27v1380c0 18 9 27 27 27h995
c18 0 27 -9 27 -27v-131c0 -18 -9 -27 -27 -27h-823v-448h698c18 0 27 -9 27 -27v-102c0 -18 -9 -27 -27 -27h-698v-461z" />
    <glyph glyph-name="edotaccent" unicode="&#x117;" horiz-adv-x="1210" 
d="M692 1213c-44 -44 -112 -44 -156 0c-23 21 -34 48 -34 79s11 58 34 80c44 44 112 44 156 0c22 -22 33 -49 33 -80s-11 -58 -33 -79zM608 1077c150 0 274 -51 372 -154c97 -103 146 -236 146 -397c0 -13 -1 -26 -2 -37c-1 -17 -11 -25 -28 -24h-830
c9 -103 49 -183 118 -240s158 -86 267 -86c79 0 144 16 195 47s97 77 139 138c12 12 25 13 39 2l76 -80c11 -13 10 -28 -2 -43c-99 -145 -270 -228 -463 -228c-160 0 -292 52 -395 155c-104 103 -156 234 -156 392c0 155 49 287 148 394c98 107 223 161 376 161zM844 833
c-61 52 -138 78 -229 78c-92 0 -169 -26 -232 -78c-63 -53 -101 -126 -115 -219h684c-11 94 -47 167 -108 219z" />
    <glyph glyph-name="Eogonek" unicode="&#x118;" horiz-adv-x="1345" 
d="M1339 -319l19 -60c3 -11 0 -18 -8 -22c-94 -41 -177 -46 -249 -15s-108 85 -108 162c0 47 24 95 73 145c49 51 76 87 81 109h-930c-18 0 -27 9 -27 27v1380c0 18 9 27 27 27h995c18 0 27 -9 27 -27v-131c0 -18 -9 -27 -27 -27h-823v-448h698c18 0 27 -9 27 -27v-102
c0 -18 -9 -27 -27 -27h-698v-461h832c18 0 27 -9 26 -26v-131c0 -65 -36 -123 -70 -154s-71 -76 -71 -117c0 -34 18 -59 53 -75c35 -15 87 -12 154 10c12 5 21 2 26 -10z" />
    <glyph glyph-name="eogonek" unicode="&#x119;" horiz-adv-x="1210" 
d="M1200 -121l19 -59c3 -11 0 -18 -9 -23c-94 -41 -177 -45 -248 -14c-72 31 -108 85 -108 162c0 25 6 51 18 78c-74 -31 -153 -47 -237 -48c-160 0 -292 52 -395 155c-104 103 -156 234 -156 392c0 155 49 287 148 394c98 107 223 161 376 161c150 0 274 -51 372 -154
c97 -103 146 -236 146 -397c0 -13 -1 -26 -2 -37c-1 -17 -11 -25 -28 -24h-830c9 -103 49 -183 118 -240s158 -86 267 -86c79 0 144 16 195 47s97 77 139 138c12 12 25 13 39 2l76 -80c8 -8 11 -16 8 -23c0 -41 -12 -76 -36 -107s-47 -59 -70 -84s-35 -51 -35 -77
c0 -34 18 -59 53 -75c35 -15 87 -12 154 9c12 5 21 2 26 -10zM844 833c-61 52 -138 78 -229 78c-92 0 -169 -26 -232 -78c-63 -53 -101 -126 -115 -219h684c-11 94 -47 167 -108 219z" />
    <glyph glyph-name="Ecaron" unicode="&#x11a;" horiz-adv-x="1345" 
d="M649 1602l-239 346c-11 16 1 32 20 32h74c22 0 38 -7 47 -22l166 -209l168 211c9 13 25 20 47 20h72c19 0 31 -16 20 -32l-242 -346c-7 -11 -17 -16 -30 -17h-70c-15 1 -26 6 -33 17zM389 184h832c18 0 27 -9 26 -26v-131c0 -18 -9 -27 -26 -27h-1004c-18 0 -27 9 -27 27
v1380c0 18 9 27 27 27h995c18 0 27 -9 27 -27v-131c0 -18 -9 -27 -27 -27h-823v-448h698c18 0 27 -9 27 -27v-102c0 -18 -9 -27 -27 -27h-698v-461z" />
    <glyph glyph-name="ecaron" unicode="&#x11b;" horiz-adv-x="1210" 
d="M547 1212l-240 347c-11 16 1 32 21 32h73c22 0 38 -7 48 -22l165 -209l168 211c9 13 25 20 47 20h72c19 0 32 -16 21 -32l-242 -347c-7 -11 -17 -16 -31 -16h-69c-15 0 -26 5 -33 16zM608 1077c150 0 274 -51 372 -154c97 -103 146 -236 146 -397c0 -13 -1 -26 -2 -37
c-1 -17 -11 -25 -28 -24h-830c9 -103 49 -183 118 -240s158 -86 267 -86c79 0 144 16 195 47s97 77 139 138c12 12 25 13 39 2l76 -80c11 -13 10 -28 -2 -43c-99 -145 -270 -228 -463 -228c-160 0 -292 52 -395 155c-104 103 -156 234 -156 392c0 155 49 287 148 394
c98 107 223 161 376 161zM844 833c-61 52 -138 78 -229 78c-92 0 -169 -26 -232 -78c-63 -53 -101 -126 -115 -219h684c-11 94 -47 167 -108 219z" />
    <glyph glyph-name="Gbreve" unicode="&#x11e;" horiz-adv-x="1556" 
d="M1038 1689c-61 -54 -134 -81 -217 -81s-155 27 -215 82s-94 120 -102 196c-3 25 8 37 31 37h83c17 0 25 -7 25 -20c3 -45 20 -85 52 -120s74 -52 126 -52s94 17 126 52s49 75 52 120c3 13 12 20 27 20h82c25 0 35 -13 31 -39c-7 -77 -40 -142 -101 -195zM821 737h568
c18 0 27 -9 26 -26v-684c0 -18 -9 -27 -26 -27h-101c-17 0 -26 9 -28 27l-17 114c-112 -108 -258 -162 -438 -161c-199 0 -364 68 -495 205c-131 136 -197 311 -197 524c0 211 65 388 195 530c129 142 292 216 489 223c104 3 210 -14 317 -50s200 -89 279 -159
c11 -9 11 -19 0 -30l-99 -99c-8 -8 -17 -8 -28 0c-52 35 -94 63 -127 83s-79 39 -138 56c-60 17 -122 23 -186 19c-154 -8 -279 -65 -374 -170c-96 -105 -144 -238 -144 -399c0 -164 50 -298 149 -402c99 -105 230 -157 394 -157c172 0 323 62 399 182v246h-418
c-19 0 -29 9 -28 26v103c0 18 9 27 28 26z" />
    <glyph glyph-name="gbreve" unicode="&#x11f;" horiz-adv-x="1323" 
d="M874 1279c-61 -54 -134 -81 -217 -81s-155 27 -215 82s-94 120 -102 197c-3 25 8 37 31 36h84c17 0 25 -7 24 -20c3 -45 20 -85 53 -120c32 -35 74 -52 126 -52c51 0 93 17 125 52s50 75 53 120c3 13 11 20 26 20h82c25 0 35 -13 31 -38c-7 -77 -40 -142 -101 -196z
M1020 1053h125c18 0 27 -9 26 -27v-956c0 -151 -53 -269 -158 -354c-106 -84 -243 -126 -411 -126c-143 0 -281 38 -412 113c-13 7 -17 18 -12 35l43 96c8 18 20 22 37 12c94 -65 204 -98 330 -98c113 0 206 27 278 81c71 54 107 128 107 222v168
c-97 -111 -225 -166 -385 -166c-145 0 -265 47 -361 142c-97 94 -145 217 -145 369c0 151 48 275 144 370c95 95 213 143 352 143c161 0 307 -74 403 -194l12 143c4 18 13 27 27 27zM614 217c98 0 182 30 253 89s106 140 106 243c0 104 -36 190 -107 259
c-72 69 -158 103 -258 103c-95 0 -176 -32 -242 -96c-67 -64 -100 -148 -100 -251c0 -104 33 -188 99 -251c66 -64 149 -96 249 -96z" />
    <glyph glyph-name="Gdotaccent" unicode="&#x120;" horiz-adv-x="1556" 
d="M821 1589c-63 0 -112 50 -112 113s49 113 112 113c30 0 56 -11 78 -33s33 -49 33 -80s-11 -58 -33 -80s-48 -33 -78 -33zM821 737h568c18 0 27 -9 26 -26v-684c0 -18 -9 -27 -26 -27h-101c-17 0 -26 9 -28 27l-17 114c-112 -108 -258 -162 -438 -161
c-199 0 -364 68 -495 205c-131 136 -197 311 -197 524c0 211 65 388 195 530c129 142 292 216 489 223c104 3 210 -14 317 -50s200 -89 279 -159c11 -9 11 -19 0 -30l-99 -99c-8 -8 -17 -8 -28 0c-52 35 -94 63 -127 83s-79 39 -138 56c-60 17 -122 23 -186 19
c-154 -8 -279 -65 -374 -170c-96 -105 -144 -238 -144 -399c0 -164 50 -298 149 -402c99 -105 230 -157 394 -157c172 0 323 62 399 182v246h-418c-19 0 -29 9 -28 26v103c0 18 9 27 28 26z" />
    <glyph glyph-name="gdotaccent" unicode="&#x121;" horiz-adv-x="1323" 
d="M657 1180c-63 0 -112 49 -112 112s49 113 112 113c30 0 56 -11 78 -33s33 -49 33 -80c0 -63 -51 -112 -111 -112zM1020 1053h125c18 0 27 -9 26 -27v-956c0 -151 -53 -269 -158 -354c-106 -84 -243 -126 -411 -126c-143 0 -281 38 -412 113c-13 7 -17 18 -12 35l43 96
c8 18 20 22 37 12c94 -65 204 -98 330 -98c113 0 206 27 278 81c71 54 107 128 107 222v168c-97 -111 -225 -166 -385 -166c-145 0 -265 47 -361 142c-97 94 -145 217 -145 369c0 151 48 275 144 370c95 95 213 143 352 143c161 0 307 -74 403 -194l12 143c4 18 13 27 27 27
zM614 217c98 0 182 30 253 89s106 140 106 243c0 104 -36 190 -107 259c-72 69 -158 103 -258 103c-95 0 -176 -32 -242 -96c-67 -64 -100 -148 -100 -251c0 -104 33 -188 99 -251c66 -64 149 -96 249 -96z" />
    <glyph glyph-name="uni0122" unicode="&#x122;" horiz-adv-x="1556" 
d="M821 737h568c18 0 27 -9 26 -26v-684c0 -18 -9 -27 -26 -27h-101c-17 0 -26 9 -28 27l-17 114c-112 -108 -258 -162 -438 -161c-199 0 -364 68 -495 205c-131 136 -197 311 -197 524c0 211 65 388 195 530c129 142 292 216 489 223c104 3 210 -14 317 -50
s200 -89 279 -159c11 -9 11 -19 0 -30l-99 -99c-8 -8 -17 -8 -28 0c-52 35 -94 63 -127 83s-79 39 -138 56c-60 17 -122 23 -186 19c-154 -8 -279 -65 -374 -170c-96 -105 -144 -238 -144 -399c0 -164 50 -298 149 -402c99 -105 230 -157 394 -157c172 0 323 62 399 182v246
h-418c-19 0 -29 9 -28 26v103c0 18 9 27 28 26zM831 -152c94 0 141 -69 142 -208c0 -155 -87 -268 -260 -338c-11 -3 -18 1 -21 10l-14 41c-1 11 3 19 12 24c39 12 76 33 111 64c34 31 51 63 51 96c0 39 -12 51 -57 51c-63 0 -103 55 -103 123c0 37 14 69 41 96s60 41 98 41
z" />
    <glyph glyph-name="uni0123" unicode="&#x123;" horiz-adv-x="1323" 
d="M649 1165c-93 0 -141 82 -141 207c0 163 88 279 264 350c13 3 20 0 21 -8l16 -43c1 -12 -3 -20 -14 -24c-42 -15 -80 -38 -113 -69c-34 -31 -51 -64 -51 -101c0 -30 20 -45 59 -45c63 0 103 -58 103 -123c0 -39 -14 -73 -41 -101c-28 -29 -62 -43 -103 -43zM1020 1053
h125c18 0 27 -9 26 -27v-956c0 -151 -53 -269 -158 -354c-106 -84 -243 -126 -411 -126c-143 0 -281 38 -412 113c-13 7 -17 18 -12 35l43 96c8 18 20 22 37 12c94 -65 204 -98 330 -98c113 0 206 27 278 81c71 54 107 128 107 222v168c-97 -111 -225 -166 -385 -166
c-145 0 -265 47 -361 142c-97 94 -145 217 -145 369c0 151 48 275 144 370c95 95 213 143 352 143c161 0 307 -74 403 -194l12 143c4 18 13 27 27 27zM614 217c98 0 182 30 253 89s106 140 106 243c0 104 -36 190 -107 259c-72 69 -158 103 -258 103
c-95 0 -176 -32 -242 -96c-67 -64 -100 -148 -100 -251c0 -104 33 -188 99 -251c66 -64 149 -96 249 -96z" />
    <glyph glyph-name="Hbar" unicode="&#x126;" horiz-adv-x="1519" 
d="M1157 1434h146c18 0 27 -9 26 -27v-1380c0 -18 -9 -27 -26 -27h-146c-18 0 -27 9 -27 27v618h-741v-618c0 -18 -9 -27 -27 -27h-145c-18 0 -27 9 -27 27v1380c0 18 9 27 27 27h145c18 0 27 -9 27 -27v-229h741v229c0 18 9 27 27 27zM389 1032v-231h741v233z" />
    <glyph glyph-name="hbar" unicode="&#x127;" horiz-adv-x="1275" 
d="M729 1077c131 0 234 -43 308 -129c73 -86 110 -210 110 -373v-548c0 -18 -9 -27 -27 -27h-145c-18 0 -27 9 -27 27v548c0 104 -25 186 -74 246c-50 60 -118 90 -204 90c-177 0 -298 -127 -318 -362v-522c0 -18 -9 -27 -26 -27h-146c-18 0 -27 9 -26 27v1167h-134
c-18 0 -27 9 -26 27v90c0 18 9 27 26 26h134v123c0 18 9 27 26 27h146c18 0 27 -9 26 -27v-121h291c18 0 27 -9 27 -26v-92c0 -18 -9 -27 -27 -27h-291v-293c94 117 220 176 377 176z" />
    <glyph glyph-name="Itilde" unicode="&#x128;" horiz-adv-x="579" 
d="M66 1618c-8 -15 -20 -19 -35 -12l-58 26c-11 4 -14 13 -10 27c34 107 93 160 176 160c41 0 91 -17 152 -51c60 -35 102 -52 127 -52c38 0 69 23 94 70c8 17 19 21 33 12l57 -24c11 -4 15 -13 12 -27c-33 -113 -92 -170 -178 -170c-41 0 -91 18 -152 55
c-61 36 -103 54 -126 54c-35 0 -66 -23 -92 -68zM362 0h-145c-18 0 -27 9 -27 27v1380c0 18 9 27 27 27h145c18 0 27 -9 27 -27v-1380c0 -18 -9 -27 -27 -27z" />
    <glyph glyph-name="itilde" unicode="&#x129;" horiz-adv-x="503" 
d="M29 1229c-8 -15 -20 -19 -35 -12l-57 26c-11 4 -14 13 -11 27c34 107 93 160 176 160c41 0 91 -17 152 -51c60 -35 102 -52 127 -52c38 0 69 23 94 70c8 17 19 21 33 12l57 -25c11 -4 15 -13 13 -26c-33 -113 -92 -170 -179 -170c-41 0 -91 18 -152 54s-103 54 -126 54
c-35 1 -66 -22 -92 -67zM326 0h-148c-18 0 -27 9 -26 27v997c0 18 9 27 26 27h148c18 0 27 -9 26 -27v-997c0 -18 -9 -27 -26 -27z" />
    <glyph glyph-name="Imacron" unicode="&#x12a;" horiz-adv-x="579" 
d="M606 1667h-637c-18 0 -27 9 -26 27v90c0 18 9 27 26 26l637 2c18 0 27 -9 27 -26v-92c0 -18 -9 -27 -27 -27zM362 0h-145c-18 0 -27 9 -27 27v1380c0 18 9 27 27 27h145c18 0 27 -9 27 -27v-1380c0 -18 -9 -27 -27 -27z" />
    <glyph glyph-name="imacron" unicode="&#x12b;" horiz-adv-x="503" 
d="M569 1278h-637c-18 0 -27 9 -26 27v90c0 18 9 27 26 26l637 2c18 0 27 -9 27 -26v-92c0 -18 -9 -27 -27 -27zM326 0h-148c-18 0 -27 9 -26 27v997c0 18 9 27 26 27h148c18 0 27 -9 26 -27v-997c0 -18 -9 -27 -26 -27z" />
    <glyph glyph-name="Iogonek" unicode="&#x12e;" horiz-adv-x="579" 
d="M481 -319l19 -60c3 -11 0 -18 -8 -22c-94 -41 -177 -46 -249 -15s-108 85 -108 162c0 47 24 95 73 145c49 51 76 87 81 109h-72c-18 0 -27 9 -27 27v1380c0 18 9 27 27 27h145c18 0 27 -9 27 -27v-1380c6 -125 -147 -193 -141 -271c0 -34 18 -59 53 -75
c35 -15 87 -12 154 10c12 5 21 2 26 -10z" />
    <glyph glyph-name="iogonek" unicode="&#x12f;" horiz-adv-x="503" 
d="M252 1180c-63 0 -113 49 -113 112s50 113 113 113c60 0 110 -50 110 -113s-50 -112 -110 -112zM444 -319l19 -60c3 -11 0 -18 -8 -22c-94 -41 -177 -46 -249 -15s-108 85 -108 162c0 47 24 95 73 145c49 51 76 87 81 109h-74c-18 0 -27 9 -26 27v997c0 18 9 27 26 27h148
c18 0 27 -9 26 -27v-997c0 -41 -11 -77 -34 -109c-23 -31 -47 -60 -71 -85s-36 -51 -36 -77c0 -34 18 -59 53 -75c35 -15 87 -12 154 10c12 5 21 2 26 -10z" />
    <glyph glyph-name="Idot" unicode="&#x130;" horiz-adv-x="579" 
d="M289 1569c-63 0 -113 49 -113 113c0 63 50 112 113 112c60 0 110 -49 110 -112c0 -64 -50 -113 -110 -113zM362 0h-145c-18 0 -27 9 -27 27v1380c0 18 9 27 27 27h145c18 0 27 -9 27 -27v-1380c0 -18 -9 -27 -27 -27z" />
    <glyph glyph-name="dotlessi" unicode="&#x131;" horiz-adv-x="503" 
d="M326 0h-148c-18 0 -27 9 -26 27v997c0 18 9 27 26 27h148c18 0 27 -9 26 -27v-997c0 -18 -9 -27 -26 -27z" />
    <glyph glyph-name="uni0136" unicode="&#x136;" horiz-adv-x="1415" 
d="M702 834l637 -797c16 -21 6 -37 -18 -37h-184c-11 0 -21 5 -31 14l-543 682l-174 -174v-495c0 -18 -9 -27 -27 -27h-145c-18 0 -27 9 -27 27v1380c0 18 9 27 27 27h145c18 0 27 -9 27 -27v-639l623 651c8 9 18 14 30 15h213c24 0 34 -20 15 -39zM688 -152
c94 0 141 -69 141 -208c0 -155 -87 -268 -260 -338c-11 -3 -17 1 -20 10l-14 41c-1 11 3 19 12 24c39 12 76 33 111 64c34 31 51 63 51 96c0 39 -11 51 -58 51c-63 0 -102 55 -102 123c0 37 14 69 41 96s60 41 98 41z" />
    <glyph glyph-name="uni0137" unicode="&#x137;" horiz-adv-x="1183" 
d="M668 612l473 -579c13 -21 3 -33 -17 -33h-151c-15 0 -27 5 -35 16l-399 473l-187 -178v-284c0 -18 -9 -27 -26 -27h-146c-18 0 -27 9 -26 27v1433c0 18 9 27 26 27h146c18 0 27 -9 26 -27v-928l516 502c8 9 20 14 35 15h172c21 0 31 -17 15 -33zM602 -152
c94 0 141 -69 141 -208c0 -155 -87 -268 -260 -338c-11 -3 -17 1 -20 10l-14 41c-1 11 3 19 12 24c39 12 76 33 111 64c34 31 51 63 51 96c0 39 -11 51 -58 51c-63 0 -102 55 -102 123c0 37 14 69 41 96s60 41 98 41z" />
    <glyph glyph-name="Lacute" unicode="&#x139;" horiz-adv-x="1323" 
d="M340 1575h-92c-21 0 -37 16 -29 39l137 325c5 13 14 20 27 21h123c24 0 40 -24 29 -45l-170 -324c-4 -11 -12 -16 -25 -16zM389 184h832c18 0 27 -9 26 -26v-131c0 -18 -9 -27 -26 -27h-1004c-18 0 -27 9 -27 27v1380c0 18 9 27 27 27h145c18 0 27 -9 27 -27v-1223z" />
    <glyph glyph-name="lacute" unicode="&#x13a;" horiz-adv-x="505" 
d="M317 1595h-92c-21 0 -37 18 -28 39l137 326c5 13 14 20 26 20h123c24 0 40 -22 29 -45l-170 -323c-4 -11 -12 -16 -25 -17zM326 0h-146c-18 0 -27 9 -26 27v1433c0 18 9 27 26 27h146c18 0 27 -9 26 -27v-1433c0 -18 -9 -27 -26 -27z" />
    <glyph glyph-name="uni013B" unicode="&#x13b;" horiz-adv-x="1323" 
d="M389 184h832c18 0 27 -9 26 -26v-131c0 -18 -9 -27 -26 -27h-1004c-18 0 -27 9 -27 27v1380c0 18 9 27 27 27h145c18 0 27 -9 27 -27v-1223zM700 -152c94 0 141 -69 142 -208c0 -155 -87 -268 -260 -338c-11 -3 -18 1 -21 10l-14 41c-1 11 3 19 12 24c39 12 76 33 111 64
c34 31 51 63 51 96c0 39 -12 51 -57 51c-63 0 -103 55 -103 123c0 37 14 69 41 96s60 41 98 41z" />
    <glyph glyph-name="uni013C" unicode="&#x13c;" horiz-adv-x="505" 
d="M326 0h-146c-18 0 -27 9 -26 27v1433c0 18 9 27 26 27h146c18 0 27 -9 26 -27v-1433c0 -18 -9 -27 -26 -27zM143 -698c-11 -3 -17 1 -20 10l-14 41c-1 11 3 19 12 24c39 12 76 33 111 64c34 31 51 63 51 96c0 39 -11 51 -58 51c-63 0 -102 55 -102 123c0 37 14 69 41 96
s60 41 98 41c94 0 141 -69 141 -208c0 -156 -87 -269 -260 -338z" />
    <glyph glyph-name="Lcaron" unicode="&#x13d;" horiz-adv-x="1323" 
d="M717 1053h-109c-21 0 -37 18 -28 41l137 325c5 12 14 18 26 19h142c21 0 40 -22 28 -43l-170 -324c-5 -12 -14 -18 -26 -18zM389 184h832c18 0 27 -9 26 -26v-131c0 -18 -9 -27 -26 -27h-1004c-18 0 -27 9 -27 27v1380c0 18 9 27 27 27h145c18 0 27 -9 27 -27v-1223z" />
    <glyph glyph-name="lcaron" unicode="&#x13e;" horiz-adv-x="505" 
d="M326 0h-146c-18 0 -27 9 -26 27v1433c0 18 9 27 26 27h146c18 0 27 -9 26 -27v-1433c0 -18 -9 -27 -26 -27zM588 1102h-109c-21 0 -37 18 -28 41l137 325c5 12 14 18 26 19h142c21 0 40 -22 28 -43l-170 -324c-5 -12 -14 -18 -26 -18z" />
    <glyph glyph-name="Lslash" unicode="&#x141;" horiz-adv-x="1323" 
d="M389 184h832c18 0 27 -9 26 -26v-131c0 -18 -9 -27 -26 -27h-1004c-18 0 -27 9 -27 27v518l-174 -127v143l174 127v719c0 18 9 27 27 27h145c18 0 27 -9 27 -27v-571l244 178v-144l-244 -178v-508z" />
    <glyph glyph-name="lslash" unicode="&#x142;" horiz-adv-x="505" 
d="M352 672l207 151v-143l-207 -152v-501c0 -18 -9 -27 -26 -27h-146c-18 0 -27 9 -26 27v356l-211 -156v144l211 155v934c0 18 9 27 26 27h146c18 0 27 -9 26 -27v-788z" />
    <glyph glyph-name="Nacute" unicode="&#x143;" horiz-adv-x="1632" 
d="M883 1575h-92c-21 0 -37 16 -29 39l137 325c5 13 14 20 27 21h123c24 0 39 -24 28 -45l-170 -324c-4 -11 -12 -16 -24 -16zM1270 1434h145c18 0 27 -9 27 -27v-1380c0 -18 -9 -27 -27 -27h-112c-15 0 -26 5 -31 14l-883 1061v-1048c0 -18 -9 -27 -27 -27h-145
c-18 0 -27 9 -27 27v1380c0 18 9 27 27 27h113c12 0 22 -5 30 -15l883 -1057v1045c0 18 9 27 27 27z" />
    <glyph glyph-name="nacute" unicode="&#x144;" horiz-adv-x="1286" 
d="M715 1186h-92c-21 0 -37 16 -29 39l137 325c5 13 14 20 27 21h123c24 0 40 -24 28 -45l-170 -324c-4 -11 -12 -16 -24 -16zM739 1077c131 0 234 -43 308 -129c73 -86 110 -210 110 -373v-548c0 -18 -9 -27 -27 -27h-145c-18 0 -27 9 -27 27v548c0 104 -25 186 -74 246
c-50 60 -118 90 -204 90c-89 0 -163 -31 -224 -94s-96 -152 -106 -268v-522c0 -18 -9 -27 -26 -27h-146c-18 0 -27 9 -26 27v997c0 18 9 27 26 27h115c13 0 22 -9 26 -27l13 -154c101 138 236 207 407 207z" />
    <glyph glyph-name="uni0145" unicode="&#x145;" horiz-adv-x="1632" 
d="M1270 1434h145c18 0 27 -9 27 -27v-1380c0 -18 -9 -27 -27 -27h-112c-15 0 -26 5 -31 14l-883 1061v-1048c0 -18 -9 -27 -27 -27h-145c-18 0 -27 9 -27 27v1380c0 18 9 27 27 27h113c12 0 22 -5 30 -15l883 -1057v1045c0 18 9 27 27 27zM827 -152c94 0 141 -69 142 -208
c0 -155 -87 -268 -260 -338c-11 -3 -18 1 -21 10l-14 41c-1 11 3 19 12 24c39 12 76 33 111 64c34 31 51 63 51 96c0 39 -12 51 -57 51c-63 0 -103 55 -103 123c0 37 14 69 41 96s60 41 98 41z" />
    <glyph glyph-name="uni0146" unicode="&#x146;" horiz-adv-x="1286" 
d="M739 1077c131 0 234 -43 308 -129c73 -86 110 -210 110 -373v-548c0 -18 -9 -27 -27 -27h-145c-18 0 -27 9 -27 27v548c0 104 -25 186 -74 246c-50 60 -118 90 -204 90c-89 0 -163 -31 -224 -94s-96 -152 -106 -268v-522c0 -18 -9 -27 -26 -27h-146c-18 0 -27 9 -26 27
v997c0 18 9 27 26 27h115c13 0 22 -9 26 -27l13 -154c101 138 236 207 407 207zM659 -152c94 0 141 -69 142 -208c0 -155 -87 -268 -260 -338c-11 -3 -18 1 -21 10l-14 41c-1 11 3 19 12 24c39 12 76 33 111 64c34 31 51 63 51 96c0 39 -12 51 -57 51
c-63 0 -103 55 -103 123c0 37 14 69 41 96s60 41 98 41z" />
    <glyph glyph-name="Ncaron" unicode="&#x147;" horiz-adv-x="1632" 
d="M750 1602l-240 346c-11 16 1 32 20 32h74c22 0 38 -7 47 -22l166 -209l168 211c9 13 25 20 47 20h72c19 0 32 -16 20 -32l-241 -346c-7 -11 -17 -16 -31 -17h-70c-15 1 -25 6 -32 17zM1270 1434h145c18 0 27 -9 27 -27v-1380c0 -18 -9 -27 -27 -27h-112
c-15 0 -26 5 -31 14l-883 1061v-1048c0 -18 -9 -27 -27 -27h-145c-18 0 -27 9 -27 27v1380c0 18 9 27 27 27h113c12 0 22 -5 30 -15l883 -1057v1045c0 18 9 27 27 27z" />
    <glyph glyph-name="ncaron" unicode="&#x148;" horiz-adv-x="1286" 
d="M582 1212l-240 347c-11 16 1 32 20 32h74c22 0 38 -7 47 -22l166 -209l168 211c9 13 25 20 47 20h72c19 0 32 -16 20 -32l-241 -347c-7 -11 -17 -16 -31 -16h-70c-15 0 -25 5 -32 16zM739 1077c131 0 234 -43 308 -129c73 -86 110 -210 110 -373v-548
c0 -18 -9 -27 -27 -27h-145c-18 0 -27 9 -27 27v548c0 104 -25 186 -74 246c-50 60 -118 90 -204 90c-89 0 -163 -31 -224 -94s-96 -152 -106 -268v-522c0 -18 -9 -27 -26 -27h-146c-18 0 -27 9 -26 27v997c0 18 9 27 26 27h115c13 0 22 -9 26 -27l13 -154
c101 138 236 207 407 207z" />
    <glyph glyph-name="Eng" unicode="&#x14a;" horiz-adv-x="1632" 
d="M1270 1434h145c18 0 27 -9 27 -27v-1384c0 -108 -28 -205 -83 -292s-128 -141 -218 -163c-17 -1 -27 4 -31 16l-45 111c-7 13 -1 25 16 35c108 53 162 153 162 299v34l-854 1014v-1050c0 -18 -9 -27 -27 -27h-145c-18 0 -27 9 -27 27v1380c0 18 9 27 27 27h100
c12 0 22 -5 31 -15l895 -1059v1047c0 18 9 27 27 27z" />
    <glyph glyph-name="eng" unicode="&#x14b;" horiz-adv-x="1286" 
d="M739 1077c131 0 234 -43 308 -129c73 -86 110 -210 110 -373v-552c0 -108 -27 -205 -82 -292s-128 -141 -219 -163c-17 -1 -27 4 -31 16l-45 111c-5 13 0 25 17 35c108 64 162 164 161 299v546c0 104 -25 186 -74 246c-50 60 -118 90 -204 90c-89 0 -163 -31 -224 -94
s-96 -152 -106 -268v-522c0 -18 -9 -27 -26 -27h-146c-18 0 -27 9 -26 27v997c0 18 9 27 26 27h115c13 0 22 -9 26 -27l13 -154c101 138 236 207 407 207z" />
    <glyph glyph-name="Omacron" unicode="&#x14c;" horiz-adv-x="1689" 
d="M1163 1667h-637c-18 0 -27 9 -26 27v90c0 18 9 27 26 26l637 2c18 0 27 -9 27 -26v-92c0 -18 -9 -27 -27 -27zM1378 174c-132 -133 -309 -199 -532 -199s-400 66 -531 199c-132 133 -198 310 -198 533c0 224 66 404 199 539c132 135 309 202 530 202
c223 0 400 -68 532 -203c131 -135 197 -315 197 -538s-66 -400 -197 -533zM458 308c95 -96 224 -144 388 -144s293 48 388 144c95 95 142 228 142 399s-48 306 -143 405s-224 148 -387 148s-292 -49 -387 -148c-96 -99 -144 -234 -144 -405s48 -304 143 -399z" />
    <glyph glyph-name="omacron" unicode="&#x14d;" horiz-adv-x="1267" 
d="M952 1278h-637c-18 0 -27 9 -26 27v90c0 18 9 27 26 26l637 2c18 0 27 -9 27 -26v-92c0 -18 -9 -27 -27 -27zM1027 132c-105 -105 -236 -157 -394 -157c-159 0 -290 52 -393 157c-104 105 -156 236 -156 395c0 158 52 289 155 394c103 104 234 156 394 156
c159 0 291 -52 395 -156c104 -105 156 -236 156 -394c0 -159 -52 -290 -157 -395zM633 139c104 0 191 36 260 109c69 72 104 165 104 278s-35 206 -104 278c-70 71 -157 107 -260 107s-189 -35 -258 -106c-70 -71 -105 -164 -105 -279s35 -208 105 -279
c69 -72 155 -108 258 -108z" />
    <glyph glyph-name="Ohungarumlaut" unicode="&#x150;" horiz-adv-x="1689" 
d="M741 1575h-108c-21 0 -37 16 -29 39l137 325c5 13 14 20 27 21h141c21 0 40 -24 29 -45l-170 -324c-7 -11 -16 -16 -27 -16zM1096 1575h-109c-24 0 -39 16 -31 39l138 325c5 13 15 20 28 21h140c24 0 41 -24 30 -45l-172 -324c-4 -11 -12 -16 -24 -16zM1378 174
c-132 -133 -309 -199 -532 -199s-400 66 -531 199c-132 133 -198 310 -198 533c0 224 66 404 199 539c132 135 309 202 530 202c223 0 400 -68 532 -203c131 -135 197 -315 197 -538s-66 -400 -197 -533zM458 308c95 -96 224 -144 388 -144s293 48 388 144
c95 95 142 228 142 399s-48 306 -143 405s-224 148 -387 148s-292 -49 -387 -148c-96 -99 -144 -234 -144 -405s48 -304 143 -399z" />
    <glyph glyph-name="ohungarumlaut" unicode="&#x151;" horiz-adv-x="1267" 
d="M530 1186h-108c-21 0 -37 16 -29 39l137 325c5 13 14 20 27 21h141c21 0 40 -24 29 -45l-170 -324c-7 -11 -16 -16 -27 -16zM885 1186h-109c-24 0 -39 16 -31 39l138 325c5 13 15 20 28 21h140c24 0 42 -24 30 -45l-172 -324c-4 -11 -12 -16 -24 -16zM1027 132
c-105 -105 -236 -157 -394 -157c-159 0 -290 52 -393 157c-104 105 -156 236 -156 395c0 158 52 289 155 394c103 104 234 156 394 156c159 0 291 -52 395 -156c104 -105 156 -236 156 -394c0 -159 -52 -290 -157 -395zM633 139c104 0 191 36 260 109c69 72 104 165 104 278
s-35 206 -104 278c-70 71 -157 107 -260 107s-189 -35 -258 -106c-70 -71 -105 -164 -105 -279s35 -208 105 -279c69 -72 155 -108 258 -108z" />
    <glyph glyph-name="OE" unicode="&#x152;" horiz-adv-x="2631" 
d="M1675 184h832c18 0 27 -9 26 -26v-131c0 -18 -9 -27 -26 -27h-1004c-18 0 -27 9 -26 27v278c-120 -211 -342 -330 -631 -330c-223 0 -400 66 -531 199c-132 133 -198 310 -198 533c0 224 66 404 199 539c132 135 309 202 530 202c287 0 510 -123 631 -336v295
c0 18 9 27 26 27h996c18 0 27 -9 26 -27v-131c0 -18 -9 -27 -26 -27h-824v-448h699c18 0 27 -9 26 -27v-102c0 -18 -9 -27 -26 -27h-699v-461zM846 164c164 0 293 48 388 144c95 95 142 228 142 399s-48 306 -143 405s-224 148 -387 148s-292 -49 -387 -148
c-96 -99 -144 -234 -144 -405s47 -304 142 -399c94 -96 224 -144 389 -144z" />
    <glyph glyph-name="oe" unicode="&#x153;" horiz-adv-x="2187" 
d="M1585 1077c150 0 274 -51 372 -154c97 -103 146 -236 146 -397c0 -13 -1 -26 -2 -37c-3 -17 -12 -25 -28 -24h-830c9 -103 49 -183 118 -240s158 -86 267 -86c79 0 144 16 195 47c50 31 96 77 139 138c12 12 25 13 39 2l76 -80c11 -13 10 -28 -2 -43
c-99 -145 -270 -228 -463 -228c-111 0 -209 25 -294 76s-151 120 -196 209c-45 -87 -111 -157 -197 -208c-87 -51 -184 -77 -292 -77c-159 0 -290 52 -393 157c-104 105 -156 236 -156 395c0 158 52 289 155 394c103 104 234 156 394 156c109 0 207 -25 292 -76
s151 -121 197 -210c44 87 106 157 187 209c80 51 172 77 276 77zM633 139c104 0 191 36 260 109c69 72 104 165 104 278s-35 206 -104 278c-70 71 -157 107 -260 107s-189 -35 -258 -106c-70 -71 -105 -164 -105 -279s35 -208 105 -279c69 -72 155 -108 258 -108zM1821 833
c-61 52 -138 78 -229 78c-92 0 -169 -26 -232 -78c-63 -53 -101 -126 -115 -219h684c-11 94 -47 167 -108 219z" />
    <glyph glyph-name="Racute" unicode="&#x154;" horiz-adv-x="1372" 
d="M735 1575h-92c-21 0 -37 16 -29 39l138 325c5 13 14 20 26 21h123c24 0 40 -24 29 -45l-170 -324c-4 -11 -12 -16 -25 -16zM977 592l285 -559c11 -19 0 -33 -21 -33h-156c-15 0 -25 6 -28 18l-271 535h-24h-373v-526c0 -18 -9 -27 -27 -27h-145c-18 0 -27 9 -27 27v1380
c0 18 9 27 27 27h545c147 0 266 -39 356 -117s135 -181 135 -309c0 -94 -24 -178 -73 -252s-117 -129 -203 -164zM762 1249h-373v-518h373c93 0 166 24 220 72c54 47 81 109 81 184s-27 138 -82 188c-55 49 -128 74 -219 74z" />
    <glyph glyph-name="racute" unicode="&#x155;" horiz-adv-x="841" 
d="M483 1186h-92c-21 0 -37 16 -29 39l138 325c5 13 14 20 26 21h123c24 0 40 -24 29 -45l-170 -324c-4 -11 -12 -16 -25 -16zM791 1067c22 -5 27 -18 16 -37l-86 -149c-4 -8 -12 -12 -23 -13c-5 0 -32 4 -59 4c-167 0 -264 -106 -293 -317v-528c0 -18 -9 -27 -27 -27h-139
c-18 0 -27 9 -26 27l-2 997c0 18 9 27 26 27h115c13 0 22 -9 26 -27l13 -160c69 124 185 193 346 207c45 4 83 3 113 -4z" />
    <glyph glyph-name="uni0156" unicode="&#x156;" horiz-adv-x="1372" 
d="M977 592l285 -559c11 -19 0 -33 -21 -33h-156c-15 0 -25 6 -28 18l-271 535h-24h-373v-526c0 -18 -9 -27 -27 -27h-145c-18 0 -27 9 -27 27v1380c0 18 9 27 27 27h545c147 0 266 -39 356 -117s135 -181 135 -309c0 -94 -24 -178 -73 -252s-117 -129 -203 -164zM762 1249
h-373v-518h373c93 0 166 24 220 72c54 47 81 109 81 184s-27 138 -82 188c-55 49 -128 74 -219 74zM700 -152c94 0 141 -69 142 -208c0 -155 -87 -268 -260 -338c-11 -3 -18 1 -21 10l-14 41c-1 11 3 19 12 24c39 12 76 33 111 64c34 31 51 63 51 96c0 39 -12 51 -57 51
c-63 0 -103 55 -103 123c0 37 14 69 41 96s60 41 98 41z" />
    <glyph glyph-name="uni0157" unicode="&#x157;" horiz-adv-x="841" 
d="M791 1067c22 -5 27 -18 16 -37l-86 -149c-4 -8 -12 -12 -23 -13c-5 0 -32 4 -59 4c-167 0 -264 -106 -293 -317v-528c0 -18 -9 -27 -27 -27h-139c-18 0 -27 9 -26 27l-2 997c0 18 9 27 26 27h115c13 0 22 -9 26 -27l13 -160c69 124 185 193 346 207c45 4 83 3 113 -4z
M254 -152c94 0 141 -69 141 -208c0 -155 -87 -268 -260 -338c-11 -3 -17 1 -20 10l-15 41c-1 11 3 19 13 24c39 12 76 33 110 64s51 63 51 96c0 39 -10 51 -57 51c-63 0 -102 55 -102 123c0 37 14 69 41 96s60 41 98 41z" />
    <glyph glyph-name="Rcaron" unicode="&#x158;" horiz-adv-x="1372" 
d="M602 1602l-240 346c-11 16 2 32 21 32h74c22 0 38 -7 47 -22l166 -209l168 211c9 13 25 20 47 20h71c19 0 32 -16 21 -32l-242 -346c-7 -11 -17 -16 -30 -17h-70c-15 1 -26 6 -33 17zM977 592l285 -559c11 -19 0 -33 -21 -33h-156c-15 0 -25 6 -28 18l-271 535h-24h-373
v-526c0 -18 -9 -27 -27 -27h-145c-18 0 -27 9 -27 27v1380c0 18 9 27 27 27h545c147 0 266 -39 356 -117s135 -181 135 -309c0 -94 -24 -178 -73 -252s-117 -129 -203 -164zM762 1249h-373v-518h373c93 0 166 24 220 72c54 47 81 109 81 184s-27 138 -82 188
c-55 49 -128 74 -219 74z" />
    <glyph glyph-name="rcaron" unicode="&#x159;" horiz-adv-x="841" 
d="M453 1196h-70c-15 0 -26 5 -33 16l-239 347c-11 16 1 32 20 32h74c22 0 38 -7 47 -22l166 -209l168 211c9 13 25 20 47 20h72c19 0 31 -16 20 -32l-242 -347c-7 -11 -17 -16 -30 -16zM791 1067c22 -5 27 -18 16 -37l-86 -149c-4 -8 -12 -12 -23 -13c-5 0 -32 4 -59 4
c-167 0 -264 -106 -293 -317v-528c0 -18 -9 -27 -27 -27h-139c-18 0 -27 9 -26 27l-2 997c0 18 9 27 26 27h115c13 0 22 -9 26 -27l13 -160c69 124 185 193 346 207c45 4 83 3 113 -4z" />
    <glyph glyph-name="Sacute" unicode="&#x15a;" horiz-adv-x="1236" 
d="M696 1575h-92c-21 0 -37 16 -29 39l138 325c5 13 14 20 26 21h123c24 0 40 -24 29 -45l-170 -324c-4 -11 -12 -16 -25 -16zM635 -25c-205 0 -380 75 -526 226c-11 12 -12 24 -5 37l68 104c11 17 24 18 39 4c119 -124 253 -186 403 -186c94 0 170 21 228 64
c57 42 86 102 86 179c0 68 -24 118 -73 149s-132 60 -249 89c-47 11 -81 19 -103 26c-23 6 -57 17 -102 33c-46 15 -82 32 -107 50c-25 17 -53 40 -82 67s-50 60 -63 99c-13 38 -20 80 -20 126c0 123 45 221 136 295s210 111 358 111c173 0 330 -59 471 -176
c12 -8 15 -20 10 -37l-57 -107c-8 -13 -20 -17 -37 -10c-123 101 -250 152 -383 152c-89 0 -161 -20 -216 -60c-55 -41 -83 -95 -83 -163c0 -60 29 -106 61 -133c15 -14 38 -27 68 -39c30 -13 55 -21 75 -26c19 -5 48 -11 86 -20c60 -13 110 -25 149 -36s83 -28 134 -50
c51 -23 90 -48 119 -76c57 -56 106 -151 106 -268c0 -130 -44 -233 -133 -309c-89 -77 -208 -115 -358 -115z" />
    <glyph glyph-name="sacute" unicode="&#x15b;" horiz-adv-x="999" 
d="M565 1186h-92c-21 0 -37 16 -29 39l138 325c5 13 14 20 26 21h123c24 0 40 -24 29 -45l-170 -324c-4 -11 -12 -16 -25 -16zM502 -25c-93 0 -176 15 -249 46c-73 30 -129 69 -167 118c-12 12 -13 25 -2 39l53 80c11 17 24 18 41 4c67 -82 173 -123 320 -123
c159 0 238 55 237 164c0 55 -17 88 -70 113c-27 12 -52 21 -75 28c-23 6 -60 14 -111 25c-59 12 -106 24 -143 35s-75 27 -116 49c-82 44 -124 114 -124 213c0 95 37 171 112 227c74 56 172 84 294 84c141 0 266 -44 377 -133c17 -9 19 -22 6 -39l-54 -76
c-9 -15 -22 -18 -38 -8c-77 60 -170 90 -281 90c-153 0 -229 -46 -229 -139c0 -31 12 -57 36 -78c23 -21 49 -36 77 -44c28 -9 67 -18 116 -27c9 -1 17 -3 23 -5c127 -26 223 -61 289 -105c65 -45 98 -114 98 -208c0 -100 -37 -180 -110 -240c-74 -60 -177 -90 -310 -90z
" />
    <glyph glyph-name="Scedilla" unicode="&#x15e;" horiz-adv-x="1236" 
d="M1126 399c0 -124 -41 -224 -122 -299c-82 -76 -193 -118 -332 -125l-25 -65c112 -22 168 -79 168 -170c0 -123 -107 -197 -311 -197c-19 0 -29 9 -29 27v49c0 15 10 24 29 25c3 0 34 -1 53 2s54 6 76 15c36 15 65 41 65 89c0 60 -40 77 -141 98c-17 4 -23 12 -18 25
l30 104c-177 15 -331 90 -460 224c-11 12 -12 24 -5 37l68 104c11 17 24 18 39 4c119 -124 253 -186 403 -186c94 0 170 21 228 64c57 42 86 102 86 179c0 68 -24 118 -73 149s-132 60 -249 89c-47 11 -81 19 -103 26c-23 6 -57 17 -102 33c-46 15 -82 32 -107 50
c-25 17 -53 40 -82 67s-50 60 -63 99c-13 38 -20 80 -20 126c0 123 45 221 136 295s210 111 358 111c173 0 330 -59 471 -176c12 -8 15 -20 10 -37l-57 -107c-8 -13 -20 -17 -37 -10c-123 101 -250 152 -383 152c-89 0 -161 -20 -216 -60c-55 -41 -83 -95 -83 -163
c0 -60 29 -106 61 -133c15 -14 38 -27 68 -39c30 -13 55 -21 75 -26c19 -5 48 -11 86 -20c60 -13 110 -25 149 -36s83 -28 134 -50c51 -23 90 -48 119 -76c57 -56 106 -151 106 -268z" />
    <glyph glyph-name="scedilla" unicode="&#x15f;" horiz-adv-x="999" 
d="M824 513c65 -45 98 -114 98 -208s-33 -171 -100 -231s-161 -93 -281 -99l-25 -65c112 -22 168 -79 168 -170c0 -123 -107 -197 -311 -197c-19 0 -29 9 -29 27v49c0 15 10 24 29 25c3 0 34 -1 53 2s54 6 76 15c36 15 65 41 65 89c0 60 -40 77 -141 98c-17 4 -23 12 -18 25
l30 104c-163 15 -280 69 -352 162c-12 12 -13 25 -2 39l53 80c11 17 24 18 41 4c67 -82 173 -123 320 -123c159 0 238 55 237 164c0 55 -17 88 -70 113c-27 12 -52 21 -75 28c-23 6 -60 14 -111 25c-59 12 -106 24 -143 35s-75 27 -116 49c-82 44 -124 114 -124 213
c0 95 37 171 112 227c74 56 172 84 294 84c141 0 266 -44 377 -133c17 -9 19 -22 6 -39l-54 -76c-9 -15 -22 -18 -38 -8c-77 60 -170 90 -281 90c-153 0 -229 -46 -229 -139c0 -31 12 -57 36 -78c23 -21 49 -36 77 -44c28 -9 67 -18 116 -27c9 -1 17 -3 23 -5
c127 -26 223 -61 289 -105z" />
    <glyph glyph-name="Scaron" unicode="&#x160;" horiz-adv-x="1236" 
d="M563 1602l-239 346c-11 16 1 32 20 32h74c22 0 38 -7 47 -22l166 -209l168 211c9 13 25 20 47 20h72c19 0 31 -16 20 -32l-242 -346c-7 -11 -17 -16 -30 -17h-70c-15 1 -26 6 -33 17zM618 829c60 -13 110 -25 149 -36s83 -28 134 -50c51 -23 90 -48 119 -76
c57 -56 106 -151 106 -268c0 -130 -44 -233 -133 -309c-89 -77 -208 -115 -358 -115c-205 0 -380 75 -526 226c-11 12 -12 24 -5 37l68 104c11 17 24 18 39 4c119 -124 253 -186 403 -186c94 0 170 21 228 64c57 42 86 102 86 179c0 68 -24 118 -73 149s-132 60 -249 89
c-47 11 -81 19 -103 26c-23 6 -57 17 -102 33c-46 15 -82 32 -107 50c-25 17 -53 40 -82 67s-50 60 -63 99c-13 38 -20 80 -20 126c0 123 45 221 136 295s210 111 358 111c173 0 330 -59 471 -176c12 -8 15 -20 10 -37l-57 -107c-8 -13 -20 -17 -37 -10
c-123 101 -250 152 -383 152c-89 0 -161 -20 -216 -60c-55 -41 -83 -95 -83 -163c0 -60 29 -106 61 -133c15 -14 38 -27 68 -39c30 -13 55 -21 75 -26c19 -5 48 -12 86 -20z" />
    <glyph glyph-name="scaron" unicode="&#x161;" horiz-adv-x="999" 
d="M432 1212l-239 347c-11 16 1 32 20 32h74c22 0 38 -7 47 -22l166 -209l168 211c9 13 25 20 47 20h71c19 0 32 -16 21 -32l-242 -347c-7 -11 -17 -16 -30 -16h-70c-15 0 -26 5 -33 16zM535 618c127 -26 223 -61 289 -105c65 -45 98 -114 98 -208
c0 -100 -37 -180 -111 -240s-177 -90 -309 -90c-93 0 -176 15 -249 46c-73 30 -129 69 -167 118c-12 12 -13 25 -2 39l53 80c11 17 24 18 41 4c67 -82 173 -123 320 -123c159 0 238 55 237 164c0 55 -17 88 -70 113c-27 12 -52 21 -75 28c-23 6 -60 14 -111 25
c-59 12 -106 24 -143 35s-75 27 -116 49c-82 44 -124 114 -124 213c0 95 37 171 112 227c74 56 172 84 294 84c141 0 266 -44 377 -133c17 -9 19 -22 6 -39l-54 -76c-9 -15 -22 -18 -38 -8c-77 60 -170 90 -281 90c-153 0 -229 -46 -229 -139c0 -31 12 -57 36 -78
c23 -21 49 -36 77 -44c28 -9 67 -18 116 -27c10 -2 18 -4 23 -5z" />
    <glyph glyph-name="uni0162" unicode="&#x162;" horiz-adv-x="1388" 
d="M104 1434h1180c18 0 27 -9 27 -27v-135c0 -18 -9 -27 -27 -27h-491v-1218c0 -18 -9 -27 -27 -27h-23l-32 -90c112 -22 168 -79 168 -170c0 -123 -107 -197 -312 -197c-19 0 -29 9 -28 27v49c0 15 9 24 28 25c3 0 34 -1 54 2c19 3 54 6 76 15c35 15 65 42 65 89
c0 60 -41 77 -141 98c-17 4 -23 12 -19 25l37 127h-18c-18 0 -27 9 -27 27v1218h-490c-18 0 -27 9 -26 27v135c0 18 9 27 26 27z" />
    <glyph glyph-name="uni0163" unicode="&#x163;" horiz-adv-x="817" 
d="M725 143l31 -88c5 -13 0 -24 -15 -32c-57 -25 -113 -40 -168 -46l-24 -67c112 -22 168 -79 168 -170c0 -123 -107 -197 -311 -197c-19 0 -29 9 -29 27v49c0 15 10 24 29 25c3 0 33 -1 53 2c19 3 54 6 76 15c36 15 65 41 65 89c0 60 -40 77 -141 98c-17 4 -23 12 -19 25
l31 104c-176 19 -264 146 -264 379v533h-135c-18 0 -27 9 -27 26v109c0 18 9 27 27 27h135v270c0 18 9 27 26 27h140c18 0 27 -9 26 -27v-270h306c18 0 27 -9 26 -27v-109c0 -18 -9 -27 -26 -26h-306v-547c0 -82 13 -136 38 -163s70 -40 134 -40c49 0 73 4 101 13l18 8
c19 7 31 1 35 -17z" />
    <glyph glyph-name="Tcaron" unicode="&#x164;" horiz-adv-x="1388" 
d="M627 1602l-240 346c-11 16 1 32 21 32h73c22 0 38 -7 47 -22l166 -209l168 211c9 13 25 20 47 20h72c19 0 32 -16 20 -32l-241 -346c-7 -11 -17 -16 -31 -17h-70c-15 1 -25 6 -32 17zM104 1434h1180c18 0 27 -9 27 -27v-135c0 -18 -9 -27 -27 -27h-491v-1218
c0 -18 -9 -27 -27 -27h-145c-18 0 -27 9 -27 27v1218h-490c-18 0 -27 9 -26 27v135c0 18 9 27 26 27z" />
    <glyph glyph-name="tcaron" unicode="&#x165;" horiz-adv-x="817" 
d="M705 1526h139c21 0 40 -22 28 -43l-170 -326c-5 -11 -14 -16 -26 -16h-107c-21 0 -39 18 -30 41l137 323c4 13 14 20 29 21zM725 143l31 -88c5 -13 0 -24 -15 -32c-71 -31 -144 -47 -221 -48c-209 0 -313 127 -313 381v533h-135c-18 0 -27 9 -27 26v109c0 18 9 27 27 27
h135v270c0 18 9 27 26 27h140c18 0 27 -9 26 -27v-270h306c18 0 27 -9 26 -27v-109c0 -18 -9 -27 -26 -26h-306v-547c0 -82 13 -136 38 -163s70 -40 134 -40c49 0 73 4 101 13l18 8c19 7 31 1 35 -17z" />
    <glyph glyph-name="Tbar" unicode="&#x166;" horiz-adv-x="1388" 
d="M104 1434h1180c18 0 27 -9 27 -27v-135c0 -18 -9 -27 -27 -27h-491v-457h213c18 0 27 -9 26 -26v-92c0 -18 -9 -27 -26 -27h-213v-616c0 -18 -9 -27 -27 -27h-145c-18 0 -27 9 -27 27v616h-211c-18 0 -27 9 -27 27v90c0 18 9 27 27 26h211v459h-490c-18 0 -27 9 -26 27
v135c0 18 9 27 26 27z" />
    <glyph glyph-name="tbar" unicode="&#x167;" horiz-adv-x="817" 
d="M725 143l31 -88c5 -13 0 -24 -15 -32c-71 -31 -144 -47 -221 -48c-209 0 -313 127 -313 381v97h-109c-18 0 -27 9 -26 26v90c0 18 9 27 26 27h109v293h-135c-18 0 -27 9 -27 26v109c0 18 9 27 27 27h135v270c0 18 9 27 26 27h140c18 0 27 -9 26 -27v-270h306
c18 0 27 -9 26 -27v-109c0 -18 -9 -27 -26 -26h-306v-293l322 2c18 0 27 -9 27 -27v-92c0 -18 -9 -27 -27 -26h-322v-111c0 -82 13 -136 38 -163s70 -40 134 -40c49 0 73 4 101 13l18 8c19 7 31 1 35 -17z" />
    <glyph glyph-name="Utilde" unicode="&#x168;" horiz-adv-x="1482" 
d="M518 1597c-8 -15 -20 -19 -35 -12l-57 27c-11 4 -14 13 -10 26c34 107 93 160 176 160c41 0 91 -17 152 -51c60 -34 102 -51 126 -51c38 0 70 23 95 69c8 17 19 21 32 13l58 -25c11 -4 15 -13 12 -27c-33 -113 -92 -170 -178 -170c-41 0 -91 18 -152 55
c-61 36 -104 54 -127 54c-35 0 -66 -23 -92 -68zM1168 157c-104 -120 -246 -180 -426 -180c-181 0 -323 60 -426 180c-104 119 -156 282 -156 488v762c0 18 9 27 26 27h146c18 0 27 -9 26 -27v-762c0 -300 138 -469 384 -469s382 169 382 469v762c0 18 9 27 27 27h145
c18 0 27 -9 27 -27v-762c0 -206 -52 -369 -155 -488z" />
    <glyph glyph-name="utilde" unicode="&#x169;" horiz-adv-x="1275" 
d="M371 1217l-58 26c-11 4 -14 13 -10 27c34 107 93 160 176 160c41 0 91 -17 152 -51c60 -35 102 -52 127 -52c38 0 69 23 94 70c8 17 19 21 33 12l57 -25c11 -4 15 -13 12 -26c-33 -113 -92 -170 -178 -170c-41 0 -91 18 -152 54s-103 54 -126 54c-35 0 -66 -22 -92 -67
c-8 -15 -20 -19 -35 -12zM952 1051h146c18 0 27 -9 26 -27v-997c0 -18 -9 -27 -26 -27h-115c-15 0 -24 9 -27 27l-12 131c-94 -121 -227 -182 -399 -183c-271 0 -416 171 -416 502v547c0 18 9 27 27 27h145c18 0 27 -9 27 -27v-547c0 -105 25 -188 76 -248
c50 -60 118 -90 204 -90c175 0 295 128 318 363v522c0 18 9 27 26 27z" />
    <glyph glyph-name="Umacron" unicode="&#x16a;" horiz-adv-x="1482" 
d="M1059 1647h-637c-18 0 -27 9 -27 26v90c0 18 9 27 27 27l637 2c18 0 27 -9 26 -27v-92c0 -18 -9 -27 -26 -26zM1168 157c-104 -120 -246 -180 -426 -180c-181 0 -323 60 -426 180c-104 119 -156 282 -156 488v762c0 18 9 27 26 27h146c18 0 27 -9 26 -27v-762
c0 -300 138 -469 384 -469s382 169 382 469v762c0 18 9 27 27 27h145c18 0 27 -9 27 -27v-762c0 -206 -52 -369 -155 -488z" />
    <glyph glyph-name="umacron" unicode="&#x16b;" horiz-adv-x="1275" 
d="M946 1278h-637c-18 0 -27 9 -26 27v90c0 18 9 27 26 26l637 2c18 0 27 -9 27 -26v-92c0 -18 -9 -27 -27 -27zM952 1051h146c18 0 27 -9 26 -27v-997c0 -18 -9 -27 -26 -27h-115c-15 0 -24 9 -27 27l-12 131c-94 -121 -227 -182 -399 -183c-271 0 -416 171 -416 502v547
c0 18 9 27 27 27h145c18 0 27 -9 27 -27v-547c0 -105 25 -188 76 -248c50 -60 118 -90 204 -90c175 0 295 128 318 363v522c0 18 9 27 26 27z" />
    <glyph glyph-name="Uring" unicode="&#x16e;" horiz-adv-x="1482" 
d="M894 1587c-40 -41 -91 -61 -152 -61c-62 0 -113 20 -153 60c-41 39 -61 90 -61 153s20 114 61 155c40 40 91 60 152 60c63 0 114 -20 154 -60c39 -41 59 -92 59 -153c0 -63 -20 -114 -60 -154zM655 1652c22 -23 51 -34 87 -34c35 0 64 11 87 33c22 21 33 51 33 88
s-11 66 -33 89c-23 23 -52 34 -87 34c-36 0 -65 -11 -87 -34c-23 -23 -34 -52 -34 -87c0 -37 11 -66 34 -89zM1168 157c-104 -120 -246 -180 -426 -180c-181 0 -323 60 -426 180c-104 119 -156 282 -156 488v762c0 18 9 27 26 27h146c18 0 27 -9 26 -27v-762
c0 -300 138 -469 384 -469s382 169 382 469v762c0 18 9 27 27 27h145c18 0 27 -9 27 -27v-762c0 -206 -52 -369 -155 -488z" />
    <glyph glyph-name="uring" unicode="&#x16f;" horiz-adv-x="1275" 
d="M782 1218c-41 -41 -92 -61 -153 -61s-112 20 -152 60c-41 39 -61 90 -61 153s20 114 61 155c40 40 91 60 152 60c63 0 114 -20 154 -60c39 -41 59 -92 59 -153c0 -63 -20 -114 -60 -154zM716 1459c-23 23 -52 34 -87 34c-36 0 -65 -11 -87 -34c-23 -23 -34 -52 -34 -87
c0 -73 49 -123 121 -123c35 0 64 11 87 33s34 51 34 88s-11 66 -34 89zM952 1051h146c18 0 27 -9 26 -27v-997c0 -18 -9 -27 -26 -27h-115c-15 0 -24 9 -27 27l-12 131c-94 -121 -227 -182 -399 -183c-271 0 -416 171 -416 502v547c0 18 9 27 27 27h145c18 0 27 -9 27 -27
v-547c0 -105 25 -188 76 -248c50 -60 118 -90 204 -90c175 0 295 128 318 363v522c0 18 9 27 26 27z" />
    <glyph glyph-name="Uhungarumlaut" unicode="&#x170;" horiz-adv-x="1482" 
d="M637 1554h-109c-21 0 -36 18 -28 39l137 326c5 13 14 20 27 20h141c21 0 40 -22 29 -45l-170 -323c-7 -11 -16 -16 -27 -17zM991 1554h-108c-24 0 -39 18 -31 39l137 326c5 13 15 20 29 20h139c24 0 42 -22 31 -45l-172 -323c-4 -11 -12 -16 -25 -17zM1168 157
c-104 -120 -246 -180 -426 -180c-181 0 -323 60 -426 180c-104 119 -156 282 -156 488v762c0 18 9 27 26 27h146c18 0 27 -9 26 -27v-762c0 -300 138 -469 384 -469s382 169 382 469v762c0 18 9 27 27 27h145c18 0 27 -9 27 -27v-762c0 -206 -52 -369 -155 -488z" />
    <glyph glyph-name="uhungarumlaut" unicode="&#x171;" horiz-adv-x="1275" 
d="M524 1186h-108c-21 0 -37 16 -29 39l137 325c5 13 14 20 27 21h141c21 0 40 -24 29 -45l-170 -324c-7 -11 -16 -16 -27 -16zM879 1186h-109c-24 0 -39 16 -31 39l138 325c5 13 15 20 28 21h139c24 0 42 -24 31 -45l-172 -324c-4 -11 -12 -16 -24 -16zM952 1051h146
c18 0 27 -9 26 -27v-997c0 -18 -9 -27 -26 -27h-115c-15 0 -24 9 -27 27l-12 131c-94 -121 -227 -182 -399 -183c-271 0 -416 171 -416 502v547c0 18 9 27 27 27h145c18 0 27 -9 27 -27v-547c0 -105 25 -188 76 -248c50 -60 118 -90 204 -90c175 0 295 128 318 363v522
c0 18 9 27 26 27z" />
    <glyph glyph-name="Uogonek" unicode="&#x172;" horiz-adv-x="1482" 
d="M1151 1434h145c18 0 27 -9 27 -27v-762c0 -195 -47 -352 -142 -471s-226 -183 -393 -194c-4 -44 -28 -90 -72 -137c-45 -47 -67 -84 -67 -113c0 -34 18 -59 54 -75c35 -16 86 -13 153 9c12 5 21 2 27 -10l18 -60c3 -11 0 -18 -8 -22c-94 -41 -177 -45 -248 -14
c-72 31 -108 85 -108 161c-7 110 143 190 155 261c-167 11 -297 75 -391 193s-141 275 -141 472v762c0 18 9 27 26 27h146c18 0 27 -9 26 -27v-762c0 -300 138 -469 384 -469s382 169 382 469v762c0 18 9 27 27 27z" />
    <glyph glyph-name="uogonek" unicode="&#x173;" horiz-adv-x="1275" 
d="M1217 -319l18 -60c3 -11 0 -18 -8 -22c-94 -41 -177 -46 -249 -15s-108 85 -108 162c0 47 24 95 73 145c49 51 76 87 81 109h-41c-15 0 -24 9 -27 27l-12 131c-94 -121 -227 -182 -399 -183c-271 0 -416 171 -416 502v547c0 18 9 27 27 27h145c18 0 27 -9 27 -27v-547
c0 -105 25 -188 76 -248c50 -60 118 -90 204 -90c175 0 295 128 318 363v522c0 18 9 27 26 27h146c18 0 27 -9 26 -27v-997c0 -65 -36 -123 -70 -154s-71 -76 -71 -117c0 -34 18 -59 54 -75c35 -15 86 -12 153 10c12 5 21 2 27 -10z" />
    <glyph glyph-name="Wcircumflex" unicode="&#x174;" horiz-adv-x="2158" 
d="M864 1585h-71c-19 0 -32 16 -21 35l240 344c7 11 17 16 30 16h70c17 0 28 -5 33 -14l239 -346c11 -16 1 -35 -18 -35h-74c-21 0 -36 8 -47 23l-166 211l-166 -211c-11 -15 -27 -23 -49 -23zM1907 1434h147c21 0 30 -17 25 -33l-455 -1381c-4 -13 -14 -20 -29 -20h-125
c-15 0 -25 7 -28 20l-365 992l-362 -992c-4 -13 -14 -20 -29 -20h-125c-17 0 -26 7 -29 20l-452 1381c-5 16 3 33 22 33h150c17 0 26 -7 27 -21l352 -1098l362 1033c7 15 17 23 31 22h109c12 0 21 -7 28 -22l361 -1047l356 1112c4 13 14 20 29 21z" />
    <glyph glyph-name="wcircumflex" unicode="&#x175;" horiz-adv-x="1644" 
d="M608 1196h-71c-19 0 -32 16 -21 35l240 344c7 11 17 16 30 16h70c17 0 28 -5 33 -14l239 -346c11 -16 1 -35 -18 -35h-74c-21 0 -36 8 -47 23l-166 211l-166 -211c-11 -15 -27 -23 -49 -23zM1442 1051h133c21 0 28 -10 22 -31l-352 -1000c-4 -13 -13 -20 -28 -20h-117
c-15 0 -25 7 -29 20l-254 725l-246 -725c-7 -13 -17 -20 -30 -20h-117c-15 0 -25 7 -29 20l-346 1000c-4 21 4 31 23 31h133c18 0 29 -8 33 -23l245 -786l252 768c4 17 15 25 33 24h104c17 0 28 -8 33 -24l256 -777l248 795c4 15 15 23 33 23z" />
    <glyph glyph-name="Ycircumflex" unicode="&#x176;" horiz-adv-x="1441" 
d="M510 1585h-72c-19 0 -31 16 -20 35l239 344c7 11 17 16 31 16h70c17 0 28 -5 33 -14l239 -346c11 -16 1 -35 -18 -35h-74c-21 0 -36 8 -47 23l-166 211l-166 -211c-11 -15 -27 -23 -49 -23zM1182 1434h170c24 0 31 -24 18 -37l-549 -742v-628c0 -18 -9 -27 -26 -27h-146
c-18 0 -27 9 -26 27v635l-549 735c-16 19 -6 37 18 37h170c15 0 26 -6 31 -17l432 -590l426 590c5 11 16 16 31 17z" />
    <glyph glyph-name="ycircumflex" unicode="&#x177;" horiz-adv-x="1107" 
d="M340 1196h-72c-19 0 -31 16 -20 35l239 344c7 11 17 16 31 16h70c17 0 28 -5 33 -14l239 -346c11 -16 1 -35 -18 -35h-74c-21 0 -36 8 -47 23l-166 211l-166 -211c-11 -15 -27 -23 -49 -23zM891 1051h151c22 0 29 -10 21 -31l-451 -1159c-71 -180 -178 -270 -323 -271
c-67 0 -128 18 -185 54c-13 11 -16 23 -8 37l41 90c8 15 20 19 37 12c30 -17 62 -25 96 -25c81 0 134 53 183 185l22 59l-432 1018c-8 13 1 31 20 31h152c15 0 26 -8 33 -23l317 -780l293 780c7 15 18 23 33 23z" />
    <glyph glyph-name="Ydieresis" unicode="&#x178;" horiz-adv-x="1441" 
d="M606 1602c-44 -44 -112 -44 -156 0c-23 21 -34 48 -34 80c0 31 11 58 34 80c44 43 112 43 156 0c22 -22 33 -49 33 -80c0 -32 -11 -59 -33 -80zM1001 1602c-45 -44 -113 -44 -158 0c-23 21 -34 48 -34 80c0 31 11 58 34 80c45 43 113 43 158 0c22 -22 33 -49 33 -80
c0 -32 -11 -59 -33 -80zM1182 1434h170c24 0 31 -24 18 -37l-549 -742v-628c0 -18 -9 -27 -26 -27h-146c-18 0 -27 9 -26 27v635l-549 735c-16 19 -6 37 18 37h170c15 0 26 -6 31 -17l432 -590l426 590c5 11 16 16 31 17z" />
    <glyph glyph-name="Zacute" unicode="&#x179;" horiz-adv-x="1497" 
d="M815 1575h-92c-21 0 -37 16 -29 39l137 325c5 13 14 20 27 21h123c24 0 40 -24 29 -45l-170 -324c-4 -11 -12 -16 -25 -16zM365 164h1013c18 0 27 -9 27 -27v-110c0 -18 -9 -27 -27 -27h-1261c-18 0 -27 9 -27 27v84c0 11 4 20 12 28l1018 1131h-989c-18 0 -27 9 -27 26
v111c0 18 9 27 27 27h1231c18 0 27 -9 27 -27v-88c0 -9 -4 -20 -13 -31z" />
    <glyph glyph-name="zacute" unicode="&#x17a;" horiz-adv-x="1060" 
d="M596 1186h-92c-21 0 -37 16 -29 39l137 325c5 13 14 20 27 21h123c24 0 40 -24 29 -45l-170 -324c-4 -11 -12 -16 -25 -16zM989 1026v-96c0 -9 -5 -19 -14 -29l-645 -727h631c18 0 27 -9 26 -27v-120c0 -18 -9 -27 -26 -27h-869c-18 0 -27 9 -26 27v88c0 13 4 23 12 28
l647 736h-606c-18 0 -27 9 -27 26v121c0 18 9 27 27 27h844c18 0 27 -9 26 -27z" />
    <glyph glyph-name="Zdotaccent" unicode="&#x17b;" horiz-adv-x="1497" 
d="M828 1602c-44 -44 -112 -44 -157 0c-23 21 -34 48 -34 80c0 31 11 58 34 80c45 43 113 43 157 0c21 -22 32 -49 32 -80c0 -32 -11 -59 -32 -80zM365 164h1013c18 0 27 -9 27 -27v-110c0 -18 -9 -27 -27 -27h-1261c-18 0 -27 9 -27 27v84c0 11 4 20 12 28l1018 1131h-989
c-18 0 -27 9 -27 26v111c0 18 9 27 27 27h1231c18 0 27 -9 27 -27v-88c0 -9 -4 -20 -13 -31z" />
    <glyph glyph-name="zdotaccent" unicode="&#x17c;" horiz-adv-x="1060" 
d="M530 1180c-63 0 -112 49 -112 112s49 113 112 113c30 0 56 -11 78 -33s33 -49 33 -80c0 -63 -51 -112 -111 -112zM989 1026v-96c0 -9 -5 -19 -14 -29l-645 -727h631c18 0 27 -9 26 -27v-120c0 -18 -9 -27 -26 -27h-869c-18 0 -27 9 -26 27v88c0 13 4 23 12 28l647 736
h-606c-18 0 -27 9 -27 26v121c0 18 9 27 27 27h844c18 0 27 -9 26 -27z" />
    <glyph glyph-name="Zcaron" unicode="&#x17d;" horiz-adv-x="1497" 
d="M682 1602l-240 346c-11 16 2 32 21 32h74c22 0 38 -7 47 -22l166 -209l168 211c9 13 25 20 47 20h71c19 0 32 -16 21 -32l-242 -346c-7 -11 -17 -16 -31 -17h-69c-15 1 -26 6 -33 17zM365 164h1013c18 0 27 -9 27 -27v-110c0 -18 -9 -27 -27 -27h-1261
c-18 0 -27 9 -27 27v84c0 11 4 20 12 28l1018 1131h-989c-18 0 -27 9 -27 26v111c0 18 9 27 27 27h1231c18 0 27 -9 27 -27v-88c0 -9 -4 -20 -13 -31z" />
    <glyph glyph-name="zcaron" unicode="&#x17e;" horiz-adv-x="1060" 
d="M463 1212l-240 347c-11 16 1 32 21 32h73c22 0 38 -7 48 -22l165 -209l168 211c9 13 25 20 47 20h72c19 0 32 -16 21 -32l-242 -347c-7 -11 -17 -16 -31 -16h-69c-15 0 -26 5 -33 16zM989 1026v-96c0 -9 -5 -19 -14 -29l-645 -727h631c18 0 27 -9 26 -27v-120
c0 -18 -9 -27 -26 -27h-869c-18 0 -27 9 -26 27v88c0 13 4 23 12 28l647 736h-606c-18 0 -27 9 -27 26v121c0 18 9 27 27 27h844c18 0 27 -9 26 -27z" />
    <glyph glyph-name="Ohorn" unicode="&#x1a0;" horiz-adv-x="1689" 
d="M1532 1432h76c11 0 16 -6 16 -19v-80c0 -125 -55 -180 -162 -196c75 -119 113 -262 113 -430c0 -223 -66 -400 -197 -533c-132 -133 -309 -199 -532 -199s-400 66 -531 199c-132 133 -198 310 -198 533c0 224 66 404 199 539c132 135 309 202 530 202
c227 0 407 -71 540 -213c55 0 80 1 107 29c13 13 20 34 20 61v88c0 12 6 18 19 19zM458 308c95 -96 224 -144 388 -144s293 48 388 144c95 95 142 228 142 399s-48 306 -143 405s-224 148 -387 148s-292 -49 -387 -148c-96 -99 -144 -234 -144 -405s48 -304 143 -399z" />
    <glyph glyph-name="ohorn" unicode="&#x1a1;" horiz-adv-x="1267" 
d="M1192 1104h76c11 0 16 -6 16 -19v-79c0 -128 -57 -183 -172 -199c48 -81 72 -174 72 -281c0 -159 -52 -290 -157 -394c-105 -105 -236 -157 -394 -157c-159 0 -290 52 -393 157c-104 105 -156 236 -156 395c0 158 52 289 155 394c103 104 234 156 394 156
c167 0 302 -57 407 -170c57 0 80 -1 111 28c15 14 23 35 23 62v88c0 12 6 18 18 19zM633 139c104 0 191 36 260 109c69 72 104 165 104 278s-35 206 -104 278c-70 71 -157 107 -260 107s-189 -35 -258 -106c-70 -71 -105 -164 -105 -279s35 -208 105 -279
c69 -72 155 -108 258 -108z" />
    <glyph glyph-name="Uhorn" unicode="&#x1af;" horiz-adv-x="1482" 
d="M1456 1630h76c11 0 16 -6 16 -18v-80c0 -148 -74 -198 -225 -203v-684c0 -206 -52 -369 -155 -488c-104 -120 -246 -180 -426 -180c-181 0 -323 60 -426 180c-104 119 -156 282 -156 488v762c0 18 9 27 26 27h146c18 0 27 -9 26 -27v-762c0 -300 138 -469 384 -469
s382 169 382 469v762c0 18 9 27 27 27h145c31 0 55 1 70 2s31 9 48 24c16 14 24 35 24 64v88c0 12 6 18 18 18z" />
    <glyph glyph-name="uhorn" unicode="&#x1b0;" horiz-adv-x="1275" 
d="M1257 1247h76c11 0 16 -6 17 -18v-80c0 -148 -75 -198 -226 -203v-919c0 -18 -9 -27 -26 -27h-115c-15 0 -24 9 -27 27l-12 131c-94 -121 -227 -182 -399 -183c-271 0 -416 171 -416 502v547c0 18 9 27 27 27h145c18 0 27 -9 27 -27v-547c0 -105 25 -188 76 -248
c50 -60 118 -90 204 -90c175 0 295 128 318 363v522c0 18 9 27 26 27h146c31 0 55 1 70 2s30 9 47 24c16 14 24 35 24 64v88c0 12 6 18 18 18z" />
    <glyph glyph-name="uni01CD" unicode="&#x1cd;" horiz-adv-x="1476" 
d="M686 1602l-240 346c-11 16 2 32 21 32h74c22 0 38 -7 47 -22l166 -209l168 211c9 13 25 20 47 20h71c19 0 32 -16 21 -32l-242 -346c-7 -11 -17 -16 -31 -17h-69c-15 1 -26 6 -33 17zM834 1413l567 -1380c8 -22 0 -33 -23 -33h-153c-15 0 -25 6 -29 18l-139 338h-627
l-149 -338c-4 -12 -14 -18 -29 -18h-156c-23 0 -30 11 -20 33l608 1380c5 12 15 18 29 19h92c15 0 25 -6 29 -19zM997 508l-241 635l-262 -635h503z" />
    <glyph glyph-name="uni01CE" unicode="&#x1ce;" horiz-adv-x="1361" 
d="M614 1212l-239 347c-11 16 1 32 20 32h74c22 0 38 -7 47 -22l166 -209l168 211c9 13 25 20 47 20h72c19 0 31 -16 20 -32l-241 -347c-7 -11 -17 -16 -31 -16h-70c-15 0 -26 5 -33 16zM1069 1051h115c18 0 27 -9 26 -27v-997c0 -18 -9 -27 -26 -27h-115
c-13 0 -22 9 -27 27l-14 153c-105 -137 -245 -205 -418 -205c-149 0 -273 51 -373 153c-101 102 -151 234 -151 396c0 164 50 297 151 400c100 102 222 153 367 153c172 0 325 -79 424 -211l14 158c3 18 12 27 27 27zM651 139c104 0 192 33 264 100c71 66 107 156 107 271
c0 116 -36 212 -109 288c-73 75 -163 113 -270 113c-103 0 -189 -36 -258 -107c-69 -72 -104 -165 -104 -280s35 -207 105 -278s158 -107 265 -107z" />
    <glyph glyph-name="uni01CF" unicode="&#x1cf;" horiz-adv-x="579" 
d="M504 1980h71c19 0 32 -16 21 -32l-242 -346c-7 -11 -17 -16 -30 -17h-70c-15 0 -26 6 -33 17l-239 346c-11 16 1 32 20 32h74c22 0 38 -7 47 -22l166 -209l168 211c9 13 25 20 47 20zM217 1434h145c18 0 27 -9 27 -27v-1380c0 -18 -9 -27 -27 -27h-145
c-18 0 -27 9 -27 27v1380c0 18 9 27 27 27z" />
    <glyph glyph-name="uni01D0" unicode="&#x1d0;" horiz-adv-x="503" 
d="M467 1591h72c19 0 31 -16 20 -32l-242 -347c-7 -11 -17 -16 -30 -16h-70c-15 0 -26 5 -33 16l-239 347c-11 16 1 32 20 32h74c22 0 38 -7 47 -22l166 -209l168 211c9 13 25 20 47 20zM178 1051h148c18 0 27 -9 26 -27v-997c0 -18 -9 -27 -26 -27h-148c-18 0 -27 9 -26 27
v997c0 18 9 27 26 27z" />
    <glyph glyph-name="uni01D1" unicode="&#x1d1;" horiz-adv-x="1689" 
d="M778 1602l-239 346c-11 16 1 32 20 32h74c22 0 38 -7 47 -22l166 -209l168 211c9 13 25 20 47 20h72c19 0 31 -16 20 -32l-242 -346c-7 -11 -17 -16 -30 -17h-70c-15 1 -26 6 -33 17zM846 1448c223 0 400 -68 532 -203c131 -135 197 -315 197 -538s-66 -400 -197 -533
c-132 -133 -309 -199 -532 -199s-400 66 -531 199c-132 133 -198 310 -198 533c0 224 66 404 199 539c132 135 309 202 530 202zM458 308c95 -96 224 -144 388 -144s293 48 388 144c95 95 142 228 142 399s-48 306 -143 405s-224 148 -387 148s-292 -49 -387 -148
c-96 -99 -144 -234 -144 -405s48 -304 143 -399z" />
    <glyph glyph-name="uni01D2" unicode="&#x1d2;" horiz-adv-x="1267" 
d="M567 1212l-239 347c-11 16 1 32 20 32h74c22 0 38 -7 47 -22l166 -209l168 211c9 13 25 20 47 20h72c19 0 31 -16 20 -32l-242 -347c-7 -11 -17 -16 -30 -16h-70c-15 0 -26 5 -33 16zM239 921c103 104 234 156 394 156c159 0 291 -52 395 -156
c104 -105 156 -236 156 -394c0 -159 -52 -290 -157 -395s-236 -157 -394 -157c-159 0 -290 52 -393 157c-104 105 -156 236 -156 395c0 158 52 289 155 394zM633 139c104 0 191 36 260 109c69 72 104 165 104 278s-35 206 -104 278c-70 71 -157 107 -260 107
s-189 -35 -258 -106c-70 -71 -105 -164 -105 -279s35 -208 105 -279c69 -72 155 -108 258 -108z" />
    <glyph glyph-name="uni01D3" unicode="&#x1d3;" horiz-adv-x="1482" 
d="M674 1581l-240 346c-11 16 1 33 21 33h73c22 0 38 -8 47 -23l166 -208l168 210c9 13 25 20 47 21h72c19 0 32 -17 21 -33l-242 -346c-7 -11 -17 -16 -31 -16h-69c-15 0 -26 5 -33 16zM1151 1434h145c18 0 27 -9 27 -27v-762c0 -206 -52 -369 -155 -488
c-104 -120 -246 -180 -426 -180c-181 0 -323 60 -426 180c-104 119 -156 282 -156 488v762c0 18 9 27 26 27h146c18 0 27 -9 26 -27v-762c0 -300 138 -469 384 -469s382 169 382 469v762c0 18 9 27 27 27z" />
    <glyph glyph-name="uni01D4" unicode="&#x1d4;" horiz-adv-x="1275" 
d="M561 1212l-239 347c-11 16 1 32 20 32h74c22 0 38 -7 47 -22l166 -209l168 211c9 13 25 20 47 20h71c19 0 32 -16 21 -32l-242 -347c-7 -11 -17 -16 -30 -16h-70c-15 0 -26 5 -33 16zM952 1051h146c18 0 27 -9 26 -27v-997c0 -18 -9 -27 -26 -27h-115c-15 0 -24 9 -27 27
l-12 131c-94 -121 -227 -182 -399 -183c-271 0 -416 171 -416 502v547c0 18 9 27 27 27h145c18 0 27 -9 27 -27v-547c0 -105 25 -188 76 -248c50 -60 118 -90 204 -90c175 0 295 128 318 363v522c0 18 9 27 26 27z" />
    <glyph glyph-name="uni01D5" unicode="&#x1d5;" horiz-adv-x="1482" 
d="M1059 1946h-637c-18 0 -27 9 -27 26v90c0 18 9 27 27 27l637 2c18 0 27 -9 26 -27v-92c0 -18 -9 -27 -26 -26zM623 1581c-44 -44 -112 -44 -157 0s-45 116 0 160s113 44 157 0c42 -44 42 -116 0 -160zM1017 1581c-45 -44 -113 -44 -158 0s-45 116 0 160s113 44 158 0
s45 -116 0 -160zM1168 157c-104 -120 -246 -180 -426 -180c-181 0 -323 60 -426 180c-104 119 -156 282 -156 488v762c0 18 9 27 26 27h146c18 0 27 -9 26 -27v-762c0 -300 138 -469 384 -469s382 169 382 469v762c0 18 9 27 27 27h145c18 0 27 -9 27 -27v-762
c0 -206 -52 -369 -155 -488z" />
    <glyph glyph-name="uni01D6" unicode="&#x1d6;" horiz-adv-x="1275" 
d="M946 1577h-637c-18 0 -27 9 -26 27v90c0 18 9 27 26 26l637 2c18 0 27 -9 27 -26v-92c0 -18 -9 -27 -27 -27zM352 1213c-22 21 -33 48 -33 79s11 58 33 80s49 33 80 33c30 0 56 -11 78 -33s33 -49 33 -80c0 -63 -51 -112 -111 -112c-31 0 -58 11 -80 33zM746 1213
c-22 21 -33 48 -33 79s11 58 33 80c21 22 48 33 79 33s58 -11 80 -33s33 -49 33 -80s-11 -58 -33 -79c-22 -22 -49 -33 -80 -33s-58 11 -79 33zM952 1051h146c18 0 27 -9 26 -27v-997c0 -18 -9 -27 -26 -27h-115c-15 0 -24 9 -27 27l-12 131c-94 -121 -227 -182 -399 -183
c-271 0 -416 171 -416 502v547c0 18 9 27 27 27h145c18 0 27 -9 27 -27v-547c0 -105 25 -188 76 -248c50 -60 118 -90 204 -90c175 0 295 128 318 363v522c0 18 9 27 26 27z" />
    <glyph glyph-name="uni01D7" unicode="&#x1d7;" horiz-adv-x="1482" 
d="M807 1853h-92c-21 0 -37 18 -29 39l137 326c5 13 14 20 27 20h123c24 0 40 -22 28 -45l-170 -323c-4 -11 -12 -16 -24 -17zM623 1581c-44 -44 -112 -44 -157 0s-45 116 0 160s113 44 157 0c42 -44 42 -116 0 -160zM1017 1581c-45 -44 -113 -44 -158 0s-45 116 0 160
s113 44 158 0s45 -116 0 -160zM1168 157c-104 -120 -246 -180 -426 -180c-181 0 -323 60 -426 180c-104 119 -156 282 -156 488v762c0 18 9 27 26 27h146c18 0 27 -9 26 -27v-762c0 -300 138 -469 384 -469s382 169 382 469v762c0 18 9 27 27 27h145c18 0 27 -9 27 -27v-762
c0 -206 -52 -369 -155 -488z" />
    <glyph glyph-name="uni01D8" unicode="&#x1d8;" horiz-adv-x="1275" 
d="M694 1485h-92c-21 0 -37 16 -29 39l138 325c5 13 14 20 26 21h123c24 0 40 -24 29 -45l-170 -324c-4 -11 -12 -16 -25 -16zM432 1180c-63 0 -113 49 -113 112s50 113 113 113c30 0 56 -11 78 -33s33 -49 33 -80c0 -63 -51 -112 -111 -112zM746 1213c-22 21 -33 48 -33 79
s11 58 33 80c21 22 48 33 79 33s58 -11 80 -33s33 -49 33 -80s-11 -58 -33 -79c-22 -22 -49 -33 -80 -33s-58 11 -79 33zM952 1051h146c18 0 27 -9 26 -27v-997c0 -18 -9 -27 -26 -27h-115c-15 0 -24 9 -27 27l-12 131c-94 -121 -227 -182 -399 -183
c-271 0 -416 171 -416 502v547c0 18 9 27 27 27h145c18 0 27 -9 27 -27v-547c0 -105 25 -188 76 -248c50 -60 118 -90 204 -90c175 0 295 128 318 363v522c0 18 9 27 26 27z" />
    <glyph glyph-name="uni01D9" unicode="&#x1d9;" horiz-adv-x="1482" 
d="M674 1880l-240 346c-11 16 1 33 21 33h73c22 0 38 -8 47 -23l166 -208l168 210c9 13 25 20 47 21h72c19 0 32 -17 21 -33l-242 -346c-7 -11 -17 -16 -31 -16h-69c-15 0 -26 5 -33 16zM466 1581c-45 44 -45 116 0 160s113 44 157 0c42 -44 42 -116 0 -160
c-44 -44 -112 -44 -157 0zM859 1741c45 44 113 44 158 0s45 -116 0 -160s-113 -44 -158 0s-45 116 0 160zM1151 1434h145c18 0 27 -9 27 -27v-762c0 -206 -52 -369 -155 -488c-104 -120 -246 -180 -426 -180c-181 0 -323 60 -426 180c-104 119 -156 282 -156 488v762
c0 18 9 27 26 27h146c18 0 27 -9 26 -27v-762c0 -300 138 -469 384 -469s382 169 382 469v762c0 18 9 27 27 27z" />
    <glyph glyph-name="uni01DA" unicode="&#x1da;" horiz-adv-x="1275" 
d="M561 1511l-239 347c-11 16 1 32 20 32h74c22 0 38 -7 47 -22l166 -209l168 211c9 13 25 20 47 20h71c19 0 32 -16 21 -32l-242 -347c-7 -11 -17 -16 -30 -16h-70c-15 0 -26 5 -33 16zM352 1213c-22 21 -33 48 -33 79s11 58 33 80s49 33 80 33c30 0 56 -11 78 -33
s33 -49 33 -80c0 -63 -51 -112 -111 -112c-31 0 -58 11 -80 33zM746 1372c21 22 48 33 79 33s58 -11 80 -33s33 -49 33 -80s-11 -58 -33 -79c-22 -22 -49 -33 -80 -33s-58 11 -79 33c-22 21 -33 48 -33 79s11 58 33 80zM952 1051h146c18 0 27 -9 26 -27v-997
c0 -18 -9 -27 -26 -27h-115c-15 0 -24 9 -27 27l-12 131c-94 -121 -227 -182 -399 -183c-271 0 -416 171 -416 502v547c0 18 9 27 27 27h145c18 0 27 -9 27 -27v-547c0 -105 25 -188 76 -248c50 -60 118 -90 204 -90c175 0 295 128 318 363v522c0 18 9 27 26 27z" />
    <glyph glyph-name="uni01DB" unicode="&#x1db;" horiz-adv-x="1482" 
d="M768 1853h-90c-13 0 -22 6 -27 17l-170 323c-11 21 8 45 29 45h123c15 0 24 -7 26 -20l138 -326c11 -21 -5 -39 -29 -39zM623 1581c-44 -44 -112 -44 -157 0s-45 116 0 160s113 44 157 0c42 -44 42 -116 0 -160zM1017 1581c-45 -44 -113 -44 -158 0s-45 116 0 160
s113 44 158 0s45 -116 0 -160zM1168 157c-104 -120 -246 -180 -426 -180c-181 0 -323 60 -426 180c-104 119 -156 282 -156 488v762c0 18 9 27 26 27h146c18 0 27 -9 26 -27v-762c0 -300 138 -469 384 -469s382 169 382 469v762c0 18 9 27 27 27h145c18 0 27 -9 27 -27v-762
c0 -206 -52 -369 -155 -488z" />
    <glyph glyph-name="uni01DC" unicode="&#x1dc;" horiz-adv-x="1275" 
d="M539 1501l-170 324c-11 21 7 45 28 45h123c15 0 24 -7 27 -21l137 -325c11 -21 -4 -39 -29 -39h-90c-13 0 -22 5 -26 16zM432 1180c-63 0 -113 49 -113 112s50 113 113 113c30 0 56 -11 78 -33s33 -49 33 -80c0 -63 -51 -112 -111 -112zM905 1213
c-22 -22 -49 -33 -80 -33s-58 11 -79 33c-22 21 -33 48 -33 79s11 58 33 80c21 22 48 33 79 33s58 -11 80 -33s33 -49 33 -80s-11 -58 -33 -79zM952 1051h146c18 0 27 -9 26 -27v-997c0 -18 -9 -27 -26 -27h-115c-15 0 -24 9 -27 27l-12 131c-94 -121 -227 -182 -399 -183
c-271 0 -416 171 -416 502v547c0 18 9 27 27 27h145c18 0 27 -9 27 -27v-547c0 -105 25 -188 76 -248c50 -60 118 -90 204 -90c175 0 295 128 318 363v522c0 18 9 27 26 27z" />
    <glyph glyph-name="uni0218" unicode="&#x218;" horiz-adv-x="1236" 
d="M635 -25c-205 0 -380 75 -526 226c-11 12 -12 24 -5 37l68 104c11 17 24 18 39 4c119 -124 253 -186 403 -186c94 0 170 21 228 64c57 42 86 102 86 179c0 68 -24 118 -73 149s-132 60 -249 89c-47 11 -81 19 -103 26c-23 6 -57 17 -102 33c-46 15 -82 32 -107 50
c-25 17 -53 40 -82 67s-50 60 -63 99c-13 38 -20 80 -20 126c0 123 45 221 136 295s210 111 358 111c173 0 330 -59 471 -176c12 -8 15 -20 10 -37l-57 -107c-8 -13 -20 -17 -37 -10c-123 101 -250 152 -383 152c-89 0 -161 -20 -216 -60c-55 -41 -83 -95 -83 -163
c0 -60 29 -106 61 -133c15 -14 38 -27 68 -39c30 -13 55 -21 75 -26c19 -5 48 -11 86 -20c60 -13 110 -25 149 -36s83 -28 134 -50c51 -23 90 -48 119 -76c57 -56 106 -151 106 -268c0 -130 -44 -233 -133 -309c-89 -77 -208 -115 -358 -115zM522 -698c-11 -3 -17 1 -20 10
l-15 41c-1 11 3 19 13 24c39 12 76 33 111 64c34 31 51 63 51 96c0 39 -11 51 -58 51c-63 0 -102 55 -102 123c0 37 14 69 41 96s60 41 98 41c94 0 141 -69 141 -208c0 -156 -87 -269 -260 -338z" />
    <glyph glyph-name="uni0219" unicode="&#x219;" horiz-adv-x="999" 
d="M502 -25c-93 0 -176 15 -249 46c-73 30 -129 69 -167 118c-12 12 -13 25 -2 39l53 80c11 17 24 18 41 4c67 -82 173 -123 320 -123c159 0 238 55 237 164c0 55 -17 88 -70 113c-27 12 -52 21 -75 28c-23 6 -60 14 -111 25c-59 12 -106 24 -143 35s-75 27 -116 49
c-82 44 -124 114 -124 213c0 95 37 171 112 227c74 56 172 84 294 84c141 0 266 -44 377 -133c17 -9 19 -22 6 -39l-54 -76c-9 -15 -22 -18 -38 -8c-77 60 -170 90 -281 90c-153 0 -229 -46 -229 -139c0 -31 12 -57 36 -78c23 -21 49 -36 77 -44c28 -9 67 -18 116 -27
c9 -1 17 -3 23 -5c127 -26 223 -61 289 -105c65 -45 98 -114 98 -208c0 -100 -37 -180 -110 -240c-74 -60 -177 -90 -310 -90zM391 -698c-11 -3 -17 1 -20 10l-15 41c-1 11 3 19 13 24c39 12 76 33 110 64s51 63 51 96c0 39 -10 51 -57 51c-63 0 -102 55 -102 123
c0 37 14 69 41 96s60 41 98 41c94 0 141 -69 141 -208c0 -156 -87 -269 -260 -338z" />
    <glyph glyph-name="uni021A" unicode="&#x21a;" horiz-adv-x="1388" 
d="M104 1434h1180c18 0 27 -9 27 -27v-135c0 -18 -9 -27 -27 -27h-491v-1218c0 -18 -9 -27 -27 -27h-145c-18 0 -27 9 -27 27v1218h-490c-18 0 -27 9 -26 27v135c0 18 9 27 26 27zM705 -152c94 0 141 -69 141 -208c0 -155 -87 -268 -260 -338c-11 -3 -18 1 -21 10l-14 41
c-1 11 3 19 12 24c39 12 76 33 111 64c34 31 51 63 51 96c0 39 -12 51 -57 51c-63 0 -103 55 -103 123c0 37 14 69 42 96c27 27 60 41 98 41z" />
    <glyph glyph-name="uni021B" unicode="&#x21b;" horiz-adv-x="817" 
d="M725 143l31 -88c5 -13 0 -24 -15 -32c-71 -31 -144 -47 -221 -48c-209 0 -313 127 -313 381v533h-135c-18 0 -27 9 -27 26v109c0 18 9 27 27 27h135v270c0 18 9 27 26 27h140c18 0 27 -9 26 -27v-270h306c18 0 27 -9 26 -27v-109c0 -18 -9 -27 -26 -26h-306v-547
c0 -82 13 -136 38 -163s70 -40 134 -40c49 0 73 4 101 13l18 8c19 7 31 1 35 -17zM543 -152c94 0 141 -69 141 -208c0 -155 -87 -268 -260 -338c-11 -3 -18 1 -21 10l-14 41c-1 11 3 19 12 24c39 12 76 33 111 64c34 31 51 63 51 96c0 39 -10 51 -57 51
c-63 0 -103 55 -103 123c0 37 14 69 42 96c27 27 60 41 98 41z" />
    <glyph glyph-name="gravecomb" unicode="&#x300;" 
d="M-119 1130h-90c-13 0 -22 6 -27 17l-170 323c-11 21 8 46 29 46h123c15 0 24 -7 27 -21l137 -326c11 -21 -4 -39 -29 -39z" />
    <glyph glyph-name="acutecomb" unicode="&#x301;" 
d="M-274 1130h-93c-21 0 -36 18 -28 39l137 326c5 13 14 20 27 21h122c24 0 40 -23 29 -46l-170 -323c-4 -11 -12 -16 -24 -17z" />
    <glyph glyph-name="uni0302" unicode="&#x302;" 
d="M-305 1522l239 -346c11 -16 1 -35 -18 -35h-74c-21 0 -36 7 -47 22l-166 211l-166 -211c-11 -15 -27 -23 -49 -22h-71c-19 0 -32 15 -21 35l240 344c7 11 17 16 30 16h70c17 0 28 -5 33 -14z" />
    <glyph glyph-name="tildecomb" unicode="&#x303;" 
d="M-666 1174c-8 -15 -19 -20 -34 -13l-58 27c-11 4 -14 13 -10 26c34 107 93 160 176 160c41 0 91 -17 151 -51c61 -34 103 -51 128 -51c38 0 69 23 94 69c8 17 19 21 33 13l57 -25c11 -4 15 -13 12 -26c-33 -113 -92 -170 -178 -170c-41 0 -92 18 -153 54s-102 54 -125 54
c-36 1 -67 -22 -93 -67z" />
    <glyph glyph-name="uni0304" unicode="&#x304;" 
d="M-178 1223h-637c-18 0 -27 9 -27 26v90c0 18 9 27 27 27l637 2c18 0 27 -9 26 -27v-92c0 -18 -9 -27 -26 -26z" />
    <glyph glyph-name="uni0306" unicode="&#x306;" 
d="M-198 1224c-61 -54 -133 -81 -216 -81s-155 27 -215 82s-94 120 -102 196c-3 25 8 37 31 37h84c17 0 25 -7 24 -20c3 -45 20 -85 52 -120s74 -52 126 -52s94 17 126 52s49 75 52 120c3 13 12 20 27 20h82c25 0 35 -13 31 -39c-7 -77 -41 -142 -102 -195z" />
    <glyph glyph-name="uni0307" unicode="&#x307;" 
d="M-164 1157c-44 -44 -112 -44 -157 1c-44 45 -44 113 0 158c45 45 113 45 157 1s44 -116 0 -160z" />
    <glyph glyph-name="uni0308" unicode="&#x308;" 
d="M-637 1124c-31 0 -58 11 -80 34s-33 49 -33 79s11 56 33 79s49 34 80 34c30 0 56 -11 78 -33s33 -49 33 -80s-11 -58 -33 -80s-48 -33 -78 -33zM-164 1158c-22 -23 -49 -34 -80 -34s-58 11 -80 34c-43 45 -43 113 0 158c22 23 49 34 80 34s58 -11 80 -34
c44 -45 44 -113 0 -158z" />
    <glyph glyph-name="hookabovecomb" unicode="&#x309;" 
d="M-395 1458v55c0 13 11 28 24 25c159 -21 262 -99 262 -227c0 -79 -44 -148 -133 -205c-15 -9 -25 -7 -30 8l-27 55c-7 11 -4 20 8 27c47 31 70 69 70 113c0 67 -51 110 -152 129c-15 0 -23 7 -22 20z" />
    <glyph glyph-name="uni030A" unicode="&#x30a;" 
d="M-176 1163c-40 -41 -91 -61 -152 -61s-112 20 -153 60c-40 39 -60 90 -60 153s20 114 60 155c41 40 92 60 153 60c63 0 114 -20 153 -60c40 -41 60 -92 60 -153c0 -63 -20 -114 -61 -154zM-415 1228c23 -23 52 -34 87 -34c36 0 65 11 87 33c23 22 34 51 34 88
s-11 66 -34 89c-22 23 -51 34 -87 34c-35 0 -64 -11 -87 -34s-34 -52 -34 -87c0 -37 11 -66 34 -89z" />
    <glyph glyph-name="uni030B" unicode="&#x30b;" 
d="M-631 1130h-108c-21 0 -37 18 -29 39l137 326c5 13 14 20 27 21h141c21 0 40 -23 29 -46l-170 -323c-7 -11 -16 -16 -27 -17zM-276 1130h-109c-24 0 -39 18 -31 39l137 326c5 13 15 20 29 21h139c24 0 42 -23 31 -46l-172 -323c-4 -11 -12 -16 -24 -17z" />
    <glyph glyph-name="uni030C" unicode="&#x30c;" 
d="M-156 1536h72c19 0 32 -16 21 -33l-242 -346c-7 -11 -17 -16 -31 -16h-70c-15 0 -26 5 -32 16l-240 346c-11 16 1 33 21 33h73c22 0 38 -8 47 -23l166 -208l168 211c9 13 25 20 47 20z" />
    <glyph glyph-name="uni0312" unicode="&#x312;" 
d="M-256 1110c-93 0 -141 82 -141 207c0 163 88 279 264 350c13 3 20 0 20 -8l17 -43c1 -12 -4 -20 -15 -25c-42 -15 -80 -38 -113 -68c-33 -31 -50 -65 -50 -102c0 -30 20 -45 59 -45c63 0 102 -56 102 -123c0 -39 -14 -73 -41 -101s-61 -42 -102 -42z" />
    <glyph glyph-name="uni031B" unicode="&#x31b;" 
d="M-381 1042v105c31 0 54 1 69 2s31 9 47 24c17 14 25 35 25 64v88c0 12 6 18 19 18h76c11 0 16 -6 16 -18v-80c0 -78 -21 -131 -63 -160c-41 -29 -104 -43 -189 -43z" />
    <glyph glyph-name="dotbelowcomb" unicode="&#x323;" 
d="M-164 -328c-39 -38 -96 -38 -135 0s-39 97 0 135s96 38 135 0s39 -97 0 -135z" />
    <glyph glyph-name="uni0326" unicode="&#x326;" 
d="M-365 -698c-11 -3 -17 1 -20 10l-14 41c-1 11 3 19 12 24c39 12 76 33 110 64c35 31 52 63 52 96c0 39 -11 51 -58 51c-63 0 -102 55 -102 123c0 37 14 69 41 96s60 41 98 41c94 0 141 -69 142 -208c-1 -156 -88 -269 -261 -338z" />
    <glyph glyph-name="uni0327" unicode="&#x327;" 
d="M-233 0l-33 -90c112 -22 168 -79 168 -170c0 -123 -107 -197 -312 -197c-19 0 -29 9 -28 27v49c0 15 9 24 28 25c3 0 34 -1 53 2c20 3 54 6 76 15c37 15 66 41 66 89c0 60 -41 77 -141 98c-17 4 -23 12 -19 25l37 127h105z" />
    <glyph glyph-name="uni0328" unicode="&#x328;" 
d="M-86 -346l18 -60c3 -11 0 -18 -8 -22c-94 -41 -177 -45 -249 -14c-71 31 -107 85 -107 161c0 63 39 118 78 153c40 35 80 81 80 128h96c0 -65 -37 -124 -71 -154s-70 -76 -70 -116c0 -34 18 -59 53 -75s86 -13 153 9c12 5 21 2 27 -10z" />
    <glyph glyph-name="uni0335" unicode="&#x335;" 
d="M-178 459h-623c-18 0 -27 9 -26 26v90c0 18 9 27 26 27l623 2c18 0 27 -9 26 -26v-93c0 -18 -9 -27 -26 -26z" />
    <glyph glyph-name="uni0336" unicode="&#x336;" 
d="M-176 436l-893 -2c-18 0 -27 9 -27 27v92c0 18 9 27 27 27h893c13 0 24 -14 24 -27l2 -90c0 -13 -13 -27 -26 -27z" />
    <glyph glyph-name="uni0337" unicode="&#x337;" 
d="M-63 842l-617 -453v143l617 453v-143z" />
    <glyph glyph-name="uni0338" unicode="&#x338;" 
d="M-866 -49h-140l836 1583h141z" />
    <glyph glyph-name="Wgrave" unicode="&#x1e80;" horiz-adv-x="2158" 
d="M989 1591l-170 324c-11 21 6 45 29 45h123c15 0 24 -7 26 -21l138 -325c11 -21 -5 -39 -29 -39h-90c-14 0 -23 5 -27 16zM1907 1434h147c21 0 30 -17 25 -33l-455 -1381c-4 -13 -14 -20 -29 -20h-125c-15 0 -25 7 -28 20l-365 992l-362 -992c-4 -13 -14 -20 -29 -20h-125
c-17 0 -26 7 -29 20l-452 1381c-5 16 3 33 22 33h150c17 0 26 -7 27 -21l352 -1098l362 1033c7 15 17 23 31 22h109c12 0 21 -7 28 -22l361 -1047l356 1112c4 13 14 20 29 21z" />
    <glyph glyph-name="wgrave" unicode="&#x1e81;" horiz-adv-x="1644" 
d="M733 1202l-170 324c-11 21 6 45 29 45h123c15 0 24 -7 26 -21l138 -325c11 -21 -5 -39 -29 -39h-90c-14 0 -23 5 -27 16zM1442 1051h133c21 0 28 -10 22 -31l-352 -1000c-4 -13 -13 -20 -28 -20h-117c-15 0 -25 7 -29 20l-254 725l-246 -725c-7 -13 -17 -20 -30 -20h-117
c-15 0 -25 7 -29 20l-346 1000c-4 21 4 31 23 31h133c18 0 29 -8 33 -23l245 -786l252 768c4 17 15 25 33 24h104c17 0 28 -8 33 -24l256 -777l248 795c4 15 15 23 33 23z" />
    <glyph glyph-name="Wacute" unicode="&#x1e82;" horiz-adv-x="2158" 
d="M1145 1575h-92c-21 0 -37 16 -29 39l137 325c5 13 14 20 27 21h123c24 0 40 -24 28 -45l-170 -324c-4 -11 -12 -16 -24 -16zM1907 1434h147c21 0 30 -17 25 -33l-455 -1381c-4 -13 -14 -20 -29 -20h-125c-15 0 -25 7 -28 20l-365 992l-362 -992c-4 -13 -14 -20 -29 -20
h-125c-17 0 -26 7 -29 20l-452 1381c-5 16 3 33 22 33h150c17 0 26 -7 27 -21l352 -1098l362 1033c7 15 17 23 31 22h109c12 0 21 -7 28 -22l361 -1047l356 1112c4 13 14 20 29 21z" />
    <glyph glyph-name="wacute" unicode="&#x1e83;" horiz-adv-x="1644" 
d="M889 1186h-92c-21 0 -37 16 -29 39l137 325c5 13 14 20 27 21h123c24 0 40 -24 28 -45l-170 -324c-4 -11 -12 -16 -24 -16zM1442 1051h133c21 0 28 -10 22 -31l-352 -1000c-4 -13 -13 -20 -28 -20h-117c-15 0 -25 7 -29 20l-254 725l-246 -725c-7 -13 -17 -20 -30 -20
h-117c-15 0 -25 7 -29 20l-346 1000c-4 21 4 31 23 31h133c18 0 29 -8 33 -23l245 -786l252 768c4 17 15 25 33 24h104c17 0 28 -8 33 -24l256 -777l248 795c4 15 15 23 33 23z" />
    <glyph glyph-name="Wdieresis" unicode="&#x1e84;" horiz-adv-x="2158" 
d="M883 1569c-63 0 -113 49 -113 113c0 63 50 112 113 112c60 0 110 -49 110 -112c0 -64 -50 -113 -110 -113zM1356 1602c-44 -43 -116 -43 -160 0c-22 21 -33 48 -33 80c0 31 11 58 33 80c44 42 116 42 160 0c22 -22 33 -49 33 -80c0 -32 -11 -59 -33 -80zM1907 1434h147
c21 0 30 -17 25 -33l-455 -1381c-4 -13 -14 -20 -29 -20h-125c-15 0 -25 7 -28 20l-365 992l-362 -992c-4 -13 -14 -20 -29 -20h-125c-17 0 -26 7 -29 20l-452 1381c-5 16 3 33 22 33h150c17 0 26 -7 27 -21l352 -1098l362 1033c7 15 17 23 31 22h109c12 0 21 -7 28 -22
l361 -1047l356 1112c4 13 14 20 29 21z" />
    <glyph glyph-name="wdieresis" unicode="&#x1e85;" horiz-adv-x="1644" 
d="M705 1213c-44 -44 -112 -44 -157 0c-23 21 -34 48 -34 79s11 58 34 80c45 44 113 44 157 0c21 -22 32 -49 32 -80s-11 -58 -32 -79zM1099 1213c-45 -44 -113 -44 -158 0c-23 21 -34 48 -34 79s11 58 34 80c45 44 113 44 158 0c23 -22 34 -49 34 -80s-11 -58 -34 -79z
M1442 1051h133c21 0 28 -10 22 -31l-352 -1000c-4 -13 -13 -20 -28 -20h-117c-15 0 -25 7 -29 20l-254 725l-246 -725c-7 -13 -17 -20 -30 -20h-117c-15 0 -25 7 -29 20l-346 1000c-4 21 4 31 23 31h133c18 0 29 -8 33 -23l245 -786l252 768c4 17 15 25 33 24h104
c17 0 28 -8 33 -24l256 -777l248 795c4 15 15 23 33 23z" />
    <glyph glyph-name="uni1EA0" unicode="&#x1ea0;" horiz-adv-x="1476" 
d="M834 1413l567 -1380c8 -22 0 -33 -23 -33h-153c-15 0 -25 6 -29 18l-139 338h-627l-149 -338c-4 -12 -14 -18 -29 -18h-156c-23 0 -30 11 -20 33l608 1380c5 12 15 18 29 19h92c15 0 25 -6 29 -19zM997 508l-241 635l-262 -635h503zM685 -193c37 38 101 38 138 0
c36 -38 36 -97 0 -135c-37 -38 -101 -38 -138 0s-37 97 0 135z" />
    <glyph glyph-name="uni1EA1" unicode="&#x1ea1;" horiz-adv-x="1361" 
d="M1069 1051h115c18 0 27 -9 26 -27v-997c0 -18 -9 -27 -26 -27h-115c-13 0 -22 9 -27 27l-14 153c-105 -137 -245 -205 -418 -205c-149 0 -273 51 -373 153c-101 102 -151 234 -151 396c0 164 50 297 151 400c100 102 222 153 367 153c172 0 325 -79 424 -211l14 158
c3 18 12 27 27 27zM651 139c104 0 192 33 264 100c71 66 107 156 107 271c0 116 -36 212 -109 288c-73 75 -163 113 -270 113c-103 0 -189 -36 -258 -107c-69 -72 -104 -165 -104 -280s35 -207 105 -278s158 -107 265 -107zM615 -193c38 38 97 38 135 0s38 -97 0 -135
s-97 -38 -135 0s-38 97 0 135z" />
    <glyph glyph-name="uni1EA2" unicode="&#x1ea2;" horiz-adv-x="1476" 
d="M633 1882c-15 0 -23 7 -23 21v55c0 13 12 28 25 24c159 -21 262 -99 262 -227c0 -79 -44 -148 -133 -205c-15 -9 -26 -6 -31 9l-26 55c-7 11 -4 19 8 26c47 31 70 69 69 113c1 67 -50 110 -151 129zM834 1413l567 -1380c8 -22 0 -33 -23 -33h-153c-15 0 -25 6 -29 18
l-139 338h-627l-149 -338c-4 -12 -14 -18 -29 -18h-156c-23 0 -30 11 -20 33l608 1380c5 12 15 18 29 19h92c15 0 25 -6 29 -19zM997 508l-241 635l-262 -635h503z" />
    <glyph glyph-name="uni1EA3" unicode="&#x1ea3;" horiz-adv-x="1361" 
d="M561 1493c-15 0 -23 7 -22 20v56c0 13 11 27 24 24c159 -21 262 -99 262 -227c0 -79 -44 -148 -133 -205c-15 -9 -25 -7 -30 8l-27 56c-7 11 -4 19 8 26c47 31 70 69 70 113c0 67 -51 110 -152 129zM1069 1051h115c18 0 27 -9 26 -27v-997c0 -18 -9 -27 -26 -27h-115
c-13 0 -22 9 -27 27l-14 153c-105 -137 -245 -205 -418 -205c-149 0 -273 51 -373 153c-101 102 -151 234 -151 396c0 164 50 297 151 400c100 102 222 153 367 153c172 0 325 -79 424 -211l14 158c3 18 12 27 27 27zM651 139c104 0 192 33 264 100c71 66 107 156 107 271
c0 116 -36 212 -109 288c-73 75 -163 113 -270 113c-103 0 -189 -36 -258 -107c-69 -72 -104 -165 -104 -280s35 -207 105 -278s158 -107 265 -107z" />
    <glyph glyph-name="uni1EA4" unicode="&#x1ea4;" horiz-adv-x="1476" 
d="M819 2060h-92c-21 0 -37 18 -29 39l138 326c5 13 14 20 26 20h123c24 0 40 -22 29 -45l-170 -323c-4 -11 -12 -16 -25 -17zM539 1585h-72c-19 0 -32 16 -21 35l240 344c7 11 17 16 31 16h69c17 0 28 -5 33 -14l240 -346c11 -16 1 -35 -19 -35h-73c-21 0 -36 8 -47 23
l-166 211l-166 -211c-11 -15 -27 -23 -49 -23zM834 1413l567 -1380c8 -22 0 -33 -23 -33h-153c-15 0 -25 6 -29 18l-139 338h-627l-149 -338c-4 -12 -14 -18 -29 -18h-156c-23 0 -30 11 -20 33l608 1380c5 12 15 18 29 19h92c15 0 25 -6 29 -19zM997 508l-241 635l-262 -635
h503z" />
    <glyph glyph-name="uni1EA5" unicode="&#x1ea5;" horiz-adv-x="1361" 
d="M748 1671h-93c-21 0 -36 18 -28 39l137 326c5 13 14 20 27 20h122c24 0 40 -22 29 -45l-170 -323c-4 -11 -12 -16 -24 -17zM467 1196h-72c-19 0 -31 16 -20 35l239 344c7 11 17 16 31 16h70c17 0 28 -5 33 -14l239 -346c11 -16 1 -35 -18 -35h-74c-21 0 -36 8 -47 23
l-166 211l-166 -211c-11 -15 -27 -23 -49 -23zM1069 1051h115c18 0 27 -9 26 -27v-997c0 -18 -9 -27 -26 -27h-115c-13 0 -22 9 -27 27l-14 153c-105 -137 -245 -205 -418 -205c-149 0 -273 51 -373 153c-101 102 -151 234 -151 396c0 164 50 297 151 400
c100 102 222 153 367 153c172 0 325 -79 424 -211l14 158c3 18 12 27 27 27zM651 139c104 0 192 33 264 100c71 66 107 156 107 271c0 116 -36 212 -109 288c-73 75 -163 113 -270 113c-103 0 -189 -36 -258 -107c-69 -72 -104 -165 -104 -280s35 -207 105 -278
s158 -107 265 -107z" />
    <glyph glyph-name="uni1EA6" unicode="&#x1ea6;" horiz-adv-x="1476" 
d="M664 2077l-170 323c-11 21 7 45 28 45h123c15 0 24 -7 27 -20l137 -326c11 -21 -4 -39 -29 -39h-90c-13 1 -22 6 -26 17zM539 1585h-72c-19 0 -32 16 -21 35l240 344c7 11 17 16 31 16h69c17 0 28 -5 33 -14l240 -346c11 -16 1 -35 -19 -35h-73c-21 0 -36 8 -47 23
l-166 211l-166 -211c-11 -15 -27 -23 -49 -23zM834 1413l567 -1380c8 -22 0 -33 -23 -33h-153c-15 0 -25 6 -29 18l-139 338h-627l-149 -338c-4 -12 -14 -18 -29 -18h-156c-23 0 -30 11 -20 33l608 1380c5 12 15 18 29 19h92c15 0 25 -6 29 -19zM997 508l-241 635l-262 -635
h503z" />
    <glyph glyph-name="uni1EA7" unicode="&#x1ea7;" horiz-adv-x="1361" 
d="M592 1688l-170 323c-11 21 6 45 29 45h122c15 0 24 -7 27 -20l137 -326c11 -21 -4 -39 -28 -39h-91c-13 1 -22 6 -26 17zM467 1196h-72c-19 0 -31 16 -20 35l239 344c7 11 17 16 31 16h70c17 0 28 -5 33 -14l239 -346c11 -16 1 -35 -18 -35h-74c-21 0 -36 8 -47 23
l-166 211l-166 -211c-11 -15 -27 -23 -49 -23zM1069 1051h115c18 0 27 -9 26 -27v-997c0 -18 -9 -27 -26 -27h-115c-13 0 -22 9 -27 27l-14 153c-105 -137 -245 -205 -418 -205c-149 0 -273 51 -373 153c-101 102 -151 234 -151 396c0 164 50 297 151 400
c100 102 222 153 367 153c172 0 325 -79 424 -211l14 158c3 18 12 27 27 27zM651 139c104 0 192 33 264 100c71 66 107 156 107 271c0 116 -36 212 -109 288c-73 75 -163 113 -270 113c-103 0 -189 -36 -258 -107c-69 -72 -104 -165 -104 -280s35 -207 105 -278
s158 -107 265 -107z" />
    <glyph glyph-name="uni1EA8" unicode="&#x1ea8;" horiz-adv-x="1476" 
d="M633 2367c-15 0 -23 7 -23 21v55c0 13 12 28 25 25c159 -21 262 -99 262 -227c0 -79 -44 -148 -133 -205c-15 -9 -26 -7 -31 8l-26 55c-7 11 -4 20 8 27c47 31 70 69 69 112c1 67 -50 110 -151 129zM539 1585h-72c-19 0 -32 16 -21 35l240 344c7 11 17 16 31 16h69
c17 0 28 -5 33 -14l240 -346c11 -16 1 -35 -19 -35h-73c-21 0 -36 8 -47 23l-166 211l-166 -211c-11 -15 -27 -23 -49 -23zM834 1413l567 -1380c8 -22 0 -33 -23 -33h-153c-15 0 -25 6 -29 18l-139 338h-627l-149 -338c-4 -12 -14 -18 -29 -18h-156c-23 0 -30 11 -20 33
l608 1380c5 12 15 18 29 19h92c15 0 25 -6 29 -19zM997 508l-241 635l-262 -635h503z" />
    <glyph glyph-name="uni1EA9" unicode="&#x1ea9;" horiz-adv-x="1361" 
d="M561 1978c-15 0 -23 7 -22 21v55c0 13 11 28 24 25c159 -21 262 -99 262 -228c0 -79 -44 -147 -133 -204c-15 -9 -25 -7 -30 8l-27 55c-7 11 -4 20 8 27c47 31 70 69 70 112c0 67 -51 110 -152 129zM467 1196h-72c-19 0 -31 16 -20 35l239 344c7 11 17 16 31 16h70
c17 0 28 -5 33 -14l239 -346c11 -16 1 -35 -18 -35h-74c-21 0 -36 8 -47 23l-166 211l-166 -211c-11 -15 -27 -23 -49 -23zM1069 1051h115c18 0 27 -9 26 -27v-997c0 -18 -9 -27 -26 -27h-115c-13 0 -22 9 -27 27l-14 153c-105 -137 -245 -205 -418 -205
c-149 0 -273 51 -373 153c-101 102 -151 234 -151 396c0 164 50 297 151 400c100 102 222 153 367 153c172 0 325 -79 424 -211l14 158c3 18 12 27 27 27zM651 139c104 0 192 33 264 100c71 66 107 156 107 271c0 116 -36 212 -109 288c-73 75 -163 113 -270 113
c-103 0 -189 -36 -258 -107c-69 -72 -104 -165 -104 -280s35 -207 105 -278s158 -107 265 -107z" />
    <glyph glyph-name="uni1EAA" unicode="&#x1eaa;" horiz-adv-x="1476" 
d="M496 2091l-58 27c-11 4 -14 13 -10 26c34 107 93 160 176 160c41 0 91 -17 152 -51c60 -34 102 -51 127 -51c38 0 69 23 94 69c8 17 19 21 33 13l57 -25c11 -4 15 -13 12 -27c-33 -113 -92 -170 -178 -170c-41 0 -91 18 -152 55c-61 36 -103 54 -126 54
c-35 0 -66 -23 -93 -68c-8 -15 -19 -19 -34 -12zM717 1980h69c17 0 28 -5 33 -14l240 -346c11 -16 1 -35 -19 -35h-73c-21 0 -36 8 -47 23l-166 211l-166 -211c-11 -15 -27 -23 -49 -23h-72c-19 0 -32 16 -21 35l240 344c7 11 17 16 31 16zM834 1413l567 -1380
c8 -22 0 -33 -23 -33h-153c-15 0 -25 6 -29 18l-139 338h-627l-149 -338c-4 -12 -14 -18 -29 -18h-156c-23 0 -30 11 -20 33l608 1380c5 12 15 18 29 19h92c15 0 25 -6 29 -19zM997 508l-241 635l-262 -635h503z" />
    <glyph glyph-name="uni1EAB" unicode="&#x1eab;" horiz-adv-x="1361" 
d="M424 1702l-57 27c-11 4 -14 13 -11 26c34 107 93 160 176 160c41 0 91 -17 152 -51c60 -35 102 -52 127 -52c38 0 69 23 94 70c8 17 19 21 33 12l57 -24c11 -4 15 -13 13 -27c-33 -113 -92 -170 -179 -170c-41 0 -91 18 -152 55c-61 36 -103 54 -126 54
c-35 0 -66 -23 -92 -68c-8 -15 -20 -19 -35 -12zM645 1591h70c17 0 28 -5 33 -14l239 -346c11 -16 1 -35 -18 -35h-74c-21 0 -36 8 -47 23l-166 211l-166 -211c-11 -15 -27 -23 -49 -23h-72c-19 0 -31 16 -20 35l239 344c7 11 17 16 31 16zM1069 1051h115c18 0 27 -9 26 -27
v-997c0 -18 -9 -27 -26 -27h-115c-13 0 -22 9 -27 27l-14 153c-105 -137 -245 -205 -418 -205c-149 0 -273 51 -373 153c-101 102 -151 234 -151 396c0 164 50 297 151 400c100 102 222 153 367 153c172 0 325 -79 424 -211l14 158c3 18 12 27 27 27zM651 139
c104 0 192 33 264 100c71 66 107 156 107 271c0 116 -36 212 -109 288c-73 75 -163 113 -270 113c-103 0 -189 -36 -258 -107c-69 -72 -104 -165 -104 -280s35 -207 105 -278s158 -107 265 -107z" />
    <glyph glyph-name="uni1EAC" unicode="&#x1eac;" horiz-adv-x="1476" 
d="M539 1585h-72c-19 0 -32 16 -21 35l240 344c7 11 17 16 31 16h69c17 0 28 -5 33 -14l240 -346c11 -16 1 -35 -19 -35h-73c-21 0 -36 8 -47 23l-166 211l-166 -211c-11 -15 -27 -23 -49 -23zM834 1413l567 -1380c8 -22 0 -33 -23 -33h-153c-15 0 -25 6 -29 18l-139 338
h-627l-149 -338c-4 -12 -14 -18 -29 -18h-156c-23 0 -30 11 -20 33l608 1380c5 12 15 18 29 19h92c15 0 25 -6 29 -19zM997 508l-241 635l-262 -635h503zM685 -193c37 38 101 38 138 0c36 -38 36 -97 0 -135c-37 -38 -101 -38 -138 0s-37 97 0 135z" />
    <glyph glyph-name="uni1EAD" unicode="&#x1ead;" horiz-adv-x="1361" 
d="M467 1196h-72c-19 0 -31 16 -20 35l239 344c7 11 17 16 31 16h70c17 0 28 -5 33 -14l239 -346c11 -16 1 -35 -18 -35h-74c-21 0 -36 8 -47 23l-166 211l-166 -211c-11 -15 -27 -23 -49 -23zM1069 1051h115c18 0 27 -9 26 -27v-997c0 -18 -9 -27 -26 -27h-115
c-13 0 -22 9 -27 27l-14 153c-105 -137 -245 -205 -418 -205c-149 0 -273 51 -373 153c-101 102 -151 234 -151 396c0 164 50 297 151 400c100 102 222 153 367 153c172 0 325 -79 424 -211l14 158c3 18 12 27 27 27zM651 139c104 0 192 33 264 100c71 66 107 156 107 271
c0 116 -36 212 -109 288c-73 75 -163 113 -270 113c-103 0 -189 -36 -258 -107c-69 -72 -104 -165 -104 -280s35 -207 105 -278s158 -107 265 -107zM615 -193c38 38 97 38 135 0s38 -97 0 -135s-97 -38 -135 0s-38 97 0 135z" />
    <glyph glyph-name="uni1EAE" unicode="&#x1eae;" horiz-adv-x="1476" 
d="M819 1982h-92c-21 0 -37 18 -29 39l138 326c5 13 14 20 26 20h123c24 0 40 -22 29 -45l-170 -323c-4 -11 -12 -16 -25 -17zM970 1668c-61 -54 -133 -81 -216 -81s-155 27 -215 82s-94 120 -103 197c-3 25 8 37 31 37h84c17 0 25 -7 24 -21c3 -45 20 -85 53 -120
c32 -35 74 -52 126 -52c51 0 93 18 126 53c32 35 49 74 52 119c3 13 11 20 26 21h82c25 0 35 -13 31 -39c-7 -77 -40 -142 -101 -196zM834 1413l567 -1380c8 -22 0 -33 -23 -33h-153c-15 0 -25 6 -29 18l-139 338h-627l-149 -338c-4 -12 -14 -18 -29 -18h-156
c-23 0 -30 11 -20 33l608 1380c5 12 15 18 29 19h92c15 0 25 -6 29 -19zM997 508l-241 635l-262 -635h503z" />
    <glyph glyph-name="uni1EAF" unicode="&#x1eaf;" horiz-adv-x="1361" 
d="M748 1593h-93c-21 0 -36 18 -28 39l137 326c5 13 14 20 27 20h122c24 0 40 -22 29 -45l-170 -323c-4 -11 -12 -16 -24 -17zM898 1279c-61 -54 -133 -81 -216 -81s-155 27 -215 82s-94 120 -102 197c-3 25 7 37 30 36h84c17 0 25 -7 25 -20c3 -45 20 -85 52 -120
s74 -52 126 -52s94 17 126 52s49 75 52 120c3 13 12 20 27 20h82c25 0 35 -13 30 -38c-7 -77 -40 -142 -101 -196zM1069 1051h115c18 0 27 -9 26 -27v-997c0 -18 -9 -27 -26 -27h-115c-13 0 -22 9 -27 27l-14 153c-105 -137 -245 -205 -418 -205c-149 0 -273 51 -373 153
c-101 102 -151 234 -151 396c0 164 50 297 151 400c100 102 222 153 367 153c172 0 325 -79 424 -211l14 158c3 18 12 27 27 27zM651 139c104 0 192 33 264 100c71 66 107 156 107 271c0 116 -36 212 -109 288c-73 75 -163 113 -270 113c-103 0 -189 -36 -258 -107
c-69 -72 -104 -165 -104 -280s35 -207 105 -278s158 -107 265 -107z" />
    <glyph glyph-name="uni1EB0" unicode="&#x1eb0;" horiz-adv-x="1476" 
d="M664 1999l-170 323c-11 21 7 45 28 45h123c15 0 24 -7 27 -20l137 -326c11 -21 -4 -39 -29 -39h-90c-13 1 -22 6 -26 17zM970 1668c-61 -54 -133 -81 -216 -81s-155 27 -215 82s-94 120 -103 197c-3 25 8 37 31 37h84c17 0 25 -7 24 -21c3 -45 20 -85 53 -120
c32 -35 74 -52 126 -52c51 0 93 18 126 53c32 35 49 74 52 119c3 13 11 20 26 21h82c25 0 35 -13 31 -39c-7 -77 -40 -142 -101 -196zM834 1413l567 -1380c8 -22 0 -33 -23 -33h-153c-15 0 -25 6 -29 18l-139 338h-627l-149 -338c-4 -12 -14 -18 -29 -18h-156
c-23 0 -30 11 -20 33l608 1380c5 12 15 18 29 19h92c15 0 25 -6 29 -19zM997 508l-241 635l-262 -635h503z" />
    <glyph glyph-name="uni1EB1" unicode="&#x1eb1;" horiz-adv-x="1361" 
d="M592 1610l-170 323c-11 21 6 45 29 45h122c15 0 24 -7 27 -20l137 -326c11 -21 -4 -39 -28 -39h-91c-13 1 -22 6 -26 17zM898 1279c-61 -54 -133 -81 -216 -81s-155 27 -215 82s-94 120 -102 197c-3 25 7 37 30 36h84c17 0 25 -7 25 -20c3 -45 20 -85 52 -120
s74 -52 126 -52s94 17 126 52s49 75 52 120c3 13 12 20 27 20h82c25 0 35 -13 30 -38c-7 -77 -40 -142 -101 -196zM1069 1051h115c18 0 27 -9 26 -27v-997c0 -18 -9 -27 -26 -27h-115c-13 0 -22 9 -27 27l-14 153c-105 -137 -245 -205 -418 -205c-149 0 -273 51 -373 153
c-101 102 -151 234 -151 396c0 164 50 297 151 400c100 102 222 153 367 153c172 0 325 -79 424 -211l14 158c3 18 12 27 27 27zM651 139c104 0 192 33 264 100c71 66 107 156 107 271c0 116 -36 212 -109 288c-73 75 -163 113 -270 113c-103 0 -189 -36 -258 -107
c-69 -72 -104 -165 -104 -280s35 -207 105 -278s158 -107 265 -107z" />
    <glyph glyph-name="uni1EB2" unicode="&#x1eb2;" horiz-adv-x="1476" 
d="M633 2290c-15 0 -23 7 -23 20v55c0 13 12 28 25 25c159 -21 262 -99 262 -227c0 -79 -44 -148 -133 -205c-15 -9 -26 -7 -31 8l-26 55c-7 11 -4 20 8 27c47 31 70 69 69 113c1 67 -50 110 -151 129zM970 1668c-61 -54 -133 -81 -216 -81s-155 27 -215 82
s-94 120 -103 197c-3 25 8 37 31 37h84c17 0 25 -7 24 -21c3 -45 20 -85 53 -120c32 -35 74 -52 126 -52c51 0 93 18 126 53c32 35 49 74 52 119c3 13 11 20 26 21h82c25 0 35 -13 31 -39c-7 -77 -40 -142 -101 -196zM834 1413l567 -1380c8 -22 0 -33 -23 -33h-153
c-15 0 -25 6 -29 18l-139 338h-627l-149 -338c-4 -12 -14 -18 -29 -18h-156c-23 0 -30 11 -20 33l608 1380c5 12 15 18 29 19h92c15 0 25 -6 29 -19zM997 508l-241 635l-262 -635h503z" />
    <glyph glyph-name="uni1EB3" unicode="&#x1eb3;" horiz-adv-x="1361" 
d="M561 1901c-15 0 -23 7 -22 20v55c0 13 11 28 24 25c159 -21 262 -99 262 -227c0 -79 -44 -148 -133 -205c-15 -9 -25 -7 -30 8l-27 55c-7 11 -4 20 8 27c47 31 70 69 70 113c0 67 -51 110 -152 129zM898 1279c-61 -54 -133 -81 -216 -81s-155 27 -215 82
s-94 120 -102 197c-3 25 7 37 30 36h84c17 0 25 -7 25 -20c3 -45 20 -85 52 -120s74 -52 126 -52s94 17 126 52s49 75 52 120c3 13 12 20 27 20h82c25 0 35 -13 30 -38c-7 -77 -40 -142 -101 -196zM1069 1051h115c18 0 27 -9 26 -27v-997c0 -18 -9 -27 -26 -27h-115
c-13 0 -22 9 -27 27l-14 153c-105 -137 -245 -205 -418 -205c-149 0 -273 51 -373 153c-101 102 -151 234 -151 396c0 164 50 297 151 400c100 102 222 153 367 153c172 0 325 -79 424 -211l14 158c3 18 12 27 27 27zM651 139c104 0 192 33 264 100c71 66 107 156 107 271
c0 116 -36 212 -109 288c-73 75 -163 113 -270 113c-103 0 -189 -36 -258 -107c-69 -72 -104 -165 -104 -280s35 -207 105 -278s158 -107 265 -107z" />
    <glyph glyph-name="uni1EB4" unicode="&#x1eb4;" horiz-adv-x="1476" 
d="M496 2013l-58 27c-11 4 -14 13 -10 26c34 107 93 160 176 160c41 0 91 -17 152 -51c60 -34 102 -51 127 -51c38 0 69 23 94 69c8 17 19 21 33 13l57 -25c11 -4 15 -13 12 -27c-33 -113 -92 -170 -178 -169c-41 0 -91 18 -152 54s-103 54 -126 54c-35 0 -66 -23 -93 -68
c-8 -15 -19 -19 -34 -12zM958 1903h82c25 0 35 -13 31 -39c-7 -77 -40 -142 -101 -196s-133 -81 -216 -81s-155 27 -215 82s-94 120 -103 197c-3 25 8 37 31 37h84c17 0 25 -7 24 -21c3 -45 20 -85 53 -120c32 -35 74 -52 126 -52c51 0 93 18 126 53c32 35 49 74 52 119
c2 14 11 21 26 21zM834 1413l567 -1380c8 -22 0 -33 -23 -33h-153c-15 0 -25 6 -29 18l-139 338h-627l-149 -338c-4 -12 -14 -18 -29 -18h-156c-23 0 -30 11 -20 33l608 1380c5 12 15 18 29 19h92c15 0 25 -6 29 -19zM997 508l-241 635l-262 -635h503z" />
    <glyph glyph-name="uni1EB5" unicode="&#x1eb5;" horiz-adv-x="1361" 
d="M424 1624l-57 27c-11 4 -14 13 -11 26c34 107 93 160 176 160c41 0 91 -17 152 -51c60 -34 102 -51 127 -51c38 0 69 23 94 69c8 17 19 21 33 13l57 -25c11 -4 15 -13 13 -27c-33 -113 -92 -170 -179 -170c-41 0 -91 18 -152 55c-61 36 -103 54 -126 54
c-35 0 -66 -23 -92 -68c-8 -15 -20 -19 -35 -12zM887 1513h82c25 0 35 -13 30 -38c-7 -77 -40 -142 -101 -196s-133 -81 -216 -81s-155 27 -215 82s-94 120 -102 197c-3 25 7 37 30 36h84c17 0 25 -7 25 -20c3 -45 20 -85 52 -120s74 -52 126 -52s94 17 126 52s49 75 52 120
c3 13 12 20 27 20zM1069 1051h115c18 0 27 -9 26 -27v-997c0 -18 -9 -27 -26 -27h-115c-13 0 -22 9 -27 27l-14 153c-105 -137 -245 -205 -418 -205c-149 0 -273 51 -373 153c-101 102 -151 234 -151 396c0 164 50 297 151 400c100 102 222 153 367 153
c172 0 325 -79 424 -211l14 158c3 18 12 27 27 27zM651 139c104 0 192 33 264 100c71 66 107 156 107 271c0 116 -36 212 -109 288c-73 75 -163 113 -270 113c-103 0 -189 -36 -258 -107c-69 -72 -104 -165 -104 -280s35 -207 105 -278s158 -107 265 -107z" />
    <glyph glyph-name="uni1EB6" unicode="&#x1eb6;" horiz-adv-x="1476" 
d="M970 1668c-61 -54 -133 -81 -216 -81s-155 27 -215 82s-94 120 -103 197c-3 25 8 37 31 37h84c17 0 25 -7 24 -21c3 -45 20 -85 53 -120c32 -35 74 -52 126 -52c51 0 93 18 126 53c32 35 49 74 52 119c3 13 11 20 26 21h82c25 0 35 -13 31 -39c-7 -77 -40 -142 -101 -196
zM834 1413l567 -1380c8 -22 0 -33 -23 -33h-153c-15 0 -25 6 -29 18l-139 338h-627l-149 -338c-4 -12 -14 -18 -29 -18h-156c-23 0 -30 11 -20 33l608 1380c5 12 15 18 29 19h92c15 0 25 -6 29 -19zM997 508l-241 635l-262 -635h503zM685 -193c37 38 101 38 138 0
c36 -38 36 -97 0 -135c-37 -38 -101 -38 -138 0s-37 97 0 135z" />
    <glyph glyph-name="uni1EB7" unicode="&#x1eb7;" horiz-adv-x="1361" 
d="M898 1279c-61 -54 -133 -81 -216 -81s-155 27 -215 82s-94 120 -102 197c-3 25 7 37 30 36h84c17 0 25 -7 25 -20c3 -45 20 -85 52 -120s74 -52 126 -52s94 17 126 52s49 75 52 120c3 13 12 20 27 20h82c25 0 35 -13 30 -38c-7 -77 -40 -142 -101 -196zM1069 1051h115
c18 0 27 -9 26 -27v-997c0 -18 -9 -27 -26 -27h-115c-13 0 -22 9 -27 27l-14 153c-105 -137 -245 -205 -418 -205c-149 0 -273 51 -373 153c-101 102 -151 234 -151 396c0 164 50 297 151 400c100 102 222 153 367 153c172 0 325 -79 424 -211l14 158c3 18 12 27 27 27z
M651 139c104 0 192 33 264 100c71 66 107 156 107 271c0 116 -36 212 -109 288c-73 75 -163 113 -270 113c-103 0 -189 -36 -258 -107c-69 -72 -104 -165 -104 -280s35 -207 105 -278s158 -107 265 -107zM615 -193c38 38 97 38 135 0s38 -97 0 -135s-97 -38 -135 0
s-38 97 0 135z" />
    <glyph glyph-name="uni1EB8" unicode="&#x1eb8;" horiz-adv-x="1345" 
d="M389 184h832c18 0 27 -9 26 -26v-131c0 -18 -9 -27 -26 -27h-1004c-18 0 -27 9 -27 27v1380c0 18 9 27 27 27h995c18 0 27 -9 27 -27v-131c0 -18 -9 -27 -27 -27h-823v-448h698c18 0 27 -9 27 -27v-102c0 -18 -9 -27 -27 -27h-698v-461zM649 -193c36 38 100 38 137 0
c36 -38 36 -97 0 -135c-37 -38 -101 -38 -137 0c-37 38 -37 97 0 135z" />
    <glyph glyph-name="uni1EB9" unicode="&#x1eb9;" horiz-adv-x="1210" 
d="M608 1077c150 0 274 -51 372 -154c97 -103 146 -236 146 -397c0 -13 -1 -26 -2 -37c-1 -17 -11 -25 -28 -24h-830c9 -103 49 -183 118 -240s158 -86 267 -86c79 0 144 16 195 47s97 77 139 138c12 12 25 13 39 2l76 -80c11 -13 10 -28 -2 -43
c-99 -145 -270 -228 -463 -228c-160 0 -292 52 -395 155c-104 103 -156 234 -156 392c0 155 49 287 148 394c98 107 223 161 376 161zM844 833c-61 52 -138 78 -229 78c-92 0 -169 -26 -232 -78c-63 -53 -101 -126 -115 -219h684c-11 94 -47 167 -108 219zM566 -193
c38 38 97 38 135 0s38 -97 0 -135s-97 -38 -135 0s-38 97 0 135z" />
    <glyph glyph-name="uni1EBA" unicode="&#x1eba;" horiz-adv-x="1345" 
d="M596 1882c-15 0 -23 7 -23 21v55c0 13 12 28 25 24c159 -21 262 -99 262 -227c0 -79 -44 -148 -133 -205c-15 -9 -26 -6 -31 9l-26 55c-7 11 -4 19 8 26c47 31 70 69 70 113c0 67 -51 110 -152 129zM389 184h832c18 0 27 -9 26 -26v-131c0 -18 -9 -27 -26 -27h-1004
c-18 0 -27 9 -27 27v1380c0 18 9 27 27 27h995c18 0 27 -9 27 -27v-131c0 -18 -9 -27 -27 -27h-823v-448h698c18 0 27 -9 27 -27v-102c0 -18 -9 -27 -27 -27h-698v-461z" />
    <glyph glyph-name="uni1EBB" unicode="&#x1ebb;" horiz-adv-x="1210" 
d="M494 1493c-15 0 -23 7 -23 20v56c0 13 10 27 25 24c159 -21 262 -99 262 -227c0 -79 -44 -148 -133 -205c-15 -9 -26 -7 -31 8l-27 56c-7 11 -4 19 8 26c47 31 70 69 70 113c1 67 -50 110 -151 129zM608 1077c150 0 274 -51 372 -154c97 -103 146 -236 146 -397
c0 -13 -1 -26 -2 -37c-1 -17 -11 -25 -28 -24h-830c9 -103 49 -183 118 -240s158 -86 267 -86c79 0 144 16 195 47s97 77 139 138c12 12 25 13 39 2l76 -80c11 -13 10 -28 -2 -43c-99 -145 -270 -228 -463 -228c-160 0 -292 52 -395 155c-104 103 -156 234 -156 392
c0 155 49 287 148 394c98 107 223 161 376 161zM844 833c-61 52 -138 78 -229 78c-92 0 -169 -26 -232 -78c-63 -53 -101 -126 -115 -219h684c-11 94 -47 167 -108 219z" />
    <glyph glyph-name="uni1EBC" unicode="&#x1ebc;" horiz-adv-x="1345" 
d="M459 1606l-58 26c-11 4 -14 13 -10 27c34 107 93 160 176 160c41 0 91 -17 152 -51c60 -35 102 -52 127 -52c38 0 69 23 94 70c8 17 19 21 33 12l57 -24c11 -4 15 -13 12 -27c-33 -113 -92 -170 -178 -170c-41 0 -91 18 -152 55c-61 36 -103 54 -126 54
c-35 0 -66 -23 -92 -68c-8 -15 -20 -19 -35 -12zM389 184h832c18 0 27 -9 26 -26v-131c0 -18 -9 -27 -26 -27h-1004c-18 0 -27 9 -27 27v1380c0 18 9 27 27 27h995c18 0 27 -9 27 -27v-131c0 -18 -9 -27 -27 -27h-823v-448h698c18 0 27 -9 27 -27v-102c0 -18 -9 -27 -27 -27
h-698v-461z" />
    <glyph glyph-name="uni1EBD" unicode="&#x1ebd;" horiz-adv-x="1210" 
d="M356 1217l-57 26c-11 4 -14 13 -10 27c34 107 93 160 176 160c41 0 91 -17 152 -51c60 -35 102 -52 126 -52c38 0 70 23 95 70c8 17 19 21 32 12l58 -25c11 -4 15 -13 12 -26c-33 -113 -92 -170 -178 -170c-41 0 -91 18 -152 54s-104 54 -127 54c-35 0 -66 -22 -92 -67
c-8 -15 -20 -19 -35 -12zM608 1077c150 0 274 -51 372 -154c97 -103 146 -236 146 -397c0 -13 -1 -26 -2 -37c-1 -17 -11 -25 -28 -24h-830c9 -103 49 -183 118 -240s158 -86 267 -86c79 0 144 16 195 47s97 77 139 138c12 12 25 13 39 2l76 -80c11 -13 10 -28 -2 -43
c-99 -145 -270 -228 -463 -228c-160 0 -292 52 -395 155c-104 103 -156 234 -156 392c0 155 49 287 148 394c98 107 223 161 376 161zM844 833c-61 52 -138 78 -229 78c-92 0 -169 -26 -232 -78c-63 -53 -101 -126 -115 -219h684c-11 94 -47 167 -108 219z" />
    <glyph glyph-name="uni1EBE" unicode="&#x1ebe;" horiz-adv-x="1345" 
d="M782 2060h-92c-21 0 -37 18 -28 39l137 326c5 13 14 20 26 20h123c24 0 40 -22 29 -45l-170 -323c-4 -11 -12 -16 -25 -17zM502 1585h-72c-19 0 -32 16 -20 35l239 344c7 11 17 16 31 16h70c17 0 27 -5 32 -14l240 -346c11 -16 1 -35 -18 -35h-74c-21 0 -36 8 -47 23
l-166 211l-166 -211c-11 -15 -27 -23 -49 -23zM389 184h832c18 0 27 -9 26 -26v-131c0 -18 -9 -27 -26 -27h-1004c-18 0 -27 9 -27 27v1380c0 18 9 27 27 27h995c18 0 27 -9 27 -27v-131c0 -18 -9 -27 -27 -27h-823v-448h698c18 0 27 -9 27 -27v-102c0 -18 -9 -27 -27 -27
h-698v-461z" />
    <glyph glyph-name="uni1EBF" unicode="&#x1ebf;" horiz-adv-x="1210" 
d="M680 1671h-92c-21 0 -37 18 -29 39l137 326c5 13 14 20 27 20h123c24 0 40 -22 28 -45l-169 -323c-4 -11 -12 -16 -25 -17zM399 1196h-71c-19 0 -32 16 -21 35l240 344c7 11 17 16 31 16h69c17 0 28 -5 33 -14l240 -346c11 -16 0 -35 -19 -35h-74c-21 0 -36 8 -47 23
l-166 211l-165 -211c-11 -15 -27 -23 -50 -23zM608 1077c150 0 274 -51 372 -154c97 -103 146 -236 146 -397c0 -13 -1 -26 -2 -37c-1 -17 -11 -25 -28 -24h-830c9 -103 49 -183 118 -240s158 -86 267 -86c79 0 144 16 195 47s97 77 139 138c12 12 25 13 39 2l76 -80
c11 -13 10 -28 -2 -43c-99 -145 -270 -228 -463 -228c-160 0 -292 52 -395 155c-104 103 -156 234 -156 392c0 155 49 287 148 394c98 107 223 161 376 161zM844 833c-61 52 -138 78 -229 78c-92 0 -169 -26 -232 -78c-63 -53 -101 -126 -115 -219h684
c-11 94 -47 167 -108 219z" />
    <glyph glyph-name="uni1EC0" unicode="&#x1ec0;" horiz-adv-x="1345" 
d="M627 2077l-170 323c-11 21 7 45 28 45h123c15 0 24 -7 27 -20l137 -326c11 -21 -4 -39 -29 -39h-90c-13 1 -22 6 -26 17zM502 1585h-72c-19 0 -32 16 -20 35l239 344c7 11 17 16 31 16h70c17 0 27 -5 32 -14l240 -346c11 -16 1 -35 -18 -35h-74c-21 0 -36 8 -47 23
l-166 211l-166 -211c-11 -15 -27 -23 -49 -23zM389 184h832c18 0 27 -9 26 -26v-131c0 -18 -9 -27 -26 -27h-1004c-18 0 -27 9 -27 27v1380c0 18 9 27 27 27h995c18 0 27 -9 27 -27v-131c0 -18 -9 -27 -27 -27h-823v-448h698c18 0 27 -9 27 -27v-102c0 -18 -9 -27 -27 -27
h-698v-461z" />
    <glyph glyph-name="uni1EC1" unicode="&#x1ec1;" horiz-adv-x="1210" 
d="M524 1688l-170 323c-11 21 8 45 29 45h123c15 0 24 -7 26 -20l138 -326c11 -21 -5 -39 -29 -39h-90c-14 1 -23 6 -27 17zM399 1196h-71c-19 0 -32 16 -21 35l240 344c7 11 17 16 31 16h69c17 0 28 -5 33 -14l240 -346c11 -16 0 -35 -19 -35h-74c-21 0 -36 8 -47 23
l-166 211l-165 -211c-11 -15 -27 -23 -50 -23zM608 1077c150 0 274 -51 372 -154c97 -103 146 -236 146 -397c0 -13 -1 -26 -2 -37c-1 -17 -11 -25 -28 -24h-830c9 -103 49 -183 118 -240s158 -86 267 -86c79 0 144 16 195 47s97 77 139 138c12 12 25 13 39 2l76 -80
c11 -13 10 -28 -2 -43c-99 -145 -270 -228 -463 -228c-160 0 -292 52 -395 155c-104 103 -156 234 -156 392c0 155 49 287 148 394c98 107 223 161 376 161zM844 833c-61 52 -138 78 -229 78c-92 0 -169 -26 -232 -78c-63 -53 -101 -126 -115 -219h684
c-11 94 -47 167 -108 219z" />
    <glyph glyph-name="uni1EC2" unicode="&#x1ec2;" horiz-adv-x="1345" 
d="M596 2367c-15 0 -23 7 -23 21v55c0 13 12 28 25 25c159 -21 262 -99 262 -227c0 -79 -44 -148 -133 -205c-15 -9 -26 -7 -31 8l-26 55c-7 11 -4 20 8 27c47 31 70 69 70 112c0 67 -51 110 -152 129zM502 1585h-72c-19 0 -32 16 -20 35l239 344c7 11 17 16 31 16h70
c17 0 27 -5 32 -14l240 -346c11 -16 1 -35 -18 -35h-74c-21 0 -36 8 -47 23l-166 211l-166 -211c-11 -15 -27 -23 -49 -23zM389 184h832c18 0 27 -9 26 -26v-131c0 -18 -9 -27 -26 -27h-1004c-18 0 -27 9 -27 27v1380c0 18 9 27 27 27h995c18 0 27 -9 27 -27v-131
c0 -18 -9 -27 -27 -27h-823v-448h698c18 0 27 -9 27 -27v-102c0 -18 -9 -27 -27 -27h-698v-461z" />
    <glyph glyph-name="uni1EC3" unicode="&#x1ec3;" horiz-adv-x="1210" 
d="M494 1978c-15 0 -23 7 -23 21v55c0 13 10 28 25 25c159 -21 262 -99 262 -228c0 -79 -44 -147 -133 -204c-15 -9 -26 -7 -31 8l-27 55c-7 11 -4 20 8 27c47 31 70 69 70 112c1 67 -50 110 -151 129zM399 1196h-71c-19 0 -32 16 -21 35l240 344c7 11 17 16 31 16h69
c17 0 28 -5 33 -14l240 -346c11 -16 0 -35 -19 -35h-74c-21 0 -36 8 -47 23l-166 211l-165 -211c-11 -15 -27 -23 -50 -23zM608 1077c150 0 274 -51 372 -154c97 -103 146 -236 146 -397c0 -13 -1 -26 -2 -37c-1 -17 -11 -25 -28 -24h-830c9 -103 49 -183 118 -240
s158 -86 267 -86c79 0 144 16 195 47s97 77 139 138c12 12 25 13 39 2l76 -80c11 -13 10 -28 -2 -43c-99 -145 -270 -228 -463 -228c-160 0 -292 52 -395 155c-104 103 -156 234 -156 392c0 155 49 287 148 394c98 107 223 161 376 161zM844 833c-61 52 -138 78 -229 78
c-92 0 -169 -26 -232 -78c-63 -53 -101 -126 -115 -219h684c-11 94 -47 167 -108 219z" />
    <glyph glyph-name="uni1EC4" unicode="&#x1ec4;" horiz-adv-x="1345" 
d="M459 2091l-58 27c-11 4 -14 13 -10 26c34 107 93 160 176 160c41 0 91 -17 152 -51c60 -34 102 -51 127 -51c38 0 69 23 94 69c8 17 19 21 33 13l57 -25c11 -4 15 -13 12 -27c-33 -113 -92 -170 -178 -170c-41 0 -91 18 -152 55c-61 36 -103 54 -126 54
c-35 0 -66 -23 -92 -68c-8 -15 -20 -19 -35 -12zM680 1980h70c17 0 27 -5 32 -14l240 -346c11 -16 1 -35 -18 -35h-74c-21 0 -36 8 -47 23l-166 211l-166 -211c-11 -15 -27 -23 -49 -23h-72c-19 0 -32 16 -20 35l239 344c7 11 17 16 31 16zM389 184h832c18 0 27 -9 26 -26
v-131c0 -18 -9 -27 -26 -27h-1004c-18 0 -27 9 -27 27v1380c0 18 9 27 27 27h995c18 0 27 -9 27 -27v-131c0 -18 -9 -27 -27 -27h-823v-448h698c18 0 27 -9 27 -27v-102c0 -18 -9 -27 -27 -27h-698v-461z" />
    <glyph glyph-name="uni1EC5" unicode="&#x1ec5;" horiz-adv-x="1210" 
d="M356 1702l-57 27c-11 4 -14 13 -10 26c34 107 93 160 176 160c41 0 91 -17 152 -51c60 -35 102 -52 126 -52c38 0 70 23 95 70c8 17 19 21 32 12l58 -24c11 -4 15 -13 12 -27c-33 -113 -92 -170 -178 -170c-41 0 -91 18 -152 55c-61 36 -104 54 -127 54
c-35 0 -66 -23 -92 -68c-8 -15 -20 -19 -35 -12zM578 1591h69c17 0 28 -5 33 -14l240 -346c11 -16 0 -35 -19 -35h-74c-21 0 -36 8 -47 23l-166 211l-165 -211c-11 -15 -27 -23 -50 -23h-71c-19 0 -32 16 -21 35l240 344c7 11 17 16 31 16zM608 1077c150 0 274 -51 372 -154
c97 -103 146 -236 146 -397c0 -13 -1 -26 -2 -37c-1 -17 -11 -25 -28 -24h-830c9 -103 49 -183 118 -240s158 -86 267 -86c79 0 144 16 195 47s97 77 139 138c12 12 25 13 39 2l76 -80c11 -13 10 -28 -2 -43c-99 -145 -270 -228 -463 -228c-160 0 -292 52 -395 155
c-104 103 -156 234 -156 392c0 155 49 287 148 394c98 107 223 161 376 161zM844 833c-61 52 -138 78 -229 78c-92 0 -169 -26 -232 -78c-63 -53 -101 -126 -115 -219h684c-11 94 -47 167 -108 219z" />
    <glyph glyph-name="uni1EC6" unicode="&#x1ec6;" horiz-adv-x="1345" 
d="M502 1585h-72c-19 0 -32 16 -20 35l239 344c7 11 17 16 31 16h70c17 0 27 -5 32 -14l240 -346c11 -16 1 -35 -18 -35h-74c-21 0 -36 8 -47 23l-166 211l-166 -211c-11 -15 -27 -23 -49 -23zM389 184h832c18 0 27 -9 26 -26v-131c0 -18 -9 -27 -26 -27h-1004
c-18 0 -27 9 -27 27v1380c0 18 9 27 27 27h995c18 0 27 -9 27 -27v-131c0 -18 -9 -27 -27 -27h-823v-448h698c18 0 27 -9 27 -27v-102c0 -18 -9 -27 -27 -27h-698v-461zM649 -193c36 38 100 38 137 0c36 -38 36 -97 0 -135c-37 -38 -101 -38 -137 0c-37 38 -37 97 0 135z
" />
    <glyph glyph-name="uni1EC7" unicode="&#x1ec7;" horiz-adv-x="1210" 
d="M399 1196h-71c-19 0 -32 16 -21 35l240 344c7 11 17 16 31 16h69c17 0 28 -5 33 -14l240 -346c11 -16 0 -35 -19 -35h-74c-21 0 -36 8 -47 23l-166 211l-165 -211c-11 -15 -27 -23 -50 -23zM608 1077c150 0 274 -51 372 -154c97 -103 146 -236 146 -397
c0 -13 -1 -26 -2 -37c-1 -17 -11 -25 -28 -24h-830c9 -103 49 -183 118 -240s158 -86 267 -86c79 0 144 16 195 47s97 77 139 138c12 12 25 13 39 2l76 -80c11 -13 10 -28 -2 -43c-99 -145 -270 -228 -463 -228c-160 0 -292 52 -395 155c-104 103 -156 234 -156 392
c0 155 49 287 148 394c98 107 223 161 376 161zM844 833c-61 52 -138 78 -229 78c-92 0 -169 -26 -232 -78c-63 -53 -101 -126 -115 -219h684c-11 94 -47 167 -108 219zM566 -193c38 38 97 38 135 0s38 -97 0 -135s-97 -38 -135 0s-38 97 0 135z" />
    <glyph glyph-name="uni1EC8" unicode="&#x1ec8;" horiz-adv-x="579" 
d="M145 1903v55c0 13 12 28 25 24c159 -21 262 -99 262 -227c0 -79 -44 -148 -133 -205c-15 -9 -26 -6 -31 9l-26 55c-7 11 -4 19 8 26c47 31 70 69 69 113c0 67 -50 110 -151 129c-15 0 -23 7 -23 21zM362 0h-145c-18 0 -27 9 -27 27v1380c0 18 9 27 27 27h145
c18 0 27 -9 27 -27v-1380c0 -18 -9 -27 -27 -27z" />
    <glyph glyph-name="uni1EC9" unicode="&#x1ec9;" horiz-adv-x="503" 
d="M109 1513v56c0 13 11 27 24 24c159 -21 262 -99 262 -227c0 -79 -44 -148 -133 -205c-15 -9 -26 -7 -31 8l-26 56c-7 11 -4 19 8 26c47 31 70 69 70 113c0 67 -51 110 -152 129c-15 0 -23 7 -22 20zM326 0h-148c-18 0 -27 9 -26 27v997c0 18 9 27 26 27h148
c18 0 27 -9 26 -27v-997c0 -18 -9 -27 -26 -27z" />
    <glyph glyph-name="uni1ECA" unicode="&#x1eca;" horiz-adv-x="579" 
d="M362 0h-145c-18 0 -27 9 -27 27v1380c0 18 9 27 27 27h145c18 0 27 -9 27 -27v-1380c0 -18 -9 -27 -27 -27zM357 -328c-38 -38 -97 -38 -135 0s-38 97 0 135s97 38 135 0s38 -97 0 -135z" />
    </font>
</defs>
</svg>
