<svg xmlns="http://www.w3.org/2000/svg">
<defs>
<font id="JTMarnie-Bold" horiz-adv-x="0" >
  <font-face 
    font-family="JT Marnie"
    font-weight="700"
    font-stretch="normal"
    units-per-em="2048"
    panose-1="0 0 8 0 0 0 0 0 0 0"
    ascent="1638"
    descent="-410"
    x-height="1069"
    cap-height="1434"
    bbox="-1028 -731.709 2505 2533.36"
    underline-thickness="0"
    underline-position="0"
    stemh="221"
    stemv="125"
    unicode-range="U+0020-F8FF"
  />
<missing-glyph horiz-adv-x="1468" 
d="M119 948c0 41 35 76 76 76c40 0 75 -35 75 -76c0 -44 -35 -78 -75 -78c-41 0 -76 34 -76 78zM700 813v-336c0 -11 -5 -16 -16 -16h-102c-9 0 -16 5 -19 16l-4 25c-29 -34 -63 -51 -102 -51c-41 0 -77 17 -110 51s-50 81 -50 141c0 61 16 109 48 144c32 34 68 51 108 51
c38 0 74 -16 108 -47l2 22c3 11 9 16 19 16h102c11 0 16 -5 16 -16zM1386 662v-185c0 -11 -6 -16 -18 -16h-100c-12 0 -18 5 -19 16v185c0 33 -17 49 -51 49c-41 0 -61 -25 -61 -76v-158c0 -11 -6 -16 -17 -16h-104c-11 0 -16 5 -17 16v185c0 33 -17 49 -51 49
c-39 0 -60 -25 -61 -76v-158c0 -11 -6 -16 -19 -16h-100c-12 0 -18 5 -18 16v336c0 11 6 16 18 16h100c9 0 16 -5 19 -16l4 -20c33 30 68 45 106 45c52 0 91 -25 117 -74c34 49 78 74 133 74c39 0 72 -16 99 -49s40 -75 40 -127zM102 322l-28 73c-5 8 -1 16 12 23
c27 13 41 35 41 65v330c0 11 5 16 16 16h103c11 0 16 -5 16 -16v-330c0 -42 -13 -81 -39 -116c-26 -36 -60 -55 -102 -58c-10 -1 -16 4 -19 13zM573 645c0 55 -26 82 -77 82c-52 0 -78 -27 -78 -82c0 -57 34 -84 78 -84c51 0 77 28 77 84zM461 94c-12 -5 -26 -8 -41 -8
c-47 0 -70 27 -70 80v162h-35c-3 0 -4 1 -4 2v14c0 3 1 4 4 4h35v76c0 3 1 4 2 4h19c3 0 4 -1 4 -4v-76h82c3 0 4 -1 4 -4v-14c0 -1 -1 -2 -4 -2h-82v-162c0 -39 16 -59 49 -60c13 0 24 2 33 7c3 3 4 2 4 -2l4 -11c0 -4 -1 -6 -4 -6zM1046 317c26 -25 39 -57 39 -95
c0 -39 -13 -71 -38 -97c-26 -26 -57 -39 -93 -39c-52 0 -91 24 -116 72v-154c0 -3 -1 -4 -2 -4h-19c-3 0 -4 1 -4 4v342c0 1 1 2 4 2h12c4 0 6 -1 7 -2l4 -55c22 42 60 63 114 63c35 0 66 -12 92 -37zM1397 223v-12c0 -1 -1 -2 -4 -2h-228c5 -60 50 -103 113 -103

<glyph glyph-name="f_f.liga" unicode="ff" horiz-adv-x="1519" 
d="M1315 1311c-97 0 -145 -56 -146 -168v-74h281c26 0 39 -13 39 -39v-164c0 -26 -13 -39 -39 -39h-281v-788c0 -26 -13 -39 -39 -39h-219c-26 0 -39 13 -39 39v788h-380v-788c0 -26 -13 -39 -39 -39h-222c-26 0 -39 13 -38 39v788h-123c-26 0 -39 13 -39 39v164
c0 26 13 39 39 39h123v47c0 281 112 420 385 420c119 0 248 -33 389 -100c60 67 153 100 280 100c89 0 172 -13 250 -39c26 -8 34 -24 25 -49l-56 -131c-8 -23 -25 -31 -51 -23c-38 11 -71 17 -100 17zM492 1069h380v47c0 47 4 92 11 137c-90 45 -167 68 -230 68
c-109 0 -161 -69 -161 -178v-74z" />
    <glyph glyph-name="f_f_i.liga" unicode="ffi" horiz-adv-x="2111" 
d="M1948 1299c-35 -35 -76 -52 -123 -52c-48 0 -89 17 -124 52c-35 34 -52 75 -52 123c0 47 17 88 52 123s76 52 124 52c47 0 88 -17 123 -52c34 -35 51 -76 51 -123c0 -48 -17 -89 -51 -123zM1169 1069h766c26 0 39 -13 39 -39v-991c0 -26 -13 -39 -39 -39h-223
c-26 0 -39 13 -39 39v788h-504v-788c0 -26 -13 -39 -39 -39h-219c-26 0 -39 13 -39 39v788h-380v-788c0 -26 -13 -39 -39 -39h-222c-26 0 -39 13 -38 39v788h-123c-26 0 -39 13 -39 39v164c0 26 13 39 39 39h123v47c0 281 112 420 385 420c119 0 248 -33 389 -100
c60 67 153 100 280 100c89 0 172 -13 250 -39c26 -8 34 -24 25 -49l-56 -131c-8 -23 -25 -31 -51 -23c-38 11 -71 16 -100 17c-97 0 -145 -56 -146 -168v-74zM492 1069h380v47c0 47 4 92 11 137c-90 45 -167 68 -230 68c-109 0 -161 -69 -161 -178v-74z" />
    <glyph glyph-name="f_j.liga" unicode="fj" horiz-adv-x="1433" 
d="M1268 1299c-34 -35 -75 -52 -123 -52s-89 17 -123 52c-34 34 -51 75 -51 123c0 47 17 88 51 123s75 52 123 52s89 -17 123 -52s51 -76 51 -123c0 -48 -17 -89 -51 -123zM492 1069h763c26 0 39 -13 39 -39v-1003c0 -121 -35 -227 -106 -318c-67 -83 -151 -130 -252 -139
c-31 0 -51 10 -59 31l-56 161c-8 25 4 42 35 52c39 13 71 37 96 71c27 38 41 87 41 148v794h-501v-788c0 -26 -13 -39 -39 -39h-222c-26 0 -39 13 -38 39v788h-123c-26 0 -39 13 -39 39v164c0 26 13 39 39 39h123v47c0 276 115 420 376 420c87 0 171 -13 250 -39
c25 -8 32 -24 23 -49l-54 -131c-8 -23 -26 -31 -53 -23c-37 11 -70 16 -100 17c-95 0 -143 -56 -143 -168v-74z" />
    <glyph glyph-name="f_t.liga" unicode="ft" horiz-adv-x="1732" 
d="M1628 213l51 -129c9 -22 3 -39 -18 -51c-74 -37 -159 -55 -256 -56c-263 0 -369 146 -369 435v415h-544v-788c0 -26 -13 -39 -39 -39h-222c-26 0 -39 13 -38 39v788h-123c-26 0 -39 13 -39 39v164c0 26 13 39 39 39h123v47c0 276 115 420 376 420c87 0 171 -13 250 -39
c25 -8 32 -24 23 -49l-54 -131c-8 -23 -26 -31 -53 -23c-37 11 -70 16 -100 17c-95 0 -143 -56 -143 -168v-74h544v238c0 26 13 39 39 39h219c26 0 39 -13 39 -39v-238h275c26 0 39 -13 39 -39v-164c0 -26 -13 -39 -39 -39h-275v-442c0 -125 53 -166 152 -166
c31 0 63 6 94 17c25 7 41 -1 49 -23z" />
    <glyph glyph-name="f_i.liga" unicode="fi" horiz-adv-x="1431" 
d="M1268 1299c-34 -35 -75 -52 -123 -52s-89 17 -123 52c-34 34 -51 75 -51 123c0 47 17 88 51 123s75 52 123 52s89 -17 123 -52s51 -76 51 -123c0 -48 -17 -89 -51 -123zM492 1069h763c26 0 39 -13 39 -39v-991c0 -26 -13 -39 -39 -39h-223c-26 0 -39 13 -39 39v788h-501
v-788c0 -26 -13 -39 -39 -39h-222c-26 0 -39 13 -38 39v788h-123c-26 0 -39 13 -39 39v164c0 26 13 39 39 39h123v47c0 276 115 420 376 420c87 0 171 -13 250 -39c25 -8 32 -24 23 -49l-54 -131c-8 -23 -26 -31 -53 -23c-37 11 -70 16 -100 17c-95 0 -143 -56 -143 -168
v-74z" />
    <glyph glyph-name="f_l.liga" unicode="fl" horiz-adv-x="1269" 
d="M586 1536c168 0 349 -57 544 -172v-1325c0 -26 -13 -39 -38 -39h-224c-26 0 -39 13 -39 39v1245c-57 25 -113 37 -167 37c-113 0 -170 -59 -170 -178v-74h176c26 0 39 -13 39 -39v-164c0 -26 -13 -39 -39 -39h-176v-788c0 -26 -13 -39 -39 -39h-222c-26 0 -39 13 -38 39
v788h-123c-26 0 -39 13 -39 39v164c0 26 13 39 39 39h123v47c0 149 32 256 95 322c63 65 163 98 298 98z" />
    <glyph glyph-name=".notdef" horiz-adv-x="1468" 
d="M119 948c0 41 35 76 76 76c40 0 75 -35 75 -76c0 -44 -35 -78 -75 -78c-41 0 -76 34 -76 78zM700 813v-336c0 -11 -5 -16 -16 -16h-102c-9 0 -16 5 -19 16l-4 25c-29 -34 -63 -51 -102 -51c-41 0 -77 17 -110 51s-50 81 -50 141c0 61 16 109 48 144c32 34 68 51 108 51
c38 0 74 -16 108 -47l2 22c3 11 9 16 19 16h102c11 0 16 -5 16 -16zM1386 662v-185c0 -11 -6 -16 -18 -16h-100c-12 0 -18 5 -19 16v185c0 33 -17 49 -51 49c-41 0 -61 -25 -61 -76v-158c0 -11 -6 -16 -17 -16h-104c-11 0 -16 5 -17 16v185c0 33 -17 49 -51 49
c-39 0 -60 -25 -61 -76v-158c0 -11 -6 -16 -19 -16h-100c-12 0 -18 5 -18 16v336c0 11 6 16 18 16h100c9 0 16 -5 19 -16l4 -20c33 30 68 45 106 45c52 0 91 -25 117 -74c34 49 78 74 133 74c39 0 72 -16 99 -49s40 -75 40 -127zM102 322l-28 73c-5 8 -1 16 12 23
c27 13 41 35 41 65v330c0 11 5 16 16 16h103c11 0 16 -5 16 -16v-330c0 -42 -13 -81 -39 -116c-26 -36 -60 -55 -102 -58c-10 -1 -16 4 -19 13zM573 645c0 55 -26 82 -77 82c-52 0 -78 -27 -78 -82c0 -57 34 -84 78 -84c51 0 77 28 77 84zM461 94c-12 -5 -26 -8 -41 -8
c-47 0 -70 27 -70 80v162h-35c-3 0 -4 1 -4 2v14c0 3 1 4 4 4h35v76c0 3 1 4 2 4h19c3 0 4 -1 4 -4v-76h82c3 0 4 -1 4 -4v-14c0 -1 -1 -2 -4 -2h-82v-162c0 -39 16 -59 49 -60c13 0 24 2 33 7c3 3 4 2 4 -2l4 -11c0 -4 -1 -6 -4 -6zM1046 317c26 -25 39 -57 39 -95
c0 -39 -13 -71 -38 -97c-26 -26 -57 -39 -93 -39c-52 0 -91 24 -116 72v-154c0 -3 -1 -4 -2 -4h-19c-3 0 -4 1 -4 4v342c0 1 1 2 4 2h12c4 0 6 -1 7 -2l4 -55c22 42 60 63 114 63c35 0 66 -12 92 -37zM1397 223v-12c0 -1 -1 -2 -4 -2h-228c5 -60 50 -103 113 -103
c42 0 75 19 98 56h4l13 -10c1 -1 1 -3 0 -5c-27 -41 -66 -61 -117 -61c-38 0 -70 13 -95 39s-38 58 -38 96c0 37 12 68 37 94s55 39 92 39c34 0 63 -13 88 -38s37 -56 37 -93zM741 344l-112 -289c-13 -37 -35 -55 -64 -55c-17 0 -30 3 -39 10c-1 1 -2 3 -2 4l6 13
c0 1 2 2 5 2c9 -7 18 -10 26 -11c21 0 37 17 49 52l8 20l-108 254c-3 3 -2 4 2 4h18c3 0 4 -1 5 -2l94 -225l88 223c1 3 3 4 6 4h16c1 0 2 -1 2 -4zM1061 221c0 63 -50 111 -113 111c-60 0 -110 -42 -110 -105c0 -33 11 -61 33 -85c21 -24 47 -36 77 -36
c63 0 113 50 113 115zM1165 229h209c-3 60 -45 103 -102 103c-60 0 -102 -43 -107 -103z" />
    <glyph glyph-name="glyph1" 
 />
    <glyph glyph-name="glyph2" horiz-adv-x="681" 
 />
    <glyph glyph-name="space" unicode=" " horiz-adv-x="722" 
 />
    <glyph glyph-name="exclam" unicode="!" horiz-adv-x="663" 
d="M424 481h-193c-23 0 -36 13 -38 39l-31 942c0 26 13 39 39 39h254c29 0 42 -13 39 -39l-31 -942c0 -26 -13 -39 -39 -39zM330 -29c-48 0 -89 18 -124 54c-35 35 -52 77 -52 125c0 47 17 89 52 124s76 52 124 52c47 0 88 -17 123 -52c34 -35 51 -77 51 -124
c0 -48 -17 -90 -52 -125c-35 -36 -75 -54 -122 -54z" />
    <glyph glyph-name="quotedbl" unicode="&#x22;" horiz-adv-x="835" 
d="M199 920l-11 458c0 26 13 39 39 39h92c21 0 42 -16 39 -39l-45 -458c-3 -23 -16 -36 -39 -39h-36c-19 -3 -39 16 -39 39zM506 920l-10 458c0 26 13 39 39 39h92c21 0 42 -16 39 -39l-45 -458c-3 -23 -16 -36 -39 -39h-37c-19 -3 -39 16 -39 39z" />
    <glyph glyph-name="numbersign" unicode="#" horiz-adv-x="1609" 
d="M1251 1085h258c25 0 35 -13 31 -38l-24 -86c-3 -19 -25 -39 -48 -39h-260l-96 -375h268c21 0 36 -18 31 -39l-25 -86c-3 -21 -24 -39 -47 -39h-270l-90 -346c-5 -21 -30 -41 -49 -41h-86c-21 0 -34 18 -29 41l90 346h-377l-90 -346c-8 -27 -24 -41 -49 -41h-86
c-21 0 -34 18 -29 41l91 346h-263c-25 0 -35 13 -30 39l24 86c3 19 26 39 47 39h265l98 375h-275c-19 0 -35 16 -30 39l24 86c3 21 26 38 47 38h277l88 340c7 26 23 39 49 39h86c26 0 36 -13 29 -39l-88 -340h374l89 340c7 26 23 39 49 39h88c21 0 31 -16 26 -39zM571 547
h377l96 375h-374z" />
    <glyph glyph-name="dollar" unicode="$" horiz-adv-x="1241" 
d="M1151 430c0 -127 -39 -230 -116 -310c-78 -80 -184 -127 -318 -140v-156c0 -21 -18 -39 -39 -39h-86c-19 0 -39 16 -39 39v156c-175 19 -328 93 -459 221c-13 15 -15 34 -6 57l98 160c15 23 34 26 56 8c113 -113 235 -170 364 -170c69 0 127 15 173 44s69 72 69 128
c0 47 -17 82 -52 105s-97 45 -184 67c-48 12 -84 22 -109 30c-25 7 -61 20 -108 37s-85 35 -112 56s-56 46 -86 76s-52 66 -66 108c-15 41 -22 87 -22 137c0 120 40 219 121 296c80 77 188 122 323 135v155c0 21 20 39 39 39h86c21 0 39 -16 39 -39v-160
c139 -17 268 -68 387 -153c24 -13 22 -26 14 -55l-82 -166c-11 -21 -28 -26 -53 -17c-124 83 -243 125 -356 125c-64 0 -116 -14 -156 -41c-41 -27 -61 -64 -61 -110c0 -52 24 -93 73 -116c25 -11 46 -20 65 -25c18 -6 42 -12 73 -19c63 -13 113 -26 152 -37
c39 -12 85 -30 138 -54s95 -51 126 -81c61 -60 114 -163 114 -291z" />
    <glyph glyph-name="percent" unicode="%" horiz-adv-x="1794" 
d="M575 -94h-221l867 1648h223zM397 725c-90 0 -161 38 -213 113s-78 172 -78 292c0 121 26 218 79 291s124 109 214 109c89 0 159 -36 211 -108c52 -73 78 -171 78 -294c0 -124 -26 -222 -79 -294c-53 -73 -123 -109 -212 -109zM397 930c78 0 117 66 117 199
c0 132 -39 198 -117 198c-77 0 -115 -66 -115 -198c0 -133 38 -199 115 -199zM1397 -39c-91 0 -163 37 -214 112c-51 74 -77 171 -77 292c0 123 26 220 79 293c53 72 123 108 212 108s159 -36 212 -108c53 -73 79 -170 79 -293c0 -124 -26 -222 -79 -295
s-123 -109 -212 -109zM1280 365c0 -134 39 -201 117 -201c77 0 116 67 116 201c0 131 -39 197 -118 196c-77 0 -115 -65 -115 -196z" />
    <glyph glyph-name="ampersand" unicode="&#x26;" horiz-adv-x="1419" 
d="M1139 330l188 -195c19 -23 19 -44 0 -63l-90 -90c-22 -22 -43 -22 -63 0l-168 180c-127 -124 -274 -186 -443 -187c-137 0 -248 36 -333 109s-128 170 -128 291c0 91 26 169 79 232s134 123 245 179c-97 113 -145 219 -145 318c0 100 37 184 112 253
c74 69 170 103 289 103c115 0 208 -32 279 -97s106 -151 106 -259c0 -86 -24 -155 -73 -206s-131 -106 -244 -165l247 -258c38 61 74 134 109 219c13 26 34 32 61 19l101 -49c26 -11 32 -31 18 -60c-47 -104 -96 -195 -147 -274zM682 1262c-101 0 -170 -70 -170 -170
c0 -57 35 -128 106 -213c83 39 142 74 177 104c34 30 51 69 51 117c0 99 -65 162 -164 162zM584 184c101 0 195 42 282 127l-301 324c-74 -42 -128 -81 -162 -118s-51 -83 -51 -136c0 -61 22 -109 66 -144s99 -53 166 -53z" />
    <glyph glyph-name="quotesingle" unicode="'" horiz-adv-x="542" 
d="M199 920l-13 458c0 21 18 39 39 39h94c21 0 39 -16 39 -39l-14 -458c-3 -23 -16 -36 -39 -39h-67c-21 -3 -39 16 -39 39z" />
    <glyph glyph-name="parenleft" unicode="(" horiz-adv-x="839" 
d="M655 -281c-93 65 -171 128 -235 188c-64 61 -124 130 -179 207c-111 154 -165 343 -165 570c0 229 54 416 165 572c55 77 115 146 179 205s142 122 235 188c19 13 36 9 50 -13l81 -120c15 -21 12 -39 -10 -54c-59 -48 -104 -86 -135 -113c-31 -28 -69 -68 -114 -119
s-79 -100 -102 -147c-45 -94 -85 -238 -85 -399c0 -133 20 -248 65 -345c22 -49 44 -91 66 -127s53 -74 93 -113c39 -40 72 -72 99 -96c26 -24 64 -56 113 -95c21 -17 24 -35 10 -55l-81 -121c-14 -22 -31 -26 -50 -13z" />
    <glyph glyph-name="parenright" unicode=")" horiz-adv-x="839" 
d="M184 -281c-19 -13 -36 -9 -49 13l-82 121c-13 21 -10 39 10 55c59 48 104 87 137 116c32 29 70 70 115 121c44 51 77 99 100 146c45 92 85 234 85 393c0 161 -40 305 -85 399c-23 47 -56 96 -101 147s-84 91 -115 119s-77 66 -136 113c-22 15 -25 33 -10 54l82 120
c13 22 30 26 49 13c93 -65 171 -128 236 -187c64 -60 124 -129 179 -206c111 -156 165 -343 165 -572c0 -227 -54 -416 -165 -570c-55 -77 -115 -146 -179 -207c-65 -60 -143 -123 -236 -188z" />
    <glyph glyph-name="asterisk" unicode="*" horiz-adv-x="911" 
d="M457 1155l-103 -207c-11 -24 -40 -30 -59 -14l-96 78c-19 16 -18 44 2 57l151 135l-202 33c-24 5 -40 28 -29 49l41 125c8 24 34 35 55 19l186 -113l-47 205c-5 24 10 47 37 47h125c27 0 45 -23 37 -47l-47 -205l184 115c21 13 49 4 58 -21l43 -125c8 -21 -8 -44 -29 -49
l-205 -33l152 -135c19 -13 21 -41 2 -57l-97 -78c-21 -19 -48 -13 -59 14z" />
    <glyph glyph-name="plus" unicode="+" horiz-adv-x="1196" 
d="M682 762h377c21 0 39 -18 39 -39v-86c0 -26 -13 -39 -39 -39h-377v-379c0 -26 -13 -39 -39 -39h-86c-21 0 -39 18 -39 37v379h-381c-19 0 -39 16 -39 39v88c0 19 20 39 39 39h379v377c0 24 18 41 39 41h88c21 0 39 -18 39 -39v-379z" />
    <glyph glyph-name="comma" unicode="," horiz-adv-x="649" 
d="M188 -332c-15 -3 -24 2 -26 15l-21 57c-5 13 1 24 19 33c44 13 84 34 119 62s56 61 63 99c11 47 -11 63 -66 58c-35 -3 -66 11 -91 41s-38 67 -38 110c0 52 18 96 54 131c35 35 79 52 131 52c115 0 176 -99 176 -248c-1 -193 -107 -329 -320 -410z" />
    <glyph glyph-name="hyphen" unicode="-" horiz-adv-x="919" 
d="M745 475l-569 -2c-21 0 -39 18 -39 39v98c0 21 18 39 39 39h569c21 0 39 -16 39 -39v-96c0 -21 -16 -39 -39 -39z" />
    <glyph glyph-name="period" unicode="." horiz-adv-x="671" 
d="M460 25c-35 -36 -76 -54 -124 -54s-89 18 -124 54c-35 35 -52 77 -52 125c0 47 17 89 52 124s76 52 124 52s89 -17 124 -52s52 -77 52 -124c0 -48 -17 -90 -52 -125z" />
    <glyph glyph-name="slash" unicode="/" horiz-adv-x="1054" 
d="M201 -76h-199l850 1618h199z" />
    <glyph glyph-name="zero" unicode="0" horiz-adv-x="1288" 
d="M645 -23c-172 0 -306 70 -403 209s-146 322 -146 549c0 229 50 412 149 548s232 204 400 204s301 -68 400 -204c98 -136 147 -320 147 -552s-49 -416 -147 -551c-99 -135 -232 -203 -400 -203zM643 262c187 0 281 157 281 471c0 313 -94 469 -281 469
c-186 0 -279 -157 -278 -471c-1 -313 92 -469 278 -469z" />
    <glyph glyph-name="one" unicode="1" horiz-adv-x="839" 
d="M506 1473h129c21 0 39 -18 39 -39v-1393c0 -21 -18 -41 -39 -41h-209c-21 0 -39 20 -39 39v1085l-221 -88c-27 -7 -46 2 -55 25l-64 203c-7 21 1 36 23 47l379 149c18 8 37 12 57 13z" />
    <glyph glyph-name="two" unicode="2" horiz-adv-x="1191" 
d="M1104 201l2 -158c0 -21 -22 -43 -43 -43l-928 -2c-21 0 -43 22 -43 43v149c0 22 8 39 23 52c61 60 135 132 222 215s153 147 199 191c45 43 90 89 134 138c43 48 75 88 94 121c41 55 61 105 61 150c0 117 -99 182 -243 182c-121 0 -234 -60 -338 -180
c-21 -23 -42 -24 -64 -2l-110 108c-17 17 -17 35 -2 54c153 179 328 268 526 268c142 0 260 -36 353 -109s140 -177 140 -311c0 -79 -17 -151 -52 -215s-87 -134 -156 -211c-38 -39 -175 -172 -412 -399h596c21 0 41 -17 41 -41z" />
    <glyph glyph-name="three" unicode="3" horiz-adv-x="1206" 
d="M883 756c155 -69 233 -181 233 -336c0 -133 -48 -240 -145 -321s-225 -122 -383 -122c-220 0 -397 79 -531 236c-17 18 -16 36 2 53l127 121c17 17 35 16 56 -2c95 -105 211 -158 348 -158c169 0 262 71 262 199c0 136 -104 211 -297 211h-72c-21 0 -39 16 -39 39v133
c0 26 13 39 39 39h78c77 0 138 19 184 58c45 38 68 88 68 149c0 117 -93 184 -246 184c-115 0 -214 -48 -297 -145c-19 -19 -38 -20 -55 -2l-121 106c-19 19 -21 38 -4 55c67 82 138 141 214 178c76 36 165 54 267 54c154 0 277 -36 369 -108c91 -73 137 -171 137 -296
c1 -143 -64 -251 -194 -325z" />
    <glyph glyph-name="four" unicode="4" horiz-adv-x="1265" 
d="M1030 606h146c21 0 41 -16 41 -39v-143c0 -21 -18 -39 -39 -39h-148v-342c0 -21 -16 -39 -39 -39h-182c-19 0 -39 20 -39 39v342h-678c-21 0 -41 18 -41 39v111c0 25 8 46 25 63l692 825c18 23 43 35 76 35h147c21 0 39 -16 39 -39v-813zM770 1071l-393 -465h393v465z
" />
    <glyph glyph-name="five" unicode="5" horiz-adv-x="1204" 
d="M627 958c138 0 256 -45 353 -136s146 -207 146 -349c0 -150 -55 -271 -164 -362c-110 -92 -246 -138 -407 -138c-206 0 -370 73 -492 220c-12 17 -11 33 3 49l108 125c13 19 44 17 64 -2c83 -95 187 -143 311 -144c93 0 168 22 225 66c57 43 86 106 86 188
c0 79 -27 144 -80 194c-53 49 -128 74 -223 74c-104 0 -188 -28 -252 -84c-19 -18 -40 -19 -61 -4l-92 60c-21 13 -30 30 -29 51l104 653c3 26 16 39 39 39h731c26 0 39 -13 39 -39v-153c0 -26 -13 -39 -39 -39h-577l-53 -322c90 35 177 53 260 53z" />
    <glyph glyph-name="six" unicode="6" horiz-adv-x="1161" 
d="M584 1008c150 0 272 -47 367 -142c94 -95 141 -218 141 -368c0 -151 -47 -273 -142 -368s-218 -142 -368 -142c-151 0 -273 47 -368 140s-142 215 -142 364c0 55 7 108 22 159c26 138 84 278 173 421s193 263 311 360c23 22 50 31 79 28h207c43 0 51 -29 31 -45
c-168 -108 -305 -247 -410 -416c29 6 62 9 99 9zM392 288c51 -47 115 -71 190 -71s138 24 189 73c51 48 77 117 77 208s-25 161 -76 209c-51 47 -113 71 -188 71c-77 0 -141 -25 -192 -74c-51 -50 -77 -120 -77 -210c0 -91 26 -159 77 -206z" />
    <glyph glyph-name="seven" unicode="7" horiz-adv-x="1185" 
d="M88 1458h1010c26 0 39 -13 39 -39v-82c0 -21 -5 -40 -15 -59l-602 -1239c-13 -26 -34 -39 -61 -39h-195c-31 0 -48 28 -35 55l582 1151h-723c-19 0 -39 18 -39 39v174c0 21 18 39 39 39z" />
    <glyph glyph-name="eight" unicode="8" horiz-adv-x="1236" 
d="M915 780c145 -71 238 -199 238 -368c0 -130 -49 -235 -146 -315c-98 -80 -227 -120 -388 -120s-291 40 -388 120c-98 80 -147 185 -147 315c0 167 80 289 240 368c-123 74 -184 179 -185 314c0 115 44 209 132 283c88 73 205 110 350 110c143 0 259 -36 346 -109
s131 -172 131 -295c-1 -129 -62 -230 -183 -303zM616 1264c-153 0 -233 -77 -233 -189c0 -115 81 -196 234 -196c76 0 135 19 176 56s61 84 61 140c0 109 -82 189 -238 189zM413 259c45 -40 113 -60 204 -60c90 0 159 20 207 60c47 40 71 92 71 155s-24 115 -71 156
c-48 41 -117 61 -208 61c-89 0 -156 -20 -202 -61c-47 -41 -70 -93 -70 -156s23 -115 69 -155z" />
    <glyph glyph-name="nine" unicode="9" horiz-adv-x="1161" 
d="M1092 971c0 -56 -8 -111 -23 -164c-27 -138 -86 -278 -175 -420s-193 -261 -310 -356c-23 -22 -49 -32 -78 -29h-209c-42 0 -49 29 -29 45c169 109 305 248 408 416c-27 -5 -59 -8 -96 -8c-150 0 -272 47 -366 142c-95 95 -142 217 -142 368c0 150 47 273 141 368
s217 142 369 142c150 0 273 -47 368 -140c95 -94 142 -215 142 -364zM315 965c0 -91 25 -161 76 -209s114 -72 189 -72s138 25 189 75s77 120 77 210s-25 159 -76 206s-113 70 -188 70c-77 0 -140 -24 -191 -72c-51 -49 -76 -118 -76 -208z" />
    <glyph glyph-name="colon" unicode=":" horiz-adv-x="632" 
d="M441 763c-35 -35 -76 -52 -123 -52c-48 0 -89 17 -124 52s-53 76 -53 124c0 47 18 89 53 124s76 52 124 52c47 0 88 -17 123 -52c34 -35 51 -77 51 -124c0 -48 -17 -89 -51 -124zM441 114c-35 -35 -76 -53 -123 -53c-48 0 -89 18 -124 53s-53 77 -53 126
c0 48 18 89 53 123s76 51 124 51c47 0 88 -17 123 -51c34 -35 51 -76 51 -123c0 -49 -17 -91 -51 -126z" />
    <glyph glyph-name="semicolon" unicode=";" horiz-adv-x="632" 
d="M440 611c-35 -35 -77 -52 -124 -52c-48 0 -89 18 -124 53s-53 76 -53 125c0 48 18 89 53 123s76 51 124 51c47 0 89 -17 124 -51s52 -75 52 -123c0 -49 -17 -91 -52 -126zM184 -332c-15 -3 -24 2 -26 15l-21 57c-5 13 1 24 19 33c44 13 84 34 119 62s56 61 63 99
c11 47 -11 63 -66 58c-35 -3 -66 11 -91 41s-38 67 -38 110c0 52 18 96 54 131c35 35 79 52 131 52c115 0 176 -99 176 -248c-1 -193 -107 -329 -320 -410z" />
    <glyph glyph-name="less" unicode="&#x3c;" horiz-adv-x="1136" 
d="M997 1100v-101c0 -26 -11 -42 -34 -49l-652 -239l650 -240c25 -7 37 -24 36 -51v-98c0 -21 -19 -36 -39 -25l-823 336c-21 9 -31 24 -31 45v65c0 21 10 36 31 45l823 338c19 8 39 -5 39 -26z" />
    <glyph glyph-name="equal" unicode="=" horiz-adv-x="1396" 
d="M1159 850l-921 -2c-21 0 -39 16 -39 39v86c0 26 13 39 39 39l921 2c21 0 39 -18 39 -39v-86c0 -21 -16 -39 -39 -39zM1159 440l-921 -2c-21 0 -39 18 -39 39v86c0 26 13 39 39 39l921 2c21 0 39 -16 39 -39v-86c0 -21 -16 -39 -39 -39z" />
    <glyph glyph-name="greater" unicode="&#x3e;" horiz-adv-x="1136" 
d="M178 1126l823 -338c22 -9 33 -24 33 -45v-65c0 -21 -11 -36 -33 -45l-823 -336c-19 -11 -39 2 -39 25v98c0 27 12 44 37 51l649 240l-649 239c-25 7 -37 23 -37 49v101c0 21 20 35 39 26z" />
    <glyph glyph-name="question" unicode="?" horiz-adv-x="1189" 
d="M70 1362c49 71 118 126 206 167c88 40 184 60 289 60c153 0 281 -41 384 -124s155 -193 155 -330c0 -157 -67 -274 -201 -351c-15 -8 -39 -20 -71 -35c-32 -16 -54 -28 -67 -37c-26 -18 -58 -61 -58 -124v-76c0 -26 -13 -39 -39 -39h-172c-26 0 -39 13 -39 39v137
c0 75 20 132 59 169s104 75 193 114c88 39 131 89 131 192c0 154 -90 231 -269 232c-127 0 -236 -53 -327 -158c-27 -21 -51 -18 -62 -2l-108 117c-12 15 -13 31 -4 49zM578 -29c-48 0 -89 18 -124 54c-35 35 -53 77 -53 125c0 47 18 89 53 124s76 52 124 52
c47 0 88 -17 123 -52c34 -35 51 -77 51 -124c0 -48 -17 -90 -52 -125c-35 -36 -75 -54 -122 -54z" />
    <glyph glyph-name="at" unicode="@" horiz-adv-x="1785" 
d="M893 1362c224 0 409 -72 554 -217s218 -332 218 -561c0 -153 -34 -278 -101 -375c-68 -97 -163 -143 -286 -137c-77 4 -140 28 -190 73c-51 44 -71 108 -62 193l2 16c-77 -95 -166 -143 -268 -143c-90 0 -160 35 -210 104s-65 162 -46 279c19 120 66 214 139 281
s153 100 240 100c95 0 169 -40 221 -119l12 80c4 17 15 25 33 25h111c19 0 27 -9 22 -27l-96 -590c-5 -37 1 -70 19 -100c17 -30 46 -46 85 -47c75 -5 138 33 187 115c49 81 73 181 73 298c0 100 -19 192 -57 275s-89 151 -152 204c-128 104 -287 166 -448 166
c-108 0 -210 -24 -305 -71c-96 -48 -176 -123 -241 -225c-65 -103 -97 -223 -97 -361c0 -198 62 -360 186 -485c123 -126 276 -189 457 -189c82 0 163 15 242 45c17 4 27 -1 32 -16l19 -53c4 -17 -2 -28 -19 -33c-89 -38 -186 -57 -293 -57c-205 0 -381 75 -530 225
s-223 336 -223 557c0 216 72 398 215 547s329 223 557 223zM829 381c107 0 181 72 205 215c23 139 -19 209 -127 209c-104 0 -184 -74 -208 -213c-25 -140 26 -211 130 -211z" />
    <glyph glyph-name="A" unicode="A" horiz-adv-x="1492" 
d="M877 1405l565 -1358c13 -31 3 -47 -31 -47h-244c-22 0 -36 10 -43 29l-96 235h-553l-104 -235c-8 -19 -23 -29 -45 -29h-246c-31 0 -40 18 -29 47l602 1358c8 19 22 29 43 29h138c22 0 36 -10 43 -29zM942 485l-182 508l-195 -508h377z" />
    <glyph glyph-name="B" unicode="B" horiz-adv-x="1423" 
d="M1071 745c169 -52 272 -174 272 -362c0 -253 -183 -383 -499 -383h-631c-26 0 -39 13 -39 39v1356c0 26 13 39 39 39h528c320 0 504 -127 504 -383c0 -145 -58 -247 -174 -306zM780 1184h-305v-350h291c153 0 215 71 215 170c0 51 -15 93 -46 128s-82 52 -155 52z
M475 252h381c68 0 118 18 151 53c32 35 48 78 48 127s-19 91 -57 125c-39 34 -95 51 -169 51h-354v-356z" />
    <glyph glyph-name="C" unicode="C" horiz-adv-x="1474" 
d="M827 -29c-209 0 -384 71 -525 214s-212 319 -212 530c0 207 70 383 210 527s312 216 515 216c240 0 436 -80 588 -239c13 -17 12 -32 -4 -45l-166 -142c-15 -13 -30 -13 -45 2c-93 100 -215 150 -367 150c-121 0 -223 -45 -306 -135c-83 -91 -124 -201 -124 -332
c0 -133 41 -244 124 -334s185 -135 308 -135c82 0 147 11 195 33c48 21 102 59 162 112c13 13 27 15 41 4l170 -135c18 -17 21 -31 8 -43c-159 -165 -349 -248 -572 -248z" />
    <glyph glyph-name="D" unicode="D" horiz-adv-x="1501" 
d="M213 1434h541c198 0 356 -65 474 -196s177 -304 177 -521c0 -223 -58 -398 -174 -525c-116 -128 -275 -192 -477 -192h-541c-26 0 -39 13 -39 39v1356c0 26 13 39 39 39zM475 295h279c233 0 350 139 350 416c0 281 -123 430 -350 430h-279v-846z" />
    <glyph glyph-name="E" unicode="E" horiz-adv-x="1359" 
d="M475 281h748c26 0 39 -13 39 -39v-203c0 -26 -13 -39 -39 -39h-1010c-26 0 -39 13 -39 39v1356c0 26 13 39 39 39h1004c26 0 39 -13 38 -39v-201c0 -26 -13 -39 -38 -39h-742v-311h625c26 0 39 -13 39 -39v-166c0 -26 -13 -39 -39 -39h-625v-319z" />
    <glyph glyph-name="F" unicode="F" horiz-adv-x="1320" 
d="M213 1434h1004c26 0 39 -13 38 -39v-201c0 -26 -13 -39 -38 -39h-742v-311h625c26 0 39 -13 39 -39v-166c0 -26 -13 -39 -39 -39h-625v-561c0 -26 -13 -39 -39 -39h-223c-26 0 -39 13 -39 39v1356c0 26 13 39 39 39z" />
    <glyph glyph-name="G" unicode="G" horiz-adv-x="1554" 
d="M838 772h555c26 0 39 -13 39 -39v-694c0 -26 -13 -39 -39 -39h-144c-23 0 -37 13 -41 39l-14 90c-120 -98 -260 -147 -420 -147c-189 0 -350 68 -483 203c-134 135 -201 307 -201 517c0 211 68 390 205 535s308 218 514 221c117 1 231 -21 340 -66
c109 -46 193 -102 250 -169c11 -19 9 -35 -4 -47l-166 -140c-12 -11 -26 -9 -43 4c-3 1 -11 8 -25 20c-15 11 -25 19 -30 22c-6 3 -16 10 -31 21c-30 20 -43 26 -76 42s-57 22 -92 31c-36 8 -72 10 -113 10c-127 -4 -230 -51 -311 -140c-81 -90 -121 -202 -121 -335
c0 -135 38 -247 115 -335c76 -88 183 -133 321 -134c153 -3 270 48 351 153v160h-336c-27 0 -41 13 -41 39v139c0 26 14 39 41 39z" />
    <glyph glyph-name="H" unicode="H" horiz-adv-x="1550" 
d="M1114 1434h225c26 0 39 -13 39 -39v-1356c0 -26 -13 -39 -39 -39h-225c-26 0 -39 13 -39 39v561h-600v-561c0 -26 -13 -39 -39 -39h-223c-26 0 -39 13 -39 39v1356c0 26 13 39 39 39h223c26 0 39 -13 39 -39v-545h600v545c0 26 13 39 39 39z" />
    <glyph glyph-name="I" unicode="I" horiz-adv-x="649" 
d="M436 0h-223c-26 0 -39 13 -39 39v1356c0 26 13 39 39 39h223c26 0 39 -13 39 -39v-1356c0 -26 -13 -39 -39 -39z" />
    <glyph glyph-name="J" unicode="J" horiz-adv-x="1103" 
d="M481 -20c-87 0 -171 20 -250 60c-80 40 -140 88 -180 144c-11 17 -10 32 2 45l119 142c21 23 43 23 68 -2c23 -23 41 -40 54 -50c13 -11 31 -21 56 -31c25 -11 53 -16 84 -16c139 0 221 85 221 254v869c0 21 18 39 39 39h224c21 0 38 -18 38 -39v-871
c0 -164 -45 -296 -135 -395s-203 -149 -340 -149z" />
    <glyph glyph-name="K" unicode="K" horiz-adv-x="1495" 
d="M834 840l608 -791c21 -27 8 -49 -25 -49h-287c-19 0 -35 8 -47 25l-458 608l-150 -148v-446c0 -26 -13 -39 -39 -39h-223c-26 0 -39 13 -39 39v1356c0 26 13 39 39 39h223c26 0 39 -13 39 -39v-537l506 555c12 13 28 20 47 21h330c36 0 48 -24 20 -52z" />
    <glyph glyph-name="L" unicode="L" horiz-adv-x="1320" 
d="M475 281h748c26 0 39 -13 39 -39v-203c0 -26 -13 -39 -39 -39h-1010c-26 0 -39 13 -39 39v1356c0 26 13 39 39 39h223c26 0 39 -13 39 -39v-1114z" />
    <glyph glyph-name="M" unicode="M" horiz-adv-x="1789" 
d="M1403 1434h176c26 0 39 -13 39 -39v-1356c0 -26 -13 -39 -39 -39h-223c-26 0 -39 13 -39 39v825l-332 -551c-9 -18 -24 -27 -45 -26h-92c-21 0 -36 9 -45 26l-328 549v-823c0 -26 -13 -39 -39 -39h-223c-26 0 -39 13 -39 39v1356c0 26 13 39 39 39h174c21 0 36 -8 45 -25
l463 -737l463 737c9 17 24 25 45 25z" />
    <glyph glyph-name="N" unicode="N" horiz-adv-x="1634" 
d="M1198 1434h223c26 0 39 -13 39 -39v-1356c0 -26 -13 -39 -39 -39h-159c-21 0 -37 8 -48 23l-739 876v-860c0 -26 -13 -39 -39 -39h-223c-26 0 -39 13 -39 39v1356c0 26 13 39 39 39h158c19 0 35 -7 47 -21l741 -874v856c0 26 13 39 39 39z" />
    <glyph glyph-name="O" unicode="O" horiz-adv-x="1646" 
d="M1355 174c-132 -133 -309 -199 -532 -199s-400 66 -531 199c-132 133 -198 310 -198 533c0 224 66 404 199 539s309 202 530 202c223 0 400 -68 532 -203c131 -135 197 -315 197 -538s-66 -400 -197 -533zM501 373c84 -79 192 -119 323 -119s238 40 323 119
s127 191 127 334c0 145 -43 258 -128 341c-85 82 -193 123 -323 123c-129 0 -235 -41 -320 -123c-85 -83 -128 -196 -128 -341c0 -143 42 -255 126 -334z" />
    <glyph glyph-name="P" unicode="P" horiz-adv-x="1349" 
d="M213 1434h555c151 0 274 -41 369 -122c94 -81 141 -190 141 -325s-47 -246 -141 -331c-95 -85 -218 -128 -369 -128h-293v-489c0 -26 -13 -39 -39 -39h-223c-26 0 -39 13 -39 39v1356c0 26 13 39 39 39zM475 780h293c69 0 124 20 164 60c39 39 59 86 59 141
s-20 102 -60 142c-41 39 -95 59 -163 59h-293v-402z" />
    <glyph glyph-name="Q" unicode="Q" horiz-adv-x="1658" 
d="M1386 209l140 -141c18 -18 17 -35 -2 -52l-105 -102c-17 -17 -34 -17 -51 0l-154 156c-111 -63 -241 -94 -391 -95c-223 0 -400 66 -531 199c-132 133 -198 310 -198 533c0 224 66 404 199 539s309 202 530 202c223 0 400 -68 532 -203c131 -135 197 -315 197 -538
c0 -202 -55 -368 -166 -498zM823 254c65 0 125 10 178 31l-184 188c-15 15 -15 30 0 45l113 111c13 17 28 17 45 0l199 -203c49 75 74 169 73 281c0 146 -39 260 -116 342c-78 81 -180 122 -307 122s-230 -41 -307 -122c-77 -82 -116 -196 -116 -342
c0 -145 38 -256 115 -335c76 -79 178 -118 307 -118z" />
    <glyph glyph-name="R" unicode="R" horiz-adv-x="1394" 
d="M1034 588l283 -541c16 -24 4 -47 -29 -47h-225c-21 0 -35 10 -43 29l-252 499h-293v-489c0 -26 -13 -39 -39 -39h-223c-26 0 -39 13 -39 39v1356c0 26 13 39 39 39h555c151 0 274 -41 369 -122c94 -81 141 -190 141 -325c0 -177 -91 -323 -244 -399zM768 1182h-293v-402
h293c69 0 124 20 164 60c39 39 59 86 59 141s-20 102 -60 142c-41 39 -95 59 -163 59z" />
    <glyph glyph-name="S" unicode="S" horiz-adv-x="1241" 
d="M643 -25c-111 0 -215 21 -312 63c-98 41 -177 94 -237 159c-13 18 -15 36 -6 55l98 156c13 25 32 27 56 8c117 -111 238 -166 362 -166c69 0 128 15 175 44s71 71 71 126c0 45 -18 80 -54 104c-37 23 -98 45 -184 66c-47 12 -83 22 -109 30c-27 7 -63 20 -109 37
c-47 17 -84 35 -112 55c-56 39 -123 97 -151 178c-15 40 -22 85 -22 134c0 129 47 232 142 309s219 115 372 115c173 0 334 -52 481 -156c19 -12 24 -30 14 -53l-82 -164c-11 -21 -28 -26 -53 -16c-129 83 -247 125 -354 125c-131 0 -219 -56 -219 -152
c0 -52 22 -90 71 -113c25 -12 46 -21 65 -26c18 -5 43 -12 75 -19c42 -9 77 -18 106 -25s63 -18 104 -31c40 -14 73 -28 100 -42c27 -15 55 -34 85 -58c60 -48 94 -97 118 -173c11 -39 17 -80 17 -125c0 -134 -46 -242 -139 -323s-216 -122 -369 -122z" />
    <glyph glyph-name="T" unicode="T" horiz-adv-x="1368" 
d="M98 1434h1172c26 0 39 -13 39 -39v-203c0 -26 -13 -39 -39 -39h-434v-1114c0 -26 -13 -39 -39 -39h-226c-26 0 -39 13 -39 39v1114h-434c-26 0 -39 13 -39 39v203c0 26 13 39 39 39z" />
    <glyph glyph-name="U" unicode="U" horiz-adv-x="1476" 
d="M739 -20c-186 0 -332 61 -439 182s-161 284 -161 489v744c0 26 13 39 39 39h223c26 0 39 -13 39 -39v-744c0 -247 100 -371 299 -370c198 0 297 123 297 370v744c0 26 13 39 39 39h223c26 0 39 -13 39 -39v-744c0 -205 -54 -368 -161 -489s-253 -182 -437 -182z" />
    <glyph glyph-name="V" unicode="V" horiz-adv-x="1484" 
d="M1157 1434h246c31 0 42 -18 31 -45l-570 -1360c-8 -19 -23 -29 -45 -29h-141c-22 0 -37 10 -45 29l-584 1360c-11 24 2 45 33 45h246c22 0 36 -10 43 -31l377 -957l364 957c8 21 23 31 45 31z" />
    <glyph glyph-name="W" unicode="W" horiz-adv-x="2148" 
d="M1839 1434h221c31 0 43 -24 35 -45l-440 -1356c-7 -22 -22 -33 -45 -33h-193c-19 0 -34 10 -43 31l-301 809l-301 -809c-9 -21 -24 -31 -43 -31h-192c-23 0 -38 11 -45 33l-437 1356c-8 24 6 45 33 45h223c23 0 37 -10 41 -31l289 -932l326 879c8 22 23 33 45 32h129
c21 0 35 -11 43 -32l317 -889l295 942c5 21 20 31 43 31z" />
    <glyph glyph-name="X" unicode="X" horiz-adv-x="1652" 
d="M1038 735l557 -684c21 -27 11 -51 -24 -51h-295c-21 0 -36 8 -47 23l-404 501l-403 -501c-11 -15 -26 -23 -47 -23h-293c-36 0 -46 24 -25 51l557 686l-524 647c-21 27 -11 50 25 50h293c19 0 35 -8 47 -23l372 -461l371 461c11 15 26 23 45 23h295c36 0 46 -22 25 -50z
" />
    <glyph glyph-name="Y" unicode="Y" horiz-adv-x="1482" 
d="M1126 1434h285c36 0 43 -27 27 -50l-543 -761v-584c0 -26 -13 -39 -39 -39h-223c-26 0 -39 13 -39 39v586l-545 759c-21 27 -8 50 25 50h284c22 0 38 -8 48 -25l339 -516l336 516c9 17 24 25 45 25z" />
    <glyph glyph-name="Z" unicode="Z" horiz-adv-x="1499" 
d="M537 270h837c26 0 39 -13 39 -39v-192c0 -26 -13 -39 -39 -39h-1255c-26 0 -39 13 -39 39v123c0 18 6 33 18 45l860 956h-817c-26 0 -39 13 -39 39v193c0 26 13 39 39 39h1225c26 0 39 -13 39 -39v-129c0 -17 -6 -32 -19 -47z" />
    <glyph glyph-name="bracketleft" unicode="[" horiz-adv-x="679" 
d="M586 1399l-205 -2v-1581l203 2c21 0 41 -20 41 -41v-135c0 -21 -18 -39 -39 -39l-379 -2c-21 0 -41 18 -41 41v1933c0 21 16 39 39 39h379c21 0 41 -18 41 -39v-137c0 -21 -18 -39 -39 -39z" />
    <glyph glyph-name="backslash" unicode="\" horiz-adv-x="1044" 
d="M1042 -76h-188l-850 1618h189z" />
    <glyph glyph-name="bracketright" unicode="]" horiz-adv-x="679" 
d="M96 1614h379c26 0 39 -13 39 -39v-1933c0 -21 -20 -41 -41 -41l-377 2c-26 0 -39 13 -39 39v135c0 21 18 41 39 41l203 -2v1581l-203 2c-21 0 -39 16 -39 39v137c0 19 20 39 39 39z" />
    <glyph glyph-name="asciicircum" unicode="^" horiz-adv-x="1105" 
d="M631 1442l381 -824c8 -19 -2 -38 -25 -38h-100c-23 0 -40 11 -49 34l-285 656l-283 -654c-11 -25 -28 -37 -51 -36h-98c-21 0 -35 19 -27 38l381 824c8 21 23 31 45 31h64c21 0 36 -10 47 -31z" />
    <glyph glyph-name="underscore" unicode="_" horiz-adv-x="1531" 
d="M1303 -174l-1074 -2c-21 0 -39 19 -39 39v98c0 19 18 39 39 39h1074c21 0 38 -20 38 -39v-96c0 -21 -17 -39 -38 -39z" />
    <glyph glyph-name="a" unicode="a" horiz-adv-x="1366" 
d="M991 1069h199c26 0 39 -13 39 -39v-991c0 -26 -13 -39 -39 -39h-199c-19 0 -32 13 -39 39l-16 131c-98 -130 -220 -195 -365 -195c-138 0 -256 51 -353 152s-146 237 -146 408s49 307 147 409c97 101 213 152 346 152c143 0 268 -61 373 -183l14 117c4 26 17 39 39 39z
M649 217c82 0 151 27 208 80s85 131 85 232s-29 180 -86 237s-128 86 -211 86c-82 0 -151 -28 -206 -84s-83 -134 -83 -233c0 -100 28 -178 84 -234s126 -84 209 -84z" />
    <glyph glyph-name="b" unicode="b" horiz-adv-x="1372" 
d="M811 1096c131 0 246 -51 343 -152c97 -102 146 -238 146 -409s-49 -307 -146 -408s-215 -152 -353 -152c-153 0 -278 70 -375 211l-20 -147c-7 -26 -20 -39 -39 -39h-189c-26 0 -39 13 -39 39v1409c0 26 13 39 39 39h213c26 0 39 -13 39 -39v-543
c108 127 235 191 381 191zM713 217c85 0 155 28 210 84s83 134 83 234c0 99 -28 177 -83 233s-124 84 -206 84c-83 0 -154 -29 -211 -86s-86 -136 -86 -237s28 -179 85 -232s126 -80 208 -80z" />
    <glyph glyph-name="c" unicode="c" horiz-adv-x="1085" 
d="M614 -23c-160 0 -291 54 -394 162s-154 241 -154 398c0 155 52 287 155 395s234 162 395 162c87 0 167 -17 240 -51c73 -35 131 -79 174 -134c17 -21 14 -39 -8 -55l-133 -100c-19 -13 -37 -11 -53 6c-61 61 -132 92 -211 92c-85 0 -153 -30 -206 -91s-79 -136 -79 -226
c0 -91 26 -166 79 -226s122 -90 208 -90c52 0 92 14 126 27c20 8 46 26 55 34c5 3 12 9 21 17l15 12c19 15 38 17 55 4l131 -94c19 -15 23 -33 10 -53c-41 -55 -100 -100 -177 -135c-77 -36 -160 -54 -249 -54z" />
    <glyph glyph-name="d" unicode="d" horiz-adv-x="1372" 
d="M971 1487h223c26 0 39 -13 39 -39v-1409c0 -26 -13 -39 -39 -39h-197c-22 0 -35 13 -39 39l-18 137c-97 -134 -220 -201 -369 -201c-138 0 -256 51 -353 152s-146 237 -146 408s49 307 147 409c97 101 211 152 342 152c141 0 264 -59 371 -178v530c0 26 13 39 39 39z
M649 217c82 0 151 27 208 80s85 131 85 232s-29 180 -86 237s-128 86 -211 86c-82 0 -151 -28 -206 -84s-83 -134 -83 -233c0 -100 28 -178 84 -234s126 -84 209 -84z" />
    <glyph glyph-name="e" unicode="e" horiz-adv-x="1198" 
d="M604 1096c154 0 280 -51 379 -154c98 -103 147 -237 147 -403c0 -19 -1 -34 -2 -45c-4 -25 -18 -37 -43 -37h-741c27 -171 132 -256 315 -256c117 0 213 46 287 137c19 19 38 20 55 2l95 -92c18 -21 16 -42 -6 -64c-115 -138 -266 -207 -455 -207
c-168 0 -304 52 -409 155s-158 236 -158 398c0 159 49 293 147 402s228 164 389 164zM614 874c-148 0 -253 -84 -274 -235h534c-19 153 -115 235 -260 235z" />
    <glyph glyph-name="f" unicode="f" horiz-adv-x="839" 
d="M635 1311c-95 0 -143 -56 -143 -168v-74h278c26 0 39 -13 39 -39v-164c0 -26 -13 -39 -39 -39h-278v-788c0 -26 -13 -39 -39 -39h-222c-26 0 -39 13 -38 39v788h-123c-26 0 -39 13 -39 39v164c0 26 13 39 39 39h123v47c0 276 115 420 376 420c87 0 171 -13 250 -39
c25 -8 32 -24 23 -49l-54 -131c-8 -23 -26 -31 -53 -23c-37 11 -70 17 -100 17z" />
    <glyph glyph-name="g" unicode="g" horiz-adv-x="1343" 
d="M965 1071h202c26 0 39 -13 39 -39v-952c0 -160 -54 -284 -163 -371s-248 -131 -416 -131c-154 0 -295 33 -424 100c-22 9 -29 26 -21 50l54 141c9 26 26 33 51 20c100 -56 202 -84 305 -84c93 0 168 21 226 63c58 43 87 100 87 173v186c-91 -117 -207 -176 -348 -176
c-135 0 -251 47 -347 142c-96 94 -144 220 -144 379c0 158 48 285 143 380s207 142 336 142c145 0 267 -60 366 -179l15 117c4 26 17 39 39 39zM629 283c78 0 143 24 196 72c52 47 78 118 78 211s-27 165 -80 218c-53 52 -119 78 -198 78c-78 0 -142 -25 -193 -75
c-51 -51 -76 -122 -76 -214c0 -93 25 -164 76 -214c51 -51 116 -76 197 -76z" />
    <glyph glyph-name="h" unicode="h" horiz-adv-x="1318" 
d="M788 1094c127 0 228 -44 304 -133s114 -215 114 -377v-545c0 -26 -13 -39 -39 -39h-223c-26 0 -39 13 -39 39v545c0 153 -78 241 -215 241c-145 0 -242 -97 -250 -305v-481c0 -26 -13 -39 -39 -39h-223c-26 0 -39 13 -39 39v1409c0 26 13 39 39 39h223
c26 0 39 -13 39 -39v-514c93 107 209 160 348 160z" />
    <glyph glyph-name="i" unicode="i" horiz-adv-x="575" 
d="M412 1299c-35 -35 -76 -52 -123 -52c-48 0 -89 17 -123 52c-34 34 -51 75 -51 123c0 47 17 88 51 123s75 52 123 52c47 0 88 -17 123 -52c34 -35 51 -76 51 -123c0 -48 -17 -89 -51 -123zM399 0h-223c-26 0 -39 13 -39 39v991c0 26 13 39 39 39h223c26 0 39 -13 39 -39
v-991c0 -26 -13 -39 -39 -39z" />
    <glyph glyph-name="j" unicode="j" horiz-adv-x="577" 
d="M412 1299c-35 -35 -76 -52 -123 -52c-48 0 -89 17 -123 52c-34 34 -51 75 -51 123c0 47 17 88 51 123s75 52 123 52c47 0 88 -17 123 -52c34 -35 51 -76 51 -123c0 -48 -17 -89 -51 -123zM80 -430c-31 0 -51 10 -60 31l-55 161c-8 25 4 42 35 52c91 30 137 103 137 219
v997c0 26 13 39 39 39h223c26 0 39 -13 39 -39v-1003c0 -116 -33 -219 -100 -309c-67 -89 -153 -139 -258 -148z" />
    <glyph glyph-name="k" unicode="k" horiz-adv-x="1257" 
d="M778 635l455 -588c19 -31 6 -47 -25 -47h-229c-19 0 -35 8 -47 25l-342 428l-150 -146v-268c0 -26 -13 -39 -39 -39h-223c-26 0 -39 13 -39 39v1409c0 26 13 39 39 39h223c26 0 39 -13 39 -39v-811l408 412c13 13 30 20 49 20h256c36 0 45 -25 21 -49z" />
    <glyph glyph-name="l" unicode="l" horiz-adv-x="581" 
d="M403 0h-225c-26 0 -39 13 -39 39v1409c0 26 13 39 39 39h225c26 0 39 -13 39 -39v-1409c0 -26 -13 -39 -39 -39z" />
    <glyph glyph-name="m" unicode="m" horiz-adv-x="2076" 
d="M1546 1094c130 0 233 -45 308 -136s112 -216 112 -374v-545c0 -26 -13 -39 -39 -39h-223c-26 0 -39 13 -39 39v545c0 153 -79 241 -215 241c-145 0 -242 -97 -250 -305v-481c0 -26 -13 -39 -39 -39h-217c-26 0 -39 13 -39 39v545c0 153 -80 241 -217 241
c-145 0 -242 -97 -250 -305v-481c0 -26 -13 -39 -39 -39h-223c-26 0 -39 13 -39 39v991c0 26 13 39 39 39h209c19 0 32 -13 39 -39l12 -102c97 111 213 166 350 166c167 0 286 -74 357 -222c101 148 235 222 403 222z" />
    <glyph glyph-name="n" unicode="n" horiz-adv-x="1323" 
d="M793 1094c127 0 228 -44 304 -133c75 -89 113 -215 113 -377v-545c0 -26 -13 -39 -39 -39h-223c-26 0 -39 13 -39 39v545c0 153 -78 241 -215 241c-148 0 -248 -97 -256 -305v-481c0 -26 -13 -39 -39 -39h-223c-26 0 -39 13 -39 39v991c0 26 13 39 39 39h209
c19 0 32 -13 39 -39l12 -102c97 111 216 166 357 166z" />
    <glyph glyph-name="o" unicode="o" horiz-adv-x="1249" 
d="M625 -23c-165 0 -299 52 -402 156s-155 239 -155 404c0 164 52 298 155 402c103 103 237 155 402 155s299 -52 403 -156s156 -238 156 -401c0 -164 -52 -298 -156 -403c-105 -105 -239 -157 -403 -157zM414 307c59 -56 129 -84 211 -84s153 28 212 84s89 133 89 230
s-29 173 -88 228s-130 83 -213 83c-82 0 -152 -28 -211 -83s-88 -131 -88 -228c0 -98 29 -175 88 -230z" />
    <glyph glyph-name="p" unicode="p" horiz-adv-x="1372" 
d="M811 1098c131 0 246 -51 343 -152c97 -102 146 -238 146 -409s-49 -307 -146 -408s-215 -152 -353 -152c-145 0 -265 64 -361 191v-502c0 -26 -13 -39 -39 -39h-223c-26 0 -39 13 -39 39v1366c0 26 13 39 39 39h209c19 0 32 -13 39 -39l14 -114c107 120 230 180 371 180z
M723 219c83 0 153 28 209 83s84 134 84 235c0 100 -28 178 -83 234c-55 55 -124 83 -206 83c-83 0 -154 -29 -211 -86s-86 -136 -86 -237s28 -179 85 -232s126 -80 208 -80z" />
    <glyph glyph-name="q" unicode="q" horiz-adv-x="1372" 
d="M995 1069h199c26 0 39 -13 39 -39v-1364c0 -26 -13 -39 -39 -39h-223c-26 0 -39 13 -39 39v502c-95 -127 -216 -190 -361 -191c-138 0 -256 51 -353 152s-146 237 -146 408s49 307 147 409c97 101 211 152 342 152c146 0 273 -64 381 -191l14 123c7 26 20 39 39 39z
M649 219c82 0 151 27 208 80s85 131 85 232s-29 180 -86 237s-128 86 -211 86c-82 0 -151 -28 -206 -84s-83 -134 -83 -233c0 -101 28 -180 84 -235s126 -83 209 -83z" />
    <glyph glyph-name="r" unicode="r" horiz-adv-x="921" 
d="M885 1079c30 -9 37 -27 20 -53l-135 -225c-8 -12 -18 -18 -31 -19c-8 0 -38 9 -67 9c-145 0 -213 -87 -236 -267v-485c0 -26 -13 -39 -39 -39h-219c-26 0 -39 13 -39 39l-2 991c0 26 13 39 39 39h209c19 0 32 -13 39 -39l14 -121c73 116 177 177 312 183
c53 -1 98 -5 135 -13z" />
    <glyph glyph-name="s" unicode="s" horiz-adv-x="1013" 
d="M510 -18c-94 0 -179 14 -255 43s-136 65 -179 110c-18 18 -19 36 -4 55l75 121c13 22 33 25 58 8c35 -31 81 -56 137 -75s111 -29 166 -29c112 0 176 41 176 113c0 49 -48 81 -91 92c-21 5 -57 13 -108 22c-130 23 -230 59 -299 108s-104 121 -104 216
c0 103 39 183 116 241s181 87 314 87c145 0 272 -39 381 -117c22 -13 25 -32 8 -55l-76 -117c-13 -19 -32 -23 -55 -12c-73 49 -154 74 -244 73c-116 0 -174 -32 -174 -96c0 -44 47 -73 93 -85c23 -6 55 -13 98 -21c9 -1 17 -3 22 -5c130 -27 227 -64 292 -111
s97 -119 97 -214c0 -105 -39 -190 -116 -255c-78 -65 -187 -97 -328 -97z" />
    <glyph glyph-name="t" unicode="t" horiz-adv-x="894" 
d="M793 213l51 -129c8 -22 2 -39 -19 -51c-75 -37 -161 -55 -258 -56c-263 0 -368 146 -368 435v415h-129c-26 0 -39 13 -39 39v164c0 26 13 39 39 39h129v238c0 26 13 39 39 39h221c26 0 39 -13 39 -39v-238h274c26 0 39 -13 39 -39v-164c0 -26 -13 -39 -39 -39h-274v-442
c0 -125 50 -166 151 -166c31 0 62 6 92 17c26 7 43 -1 52 -23z" />
    <glyph glyph-name="u" unicode="u" horiz-adv-x="1318" 
d="M920 1069h223c26 0 39 -13 39 -39v-991c0 -26 -13 -39 -39 -39h-207c-22 0 -35 13 -39 39l-14 104c-101 -112 -226 -168 -373 -168c-257 0 -395 180 -395 512v543c0 26 13 39 39 39h223c26 0 39 -13 39 -39v-543c0 -153 80 -243 217 -243c141 0 239 99 248 307v479
c0 26 13 39 39 39z" />
    <glyph glyph-name="v" unicode="v" horiz-adv-x="1161" 
d="M872 1069h236c31 0 40 -24 29 -45l-396 -993c-7 -21 -22 -31 -45 -31h-204c-22 0 -36 10 -43 29l-424 995c-13 21 3 45 30 45h238c22 0 37 -10 45 -31l252 -669l235 667c8 22 24 33 47 33z" />
    <glyph glyph-name="w" unicode="w" horiz-adv-x="1669" 
d="M1395 1069h215c27 0 37 -15 30 -45l-344 -993c-9 -21 -24 -31 -43 -31h-180c-19 0 -34 10 -43 31l-205 575l-194 -575c-9 -21 -24 -31 -45 -31h-178c-22 0 -36 11 -43 33l-336 993c-7 29 4 43 32 43h215c25 0 40 -11 46 -33l200 -647l191 619c5 22 20 33 45 32h143
c22 0 37 -11 45 -32l197 -635l207 663c5 22 20 33 45 33z" />
    <glyph glyph-name="x" unicode="x" horiz-adv-x="1185" 
d="M1151 1020l-381 -483l377 -488c19 -31 6 -49 -25 -49h-256c-18 0 -33 8 -45 23l-227 290l-229 -290c-12 -15 -27 -23 -46 -23h-262c-36 0 -44 32 -24 51l387 488l-375 481c-19 33 -6 49 25 49h258c21 0 36 -7 47 -22l221 -285l225 285c9 15 24 23 45 22h260
c36 0 44 -28 25 -49z" />
    <glyph glyph-name="y" unicode="y" horiz-adv-x="1157" 
d="M868 1069h234c31 0 39 -24 31 -45l-441 -1137c-76 -196 -212 -309 -381 -309c-78 0 -150 21 -215 62c-21 12 -25 30 -14 53l61 137c11 21 29 27 54 20c31 -13 61 -20 90 -20c73 0 122 49 166 172l2 4l-430 1018c-13 21 3 45 30 45h232c22 0 37 -10 45 -31l256 -659
l235 659c8 21 23 31 45 31z" />
    <glyph glyph-name="z" unicode="z" horiz-adv-x="1091" 
d="M461 258h518c26 0 39 -13 39 -39v-180c0 -26 -13 -39 -39 -39h-875c-26 0 -39 13 -38 39v129c0 19 6 35 18 47l541 598h-500c-26 0 -39 13 -39 39v180c0 26 13 39 39 39h852c26 0 39 -13 39 -39v-143c0 -18 -7 -34 -21 -47z" />
    <glyph glyph-name="braceleft" unicode="{" horiz-adv-x="753" 
d="M662 1479c-49 -7 -86 -15 -110 -25c-24 -11 -43 -30 -56 -57c-19 -33 -27 -88 -26 -165c1 -39 1 -70 2 -95s3 -60 7 -106c4 -47 6 -74 6 -83c9 -151 -31 -258 -120 -319c99 -57 129 -153 120 -320c-1 -18 -3 -48 -6 -89s-4 -72 -5 -91s-1 -46 -2 -79s0 -59 1 -78
c1 -18 4 -38 9 -60s11 -40 18 -53c12 -20 26 -31 44 -43c12 -8 17 -12 33 -17c15 -5 19 -7 36 -10c8 -1 13 -2 16 -3c5 -1 29 -5 33 -5c27 -4 41 -18 40 -41v-111c0 -27 -20 -41 -61 -41c-183 7 -308 62 -375 166c-31 49 -43 117 -42 208c1 46 2 85 3 116s5 73 11 126
c5 53 9 85 10 97c11 83 7 136 -11 159c-19 23 -66 43 -143 62c-7 1 -11 3 -14 4c-27 5 -41 18 -41 39v127c0 22 14 36 41 41c85 21 137 42 156 65c19 22 23 75 12 160c0 9 -4 49 -11 119c-8 70 -13 123 -14 160s1 82 8 136c6 54 18 97 37 128c29 49 77 89 144 120
s143 47 229 50c41 0 61 -13 61 -39v-112c1 -23 -13 -37 -40 -41z" />
    <glyph glyph-name="bar" unicode="|" horiz-adv-x="630" 
d="M385 -410h-137c-21 0 -39 18 -39 39v1970c0 26 13 39 39 39h137c21 0 39 -16 39 -39v-1970c0 -21 -18 -39 -39 -39z" />
    <glyph glyph-name="braceright" unicode="}" horiz-adv-x="753" 
d="M674 733c27 -5 41 -19 41 -41v-127c0 -21 -14 -34 -41 -39c-29 -7 -48 -11 -58 -14c-11 -3 -25 -7 -43 -14c-19 -7 -30 -14 -35 -19s-12 -13 -21 -24c-23 -34 -15 -73 -11 -156c0 -7 4 -45 11 -116s12 -125 13 -162c1 -38 -1 -83 -7 -138s-18 -98 -36 -129
c-67 -104 -191 -159 -374 -166c-41 0 -61 14 -62 41v111c0 23 14 37 41 41c51 8 86 17 107 26c20 10 38 27 55 52c33 57 36 147 24 318c-7 85 -10 129 -10 132c-8 167 22 263 121 320c-90 60 -130 166 -121 319c0 8 2 32 6 72c3 39 6 68 7 86s3 45 4 81c3 72 0 107 -8 153
c-5 23 -11 42 -19 57c-13 24 -31 42 -62 54c-16 6 -27 10 -34 13s-20 6 -39 10c-19 3 -30 5 -31 5c-27 4 -41 18 -41 41v112c0 26 21 39 62 39c85 -3 161 -19 228 -50s115 -71 144 -120c18 -31 30 -74 36 -128s9 -99 8 -134s-5 -89 -12 -161c-7 -73 -11 -112 -11 -117
c-5 -55 -4 -90 -5 -118c-1 -29 23 -47 32 -59c4 -7 16 -13 36 -20c19 -7 34 -11 44 -14c9 -3 30 -9 61 -17z" />
    <glyph glyph-name="asciitilde" unicode="~" horiz-adv-x="1175" 
d="M309 473c-8 -18 -20 -23 -37 -16l-96 39c-15 7 -21 18 -16 34c42 147 119 221 231 222c53 0 119 -21 197 -64s133 -65 164 -65c45 0 83 28 112 84c11 18 24 23 39 16l94 -39c17 -5 23 -17 19 -35c-45 -151 -123 -227 -232 -227c-53 0 -120 22 -200 67
c-81 44 -135 66 -164 66c-40 0 -77 -27 -111 -82z" />
    <glyph glyph-name="exclamdown" unicode="&#xa1;" horiz-adv-x="671" 
d="M212 1105c35 35 76 52 124 52s89 -17 124 -52s52 -77 52 -126c0 -48 -17 -89 -52 -123s-76 -51 -124 -51s-89 17 -124 51s-52 75 -52 123c0 49 17 91 52 126zM240 649h192c23 0 36 -13 39 -39l31 -944c0 -26 -13 -39 -39 -39h-254c-29 0 -42 13 -39 39l31 944
c0 26 13 39 39 39z" />
    <glyph glyph-name="cent" unicode="&#xa2;" horiz-adv-x="1085" 
d="M899 516l131 -96c21 -17 24 -34 10 -51c-107 -125 -247 -188 -422 -189h-18l-25 -160c-3 -26 -17 -37 -43 -34l-86 12c-21 5 -35 26 -32 45l22 164c-113 37 -203 103 -270 200c-67 96 -100 206 -100 330c0 151 49 281 147 388s226 164 383 169l22 160c3 21 21 38 44 33
l86 -12c27 -3 38 -17 32 -43l-22 -154c107 -26 197 -82 272 -168c17 -19 14 -38 -8 -55l-133 -99c-21 -17 -38 -14 -53 7c-57 60 -128 90 -211 90c-85 0 -153 -30 -206 -91s-79 -137 -79 -227s27 -165 80 -224s123 -89 209 -89c77 0 148 30 215 90c19 15 38 17 55 4z" />
    <glyph glyph-name="sterling" unicode="&#xa3;" horiz-adv-x="1372" 
d="M784 1231c-161 0 -242 -83 -241 -248v-248l465 2c21 0 39 -19 39 -39v-86c0 -21 -18 -39 -39 -39l-465 -2v-348h620c26 0 39 -13 39 -39v-145c0 -26 -13 -39 -39 -39l-995 -2c-26 0 -39 14 -39 41v145c0 26 13 39 39 39h113v348h-113c-21 0 -39 18 -39 39v86
c0 26 13 39 39 39h113v275c0 150 44 265 132 346s202 121 343 121c201 0 369 -81 504 -244c15 -17 14 -34 -5 -51l-108 -107c-19 -19 -39 -19 -60 2c-51 53 -99 92 -144 117c-46 25 -99 37 -159 37z" />
    <glyph glyph-name="currency" unicode="&#xa4;" horiz-adv-x="1507" 
d="M1212 350l119 -119c18 -21 18 -40 0 -57l-61 -59c-19 -19 -38 -19 -56 0l-120 121c-95 -67 -208 -100 -338 -101c-133 0 -247 34 -342 103l-121 -123c-21 -18 -40 -18 -57 0l-60 61c-19 19 -19 38 0 55l121 121c-68 94 -102 207 -102 338s34 245 102 340l-123 123
c-17 19 -17 38 0 57l64 60c17 19 34 19 53 0l123 -123c95 68 208 102 338 102c131 0 244 -34 338 -102l124 125c19 17 39 17 58 0l59 -64c18 -18 18 -36 0 -53l-125 -125c71 -98 106 -214 107 -348c-1 -126 -34 -237 -101 -332zM536 459c61 -56 133 -84 218 -84
s157 27 217 81s90 131 90 230c0 98 -30 176 -91 235c-61 58 -133 87 -218 87c-83 0 -155 -28 -216 -83s-92 -133 -92 -232c0 -100 31 -178 92 -234z" />
    <glyph glyph-name="yen" unicode="&#xa5;" horiz-adv-x="1482" 
d="M1116 1434h295c36 0 43 -27 27 -50l-486 -682h234c21 0 37 -17 37 -38l2 -66c0 -21 -20 -39 -39 -39h-293v-168h293c21 0 37 -16 37 -39l2 -65c0 -21 -18 -39 -39 -39h-293v-209c0 -26 -13 -39 -39 -39h-223c-26 0 -39 13 -39 39v209h-293c-26 0 -39 13 -39 39v65
c0 21 18 39 39 39h293v168h-293c-26 0 -39 13 -39 39v66c0 26 13 39 39 38h240l-490 682c-21 27 -8 50 25 50h295c21 0 36 -8 47 -25l329 -510l326 510c9 17 24 25 45 25z" />
    <glyph glyph-name="brokenbar" unicode="&#xa6;" horiz-adv-x="622" 
d="M381 766h-137c-19 0 -39 20 -39 39v614c0 21 16 39 39 39h137c21 0 39 -19 39 -39v-614c0 -19 -18 -39 -39 -39zM381 -223h-137c-19 0 -39 16 -39 39v616c0 26 13 39 39 39h137c21 0 39 -16 39 -39v-616c0 -21 -18 -39 -39 -39z" />
    <glyph glyph-name="section" unicode="&#xa7;" horiz-adv-x="1101" 
d="M543 -147c-175 0 -311 54 -408 163c-11 13 -12 28 -4 43l74 115c12 18 27 19 45 2c67 -79 155 -119 266 -119c112 0 186 45 186 121c0 34 -13 60 -39 77c-27 17 -72 34 -137 50c-42 9 -76 18 -102 26c-26 7 -59 20 -98 37c-40 17 -71 35 -93 56c-45 41 -86 111 -86 199
c0 101 47 178 142 229c-73 53 -109 124 -109 213c0 94 36 169 107 226s163 85 276 85s236 -39 367 -116c19 -7 23 -20 10 -41l-59 -119c-11 -15 -25 -20 -43 -13c-120 60 -211 90 -273 91c-93 0 -159 -41 -159 -109c0 -40 22 -64 55 -80c16 -8 21 -11 42 -16
c10 -3 17 -5 20 -6c7 -3 37 -11 42 -11c47 -11 81 -19 104 -24c22 -5 56 -17 101 -36s80 -38 103 -58c23 -21 44 -50 64 -87c20 -38 30 -80 30 -126c0 -97 -44 -173 -131 -230c65 -49 98 -121 98 -215c0 -100 -35 -179 -105 -239c-71 -59 -166 -88 -286 -88zM373 641
c0 -29 11 -52 33 -71c21 -19 40 -31 57 -36c16 -5 39 -11 69 -18c44 -7 80 -12 107 -16c64 18 96 57 96 116c0 76 -51 106 -151 127l-78 11c-89 -10 -133 -48 -133 -113z" />
    <glyph glyph-name="copyright" unicode="&#xa9;" horiz-adv-x="1275" 
d="M641 592c-149 0 -270 47 -364 140c-95 93 -142 214 -142 362c0 147 47 268 140 361s213 140 362 140s270 -48 364 -143c93 -95 140 -217 140 -364c0 -148 -46 -268 -139 -359s-214 -137 -361 -137zM639 694c105 0 196 34 273 101c76 67 114 165 114 295
c0 129 -38 229 -115 299c-77 69 -169 104 -276 104c-104 0 -194 -34 -270 -101c-77 -68 -115 -167 -115 -296c0 -131 38 -231 115 -299c76 -69 167 -103 274 -103zM643 836c-77 0 -139 25 -188 74s-74 111 -74 188c0 75 25 138 75 188c49 49 112 74 187 74
c93 0 160 -36 203 -107c4 -8 3 -15 -4 -20l-74 -39c-8 -4 -15 -2 -20 6c-22 35 -58 53 -107 53c-39 0 -72 -15 -98 -44s-39 -66 -39 -111c0 -90 57 -156 141 -156c41 0 76 18 107 53c7 7 13 8 18 4l76 -36c7 -4 9 -10 6 -17c-49 -73 -119 -110 -209 -110z" />
    <glyph glyph-name="guillemotleft" unicode="&#xab;" horiz-adv-x="1126" 
d="M94 641l371 274c21 16 49 1 49 -26v-125c0 -23 -7 -41 -20 -53l-234 -158l232 -154c15 -11 23 -28 22 -53v-125c0 -27 -28 -43 -49 -26l-371 270c-17 12 -25 28 -24 49v78c0 21 8 37 24 49zM1004 889v-125c0 -25 -8 -42 -23 -53l-233 -158l231 -154c17 -12 25 -30 25 -53
v-125c0 -27 -29 -43 -52 -26l-368 270c-17 11 -25 27 -25 49v78c0 22 8 38 25 49l368 274c21 16 52 1 52 -26z" />
    <glyph glyph-name="logicalnot" unicode="&#xac;" horiz-adv-x="1318" 
d="M1112 760l2 -502c0 -19 -19 -37 -39 -37l-86 -2c-21 0 -39 20 -39 39l-2 377l-794 -2c-21 0 -39 16 -39 39v86c0 26 13 39 39 39l829 2h4h86h2c19 0 37 -18 37 -39z" />
    <glyph glyph-name="registered" unicode="&#xae;" horiz-adv-x="1275" 
d="M276 1455c93 93 214 140 363 140s270 -48 363 -143s139 -218 139 -367c0 -145 -47 -263 -140 -355c-94 -92 -215 -138 -362 -138s-268 47 -362 140c-95 93 -142 214 -142 362c0 147 47 268 141 361zM637 694c107 0 198 34 275 101c76 67 114 165 114 295
c0 129 -38 228 -115 298s-168 105 -272 105c-107 0 -198 -34 -274 -101c-77 -68 -115 -167 -115 -296c0 -131 38 -231 115 -299c76 -69 167 -103 272 -103zM754 1057l90 -172c7 -12 3 -18 -10 -19h-78c-7 0 -12 4 -17 11l-80 159h-81v-155c0 -9 -6 -14 -17 -15h-80
c-8 0 -12 5 -12 15v438c0 8 4 12 12 12h183c99 0 167 -58 167 -147c1 -59 -25 -101 -77 -127zM664 1243h-86v-115h86c42 0 63 19 63 58c0 33 -26 57 -63 57z" />
    <glyph glyph-name="degree" unicode="&#xb0;" horiz-adv-x="937" 
d="M469 934c-94 0 -170 29 -228 88s-87 136 -87 231c0 94 29 170 87 229c58 58 134 87 228 87c95 0 172 -29 229 -87s86 -134 86 -229s-29 -172 -88 -231s-134 -88 -227 -88zM348 1128c30 -31 70 -47 121 -47s91 15 121 45s45 72 45 125s-15 95 -45 126s-71 46 -123 46
s-92 -15 -121 -45s-43 -71 -43 -124s15 -95 45 -126z" />
    <glyph glyph-name="plusminus" unicode="&#xb1;" horiz-adv-x="1247" 
d="M1122 752l2 -86c0 -21 -16 -39 -39 -39h-378v-246c0 -26 -13 -39 -39 -39h-86c-21 0 -39 14 -39 37v248h-379c-26 0 -39 13 -39 39v86c0 21 16 39 39 39h377v245c0 24 16 41 39 41h88c21 0 39 -16 39 -39v-247h378c21 0 37 -18 37 -39zM184 215h879c26 0 39 -13 39 -39
v-86c0 -26 -13 -39 -39 -39h-879c-21 0 -39 18 -39 39v86c0 21 18 39 39 39z" />
    <glyph glyph-name="paragraph" unicode="&#xb6;" horiz-adv-x="1361" 
d="M1153 1376l2 -1618c0 -21 -20 -39 -39 -39h-86c-21 0 -39 18 -39 39l-2 1493l-303 -2v-1491c0 -21 -16 -39 -39 -39h-86c-21 0 -39 18 -39 39v809c-116 0 -216 41 -299 124s-125 183 -125 300s42 217 125 300s183 124 299 124h592c26 0 39 -13 39 -39z" />
    <glyph glyph-name="middot" unicode="&#xb7;" horiz-adv-x="671" 
d="M460 468c-35 -35 -76 -52 -124 -52s-89 17 -124 52s-52 77 -52 126c0 48 17 89 52 123s76 51 124 51s89 -17 124 -51s52 -75 52 -123c0 -49 -17 -91 -52 -126z" />
    <glyph glyph-name="guillemotright" unicode="&#xbb;" horiz-adv-x="1128" 
d="M172 915l369 -274c17 -11 25 -27 24 -49v-78c0 -22 -8 -38 -24 -49l-369 -270c-21 -16 -51 -1 -51 26v125c0 23 8 41 24 53l232 154l-234 158c-15 11 -23 28 -22 53v125c0 27 30 43 51 26zM659 915l371 -274c17 -12 25 -28 25 -49v-78c0 -21 -8 -37 -25 -49l-371 -270
c-21 -16 -49 -1 -49 26v125c0 25 8 42 23 53l231 154l-233 158c-13 12 -20 30 -21 53v125c0 27 28 43 49 26z" />
    <glyph glyph-name="onequarter" unicode="&#xbc;" horiz-adv-x="1839" 
d="M457 1516v-906c0 -24 -22 -43 -43 -43h-135c-24 0 -43 19 -43 43v680l-121 -47c-31 -8 -51 1 -60 27l-41 133c-8 22 0 38 25 49l252 100c12 4 25 6 39 7h84c24 0 43 -22 43 -43zM334 -76l852 1618h219l-852 -1618h-219zM1702 414h78c21 0 43 -19 43 -43v-84
c0 -27 -14 -41 -43 -41h-78v-207c0 -24 -19 -43 -43 -43h-119c-24 0 -43 22 -43 43v207h-424c-24 0 -43 18 -43 41v71c0 18 6 35 19 52l450 538c18 21 39 31 64 31h96c24 0 43 -21 43 -45v-520zM1497 680l-223 -266h223v266z" />
    <glyph glyph-name="onehalf" unicode="&#xbd;" horiz-adv-x="1929" 
d="M457 1516v-906c0 -24 -22 -43 -43 -43h-135c-24 0 -43 19 -43 43v680l-121 -47c-31 -8 -51 1 -60 27l-41 133c-8 22 0 38 25 49l252 100c12 4 25 6 39 7h84c24 0 43 -22 43 -43zM334 -76l852 1618h219l-852 -1618h-219zM1499 184h348c24 0 43 -18 43 -43v-102
c0 -24 -20 -45 -45 -45l-604 -2c-21 0 -45 20 -45 45v96c0 18 7 34 21 47c109 107 173 169 192 187c124 117 200 198 227 243c25 34 37 63 37 88c0 65 -55 103 -139 103c-33 0 -64 -7 -94 -21c-30 -15 -50 -27 -61 -37c-11 -11 -29 -29 -54 -55c-22 -23 -44 -24 -65 -2
l-76 72c-13 19 -13 38 0 57c91 120 212 180 362 180c97 0 176 -26 239 -78c62 -53 93 -123 93 -210c0 -89 -47 -185 -141 -289c-52 -55 -124 -126 -215 -213c-9 -9 -17 -16 -23 -21z" />
    <glyph glyph-name="threequarters" unicode="&#xbe;" horiz-adv-x="2054" 
d="M743 858c0 -91 -33 -165 -100 -221s-154 -84 -262 -84c-146 0 -265 53 -356 158c-18 21 -17 40 2 59l84 78c19 19 39 19 59 0c61 -65 133 -98 215 -98c103 0 154 37 154 112c0 78 -60 117 -179 117h-45c-24 0 -43 16 -43 41v98c0 24 19 43 43 43h52c93 0 145 41 145 109
c0 69 -48 104 -143 104c-69 0 -129 -30 -179 -90c-21 -18 -40 -20 -59 -6l-80 74c-18 18 -20 38 -6 59c78 104 189 156 332 156c104 0 187 -25 249 -76s93 -118 93 -203c0 -87 -37 -158 -111 -211c90 -48 135 -121 135 -219zM549 -76l852 1618h219l-852 -1618h-219z
M1917 414h78c21 0 43 -19 43 -43v-84c0 -27 -14 -41 -43 -41h-78v-207c0 -24 -19 -43 -43 -43h-119c-24 0 -43 22 -43 43v207h-424c-24 0 -43 18 -43 41v71c0 18 6 35 19 52l450 538c18 21 39 31 64 31h96c24 0 43 -21 43 -45v-520zM1712 680l-223 -266h223v266z" />
    <glyph glyph-name="questiondown" unicode="&#xbf;" horiz-adv-x="1189" 
d="M739 866c-35 -34 -77 -51 -124 -51c-48 0 -89 17 -124 52c-35 34 -53 75 -53 122c0 49 18 91 53 126s76 52 124 52c47 0 89 -17 124 -52s52 -77 52 -126c0 -48 -17 -89 -52 -123zM627 -451c-154 0 -283 41 -386 124s-155 194 -155 333c0 154 67 271 201 350
c27 14 93 45 116 58c13 7 26 16 41 29c28 24 39 59 39 108v76c0 26 13 39 39 39h174c26 0 39 -13 39 -39v-135c0 -65 -22 -118 -46 -153c-13 -17 -32 -35 -57 -52c-25 -18 -47 -32 -66 -41c-19 -10 -48 -23 -85 -39c-88 -39 -131 -89 -131 -193c0 -154 89 -231 268 -231
c130 0 239 53 328 158c23 23 45 24 64 2l108 -117c12 -17 13 -33 4 -49c-51 -71 -120 -126 -207 -167c-88 -41 -184 -61 -288 -61z" />
    <glyph glyph-name="Agrave" unicode="&#xc0;" horiz-adv-x="1492" 
d="M625 1599l-160 316c-13 33 7 65 43 65h156c27 0 46 -13 55 -38l119 -318c11 -31 -9 -57 -41 -57h-121c-26 -1 -43 10 -51 32zM877 1405l565 -1358c13 -31 3 -47 -31 -47h-244c-22 0 -36 10 -43 29l-96 235h-553l-104 -235c-8 -19 -23 -29 -45 -29h-246
c-31 0 -40 18 -29 47l602 1358c8 19 22 29 43 29h138c22 0 36 -10 43 -29zM942 485l-182 508l-195 -508h377z" />
    <glyph glyph-name="Aacute" unicode="&#xc1;" horiz-adv-x="1492" 
d="M840 1567h-121c-33 0 -52 28 -41 57l119 318c9 26 28 39 55 38h156c36 0 56 -33 43 -65l-160 -316c-8 -22 -25 -33 -51 -32zM877 1405l565 -1358c13 -31 3 -47 -31 -47h-244c-22 0 -36 10 -43 29l-96 235h-553l-104 -235c-8 -19 -23 -29 -45 -29h-246
c-31 0 -40 18 -29 47l602 1358c8 19 22 29 43 29h138c22 0 36 -10 43 -29zM942 485l-182 508l-195 -508h377z" />
    <glyph glyph-name="Acircumflex" unicode="&#xc2;" horiz-adv-x="1492" 
d="M561 1571h-112c-27 0 -43 25 -27 49l254 358c8 15 22 23 43 23h82c22 0 37 -7 45 -21l256 -360c16 -21 1 -49 -27 -49h-110c-31 0 -55 10 -72 31l-131 167l-129 -167c-17 -21 -41 -31 -72 -31zM877 1405l565 -1358c13 -31 3 -47 -31 -47h-244c-22 0 -36 10 -43 29
l-96 235h-553l-104 -235c-8 -19 -23 -29 -45 -29h-246c-31 0 -40 18 -29 47l602 1358c8 19 22 29 43 29h138c22 0 36 -10 43 -29zM942 485l-182 508l-195 -508h377z" />
    <glyph glyph-name="Atilde" unicode="&#xc3;" horiz-adv-x="1492" 
d="M492 1597l-86 37c-15 5 -22 17 -19 35c21 123 102 207 211 207c45 0 101 -18 166 -53c65 -36 110 -54 133 -54c35 0 66 23 92 70c9 18 23 23 41 16l88 -34c15 -5 22 -18 19 -37c-9 -63 -33 -113 -72 -152s-85 -59 -137 -59c-45 0 -102 19 -170 57c-69 37 -114 56 -135 56
c-31 0 -60 -23 -86 -70c-11 -19 -26 -26 -45 -19zM877 1405l565 -1358c13 -31 3 -47 -31 -47h-244c-22 0 -36 10 -43 29l-96 235h-553l-104 -235c-8 -19 -23 -29 -45 -29h-246c-31 0 -40 18 -29 47l602 1358c8 19 22 29 43 29h138c22 0 36 -10 43 -29zM942 485l-182 508
l-195 -508h377z" />
    <glyph glyph-name="Adieresis" unicode="&#xc4;" horiz-adv-x="1492" 
d="M642 1615c-28 -28 -61 -42 -99 -42c-39 0 -72 14 -100 42s-42 62 -42 102c0 39 14 73 42 101s61 42 100 42c38 0 71 -14 99 -42s42 -62 42 -101c0 -40 -14 -74 -42 -102zM981 1573c-39 0 -73 14 -101 43s-42 62 -42 101c0 38 14 71 42 100s62 43 101 43
c38 0 71 -14 99 -42s42 -62 42 -101c0 -40 -14 -74 -42 -102s-61 -42 -99 -42zM877 1405l565 -1358c13 -31 3 -47 -31 -47h-244c-22 0 -36 10 -43 29l-96 235h-553l-104 -235c-8 -19 -23 -29 -45 -29h-246c-31 0 -40 18 -29 47l602 1358c8 19 22 29 43 29h138
c22 0 36 -10 43 -29zM942 485l-182 508l-195 -508h377z" />
    <glyph glyph-name="Aring" unicode="&#xc5;" horiz-adv-x="1492" 
d="M762 1542c-71 0 -128 22 -172 67c-44 44 -66 102 -66 173s22 128 66 173c43 44 101 66 172 66s128 -22 172 -65c43 -44 65 -102 65 -174c0 -71 -22 -128 -66 -173c-45 -45 -102 -67 -171 -67zM762 1896c-71 0 -113 -44 -113 -112c0 -73 45 -117 113 -117s112 40 112 115
c0 71 -44 114 -112 114zM877 1405l565 -1358c13 -31 3 -47 -31 -47h-244c-22 0 -36 10 -43 29l-96 235h-553l-104 -235c-8 -19 -23 -29 -45 -29h-246c-31 0 -40 18 -29 47l602 1358c8 19 22 29 43 29h138c22 0 36 -10 43 -29zM942 485l-182 508l-195 -508h377z" />
    <glyph glyph-name="AE" unicode="&#xc6;" horiz-adv-x="2064" 
d="M1178 281h749c26 0 39 -13 39 -39v-203c0 -26 -13 -39 -39 -39h-1012c-26 0 -39 13 -38 39v225h-388l-116 -235c-11 -19 -25 -29 -43 -29h-250c-31 0 -40 18 -29 47l686 1358c9 19 24 29 45 29h1137c26 0 39 -13 39 -39v-201c0 -26 -13 -39 -39 -39h-741v-311h626
c26 0 39 -13 39 -39v-166c0 -26 -13 -39 -39 -39h-626v-319zM877 1081l-281 -596h281v596z" />
    <glyph glyph-name="Ccedilla" unicode="&#xc7;" horiz-adv-x="1474" 
d="M1221 397l170 -135c18 -17 21 -31 8 -43c-155 -161 -340 -244 -555 -248l-23 -61c124 -18 186 -79 187 -182c0 -139 -124 -220 -324 -220c-38 0 -57 13 -57 39v62c0 22 14 34 41 37h26c15 0 28 0 39 1c10 1 23 3 40 7c42 10 77 32 77 84c0 27 -10 46 -31 57
s-59 22 -114 31c-23 4 -32 15 -25 33l35 121c-181 26 -331 108 -448 245c-118 137 -177 300 -177 490c0 207 70 383 210 527s312 216 515 216c240 0 436 -80 588 -239c13 -17 12 -32 -4 -45l-166 -142c-15 -13 -30 -13 -45 2c-93 100 -215 150 -367 150
c-121 0 -223 -45 -306 -135c-83 -91 -124 -201 -124 -332c0 -133 41 -244 124 -334s185 -135 308 -135c82 0 147 11 195 33c48 21 102 59 162 112c13 13 27 15 41 4z" />
    <glyph glyph-name="Egrave" unicode="&#xc8;" horiz-adv-x="1359" 
d="M563 1599l-160 316c-13 33 8 65 43 65h156c27 0 46 -13 55 -38l119 -318c11 -31 -8 -57 -41 -57h-121c-26 -1 -43 10 -51 32zM475 281h748c26 0 39 -13 39 -39v-203c0 -26 -13 -39 -39 -39h-1010c-26 0 -39 13 -39 39v1356c0 26 13 39 39 39h1004c26 0 39 -13 38 -39
v-201c0 -26 -13 -39 -38 -39h-742v-311h625c26 0 39 -13 39 -39v-166c0 -26 -13 -39 -39 -39h-625v-319z" />
    <glyph glyph-name="Eacute" unicode="&#xc9;" horiz-adv-x="1359" 
d="M778 1567h-121c-33 0 -52 28 -41 57l119 318c9 26 28 39 56 38h155c36 0 56 -33 43 -65l-160 -316c-8 -22 -25 -33 -51 -32zM475 281h748c26 0 39 -13 39 -39v-203c0 -26 -13 -39 -39 -39h-1010c-26 0 -39 13 -39 39v1356c0 26 13 39 39 39h1004c26 0 39 -13 38 -39v-201
c0 -26 -13 -39 -38 -39h-742v-311h625c26 0 39 -13 39 -39v-166c0 -26 -13 -39 -39 -39h-625v-319z" />
    <glyph glyph-name="Ecircumflex" unicode="&#xca;" horiz-adv-x="1359" 
d="M500 1571h-113c-27 0 -43 25 -27 49l254 358c8 15 22 23 43 23h82c22 0 37 -7 45 -21l256 -360c16 -21 1 -49 -26 -49h-111c-31 0 -55 10 -72 31l-131 167l-129 -167c-17 -21 -40 -31 -71 -31zM475 281h748c26 0 39 -13 39 -39v-203c0 -26 -13 -39 -39 -39h-1010
c-26 0 -39 13 -39 39v1356c0 26 13 39 39 39h1004c26 0 39 -13 38 -39v-201c0 -26 -13 -39 -38 -39h-742v-311h625c26 0 39 -13 39 -39v-166c0 -26 -13 -39 -39 -39h-625v-319z" />
    <glyph glyph-name="Edieresis" unicode="&#xcb;" horiz-adv-x="1359" 
d="M581 1615c-28 -28 -61 -42 -99 -42c-39 0 -72 14 -100 42s-42 62 -42 102c0 39 14 73 42 101s61 42 100 42c38 0 71 -14 99 -42s42 -62 42 -101c0 -40 -14 -74 -42 -102zM920 1573c-39 0 -73 14 -101 43c-29 29 -43 62 -43 101c0 38 14 71 42 100s62 43 102 43
c38 0 71 -14 99 -42s42 -62 42 -101c0 -40 -14 -74 -42 -102s-61 -42 -99 -42zM475 281h748c26 0 39 -13 39 -39v-203c0 -26 -13 -39 -39 -39h-1010c-26 0 -39 13 -39 39v1356c0 26 13 39 39 39h1004c26 0 39 -13 38 -39v-201c0 -26 -13 -39 -38 -39h-742v-311h625
c26 0 39 -13 39 -39v-166c0 -26 -13 -39 -39 -39h-625v-319z" />
    <glyph glyph-name="Igrave" unicode="&#xcc;" horiz-adv-x="649" 
d="M358 1567h-120c-26 0 -43 11 -52 32l-159 316c-13 33 7 65 43 65h155c27 0 46 -13 56 -38l118 -318c11 -31 -8 -57 -41 -57zM436 0h-223c-26 0 -39 13 -39 39v1356c0 26 13 39 39 39h223c26 0 39 -13 39 -39v-1356c0 -26 -13 -39 -39 -39z" />
    <glyph glyph-name="Iacute" unicode="&#xcd;" horiz-adv-x="649" 
d="M401 1567h-120c-33 0 -53 28 -41 57l118 318c9 26 28 39 56 38h155c36 0 58 -33 43 -65l-159 -316c-8 -22 -25 -33 -52 -32zM436 0h-223c-26 0 -39 13 -39 39v1356c0 26 13 39 39 39h223c26 0 39 -13 39 -39v-1356c0 -26 -13 -39 -39 -39z" />
    <glyph glyph-name="Icircumflex" unicode="&#xce;" horiz-adv-x="649" 
d="M408 1980l256 -360c16 -21 0 -49 -27 -49h-111c-31 0 -55 10 -71 31l-131 167l-129 -167c-17 -21 -41 -31 -72 -31h-113c-27 0 -43 25 -26 49l254 358c8 15 22 23 43 23h81c22 0 37 -7 46 -21zM213 1434h223c26 0 39 -13 39 -39v-1356c0 -26 -13 -39 -39 -39h-223
c-26 0 -39 13 -39 39v1356c0 26 13 39 39 39z" />
    <glyph glyph-name="Idieresis" unicode="&#xcf;" horiz-adv-x="649" 
d="M204 1615c-28 -28 -61 -42 -99 -42c-39 0 -72 14 -100 42s-42 62 -42 102c0 39 14 73 42 101s61 42 100 42c38 0 71 -14 99 -42s42 -62 42 -101c0 -40 -14 -74 -42 -102zM543 1573c-39 0 -73 14 -101 43c-29 29 -43 62 -43 101c0 38 14 71 42 100s62 43 102 43
c38 0 71 -14 99 -42s42 -62 42 -101c0 -40 -14 -74 -42 -102s-61 -42 -99 -42zM436 0h-223c-26 0 -39 13 -39 39v1356c0 26 13 39 39 39h223c26 0 39 -13 39 -39v-1356c0 -26 -13 -39 -39 -39z" />
    <glyph glyph-name="Eth" unicode="&#xd0;" horiz-adv-x="1501" 
d="M213 1434h541c198 0 356 -65 474 -196s177 -304 177 -521c0 -223 -58 -398 -174 -525c-116 -128 -275 -192 -477 -192h-541c-26 0 -39 13 -39 39v614h-137c-26 0 -39 13 -39 39v88c0 26 13 39 39 39h137v576c0 26 13 39 39 39zM475 295h279c233 0 350 139 350 416
c0 281 -123 430 -350 430h-279v-320h201c21 0 39 -16 39 -39v-90c0 -21 -18 -39 -39 -39h-201v-358z" />
    <glyph glyph-name="Ntilde" unicode="&#xd1;" horiz-adv-x="1634" 
d="M547 1597l-86 37c-15 5 -22 17 -19 35c21 123 102 207 211 207c45 0 101 -18 167 -53c65 -36 109 -54 132 -54c35 0 66 23 92 70c9 18 23 23 41 16l89 -34c15 -5 21 -18 18 -37c-9 -63 -33 -113 -72 -152s-85 -59 -137 -59c-45 0 -102 19 -170 57c-68 37 -113 56 -135 56
c-31 0 -60 -23 -86 -70c-11 -19 -26 -26 -45 -19zM1198 1434h223c26 0 39 -13 39 -39v-1356c0 -26 -13 -39 -39 -39h-159c-21 0 -37 8 -48 23l-739 876v-860c0 -26 -13 -39 -39 -39h-223c-26 0 -39 13 -39 39v1356c0 26 13 39 39 39h158c19 0 35 -7 47 -21l741 -874v856
c0 26 13 39 39 39z" />
    <glyph glyph-name="Ograve" unicode="&#xd2;" horiz-adv-x="1646" 
d="M858 1567h-121c-26 0 -43 11 -51 32l-160 316c-13 33 8 65 43 65h156c27 0 46 -13 55 -38l119 -318c11 -31 -8 -57 -41 -57zM1355 174c-132 -133 -309 -199 -532 -199s-400 66 -531 199c-132 133 -198 310 -198 533c0 224 66 404 199 539s309 202 530 202
c223 0 400 -68 532 -203c131 -135 197 -315 197 -538s-66 -400 -197 -533zM501 373c84 -79 192 -119 323 -119s238 40 323 119s127 191 127 334c0 145 -43 258 -128 341c-85 82 -193 123 -323 123c-129 0 -235 -41 -320 -123c-85 -83 -128 -196 -128 -341
c0 -143 42 -255 126 -334z" />
    <glyph glyph-name="Oacute" unicode="&#xd3;" horiz-adv-x="1646" 
d="M901 1567h-121c-33 0 -52 28 -41 57l119 318c9 26 28 39 55 38h156c36 0 56 -33 43 -65l-160 -316c-8 -22 -25 -33 -51 -32zM1355 174c-132 -133 -309 -199 -532 -199s-400 66 -531 199c-132 133 -198 310 -198 533c0 224 66 404 199 539s309 202 530 202
c223 0 400 -68 532 -203c131 -135 197 -315 197 -538s-66 -400 -197 -533zM501 373c84 -79 192 -119 323 -119s238 40 323 119s127 191 127 334c0 145 -43 258 -128 341c-85 82 -193 123 -323 123c-129 0 -235 -41 -320 -123c-85 -83 -128 -196 -128 -341
c0 -143 42 -255 126 -334z" />
    <glyph glyph-name="Ocircumflex" unicode="&#xd4;" horiz-adv-x="1646" 
d="M623 1571h-113c-27 0 -43 25 -27 49l254 358c8 15 22 23 43 23h82c22 0 37 -7 45 -21l256 -360c16 -21 1 -49 -26 -49h-111c-31 0 -55 10 -72 31l-131 167l-129 -167c-17 -21 -40 -31 -71 -31zM823 1448c223 0 400 -68 532 -203c131 -135 197 -315 197 -538
s-66 -400 -197 -533c-132 -133 -309 -199 -532 -199s-400 66 -531 199c-132 133 -198 310 -198 533c0 224 66 404 199 539c132 135 309 202 530 202zM501 373c84 -79 192 -119 323 -119s238 40 323 119s127 191 127 334c0 145 -43 258 -128 341c-85 82 -193 123 -323 123
c-129 0 -235 -41 -320 -123c-85 -83 -128 -196 -128 -341c0 -143 42 -255 126 -334z" />
    <glyph glyph-name="Otilde" unicode="&#xd5;" horiz-adv-x="1646" 
d="M598 1616c-11 -19 -26 -26 -45 -19l-86 37c-15 5 -21 17 -18 35c11 61 35 111 73 150c37 38 83 57 137 57c45 0 101 -18 167 -53c65 -36 109 -54 132 -54c35 0 66 23 93 70c9 18 23 23 41 16l88 -34c15 -5 21 -18 18 -37c-9 -63 -33 -113 -72 -152s-85 -59 -137 -59
c-45 0 -102 19 -170 57c-68 37 -113 56 -135 56c-31 0 -60 -23 -86 -70zM1355 174c-132 -133 -309 -199 -532 -199s-400 66 -531 199c-132 133 -198 310 -198 533c0 224 66 404 199 539s309 202 530 202c223 0 400 -68 532 -203c131 -135 197 -315 197 -538
s-66 -400 -197 -533zM501 373c84 -79 192 -119 323 -119s238 40 323 119s127 191 127 334c0 145 -43 258 -128 341c-85 82 -193 123 -323 123c-129 0 -235 -41 -320 -123c-85 -83 -128 -196 -128 -341c0 -143 42 -255 126 -334z" />
    <glyph glyph-name="Odieresis" unicode="&#xd6;" horiz-adv-x="1646" 
d="M704 1615c-28 -28 -61 -42 -99 -42c-39 0 -72 14 -100 42s-42 62 -42 102c0 39 14 73 42 101s61 42 100 42c38 0 71 -14 99 -42c27 -28 41 -62 41 -101c0 -40 -14 -74 -41 -102zM1042 1573c-39 0 -73 14 -101 43s-42 62 -42 101c0 38 14 71 42 100s62 43 101 43
c38 0 71 -14 100 -42c28 -28 42 -62 42 -101c0 -40 -14 -74 -42 -102c-29 -28 -62 -42 -100 -42zM1355 174c-132 -133 -309 -199 -532 -199s-400 66 -531 199c-132 133 -198 310 -198 533c0 224 66 404 199 539s309 202 530 202c223 0 400 -68 532 -203
c131 -135 197 -315 197 -538s-66 -400 -197 -533zM501 373c84 -79 192 -119 323 -119s238 40 323 119s127 191 127 334c0 145 -43 258 -128 341c-85 82 -193 123 -323 123c-129 0 -235 -41 -320 -123c-85 -83 -128 -196 -128 -341c0 -143 42 -255 126 -334z" />
    <glyph glyph-name="multiply" unicode="&#xd7;" horiz-adv-x="1103" 
d="M977 989l-309 -309l309 -309c18 -18 18 -37 0 -56l-62 -61c-18 -18 -36 -18 -53 0l-309 309l-309 -309c-18 -18 -37 -18 -56 0l-59 61c-16 13 -15 42 -2 54l309 311l-309 309c-16 13 -16 40 0 53l59 62c19 17 39 17 58 0l309 -309l307 309c13 16 42 15 55 2l62 -62
c18 -19 18 -38 0 -55z" />
    <glyph glyph-name="Oslash" unicode="&#xd8;" horiz-adv-x="1646" 
d="M1323 1526l-94 -180c208 -125 323 -352 323 -639c0 -223 -66 -400 -197 -533c-132 -133 -309 -199 -532 -199c-104 0 -201 16 -291 48l-59 -115h-151l90 172c-203 123 -318 346 -318 627c0 224 66 404 199 539s309 202 530 202c103 0 197 -16 283 -47l65 125h152z
M375 707c0 -167 57 -290 172 -371l426 813c-49 15 -99 23 -150 22c-129 0 -235 -41 -320 -123c-85 -83 -128 -196 -128 -341zM823 254c131 0 239 40 324 119s127 191 127 334c0 172 -60 300 -180 383l-426 -814c49 -15 100 -22 155 -22z" />
    <glyph glyph-name="Ugrave" unicode="&#xd9;" horiz-adv-x="1476" 
d="M774 1556h-121c-26 0 -43 11 -51 33l-160 316c-13 33 8 65 43 65h156c27 0 46 -13 55 -39l119 -317c11 -31 -8 -58 -41 -58zM739 -20c-186 0 -332 61 -439 182s-161 284 -161 489v744c0 26 13 39 39 39h223c26 0 39 -13 39 -39v-744c0 -247 100 -371 299 -370
c198 0 297 123 297 370v744c0 26 13 39 39 39h223c26 0 39 -13 39 -39v-744c0 -205 -54 -368 -161 -489s-253 -182 -437 -182z" />
    <glyph glyph-name="Uacute" unicode="&#xda;" horiz-adv-x="1476" 
d="M817 1556h-121c-33 0 -52 27 -41 58l119 317c9 26 28 39 55 39h156c36 0 56 -33 43 -65l-160 -316c-8 -22 -25 -33 -51 -33zM739 -20c-186 0 -332 61 -439 182s-161 284 -161 489v744c0 26 13 39 39 39h223c26 0 39 -13 39 -39v-744c0 -247 100 -371 299 -370
c198 0 297 123 297 370v744c0 26 13 39 39 39h223c26 0 39 -13 39 -39v-744c0 -205 -54 -368 -161 -489s-253 -182 -437 -182z" />
    <glyph glyph-name="Ucircumflex" unicode="&#xdb;" horiz-adv-x="1476" 
d="M539 1561h-113c-27 0 -43 24 -27 49l254 358c8 15 22 23 43 23h82c22 0 37 -7 45 -21l256 -360c16 -21 1 -49 -26 -49h-111c-31 0 -55 10 -72 30l-131 168l-129 -168c-17 -21 -40 -31 -71 -30zM1075 1434h223c26 0 39 -13 39 -39v-744c0 -205 -53 -368 -160 -489
s-253 -182 -438 -182c-186 0 -332 61 -439 182s-161 284 -161 489v744c0 26 13 39 39 39h223c26 0 39 -13 39 -39v-744c0 -247 100 -371 299 -370c198 0 297 123 297 370v744c0 26 13 39 39 39z" />
    <glyph glyph-name="Udieresis" unicode="&#xdc;" horiz-adv-x="1476" 
d="M620 1605c-28 -28 -61 -42 -99 -42c-39 0 -72 14 -100 42s-42 62 -42 101s14 73 42 101s61 42 100 42c38 0 71 -14 99 -42s42 -62 42 -101s-14 -73 -42 -101zM1058 1605c-28 -28 -61 -42 -99 -42c-39 0 -72 14 -101 42s-43 62 -43 101s14 73 43 101s62 42 101 42
c38 0 71 -14 99 -42s42 -62 42 -101s-14 -73 -42 -101zM739 -20c-186 0 -332 61 -439 182s-161 284 -161 489v744c0 26 13 39 39 39h223c26 0 39 -13 39 -39v-744c0 -247 100 -371 299 -370c198 0 297 123 297 370v744c0 26 13 39 39 39h223c26 0 39 -13 39 -39v-744
c0 -205 -54 -368 -161 -489s-253 -182 -437 -182z" />
    <glyph glyph-name="Yacute" unicode="&#xdd;" horiz-adv-x="1482" 
d="M823 1567h-121c-33 0 -52 28 -40 57l118 318c9 26 28 39 56 38h155c36 0 56 -33 43 -65l-160 -316c-8 -22 -25 -33 -51 -32zM1126 1434h285c36 0 43 -27 27 -50l-543 -761v-584c0 -26 -13 -39 -39 -39h-223c-26 0 -39 13 -39 39v586l-545 759c-21 27 -8 50 25 50h284
c22 0 38 -8 48 -25l339 -516l336 516c9 17 24 25 45 25z" />
    <glyph glyph-name="Thorn" unicode="&#xde;" horiz-adv-x="1349" 
d="M475 1165h293c151 0 274 -41 369 -122c94 -82 141 -190 141 -324s-47 -242 -140 -325c-94 -83 -217 -124 -370 -124h-293v-231c0 -26 -13 -39 -39 -39h-223c-26 0 -39 13 -39 39v1356c0 26 13 39 39 39h223c26 0 39 -13 39 -39v-230zM475 522h293c69 0 124 20 164 59
c39 39 59 86 59 142c0 55 -20 102 -60 141c-41 39 -95 58 -163 58h-293v-400z" />
    <glyph glyph-name="germandbls" unicode="&#xdf;" horiz-adv-x="1347" 
d="M901 -18c-75 0 -144 11 -205 35c-61 23 -104 50 -129 81c-11 9 -13 22 -6 37l64 131c5 16 21 23 34 15c63 -59 134 -88 213 -88c108 0 162 41 162 124c0 47 -11 78 -54 103c-21 12 -38 21 -51 27c-13 5 -38 14 -73 27c-35 12 -63 23 -83 32s-45 24 -74 45
c-59 41 -87 100 -87 176c-2 139 110 185 197 225c60 28 106 74 106 146c0 109 -98 170 -247 170c-82 0 -141 -24 -178 -73s-56 -139 -56 -271v-885c0 -19 -19 -39 -39 -39h-182c-26 0 -39 13 -39 39v960c0 311 162 490 475 490c141 0 259 -34 355 -101
c95 -68 143 -167 143 -296c0 -67 -15 -123 -44 -168s-61 -76 -96 -92c-35 -17 -68 -33 -97 -49c-29 -17 -44 -34 -44 -52c0 -26 27 -41 63 -55c20 -8 66 -25 91 -33c179 -79 268 -187 268 -324c0 -104 -34 -186 -103 -246c-69 -61 -164 -91 -284 -91z" />
    <glyph glyph-name="agrave" unicode="&#xe0;" horiz-adv-x="1366" 
d="M541 1231l-160 315c-13 33 7 66 43 66h156c27 0 46 -13 55 -39l119 -318c11 -31 -9 -57 -41 -57h-121c-26 0 -43 11 -51 33zM991 1069h199c26 0 39 -13 39 -39v-991c0 -26 -13 -39 -39 -39h-199c-19 0 -32 13 -39 39l-16 131c-98 -130 -220 -195 -365 -195
c-138 0 -256 51 -353 152s-146 237 -146 408s49 307 147 409c97 101 213 152 346 152c143 0 268 -61 373 -183l14 117c4 26 17 39 39 39zM649 217c82 0 151 27 208 80s85 131 85 232s-29 180 -86 237s-128 86 -211 86c-82 0 -151 -28 -206 -84s-83 -134 -83 -233
c0 -100 28 -178 84 -234s126 -84 209 -84z" />
    <glyph glyph-name="aacute" unicode="&#xe1;" horiz-adv-x="1366" 
d="M756 1198h-121c-33 0 -52 28 -41 57l119 318c9 26 28 39 55 39h156c36 0 56 -33 43 -66l-160 -315c-8 -22 -25 -33 -51 -33zM991 1069h199c26 0 39 -13 39 -39v-991c0 -26 -13 -39 -39 -39h-199c-19 0 -32 13 -39 39l-16 131c-98 -130 -220 -195 -365 -195
c-138 0 -256 51 -353 152s-146 237 -146 408s49 307 147 409c97 101 213 152 346 152c143 0 268 -61 373 -183l14 117c4 26 17 39 39 39zM649 217c82 0 151 27 208 80s85 131 85 232s-29 180 -86 237s-128 86 -211 86c-82 0 -151 -28 -206 -84s-83 -134 -83 -233
c0 -100 28 -178 84 -234s126 -84 209 -84z" />
    <glyph glyph-name="acircumflex" unicode="&#xe2;" horiz-adv-x="1366" 
d="M477 1202h-112c-27 0 -43 25 -27 49l254 359c8 15 22 23 43 22h82c22 0 37 -7 45 -20l256 -361c16 -21 1 -49 -27 -49h-110c-31 0 -55 10 -72 31l-131 168l-129 -168c-17 -21 -41 -31 -72 -31zM991 1069h199c26 0 39 -13 39 -39v-991c0 -26 -13 -39 -39 -39h-199
c-19 0 -32 13 -39 39l-16 131c-98 -130 -220 -195 -365 -195c-138 0 -256 51 -353 152s-146 237 -146 408s49 307 147 409c97 101 213 152 346 152c143 0 268 -61 373 -183l14 117c4 26 17 39 39 39zM649 217c82 0 151 27 208 80s85 131 85 232s-29 180 -86 237
s-128 86 -211 86c-82 0 -151 -28 -206 -84s-83 -134 -83 -233c0 -100 28 -178 84 -234s126 -84 209 -84z" />
    <glyph glyph-name="atilde" unicode="&#xe3;" horiz-adv-x="1366" 
d="M408 1229l-86 37c-15 5 -22 17 -19 34c21 123 102 207 211 207c45 0 101 -18 166 -53s110 -53 133 -53c35 0 66 23 92 69c9 18 23 24 41 17l88 -35c15 -5 22 -18 19 -37c-9 -63 -33 -113 -72 -152s-85 -59 -137 -59c-45 0 -102 19 -170 57c-69 37 -114 56 -135 56
c-31 0 -60 -23 -86 -70c-11 -19 -26 -25 -45 -18zM991 1069h199c26 0 39 -13 39 -39v-991c0 -26 -13 -39 -39 -39h-199c-19 0 -32 13 -39 39l-16 131c-98 -130 -220 -195 -365 -195c-138 0 -256 51 -353 152s-146 237 -146 408s49 307 147 409c97 101 213 152 346 152
c143 0 268 -61 373 -183l14 117c4 26 17 39 39 39zM649 217c82 0 151 27 208 80s85 131 85 232s-29 180 -86 237s-128 86 -211 86c-82 0 -151 -28 -206 -84s-83 -134 -83 -233c0 -100 28 -178 84 -234s126 -84 209 -84z" />
    <glyph glyph-name="adieresis" unicode="&#xe4;" horiz-adv-x="1366" 
d="M558 1246c-28 -28 -61 -42 -99 -42c-39 0 -72 14 -100 42s-42 62 -42 102c0 39 14 73 42 101s61 42 100 42c38 0 71 -14 99 -42s42 -62 42 -101c0 -40 -14 -74 -42 -102zM996 1246c-28 -28 -61 -42 -99 -42s-71 14 -100 43s-43 62 -43 101c0 38 14 71 43 100
s62 43 100 43s71 -14 99 -42s42 -62 42 -101c0 -40 -14 -74 -42 -102zM991 1069h199c26 0 39 -13 39 -39v-991c0 -26 -13 -39 -39 -39h-199c-19 0 -32 13 -39 39l-16 131c-98 -130 -220 -195 -365 -195c-138 0 -256 51 -353 152s-146 237 -146 408s49 307 147 409
c97 101 213 152 346 152c143 0 268 -61 373 -183l14 117c4 26 17 39 39 39zM649 217c82 0 151 27 208 80s85 131 85 232s-29 180 -86 237s-128 86 -211 86c-82 0 -151 -28 -206 -84s-83 -134 -83 -233c0 -100 28 -178 84 -234s126 -84 209 -84z" />
    <glyph glyph-name="aring" unicode="&#xe5;" horiz-adv-x="1366" 
d="M678 1174c-71 0 -128 22 -172 67c-44 44 -66 102 -66 173s22 128 66 173c43 44 101 66 172 66s128 -22 172 -65c43 -44 65 -102 65 -175c0 -71 -22 -128 -66 -172c-45 -45 -102 -67 -171 -67zM760 1497c-21 21 -48 31 -82 31s-61 -10 -82 -31s-31 -48 -31 -82
c0 -73 45 -117 113 -117s113 42 113 115c0 35 -10 63 -31 84zM991 1069h199c26 0 39 -13 39 -39v-991c0 -26 -13 -39 -39 -39h-199c-19 0 -32 13 -39 39l-16 131c-98 -130 -220 -195 -365 -195c-138 0 -256 51 -353 152s-146 237 -146 408s49 307 147 409
c97 101 213 152 346 152c143 0 268 -61 373 -183l14 117c4 26 17 39 39 39zM649 217c82 0 151 27 208 80s85 131 85 232s-29 180 -86 237s-128 86 -211 86c-82 0 -151 -28 -206 -84s-83 -134 -83 -233c0 -100 28 -178 84 -234s126 -84 209 -84z" />
    <glyph glyph-name="ae" unicode="&#xe6;" horiz-adv-x="2099" 
d="M1505 1096c155 0 282 -51 380 -154s147 -237 147 -403c0 -19 -1 -34 -2 -45c-1 -25 -15 -37 -41 -37h-744c21 -164 131 -256 318 -256c69 0 125 12 168 36c42 23 81 57 118 101c18 18 37 19 56 2l92 -92c18 -19 17 -41 -4 -64c-53 -69 -122 -121 -205 -155
c-83 -35 -169 -52 -258 -52c-104 0 -198 22 -281 66v-20c0 -15 -7 -23 -20 -23h-238c-19 0 -32 13 -39 39l-16 131c-98 -130 -220 -195 -365 -195c-138 0 -256 51 -353 152s-146 237 -146 408s49 307 147 408c97 101 211 151 342 151c143 0 269 -62 377 -185l14 121
c4 26 17 39 39 39h240c12 0 18 -7 18 -20v-15c78 41 163 62 256 62zM1516 874c-148 0 -254 -84 -273 -235h535c-19 153 -117 235 -262 235zM639 217c82 0 151 27 208 80s85 131 85 232s-29 180 -86 237s-128 86 -211 86c-82 0 -151 -28 -206 -84s-83 -134 -83 -233
c0 -100 28 -178 83 -234s125 -84 210 -84z" />
    <glyph glyph-name="ccedilla" unicode="&#xe7;" horiz-adv-x="1085" 
d="M899 313l131 -94c19 -15 23 -33 10 -53c-38 -52 -92 -95 -162 -129c-71 -34 -147 -54 -229 -60l-26 -67c124 -18 186 -79 186 -182c0 -139 -124 -220 -324 -220c-38 0 -57 13 -57 39v62c0 22 14 34 41 37h26c15 0 28 0 39 1c10 1 23 3 40 7c44 11 77 32 77 84
c0 27 -10 46 -30 57c-21 11 -59 22 -115 31c-23 4 -32 15 -25 33l37 127c-135 22 -244 85 -327 188s-125 224 -125 363c0 155 52 287 155 395s234 162 395 162c87 0 167 -17 240 -51c73 -35 131 -79 174 -134c17 -21 14 -39 -8 -55l-133 -100c-19 -13 -37 -11 -53 6
c-61 61 -132 92 -211 92c-85 0 -153 -30 -206 -91s-79 -136 -79 -226c0 -91 26 -166 79 -226s122 -90 208 -90c52 0 92 14 126 27c20 8 46 26 55 34c5 3 12 9 21 17l15 12c19 15 38 17 55 4z" />
    <glyph glyph-name="egrave" unicode="&#xe8;" horiz-adv-x="1198" 
d="M467 1231l-160 315c-13 33 8 66 43 66h156c27 0 46 -13 55 -39l119 -318c11 -31 -8 -57 -41 -57h-121c-26 0 -43 11 -51 33zM604 1096c154 0 280 -51 379 -154c98 -103 147 -237 147 -403c0 -19 -1 -34 -2 -45c-4 -25 -18 -37 -43 -37h-741c27 -171 132 -256 315 -256
c117 0 213 46 287 137c19 19 38 20 55 2l95 -92c18 -21 16 -42 -6 -64c-115 -138 -266 -207 -455 -207c-168 0 -304 52 -409 155s-158 236 -158 398c0 159 49 293 147 402s228 164 389 164zM614 874c-148 0 -253 -84 -274 -235h534c-19 153 -115 235 -260 235z" />
    <glyph glyph-name="eacute" unicode="&#xe9;" horiz-adv-x="1198" 
d="M682 1198h-121c-33 0 -52 28 -41 57l119 318c9 26 28 39 55 39h156c36 0 56 -33 43 -66l-160 -315c-8 -22 -25 -33 -51 -33zM604 1096c154 0 280 -51 379 -154c98 -103 147 -237 147 -403c0 -19 -1 -34 -2 -45c-4 -25 -18 -37 -43 -37h-741c27 -171 132 -256 315 -256
c117 0 213 46 287 137c19 19 38 20 55 2l95 -92c18 -21 16 -42 -6 -64c-115 -138 -266 -207 -455 -207c-168 0 -304 52 -409 155s-158 236 -158 398c0 159 49 293 147 402s228 164 389 164zM614 874c-148 0 -253 -84 -274 -235h534c-19 153 -115 235 -260 235z" />
    <glyph glyph-name="ecircumflex" unicode="&#xea;" horiz-adv-x="1198" 
d="M403 1202h-112c-27 0 -43 25 -27 49l254 359c8 15 22 23 43 22h82c22 0 37 -7 45 -20l256 -361c16 -21 1 -49 -26 -49h-111c-31 0 -55 10 -72 31l-131 168l-129 -168c-17 -21 -41 -31 -72 -31zM604 1096c154 0 280 -51 379 -154c98 -103 147 -237 147 -403
c0 -19 -1 -34 -2 -45c-4 -25 -18 -37 -43 -37h-741c27 -171 132 -256 315 -256c117 0 213 46 287 137c19 19 38 20 55 2l95 -92c18 -21 16 -42 -6 -64c-115 -138 -266 -207 -455 -207c-168 0 -304 52 -409 155s-158 236 -158 398c0 159 49 293 147 402s228 164 389 164z
M614 874c-148 0 -253 -84 -274 -235h534c-19 153 -115 235 -260 235z" />
    <glyph glyph-name="edieresis" unicode="&#xeb;" horiz-adv-x="1198" 
d="M484 1246c-28 -28 -61 -42 -99 -42s-71 14 -99 42s-42 62 -42 102c0 39 14 73 42 101s61 42 99 42s71 -14 99 -42s42 -62 42 -101c0 -40 -14 -74 -42 -102zM923 1246c-28 -28 -61 -42 -99 -42c-39 0 -72 14 -101 43s-43 62 -43 101c0 38 14 71 43 100s62 43 101 43
c38 0 71 -14 99 -42s42 -62 42 -101c0 -40 -14 -74 -42 -102zM604 1096c154 0 280 -51 379 -154c98 -103 147 -237 147 -403c0 -19 -1 -34 -2 -45c-4 -25 -18 -37 -43 -37h-741c27 -171 132 -256 315 -256c117 0 213 46 287 137c19 19 38 20 55 2l95 -92
c18 -21 16 -42 -6 -64c-115 -138 -266 -207 -455 -207c-168 0 -304 52 -409 155s-158 236 -158 398c0 159 49 293 147 402s228 164 389 164zM614 874c-148 0 -253 -84 -274 -235h534c-19 153 -115 235 -260 235z" />
    <glyph glyph-name="igrave" unicode="&#xec;" horiz-adv-x="577" 
d="M324 1190h-121c-26 0 -43 11 -51 33l-160 315c-13 33 7 66 43 66h155c27 0 46 -13 56 -39l119 -318c11 -31 -9 -57 -41 -57zM401 0h-225c-26 0 -39 13 -39 39v991c0 26 13 39 39 39h225c26 0 39 -13 39 -39v-991c0 -26 -13 -39 -39 -39z" />
    <glyph glyph-name="iacute" unicode="&#xed;" horiz-adv-x="577" 
d="M367 1190h-121c-33 0 -52 28 -41 57l119 318c9 26 28 39 55 39h156c36 0 56 -33 43 -66l-160 -315c-8 -22 -25 -33 -51 -33zM401 0h-225c-26 0 -39 13 -39 39v991c0 26 13 39 39 39h225c26 0 39 -13 39 -39v-991c0 -26 -13 -39 -39 -39z" />
    <glyph glyph-name="icircumflex" unicode="&#xee;" horiz-adv-x="577" 
d="M373 1604l256 -361c16 -21 1 -49 -27 -49h-110c-31 0 -55 10 -72 31l-131 168l-129 -168c-17 -21 -41 -31 -72 -31h-113c-27 0 -42 25 -26 49l254 359c8 15 22 23 43 22h82c22 0 37 -7 45 -20zM176 1069h225c26 0 39 -13 39 -39v-991c0 -26 -13 -39 -39 -39h-225
c-26 0 -39 13 -39 39v991c0 26 13 39 39 39z" />
    <glyph glyph-name="idieresis" unicode="&#xef;" horiz-adv-x="577" 
d="M169 1238c-28 -28 -61 -42 -99 -42c-39 0 -72 14 -100 42s-42 62 -42 102c0 39 14 73 42 101s61 42 100 42c38 0 71 -14 99 -42s42 -62 42 -101c0 -40 -14 -74 -42 -102zM607 1238c-28 -28 -61 -42 -99 -42s-71 14 -100 43s-43 62 -43 101c0 38 14 71 43 100
s62 43 100 43s71 -14 99 -42s42 -62 42 -101c0 -40 -14 -74 -42 -102zM401 0h-225c-26 0 -39 13 -39 39v991c0 26 13 39 39 39h225c26 0 39 -13 39 -39v-991c0 -26 -13 -39 -39 -39z" />
    <glyph glyph-name="eth" unicode="&#xf0;" horiz-adv-x="1249" 
d="M793 1401l305 -549c57 -91 86 -196 86 -315c0 -164 -52 -298 -157 -403s-239 -157 -402 -157c-165 0 -299 52 -402 156s-155 239 -155 404c0 164 52 298 155 402c103 103 237 155 402 155c19 0 45 -1 77 -4l-112 202l-168 -88c-22 -12 -39 -6 -51 17l-27 49
c-13 22 -8 39 16 51l166 88l-59 107c-12 21 -7 38 14 53l133 76c22 13 40 8 54 -17l61 -112l184 96c22 11 40 5 54 -17l26 -47c11 -23 5 -40 -18 -51zM623 219c83 0 155 28 214 85s89 134 89 233c0 98 -29 175 -88 231s-130 84 -213 84s-154 -28 -213 -83s-88 -133 -88 -232
c0 -100 29 -178 88 -234s129 -84 211 -84z" />
    <glyph glyph-name="ntilde" unicode="&#xf1;" horiz-adv-x="1323" 
d="M397 1229l-86 37c-15 5 -21 17 -18 34c21 123 102 207 211 207c45 0 101 -18 166 -53s110 -53 133 -53c35 0 66 23 92 69c9 18 23 24 41 17l88 -35c15 -5 21 -18 18 -37c-9 -63 -33 -113 -72 -152s-85 -59 -136 -59c-45 0 -102 19 -170 57c-69 37 -114 56 -136 56
c-31 0 -60 -23 -86 -70c-11 -19 -26 -25 -45 -18zM793 1094c127 0 228 -44 304 -133c75 -89 113 -215 113 -377v-545c0 -26 -13 -39 -39 -39h-223c-26 0 -39 13 -39 39v545c0 153 -78 241 -215 241c-148 0 -248 -97 -256 -305v-481c0 -26 -13 -39 -39 -39h-223
c-26 0 -39 13 -39 39v991c0 26 13 39 39 39h209c19 0 32 -13 39 -39l12 -102c97 111 216 166 357 166z" />
    <glyph glyph-name="ograve" unicode="&#xf2;" horiz-adv-x="1249" 
d="M659 1198h-120c-26 0 -43 11 -52 33l-159 315c-13 33 7 66 43 66h155c27 0 46 -13 56 -39l118 -318c11 -31 -8 -57 -41 -57zM625 -23c-165 0 -299 52 -402 156s-155 239 -155 404c0 164 52 298 155 402c103 103 237 155 402 155s299 -52 403 -156s156 -238 156 -401
c0 -164 -52 -298 -156 -403c-105 -105 -239 -157 -403 -157zM414 307c59 -56 129 -84 211 -84s153 28 212 84s89 133 89 230s-29 173 -88 228s-130 83 -213 83c-82 0 -152 -28 -211 -83s-88 -131 -88 -228c0 -98 29 -175 88 -230z" />
    <glyph glyph-name="oacute" unicode="&#xf3;" horiz-adv-x="1249" 
d="M702 1198h-120c-33 0 -53 28 -41 57l118 318c9 26 28 39 56 39h155c36 0 58 -33 43 -66l-159 -315c-8 -22 -25 -33 -52 -33zM625 -23c-165 0 -299 52 -402 156s-155 239 -155 404c0 164 52 298 155 402c103 103 237 155 402 155s299 -52 403 -156s156 -238 156 -401
c0 -164 -52 -298 -156 -403c-105 -105 -239 -157 -403 -157zM414 307c59 -56 129 -84 211 -84s153 28 212 84s89 133 89 230s-29 173 -88 228s-130 83 -213 83c-82 0 -152 -28 -211 -83s-88 -131 -88 -228c0 -98 29 -175 88 -230z" />
    <glyph glyph-name="ocircumflex" unicode="&#xf4;" horiz-adv-x="1249" 
d="M424 1202h-113c-27 0 -43 25 -26 49l254 359c8 15 22 23 43 22h82c22 0 37 -7 45 -20l256 -361c16 -21 0 -49 -27 -49h-111c-31 0 -55 10 -71 31l-131 168l-129 -168c-17 -21 -41 -31 -72 -31zM223 939c103 103 237 155 402 155s299 -52 403 -156s156 -238 156 -401
c0 -164 -52 -298 -157 -403s-239 -157 -402 -157c-165 0 -299 52 -402 156s-155 239 -155 404c0 164 52 298 155 402zM414 307c59 -56 129 -84 211 -84s153 28 212 84s89 133 89 230s-29 173 -88 228s-130 83 -213 83c-82 0 -152 -28 -211 -83s-88 -131 -88 -228
c0 -98 29 -175 88 -230z" />
    <glyph glyph-name="otilde" unicode="&#xf5;" horiz-adv-x="1249" 
d="M399 1247c-11 -19 -26 -25 -45 -18l-86 37c-15 5 -21 17 -18 34c21 123 102 207 211 207c45 0 101 -18 166 -53s110 -53 133 -53c35 0 66 23 92 69c9 18 23 24 41 17l88 -35c15 -5 21 -18 18 -37c-9 -63 -33 -113 -72 -152s-85 -59 -136 -59c-45 0 -102 19 -170 57
c-69 37 -114 56 -136 56c-31 0 -60 -23 -86 -70zM625 -23c-165 0 -299 52 -402 156s-155 239 -155 404c0 164 52 298 155 402c103 103 237 155 402 155s299 -52 403 -156s156 -238 156 -401c0 -164 -52 -298 -156 -403c-105 -105 -239 -157 -403 -157zM414 307
c59 -56 129 -84 211 -84s153 28 212 84s89 133 89 230s-29 173 -88 228s-130 83 -213 83c-82 0 -152 -28 -211 -83s-88 -131 -88 -228c0 -98 29 -175 88 -230z" />
    <glyph glyph-name="odieresis" unicode="&#xf6;" horiz-adv-x="1249" 
d="M505 1246c-28 -28 -61 -42 -99 -42c-39 0 -72 14 -100 42s-42 62 -42 102c0 39 14 73 42 101s61 42 100 42c38 0 71 -14 99 -42s42 -62 42 -101c0 -40 -14 -74 -42 -102zM943 1246c-28 -28 -61 -42 -99 -42c-39 0 -72 14 -101 43s-43 62 -43 101c0 38 14 71 43 100
s62 43 101 43c38 0 71 -14 99 -42s42 -62 42 -101c0 -40 -14 -74 -42 -102zM625 -23c-165 0 -299 52 -402 156s-155 239 -155 404c0 164 52 298 155 402c103 103 237 155 402 155s299 -52 403 -156s156 -238 156 -401c0 -164 -52 -298 -156 -403
c-105 -105 -239 -157 -403 -157zM414 307c59 -56 129 -84 211 -84s153 28 212 84s89 133 89 230s-29 173 -88 228s-130 83 -213 83c-82 0 -152 -28 -211 -83s-88 -131 -88 -228c0 -98 29 -175 88 -230z" />
    <glyph glyph-name="divide" unicode="&#xf7;" horiz-adv-x="1193" 
d="M598 952c-42 0 -79 16 -110 49c-32 32 -48 70 -48 114c0 43 16 81 48 112c31 31 68 47 110 47c44 0 82 -16 113 -47s47 -69 47 -112c0 -44 -16 -82 -47 -114c-31 -33 -69 -49 -113 -49zM1057 627h-922c-26 0 -39 13 -39 39v86c0 21 18 39 39 39h922c21 0 39 -18 39 -39
v-86c0 -21 -18 -39 -39 -39zM711 193c-31 -32 -69 -48 -113 -48s-81 16 -112 48c-31 31 -46 69 -46 113c0 43 15 81 46 112s68 47 112 47s82 -16 113 -47s47 -69 47 -112c0 -44 -16 -82 -47 -113z" />
    <glyph glyph-name="oslash" unicode="&#xf8;" horiz-adv-x="1249" 
d="M1124 1346l-178 -340c151 -99 238 -268 238 -469c0 -164 -52 -298 -157 -403s-239 -157 -402 -157c-75 0 -143 11 -203 33l-148 -282h-151l178 340c-148 99 -233 266 -233 469c0 164 52 298 155 402c103 103 237 155 402 155c73 0 139 -10 198 -31l150 283h151zM326 537
c0 -100 32 -180 96 -240l285 541c-30 7 -57 10 -82 10c-82 0 -152 -28 -211 -83s-88 -131 -88 -228zM625 223c82 0 153 28 212 84s89 133 89 230c0 100 -34 180 -101 239l-284 -543c30 -7 58 -10 84 -10z" />
    <glyph glyph-name="ugrave" unicode="&#xf9;" horiz-adv-x="1318" 
d="M516 1231l-160 315c-13 33 8 66 43 66h156c27 0 46 -13 55 -39l119 -318c11 -31 -8 -57 -41 -57h-121c-26 0 -43 11 -51 33zM920 1069h223c26 0 39 -13 39 -39v-991c0 -26 -13 -39 -39 -39h-207c-22 0 -35 13 -39 39l-14 104c-101 -112 -226 -168 -373 -168
c-257 0 -395 180 -395 512v543c0 26 13 39 39 39h223c26 0 39 -13 39 -39v-543c0 -153 80 -243 217 -243c141 0 239 99 248 307v479c0 26 13 39 39 39z" />
    <glyph glyph-name="uacute" unicode="&#xfa;" horiz-adv-x="1318" 
d="M731 1198h-121c-33 0 -52 28 -41 57l119 318c9 26 28 39 55 39h156c36 0 56 -33 43 -66l-160 -315c-8 -22 -25 -33 -51 -33zM920 1069h223c26 0 39 -13 39 -39v-991c0 -26 -13 -39 -39 -39h-207c-22 0 -35 13 -39 39l-14 104c-101 -112 -226 -168 -373 -168
c-257 0 -395 180 -395 512v543c0 26 13 39 39 39h223c26 0 39 -13 39 -39v-543c0 -153 80 -243 217 -243c141 0 239 99 248 307v479c0 26 13 39 39 39z" />
    <glyph glyph-name="ucircumflex" unicode="&#xfb;" horiz-adv-x="1318" 
d="M453 1202h-113c-27 0 -43 25 -27 49l254 359c8 15 22 23 43 22h82c22 0 37 -7 45 -20l256 -361c16 -21 1 -49 -26 -49h-111c-31 0 -55 10 -72 31l-131 168l-129 -168c-17 -21 -40 -31 -71 -31zM920 1069h223c26 0 39 -13 39 -39v-991c0 -26 -13 -39 -39 -39h-207
c-22 0 -35 13 -39 39l-14 104c-101 -112 -226 -168 -373 -168c-257 0 -395 180 -395 512v543c0 26 13 39 39 39h223c26 0 39 -13 39 -39v-543c0 -153 80 -243 217 -243c141 0 239 99 248 307v479c0 26 13 39 39 39z" />
    <glyph glyph-name="udieresis" unicode="&#xfc;" horiz-adv-x="1318" 
d="M534 1246c-28 -28 -61 -42 -99 -42c-39 0 -72 14 -100 42s-42 62 -42 102c0 39 14 73 42 101s61 42 100 42c38 0 71 -14 99 -42c27 -28 41 -62 41 -101c0 -40 -14 -74 -41 -102zM972 1246c-28 -28 -61 -42 -99 -42c-39 0 -72 14 -101 43s-43 62 -43 101
c0 38 14 71 43 100s62 43 101 43c38 0 71 -14 99 -42s42 -62 42 -101c0 -40 -14 -74 -42 -102zM920 1069h223c26 0 39 -13 39 -39v-991c0 -26 -13 -39 -39 -39h-207c-22 0 -35 13 -39 39l-14 104c-101 -112 -226 -168 -373 -168c-257 0 -395 180 -395 512v543
c0 26 13 39 39 39h223c26 0 39 -13 39 -39v-543c0 -153 80 -243 217 -243c141 0 239 99 248 307v479c0 26 13 39 39 39z" />
    <glyph glyph-name="yacute" unicode="&#xfd;" horiz-adv-x="1157" 
d="M657 1198h-120c-33 0 -53 28 -41 57l118 318c9 26 28 39 56 39h155c36 0 58 -33 43 -66l-159 -315c-8 -22 -25 -33 -52 -33zM868 1069h234c31 0 39 -24 31 -45l-441 -1137c-76 -196 -212 -309 -381 -309c-78 0 -150 21 -215 62c-21 12 -25 30 -14 53l61 137
c11 21 29 27 54 20c31 -13 61 -20 90 -20c73 0 122 49 166 172l2 4l-430 1018c-13 21 3 45 30 45h232c22 0 37 -10 45 -31l256 -659l235 659c8 21 23 31 45 31z" />
    <glyph glyph-name="thorn" unicode="&#xfe;" horiz-adv-x="1372" 
d="M811 1098c131 0 246 -51 343 -152c97 -102 146 -238 146 -409s-49 -307 -146 -408s-215 -152 -353 -152c-145 0 -265 64 -361 191v-551c0 -26 -13 -39 -39 -39h-223c-26 0 -39 13 -39 39v1831c0 26 13 39 39 39h223c26 0 39 -13 39 -39v-528c107 119 230 178 371 178z
M723 219c83 0 153 28 209 83s84 134 84 235c0 100 -28 178 -83 234c-55 55 -124 83 -206 83c-83 0 -154 -29 -211 -86s-86 -136 -86 -237s28 -179 85 -232s126 -80 208 -80z" />
    <glyph glyph-name="ydieresis" unicode="&#xff;" horiz-adv-x="1157" 
d="M460 1246c-28 -28 -61 -42 -99 -42c-39 0 -72 14 -100 42s-42 62 -42 102c0 39 14 73 42 101s61 42 100 42c38 0 71 -14 99 -42s42 -62 42 -101c0 -40 -14 -74 -42 -102zM898 1246c-28 -28 -61 -42 -99 -42c-39 0 -72 14 -101 43s-43 62 -43 101c0 38 14 71 43 100
s62 43 101 43c38 0 71 -14 99 -42s42 -62 42 -101c0 -40 -14 -74 -42 -102zM868 1069h234c31 0 39 -24 31 -45l-441 -1137c-76 -196 -212 -309 -381 -309c-78 0 -150 21 -215 62c-21 12 -25 30 -14 53l61 137c11 21 29 27 54 20c31 -13 61 -20 90 -20c73 0 122 49 166 172
l2 4l-430 1018c-13 21 3 45 30 45h232c22 0 37 -10 45 -31l256 -659l235 659c8 21 23 31 45 31z" />
    <glyph glyph-name="Amacron" unicode="&#x100;" horiz-adv-x="1492" 
d="M1079 1612h-635c-21 0 -38 16 -38 39v131c0 26 13 39 38 39l635 2c21 0 39 -18 39 -39v-133c0 -21 -16 -39 -39 -39zM877 1405l565 -1358c13 -31 3 -47 -31 -47h-244c-22 0 -36 10 -43 29l-96 235h-553l-104 -235c-8 -19 -23 -29 -45 -29h-246c-31 0 -40 18 -29 47
l602 1358c8 19 22 29 43 29h138c22 0 36 -10 43 -29zM942 485l-182 508l-195 -508h377z" />
    <glyph glyph-name="amacron" unicode="&#x101;" horiz-adv-x="1366" 
d="M995 1243h-635c-21 0 -38 18 -38 39v131c0 26 13 39 38 39l635 2c21 0 39 -16 39 -39v-133c0 -21 -16 -39 -39 -39zM991 1069h199c26 0 39 -13 39 -39v-991c0 -26 -13 -39 -39 -39h-199c-19 0 -32 13 -39 39l-16 131c-98 -130 -220 -195 -365 -195
c-138 0 -256 51 -353 152s-146 237 -146 408s49 307 147 409c97 101 213 152 346 152c143 0 268 -61 373 -183l14 117c4 26 17 39 39 39zM649 217c82 0 151 27 208 80s85 131 85 232s-29 180 -86 237s-128 86 -211 86c-82 0 -151 -28 -206 -84s-83 -134 -83 -233
c0 -100 28 -178 84 -234s126 -84 209 -84z" />
    <glyph glyph-name="Abreve" unicode="&#x102;" horiz-adv-x="1492" 
d="M762 1561c-100 0 -183 32 -248 97s-101 133 -108 204c-4 35 9 53 40 53h121c21 0 32 -9 35 -27c5 -42 21 -79 47 -110s64 -47 113 -47c51 0 89 16 114 47s40 68 46 110c4 18 16 27 36 27h117c33 0 47 -18 43 -55c-7 -73 -43 -141 -109 -204c-67 -63 -149 -95 -247 -95z
M877 1405l565 -1358c13 -31 3 -47 -31 -47h-244c-22 0 -36 10 -43 29l-96 235h-553l-104 -235c-8 -19 -23 -29 -45 -29h-246c-31 0 -40 18 -29 47l602 1358c8 19 22 29 43 29h138c22 0 36 -10 43 -29zM942 485l-182 508l-195 -508h377z" />
    <glyph glyph-name="abreve" unicode="&#x103;" horiz-adv-x="1366" 
d="M678 1192c-100 0 -183 32 -248 97s-101 133 -108 204c-4 35 9 53 40 53h121c21 0 32 -9 35 -26c5 -42 21 -79 47 -110c26 -32 64 -48 113 -48c51 0 89 16 114 47s40 68 46 111c4 18 16 27 36 26h117c33 0 47 -18 43 -55c-7 -73 -43 -141 -109 -204
c-67 -63 -149 -95 -247 -95zM991 1069h199c26 0 39 -13 39 -39v-991c0 -26 -13 -39 -39 -39h-199c-19 0 -32 13 -39 39l-16 131c-98 -130 -220 -195 -365 -195c-138 0 -256 51 -353 152s-146 237 -146 408s49 307 147 409c97 101 213 152 346 152c143 0 268 -61 373 -183
l14 117c4 26 17 39 39 39zM649 217c82 0 151 27 208 80s85 131 85 232s-29 180 -86 237s-128 86 -211 86c-82 0 -151 -28 -206 -84s-83 -134 -83 -233c0 -100 28 -178 84 -234s126 -84 209 -84z" />
    <glyph glyph-name="Aogonek" unicode="&#x104;" horiz-adv-x="1492" 
d="M1522 -303l24 -80c3 -13 -1 -24 -12 -31c-49 -22 -102 -34 -157 -35s-105 15 -150 49c-45 35 -68 82 -68 142c0 76 49 136 102 188c26 26 43 49 50 70h-144c-22 0 -36 10 -43 29l-96 235h-553l-104 -235c-8 -19 -23 -29 -45 -29h-246c-31 0 -40 18 -29 47l602 1358
c8 19 22 29 43 29h138c22 0 36 -10 43 -29l565 -1358c3 -5 4 -9 4 -12v-17c-4 -126 -137 -187 -131 -256c0 -57 60 -80 172 -51c18 4 30 -1 35 -14zM942 485l-182 508l-195 -508h377z" />
    <glyph glyph-name="aogonek" unicode="&#x105;" horiz-adv-x="1366" 
d="M1305 -299l24 -80c3 -13 -1 -24 -12 -31c-49 -22 -102 -34 -157 -35s-105 16 -150 50s-68 81 -68 141s31 115 64 146c32 32 71 75 86 108h-101c-19 0 -32 13 -39 39l-16 131c-98 -130 -220 -195 -365 -195c-138 0 -256 51 -353 152s-146 237 -146 408s49 307 147 409
c97 101 213 152 346 152c143 0 268 -61 373 -183l14 117c4 26 17 39 39 39h199c26 0 39 -13 39 -39v-991c5 -139 -137 -204 -131 -272c0 -57 60 -81 172 -52c18 4 30 -1 35 -14zM649 217c82 0 151 27 208 80s85 131 85 232s-29 180 -86 237s-128 86 -211 86
c-82 0 -151 -28 -206 -84s-83 -134 -83 -233c0 -100 28 -178 84 -234s126 -84 209 -84z" />
    <glyph glyph-name="Cacute" unicode="&#x106;" horiz-adv-x="1474" 
d="M881 1577h-121c-33 0 -52 28 -41 57l119 318c9 26 28 39 55 39h156c36 0 56 -33 43 -66l-160 -315c-8 -22 -25 -33 -51 -33zM827 -29c-209 0 -384 71 -525 214s-212 319 -212 530c0 207 70 383 210 527s312 216 515 216c240 0 436 -80 588 -239c13 -17 12 -32 -4 -45
l-166 -142c-15 -13 -30 -13 -45 2c-93 100 -215 150 -367 150c-121 0 -223 -45 -306 -135c-83 -91 -124 -201 -124 -332c0 -133 41 -244 124 -334s185 -135 308 -135c82 0 147 11 195 33c48 21 102 59 162 112c13 13 27 15 41 4l170 -135c18 -17 21 -31 8 -43
c-159 -165 -349 -248 -572 -248z" />
    <glyph glyph-name="cacute" unicode="&#x107;" horiz-adv-x="1085" 
d="M670 1198h-121c-33 0 -52 28 -41 57l119 318c9 26 28 39 55 39h156c36 0 56 -33 43 -66l-160 -315c-8 -22 -25 -33 -51 -33zM614 -23c-160 0 -291 54 -394 162s-154 241 -154 398c0 155 52 287 155 395s234 162 395 162c87 0 167 -17 240 -51c73 -35 131 -79 174 -134
c17 -21 14 -39 -8 -55l-133 -100c-19 -13 -37 -11 -53 6c-61 61 -132 92 -211 92c-85 0 -153 -30 -206 -91s-79 -136 -79 -226c0 -91 26 -166 79 -226s122 -90 208 -90c52 0 92 14 126 27c20 8 46 26 55 34c5 3 12 9 21 17l15 12c19 15 38 17 55 4l131 -94
c19 -15 23 -33 10 -53c-41 -55 -100 -100 -177 -135c-77 -36 -160 -54 -249 -54z" />
    <glyph glyph-name="Cdotaccent" unicode="&#x10a;" horiz-adv-x="1474" 
d="M902 1629c-28 -28 -61 -42 -99 -42c-39 0 -72 14 -99 42c-28 28 -42 62 -42 102c0 39 14 73 42 101c27 28 60 42 99 42c38 0 71 -14 99 -42s42 -62 42 -101c0 -40 -14 -74 -42 -102zM827 -29c-209 0 -384 71 -525 214s-212 319 -212 530c0 207 70 383 210 527
s312 216 515 216c240 0 436 -80 588 -239c13 -17 12 -32 -4 -45l-166 -142c-15 -13 -30 -13 -45 2c-93 100 -215 150 -367 150c-121 0 -223 -45 -306 -135c-83 -91 -124 -201 -124 -332c0 -133 41 -244 124 -334s185 -135 308 -135c82 0 147 11 195 33c48 21 102 59 162 112
c13 13 27 15 41 4l170 -135c18 -17 21 -31 8 -43c-159 -165 -349 -248 -572 -248z" />
    <glyph glyph-name="cdotaccent" unicode="&#x10b;" horiz-adv-x="1085" 
d="M691 1250c-28 -28 -61 -42 -99 -42s-71 14 -99 42s-42 62 -42 102c0 39 14 73 42 101s61 42 99 42s71 -14 99 -42s42 -62 42 -101c0 -40 -14 -74 -42 -102zM614 -23c-160 0 -291 54 -394 162s-154 241 -154 398c0 155 52 287 155 395s234 162 395 162
c87 0 167 -17 240 -51c73 -35 131 -79 174 -134c17 -21 14 -39 -8 -55l-133 -100c-19 -13 -37 -11 -53 6c-61 61 -132 92 -211 92c-85 0 -153 -30 -206 -91s-79 -136 -79 -226c0 -91 26 -166 79 -226s122 -90 208 -90c52 0 92 14 126 27c20 8 46 26 55 34c5 3 12 9 21 17
l15 12c19 15 38 17 55 4l131 -94c19 -15 23 -33 10 -53c-41 -55 -100 -100 -177 -135c-77 -36 -160 -54 -249 -54z" />
    <glyph glyph-name="Ccaron" unicode="&#x10c;" horiz-adv-x="1474" 
d="M717 1604l-254 360c-16 21 -1 47 26 47h113c33 0 57 -10 72 -31l129 -168l133 170c13 19 37 29 70 29h110c27 0 43 -26 27 -47l-256 -360c-8 -15 -22 -23 -43 -23h-82c-22 0 -37 8 -45 23zM1221 397l170 -135c18 -17 21 -31 8 -43c-159 -165 -349 -248 -572 -248
c-209 0 -384 71 -525 214s-212 319 -212 530c0 207 70 383 210 527s312 216 515 216c240 0 436 -80 588 -239c13 -17 12 -32 -4 -45l-166 -142c-15 -13 -30 -13 -45 2c-93 100 -215 150 -367 150c-121 0 -223 -45 -306 -135c-83 -91 -124 -201 -124 -332
c0 -133 41 -244 124 -334s185 -135 308 -135c82 0 147 11 195 33c48 21 102 59 162 112c13 13 27 15 41 4z" />
    <glyph glyph-name="ccaron" unicode="&#x10d;" horiz-adv-x="1085" 
d="M506 1225l-254 360c-16 21 -1 47 27 47h112c33 0 57 -10 72 -30l129 -168l133 170c13 19 37 29 70 28h110c27 0 43 -24 27 -47l-256 -360c-8 -15 -22 -23 -43 -23h-82c-22 0 -37 8 -45 23zM899 313l131 -94c19 -15 23 -33 10 -53c-41 -55 -99 -100 -176 -135
c-77 -36 -161 -54 -250 -54c-160 0 -291 54 -394 162s-154 241 -154 398c0 155 52 287 155 395s234 162 395 162c87 0 167 -17 240 -51c73 -35 131 -79 174 -134c17 -21 14 -39 -8 -55l-133 -100c-19 -13 -37 -11 -53 6c-61 61 -132 92 -211 92c-85 0 -153 -30 -206 -91
s-79 -136 -79 -226c0 -91 26 -166 79 -226s122 -90 208 -90c52 0 92 14 126 27c20 8 46 26 55 34c5 3 12 9 21 17l15 12c19 15 38 17 55 4z" />
    <glyph glyph-name="Dcaron" unicode="&#x10e;" horiz-adv-x="1501" 
d="M588 1593l-254 361c-16 21 -1 47 26 47h113c33 0 57 -10 72 -31l129 -168l133 170c13 19 37 29 70 29h110c27 0 43 -26 27 -47l-256 -361c-8 -15 -22 -23 -43 -22h-82c-22 -1 -37 7 -45 22zM213 1434h541c198 0 356 -65 474 -196s177 -304 177 -521
c0 -223 -58 -398 -174 -525c-116 -128 -275 -192 -477 -192h-541c-26 0 -39 13 -39 39v1356c0 26 13 39 39 39zM475 295h279c233 0 350 139 350 416c0 281 -123 430 -350 430h-279v-846z" />
    <glyph glyph-name="dcaron" unicode="&#x10f;" horiz-adv-x="1550" 
d="M971 1487h223c26 0 39 -13 39 -39v-1409c0 -26 -13 -39 -39 -39h-197c-22 0 -35 13 -39 39l-18 137c-97 -134 -220 -201 -369 -201c-138 0 -256 51 -353 152s-146 237 -146 408s49 307 147 409c97 101 211 152 342 152c141 0 264 -59 371 -178v530c0 26 13 39 39 39z
M1509 1436h179c36 0 56 -31 43 -64l-156 -325c-7 -17 -18 -25 -35 -25h-149c-33 0 -55 30 -43 59l125 330c4 17 16 25 36 25zM649 217c82 0 151 27 208 80s85 131 85 232s-29 180 -86 237s-128 86 -211 86c-82 0 -151 -28 -206 -84s-83 -134 -83 -233
c0 -100 28 -178 84 -234s126 -84 209 -84z" />
    <glyph glyph-name="Dcroat" unicode="&#x110;" horiz-adv-x="1501" 
d="M213 1434h541c198 0 356 -65 474 -196s177 -304 177 -521c0 -223 -58 -398 -174 -525c-116 -128 -275 -192 -477 -192h-541c-26 0 -39 13 -39 39v614h-137c-26 0 -39 13 -39 39v88c0 26 13 39 39 39h137v576c0 26 13 39 39 39zM475 295h279c233 0 350 139 350 416
c0 281 -123 430 -350 430h-279v-320h201c21 0 39 -16 39 -39v-90c0 -21 -18 -39 -39 -39h-201v-358z" />
    <glyph glyph-name="dslash" unicode="&#x111;" horiz-adv-x="1372" 
d="M1233 1350h119c21 0 39 -18 39 -39v-90c0 -21 -18 -39 -39 -39h-119v-1143c0 -26 -13 -39 -39 -39h-197c-22 0 -35 13 -39 39l-18 137c-97 -134 -220 -201 -369 -201c-138 0 -256 51 -353 152s-146 237 -146 408s49 307 147 409c97 101 211 152 342 152
c141 0 264 -59 371 -178v264h-219c-26 0 -39 13 -39 39v88c0 26 13 39 39 39h219v100c0 26 13 39 39 39h223c26 0 39 -13 39 -39v-98zM649 217c82 0 151 27 208 80s85 131 85 232s-29 180 -86 237s-128 86 -211 86c-82 0 -151 -28 -206 -84s-83 -134 -83 -233
c0 -100 28 -178 84 -234s126 -84 209 -84z" />
    <glyph glyph-name="Emacron" unicode="&#x112;" horiz-adv-x="1359" 
d="M1018 1612h-635c-21 0 -39 16 -39 39v131c0 26 13 39 39 39l635 2c21 0 39 -18 39 -39v-133c0 -21 -18 -39 -39 -39zM475 281h748c26 0 39 -13 39 -39v-203c0 -26 -13 -39 -39 -39h-1010c-26 0 -39 13 -39 39v1356c0 26 13 39 39 39h1004c26 0 39 -13 38 -39v-201
c0 -26 -13 -39 -38 -39h-742v-311h625c26 0 39 -13 39 -39v-166c0 -26 -13 -39 -39 -39h-625v-319z" />
    <glyph glyph-name="emacron" unicode="&#x113;" horiz-adv-x="1198" 
d="M922 1243h-635c-21 0 -39 18 -39 39v131c0 26 13 39 39 39l635 2c21 0 39 -16 39 -39v-133c0 -21 -18 -39 -39 -39zM604 1096c154 0 280 -51 379 -154c98 -103 147 -237 147 -403c0 -19 -1 -34 -2 -45c-4 -25 -18 -37 -43 -37h-741c27 -171 132 -256 315 -256
c117 0 213 46 287 137c19 19 38 20 55 2l95 -92c18 -21 16 -42 -6 -64c-115 -138 -266 -207 -455 -207c-168 0 -304 52 -409 155s-158 236 -158 398c0 159 49 293 147 402s228 164 389 164zM614 874c-148 0 -253 -84 -274 -235h534c-19 153 -115 235 -260 235z" />
    <glyph glyph-name="Edotaccent" unicode="&#x116;" horiz-adv-x="1359" 
d="M800 1619c-28 -28 -61 -42 -99 -42c-39 0 -72 14 -100 42s-42 62 -42 102c0 39 14 73 42 101s61 42 100 42c38 0 71 -14 99 -42s42 -62 42 -101c0 -40 -14 -74 -42 -102zM475 281h748c26 0 39 -13 39 -39v-203c0 -26 -13 -39 -39 -39h-1010c-26 0 -39 13 -39 39v1356
c0 26 13 39 39 39h1004c26 0 39 -13 38 -39v-201c0 -26 -13 -39 -38 -39h-742v-311h625c26 0 39 -13 39 -39v-166c0 -26 -13 -39 -39 -39h-625v-319z" />
    <glyph glyph-name="edotaccent" unicode="&#x117;" horiz-adv-x="1198" 
d="M704 1250c-28 -28 -61 -42 -99 -42c-39 0 -72 14 -100 42s-42 62 -42 102c0 39 14 73 42 101s61 42 100 42c38 0 71 -14 99 -42c27 -28 41 -62 41 -101c0 -40 -14 -74 -41 -102zM604 1096c154 0 280 -51 379 -154c98 -103 147 -237 147 -403c0 -19 -1 -34 -2 -45
c-4 -25 -18 -37 -43 -37h-741c27 -171 132 -256 315 -256c117 0 213 46 287 137c19 19 38 20 55 2l95 -92c18 -21 16 -42 -6 -64c-115 -138 -266 -207 -455 -207c-168 0 -304 52 -409 155s-158 236 -158 398c0 159 49 293 147 402s228 164 389 164zM614 874
c-148 0 -253 -84 -274 -235h534c-19 153 -115 235 -260 235z" />
    <glyph glyph-name="Eogonek" unicode="&#x118;" horiz-adv-x="1359" 
d="M1337 -299l25 -80c3 -13 -1 -24 -12 -31c-49 -22 -102 -34 -157 -35s-105 16 -150 50s-68 81 -68 141s31 115 64 146c32 32 72 75 85 108h-911c-26 0 -39 13 -39 39v1356c0 26 13 39 39 39h1004c26 0 39 -13 38 -39v-201c0 -26 -13 -39 -38 -39h-742v-311h625
c26 0 39 -13 39 -39v-166c0 -26 -13 -39 -39 -39h-625v-319h748c26 0 39 -13 39 -39v-203c5 -139 -138 -204 -132 -272c0 -57 61 -81 173 -52c18 4 29 -1 34 -14z" />
    <glyph glyph-name="eogonek" unicode="&#x119;" horiz-adv-x="1198" 
d="M1184 -119l24 -80c3 -13 -1 -23 -12 -30c-49 -22 -102 -34 -157 -35s-105 15 -150 49s-68 81 -68 141c0 26 6 54 19 84c-64 -22 -132 -33 -205 -33c-168 0 -304 52 -409 155s-158 236 -158 398c0 159 49 293 147 402s228 164 389 164c154 0 280 -51 379 -154
c98 -103 147 -237 147 -403c0 -19 -1 -34 -2 -45c-4 -25 -18 -37 -43 -37h-741c27 -171 132 -256 315 -256c117 0 213 46 287 137c19 19 38 20 55 2l95 -92c8 -11 12 -20 12 -29c5 -139 -137 -202 -131 -272c0 -57 60 -82 172 -51c18 4 30 -1 35 -15zM614 874
c-148 0 -253 -84 -274 -235h534c-19 153 -115 235 -260 235z" />
    <glyph glyph-name="Ecaron" unicode="&#x11a;" horiz-adv-x="1359" 
d="M614 1593l-254 361c-16 21 0 47 27 47h113c33 0 56 -10 71 -31l129 -168l134 170c13 19 36 29 69 29h111c27 0 43 -26 26 -47l-256 -361c-8 -15 -22 -23 -43 -22h-82c-22 -1 -37 7 -45 22zM475 281h748c26 0 39 -13 39 -39v-203c0 -26 -13 -39 -39 -39h-1010
c-26 0 -39 13 -39 39v1356c0 26 13 39 39 39h1004c26 0 39 -13 38 -39v-201c0 -26 -13 -39 -38 -39h-742v-311h625c26 0 39 -13 39 -39v-166c0 -26 -13 -39 -39 -39h-625v-319z" />
    <glyph glyph-name="ecaron" unicode="&#x11b;" horiz-adv-x="1198" 
d="M518 1225l-254 360c-16 21 -1 47 27 47h112c33 0 57 -10 72 -30l129 -168l133 170c13 19 37 29 70 28h111c27 0 42 -24 26 -47l-256 -360c-8 -15 -22 -23 -43 -23h-82c-22 0 -37 8 -45 23zM604 1096c154 0 280 -51 379 -154c98 -103 147 -237 147 -403
c0 -19 -1 -34 -2 -45c-4 -25 -18 -37 -43 -37h-741c27 -171 132 -256 315 -256c117 0 213 46 287 137c19 19 38 20 55 2l95 -92c18 -21 16 -42 -6 -64c-115 -138 -266 -207 -455 -207c-168 0 -304 52 -409 155s-158 236 -158 398c0 159 49 293 147 402s228 164 389 164z
M614 874c-148 0 -253 -84 -274 -235h534c-19 153 -115 235 -260 235z" />
    <glyph glyph-name="Gbreve" unicode="&#x11e;" horiz-adv-x="1554" 
d="M805 1571c-100 0 -183 32 -248 97s-101 133 -108 204c-4 35 9 53 40 53h121c21 0 32 -9 35 -27c5 -42 21 -79 47 -110s64 -47 113 -47c51 0 89 16 114 47s40 68 46 110c4 18 16 27 36 27h117c33 0 47 -18 43 -55c-7 -73 -43 -141 -109 -204c-67 -63 -149 -95 -247 -95z
M838 772h555c26 0 39 -13 39 -39v-694c0 -26 -13 -39 -39 -39h-144c-23 0 -37 13 -41 39l-14 90c-120 -98 -260 -147 -420 -147c-189 0 -350 68 -483 203c-134 135 -201 307 -201 517c0 211 68 390 205 535s308 218 514 221c117 1 231 -21 340 -66
c109 -46 193 -102 250 -169c11 -19 9 -35 -4 -47l-166 -140c-12 -11 -26 -9 -43 4c-3 1 -11 8 -25 20c-15 11 -25 19 -30 22c-6 3 -16 10 -31 21c-30 20 -43 26 -76 42s-57 22 -92 31c-36 8 -72 10 -113 10c-127 -4 -230 -51 -311 -140c-81 -90 -121 -202 -121 -335
c0 -135 38 -247 115 -335c76 -88 183 -133 321 -134c153 -3 270 48 351 153v160h-336c-27 0 -41 13 -41 39v139c0 26 14 39 41 39z" />
    <glyph glyph-name="gbreve" unicode="&#x11f;" horiz-adv-x="1343" 
d="M664 1192c-100 0 -183 32 -248 97c-66 65 -102 133 -109 204c-4 35 10 53 41 53h121c21 0 32 -9 35 -26c5 -42 21 -79 47 -110c26 -32 64 -48 113 -48c51 0 89 16 114 47s40 68 45 111c4 18 16 27 37 26h117c33 0 47 -18 43 -55c-7 -73 -43 -141 -109 -204
c-67 -63 -149 -95 -247 -95zM965 1071h202c26 0 39 -13 39 -39v-952c0 -160 -54 -284 -163 -371s-248 -131 -416 -131c-154 0 -295 33 -424 100c-22 9 -29 26 -21 50l54 141c9 26 26 33 51 20c100 -56 202 -84 305 -84c93 0 168 21 226 63c58 43 87 100 87 173v186
c-91 -117 -207 -176 -348 -176c-135 0 -251 47 -347 142c-96 94 -144 220 -144 379c0 158 48 285 143 380s207 142 336 142c145 0 267 -60 366 -179l15 117c4 26 17 39 39 39zM629 283c78 0 143 24 196 72c52 47 78 118 78 211s-27 165 -80 218c-53 52 -119 78 -198 78
c-78 0 -142 -25 -193 -75c-51 -51 -76 -122 -76 -214c0 -93 25 -164 76 -214c51 -51 116 -76 197 -76z" />
    <glyph glyph-name="Gdotaccent" unicode="&#x120;" horiz-adv-x="1554" 
d="M904 1629c-28 -28 -61 -42 -99 -42s-71 14 -99 42s-42 62 -42 102c0 39 14 73 42 101s61 42 99 42s71 -14 99 -42s42 -62 42 -101c0 -40 -14 -74 -42 -102zM838 772h555c26 0 39 -13 39 -39v-694c0 -26 -13 -39 -39 -39h-144c-23 0 -37 13 -41 39l-14 90
c-120 -98 -260 -147 -420 -147c-189 0 -350 68 -483 203c-134 135 -201 307 -201 517c0 211 68 390 205 535s308 218 514 221c117 1 231 -21 340 -66c109 -46 193 -102 250 -169c11 -19 9 -35 -4 -47l-166 -140c-12 -11 -26 -9 -43 4c-3 1 -11 8 -25 20
c-15 11 -25 19 -30 22c-6 3 -16 10 -31 21c-30 20 -43 26 -76 42s-57 22 -92 31c-36 8 -72 10 -113 10c-127 -4 -230 -51 -311 -140c-81 -90 -121 -202 -121 -335c0 -135 38 -247 115 -335c76 -88 183 -133 321 -134c153 -3 270 48 351 153v160h-336c-27 0 -41 13 -41 39
v139c0 26 14 39 41 39z" />
    <glyph glyph-name="gdotaccent" unicode="&#x121;" horiz-adv-x="1343" 
d="M763 1250c-28 -28 -61 -42 -99 -42c-39 0 -72 14 -100 42s-42 62 -42 102c0 39 14 73 42 101s61 42 100 42c38 0 71 -14 99 -42s42 -62 42 -101c0 -40 -14 -74 -42 -102zM965 1071h202c26 0 39 -13 39 -39v-952c0 -160 -54 -284 -163 -371s-248 -131 -416 -131
c-154 0 -295 33 -424 100c-22 9 -29 26 -21 50l54 141c9 26 26 33 51 20c100 -56 202 -84 305 -84c93 0 168 21 226 63c58 43 87 100 87 173v186c-91 -117 -207 -176 -348 -176c-135 0 -251 47 -347 142c-96 94 -144 220 -144 379c0 158 48 285 143 380s207 142 336 142
c145 0 267 -60 366 -179l15 117c4 26 17 39 39 39zM629 283c78 0 143 24 196 72c52 47 78 118 78 211s-27 165 -80 218c-53 52 -119 78 -198 78c-78 0 -142 -25 -193 -75c-51 -51 -76 -122 -76 -214c0 -93 25 -164 76 -214c51 -51 116 -76 197 -76z" />
    <glyph glyph-name="uni0122" unicode="&#x122;" horiz-adv-x="1554" 
d="M838 772h555c26 0 39 -13 39 -39v-694c0 -26 -13 -39 -39 -39h-144c-23 0 -37 13 -41 39l-14 90c-120 -98 -260 -147 -420 -147c-189 0 -350 68 -483 203c-134 135 -201 307 -201 517c0 211 68 390 205 535s308 218 514 221c117 1 231 -21 340 -66
c109 -46 193 -102 250 -169c11 -19 9 -35 -4 -47l-166 -140c-12 -11 -26 -9 -43 4c-3 1 -11 8 -25 20c-15 11 -25 19 -30 22c-6 3 -16 10 -31 21c-30 20 -43 26 -76 42s-57 22 -92 31c-36 8 -72 10 -113 10c-127 -4 -230 -51 -311 -140c-81 -90 -121 -202 -121 -335
c0 -135 38 -247 115 -335c76 -88 183 -133 321 -134c153 -3 270 48 351 153v160h-336c-27 0 -41 13 -41 39v139c0 26 14 39 41 39zM813 -145c107 0 160 -75 160 -226c0 -169 -96 -289 -287 -360c-8 -3 -21 4 -24 12l-17 49c-4 13 2 24 17 31c37 11 72 29 106 56s53 55 57 85
c8 47 -4 61 -59 58c-65 -5 -115 54 -115 138c0 43 16 79 47 110s70 47 115 47z" />
    <glyph glyph-name="uni0123" unicode="&#x123;" horiz-adv-x="1343" 
d="M657 1171c-104 0 -157 89 -157 226c0 172 95 294 286 366c11 3 25 -4 25 -12l18 -49c4 -13 -1 -24 -16 -31c-39 -12 -75 -31 -107 -56c-33 -25 -52 -56 -59 -91c-8 -39 8 -57 60 -54c33 3 60 -9 83 -36c22 -27 33 -60 33 -99c0 -47 -16 -86 -48 -117s-71 -47 -118 -47z
M965 1071h202c26 0 39 -13 39 -39v-952c0 -160 -54 -284 -163 -371s-248 -131 -416 -131c-154 0 -295 33 -424 100c-22 9 -29 26 -21 50l54 141c9 26 26 33 51 20c100 -56 202 -84 305 -84c93 0 168 21 226 63c58 43 87 100 87 173v186c-91 -117 -207 -176 -348 -176
c-135 0 -251 47 -347 142c-96 94 -144 220 -144 379c0 158 48 285 143 380s207 142 336 142c145 0 267 -60 366 -179l15 117c4 26 17 39 39 39zM629 283c78 0 143 24 196 72c52 47 78 118 78 211s-27 165 -80 218c-53 52 -119 78 -198 78c-78 0 -142 -25 -193 -75
c-51 -51 -76 -122 -76 -214c0 -93 25 -164 76 -214c51 -51 116 -76 197 -76z" />
    <glyph glyph-name="Hbar" unicode="&#x126;" horiz-adv-x="1550" 
d="M1114 1434h225c26 0 39 -13 39 -39v-1356c0 -26 -13 -39 -39 -39h-225c-26 0 -39 13 -39 39v561h-600v-561c0 -26 -13 -39 -39 -39h-223c-26 0 -39 13 -39 39v1356c0 26 13 39 39 39h223c26 0 39 -13 39 -39v-154h600v154c0 26 13 39 39 39zM475 1032v-182h600v182h-600z
" />
    <glyph glyph-name="hbar" unicode="&#x127;" horiz-adv-x="1318" 
d="M788 1094c127 0 228 -44 304 -133s114 -215 114 -377v-545c0 -26 -13 -39 -39 -39h-223c-26 0 -39 13 -39 39v545c0 153 -78 241 -215 241c-145 0 -242 -97 -250 -305v-481c0 -26 -13 -39 -39 -39h-223c-26 0 -39 13 -39 39v1143h-125c-26 0 -39 13 -39 39v88
c0 26 13 39 39 39h125v100c0 26 13 39 39 39h223c26 0 39 -13 39 -39v-98h213c19 0 39 -18 39 -39v-90c0 -21 -16 -39 -39 -39h-213v-248c93 107 209 160 348 160z" />
    <glyph glyph-name="Itilde" unicode="&#x128;" horiz-adv-x="649" 
d="M98 1616c-11 -19 -26 -26 -45 -19l-86 37c-15 5 -21 17 -18 35c21 123 102 207 211 207c45 0 101 -18 166 -53c65 -36 110 -54 133 -54c35 0 66 23 92 70c9 18 23 23 41 16l88 -34c15 -5 21 -18 18 -37c-9 -63 -33 -113 -72 -152s-85 -59 -137 -59c-45 0 -102 19 -170 57
c-68 37 -113 56 -135 56c-31 0 -60 -23 -86 -70zM436 0h-223c-26 0 -39 13 -39 39v1356c0 26 13 39 39 39h223c26 0 39 -13 39 -39v-1356c0 -26 -13 -39 -39 -39z" />
    <glyph glyph-name="itilde" unicode="&#x129;" horiz-adv-x="577" 
d="M63 1239c-11 -19 -26 -25 -45 -18l-86 36c-15 5 -21 17 -18 35c21 123 102 207 211 207c45 0 101 -18 166 -53s110 -53 133 -53c35 0 66 23 92 69c9 18 23 24 41 17l88 -35c15 -5 22 -18 19 -37c-9 -63 -34 -113 -73 -152s-85 -59 -136 -59c-45 0 -102 19 -170 57
c-69 37 -114 56 -135 56c-32 0 -61 -23 -87 -70zM401 0h-225c-26 0 -39 13 -39 39v991c0 26 13 39 39 39h225c26 0 39 -13 39 -39v-991c0 -26 -13 -39 -39 -39z" />
    <glyph glyph-name="Imacron" unicode="&#x12a;" horiz-adv-x="649" 
d="M641 1612h-635c-21 0 -39 16 -39 39v131c0 26 13 39 39 39l635 2c21 0 39 -18 39 -39v-133c0 -21 -18 -39 -39 -39zM436 0h-223c-26 0 -39 13 -39 39v1356c0 26 13 39 39 39h223c26 0 39 -13 39 -39v-1356c0 -26 -13 -39 -39 -39z" />
    <glyph glyph-name="imacron" unicode="&#x12b;" horiz-adv-x="577" 
d="M606 1235h-635c-21 0 -39 16 -39 39v131c0 26 13 39 39 39l635 2c21 0 39 -18 39 -39v-133c0 -21 -16 -39 -39 -39zM401 0h-225c-26 0 -39 13 -39 39v991c0 26 13 39 39 39h225c26 0 39 -13 39 -39v-991c0 -26 -13 -39 -39 -39z" />
    <glyph glyph-name="Iogonek" unicode="&#x12e;" horiz-adv-x="649" 
d="M551 -299l24 -80c3 -13 -1 -24 -12 -31c-49 -22 -101 -34 -156 -35s-106 16 -151 50s-68 81 -68 141s31 115 64 146c32 32 73 75 86 108h-125c-26 0 -39 13 -39 39v1356c0 26 13 39 39 39h223c26 0 39 -13 39 -39v-1356c6 -139 -136 -204 -131 -272c0 -57 60 -81 172 -52
c18 4 30 -1 35 -14z" />
    <glyph glyph-name="iogonek" unicode="&#x12f;" horiz-adv-x="577" 
d="M388 1242c-28 -28 -61 -42 -99 -42c-39 0 -72 14 -100 42s-42 62 -42 102c0 39 14 73 42 101s61 42 100 42c38 0 71 -14 99 -42s42 -62 42 -101c0 -40 -14 -74 -42 -102zM516 -299l25 -80c3 -13 -2 -24 -13 -31c-49 -22 -101 -34 -156 -35s-105 16 -150 50
s-68 81 -68 141s31 115 64 146c32 32 72 75 85 108h-127c-26 0 -39 13 -39 39v991c0 26 13 39 39 39h225c26 0 39 -13 39 -39v-991c6 -139 -136 -204 -131 -272c0 -57 60 -81 172 -52c18 4 30 -1 35 -14z" />
    <glyph glyph-name="Idot" unicode="&#x130;" horiz-adv-x="649" 
d="M423 1619c-28 -28 -61 -42 -99 -42c-39 0 -72 14 -100 42s-42 62 -42 102c0 39 14 73 42 101s61 42 100 42c38 0 71 -14 99 -42s42 -62 42 -101c0 -40 -14 -74 -42 -102zM436 0h-223c-26 0 -39 13 -39 39v1356c0 26 13 39 39 39h223c26 0 39 -13 39 -39v-1356
c0 -26 -13 -39 -39 -39z" />
    <glyph glyph-name="dotlessi" unicode="&#x131;" horiz-adv-x="577" 
d="M401 0h-225c-26 0 -39 13 -39 39v991c0 26 13 39 39 39h225c26 0 39 -13 39 -39v-991c0 -26 -13 -39 -39 -39z" />
    <glyph glyph-name="uni0136" unicode="&#x136;" horiz-adv-x="1495" 
d="M834 840l608 -791c21 -27 8 -49 -25 -49h-287c-19 0 -35 8 -47 25l-458 608l-150 -148v-446c0 -26 -13 -39 -39 -39h-223c-26 0 -39 13 -39 39v1356c0 26 13 39 39 39h223c26 0 39 -13 39 -39v-537l506 555c12 13 28 20 47 21h330c36 0 48 -24 20 -52zM723 -145
c107 0 160 -75 160 -226c0 -169 -96 -289 -287 -360c-8 -3 -22 4 -25 12l-16 49c-4 13 1 24 16 31c37 11 72 29 107 56c34 27 53 55 57 85c8 47 -4 61 -59 58c-65 -5 -115 54 -115 138c0 43 16 79 47 110s70 47 115 47z" />
    <glyph glyph-name="uni0137" unicode="&#x137;" horiz-adv-x="1257" 
d="M778 635l455 -588c19 -31 6 -47 -25 -47h-229c-19 0 -35 8 -47 25l-342 428l-150 -146v-268c0 -26 -13 -39 -39 -39h-223c-26 0 -39 13 -39 39v1409c0 26 13 39 39 39h223c26 0 39 -13 39 -39v-811l408 412c13 13 30 20 49 20h256c36 0 45 -25 21 -49zM662 -145
c107 0 160 -75 159 -226c0 -169 -95 -289 -286 -360c-8 -3 -22 4 -25 12l-16 49c-4 13 1 24 16 31c37 11 72 29 107 56c34 27 53 55 57 85c8 47 -5 61 -60 58c-65 -5 -114 54 -114 138c0 43 16 79 47 110s70 47 115 47z" />
    <glyph glyph-name="Lacute" unicode="&#x139;" horiz-adv-x="1320" 
d="M389 1567h-121c-33 0 -52 28 -41 57l119 318c9 26 28 39 55 38h156c36 0 56 -33 43 -65l-160 -316c-8 -22 -25 -33 -51 -32zM475 281h748c26 0 39 -13 39 -39v-203c0 -26 -13 -39 -39 -39h-1010c-26 0 -39 13 -39 39v1356c0 26 13 39 39 39h223c26 0 39 -13 39 -39v-1114
z" />
    <glyph glyph-name="lacute" unicode="&#x13a;" horiz-adv-x="581" 
d="M369 1587h-121c-33 0 -52 27 -41 58l119 317c9 26 28 39 55 39h156c36 0 56 -33 43 -66l-160 -315c-8 -22 -25 -33 -51 -33zM403 0h-225c-26 0 -39 13 -39 39v1409c0 26 13 39 39 39h225c26 0 39 -13 39 -39v-1409c0 -26 -13 -39 -39 -39z" />
    <glyph glyph-name="uni013B" unicode="&#x13b;" horiz-adv-x="1320" 
d="M475 281h748c26 0 39 -13 39 -39v-203c0 -26 -13 -39 -39 -39h-1010c-26 0 -39 13 -39 39v1356c0 26 13 39 39 39h223c26 0 39 -13 39 -39v-1114zM678 -145c107 0 160 -75 160 -226c0 -169 -96 -289 -287 -360c-8 -3 -22 4 -25 12l-16 49c-4 13 1 24 16 31
c37 11 72 29 107 56c34 27 53 55 57 85c8 47 -4 61 -59 58c-65 -5 -115 54 -115 138c0 43 16 79 47 110s70 47 115 47z" />
    <glyph glyph-name="uni013C" unicode="&#x13c;" horiz-adv-x="581" 
d="M403 0h-225c-26 0 -39 13 -39 39v1409c0 26 13 39 39 39h225c26 0 39 -13 39 -39v-1409c0 -26 -13 -39 -39 -39zM168 -731c-8 -3 -22 4 -25 12l-16 49c-4 13 1 24 16 31c37 11 72 29 107 56c34 27 53 55 57 85c8 47 -4 61 -59 58c-65 -5 -115 54 -115 138
c0 43 16 79 47 110s70 47 115 47c107 0 160 -75 160 -226c0 -169 -96 -289 -287 -360z" />
    <glyph glyph-name="Lcaron" unicode="&#x13d;" horiz-adv-x="1339" 
d="M909 1022h-149c-33 0 -54 30 -43 59l125 330c7 17 19 25 37 25h178c36 0 56 -31 43 -64l-156 -325c-4 -17 -16 -25 -35 -25zM475 281h748c26 0 39 -13 39 -39v-203c0 -26 -13 -39 -39 -39h-1010c-26 0 -39 13 -39 39v1356c0 26 13 39 39 39h223c26 0 39 -13 39 -39v-1114
z" />
    <glyph glyph-name="lcaron" unicode="&#x13e;" horiz-adv-x="743" 
d="M403 0h-225c-26 0 -39 13 -39 39v1409c0 26 13 39 39 39h225c26 0 39 -13 39 -39v-1409c0 -26 -13 -39 -39 -39zM754 1073h-152c-31 0 -52 29 -41 60l125 329c4 17 16 25 35 25h180c36 0 54 -31 41 -64l-154 -325c-7 -17 -18 -25 -34 -25z" />
    <glyph glyph-name="Lslash" unicode="&#x141;" horiz-adv-x="1320" 
d="M475 281h748c26 0 39 -13 39 -39v-203c0 -26 -13 -39 -39 -39h-1010c-26 0 -39 13 -39 39v455l-186 -138v199l186 137v703c0 26 13 39 39 39h223c26 0 39 -13 39 -39v-482l221 164v-198l-221 -164v-434z" />
    <glyph glyph-name="lslash" unicode="&#x142;" horiz-adv-x="581" 
d="M442 748l203 149v-199l-203 -149v-510c0 -26 -13 -39 -39 -39h-225c-26 0 -39 13 -39 39v287l-202 -150v199l202 149v924c0 26 13 39 39 39h225c26 0 39 -13 39 -39v-700z" />
    <glyph glyph-name="Nacute" unicode="&#x143;" horiz-adv-x="1634" 
d="M895 1567h-121c-33 0 -52 28 -41 57l119 318c9 26 28 39 55 38h156c36 0 56 -33 43 -65l-160 -316c-8 -22 -25 -33 -51 -32zM1198 1434h223c26 0 39 -13 39 -39v-1356c0 -26 -13 -39 -39 -39h-159c-21 0 -37 8 -48 23l-739 876v-860c0 -26 -13 -39 -39 -39h-223
c-26 0 -39 13 -39 39v1356c0 26 13 39 39 39h158c19 0 35 -7 47 -21l741 -874v856c0 26 13 39 39 39z" />
    <glyph glyph-name="nacute" unicode="&#x144;" horiz-adv-x="1323" 
d="M745 1198h-120c-33 0 -53 28 -41 57l118 318c9 26 28 39 56 39h155c36 0 58 -33 43 -66l-159 -315c-8 -22 -25 -33 -52 -33zM793 1094c127 0 228 -44 304 -133c75 -89 113 -215 113 -377v-545c0 -26 -13 -39 -39 -39h-223c-26 0 -39 13 -39 39v545
c0 153 -78 241 -215 241c-148 0 -248 -97 -256 -305v-481c0 -26 -13 -39 -39 -39h-223c-26 0 -39 13 -39 39v991c0 26 13 39 39 39h209c19 0 32 -13 39 -39l12 -102c97 111 216 166 357 166z" />
    <glyph glyph-name="uni0145" unicode="&#x145;" horiz-adv-x="1634" 
d="M1198 1434h223c26 0 39 -13 39 -39v-1356c0 -26 -13 -39 -39 -39h-159c-21 0 -37 8 -48 23l-739 876v-860c0 -26 -13 -39 -39 -39h-223c-26 0 -39 13 -39 39v1356c0 26 13 39 39 39h158c19 0 35 -7 47 -21l741 -874v856c0 26 13 39 39 39zM821 -145
c107 0 160 -75 160 -226c0 -169 -96 -289 -287 -360c-8 -3 -21 4 -24 12l-17 49c-4 13 2 24 17 31c37 11 72 29 106 56s53 55 58 85c8 47 -5 61 -60 58c-65 -5 -115 54 -115 138c0 43 16 79 47 110s70 47 115 47z" />
    <glyph glyph-name="uni0146" unicode="&#x146;" horiz-adv-x="1323" 
d="M793 1094c127 0 228 -44 304 -133c75 -89 113 -215 113 -377v-545c0 -26 -13 -39 -39 -39h-223c-26 0 -39 13 -39 39v545c0 153 -78 241 -215 241c-148 0 -248 -97 -256 -305v-481c0 -26 -13 -39 -39 -39h-223c-26 0 -39 13 -39 39v991c0 26 13 39 39 39h209
c19 0 32 -13 39 -39l12 -102c97 111 216 166 357 166zM672 -145c107 0 160 -75 159 -226c0 -169 -95 -289 -286 -360c-8 -3 -22 4 -25 12l-16 49c-4 13 1 24 16 31c37 11 72 29 107 56c34 27 53 55 57 85c8 47 -4 61 -59 58c-65 -5 -115 54 -115 138c0 43 16 79 47 110
s70 47 115 47z" />
    <glyph glyph-name="Ncaron" unicode="&#x147;" horiz-adv-x="1634" 
d="M731 1593l-254 361c-16 21 -1 47 27 47h112c33 0 57 -10 72 -31l129 -168l133 170c13 19 37 29 70 29h110c27 0 43 -26 27 -47l-256 -361c-8 -15 -22 -23 -43 -22h-82c-22 -1 -37 7 -45 22zM1198 1434h223c26 0 39 -13 39 -39v-1356c0 -26 -13 -39 -39 -39h-159
c-21 0 -37 8 -48 23l-739 876v-860c0 -26 -13 -39 -39 -39h-223c-26 0 -39 13 -39 39v1356c0 26 13 39 39 39h158c19 0 35 -7 47 -21l741 -874v856c0 26 13 39 39 39z" />
    <glyph glyph-name="ncaron" unicode="&#x148;" horiz-adv-x="1323" 
d="M582 1225l-254 360c-16 21 -1 47 26 47h113c33 0 57 -10 72 -30l129 -168l133 170c13 19 36 29 69 28h111c27 0 43 -24 27 -47l-256 -360c-8 -15 -22 -23 -43 -23h-82c-22 0 -37 8 -45 23zM793 1094c127 0 228 -44 304 -133c75 -89 113 -215 113 -377v-545
c0 -26 -13 -39 -39 -39h-223c-26 0 -39 13 -39 39v545c0 153 -78 241 -215 241c-148 0 -248 -97 -256 -305v-481c0 -26 -13 -39 -39 -39h-223c-26 0 -39 13 -39 39v991c0 26 13 39 39 39h209c19 0 32 -13 39 -39l12 -102c97 111 216 166 357 166z" />
    <glyph glyph-name="Eng" unicode="&#x14a;" horiz-adv-x="1634" 
d="M1198 1434h223c26 0 39 -13 39 -39v-1358c0 -113 -33 -218 -99 -314c-66 -95 -152 -150 -259 -165c-23 -1 -38 8 -45 28l-64 164c-11 22 -2 38 25 49c94 47 141 130 141 250v45l-684 805v-860c0 -26 -13 -39 -39 -39h-223c-26 0 -39 13 -39 39v1356c0 26 13 39 39 39h152
c19 0 35 -7 47 -21l747 -876v858c0 26 13 39 39 39z" />
    <glyph glyph-name="eng" unicode="&#x14b;" horiz-adv-x="1323" 
d="M793 1094c127 0 228 -44 304 -133c75 -89 113 -215 113 -377v-547c0 -113 -33 -218 -100 -314c-67 -95 -153 -150 -260 -165c-22 -1 -37 8 -45 28l-62 164c-8 21 0 37 23 49c95 51 143 134 143 250v535c0 153 -78 241 -215 241c-148 0 -248 -97 -256 -305v-481
c0 -26 -13 -39 -39 -39h-223c-26 0 -39 13 -39 39v991c0 26 13 39 39 39h209c19 0 32 -13 39 -39l12 -102c97 111 216 166 357 166z" />
    <glyph glyph-name="Omacron" unicode="&#x14c;" horiz-adv-x="1646" 
d="M1141 1612h-635c-21 0 -39 16 -39 39v131c0 26 13 39 39 39l635 2c21 0 39 -18 39 -39v-133c0 -21 -18 -39 -39 -39zM1355 174c-132 -133 -309 -199 -532 -199s-400 66 -531 199c-132 133 -198 310 -198 533c0 224 66 404 199 539s309 202 530 202
c223 0 400 -68 532 -203c131 -135 197 -315 197 -538s-66 -400 -197 -533zM501 373c84 -79 192 -119 323 -119s238 40 323 119s127 191 127 334c0 145 -43 258 -128 341c-85 82 -193 123 -323 123c-129 0 -235 -41 -320 -123c-85 -83 -128 -196 -128 -341
c0 -143 42 -255 126 -334z" />
    <glyph glyph-name="omacron" unicode="&#x14d;" horiz-adv-x="1249" 
d="M942 1243h-635c-21 0 -39 18 -39 39v131c0 26 13 39 39 39l635 2c21 0 39 -16 39 -39v-133c0 -21 -18 -39 -39 -39zM625 -23c-165 0 -299 52 -402 156s-155 239 -155 404c0 164 52 298 155 402c103 103 237 155 402 155s299 -52 403 -156s156 -238 156 -401
c0 -164 -52 -298 -156 -403c-105 -105 -239 -157 -403 -157zM414 307c59 -56 129 -84 211 -84s153 28 212 84s89 133 89 230s-29 173 -88 228s-130 83 -213 83c-82 0 -152 -28 -211 -83s-88 -131 -88 -228c0 -98 29 -175 88 -230z" />
    <glyph glyph-name="Ohungarumlaut" unicode="&#x150;" horiz-adv-x="1646" 
d="M686 1567h-129c-33 0 -52 28 -41 57l119 318c9 26 28 39 55 38h166c36 0 57 -33 41 -65l-158 -316c-11 -22 -28 -33 -53 -32zM1106 1567h-129c-33 0 -54 28 -43 57l119 318c9 26 28 39 55 38h166c36 0 56 -33 43 -65l-160 -316c-8 -22 -25 -33 -51 -32zM1355 174
c-132 -133 -309 -199 -532 -199s-400 66 -531 199c-132 133 -198 310 -198 533c0 224 66 404 199 539s309 202 530 202c223 0 400 -68 532 -203c131 -135 197 -315 197 -538s-66 -400 -197 -533zM501 373c84 -79 192 -119 323 -119s238 40 323 119s127 191 127 334
c0 145 -43 258 -128 341c-85 82 -193 123 -323 123c-129 0 -235 -41 -320 -123c-85 -83 -128 -196 -128 -341c0 -143 42 -255 126 -334z" />
    <glyph glyph-name="ohungarumlaut" unicode="&#x151;" horiz-adv-x="1249" 
d="M487 1198h-129c-33 0 -52 28 -41 57l119 318c9 26 28 39 56 39h165c36 0 58 -33 41 -66l-157 -315c-11 -22 -29 -33 -54 -33zM907 1198h-129c-33 0 -54 28 -43 57l119 318c9 26 28 39 55 39h166c36 0 56 -33 43 -66l-160 -315c-8 -22 -25 -33 -51 -33zM625 -23
c-165 0 -299 52 -402 156s-155 239 -155 404c0 164 52 298 155 402c103 103 237 155 402 155s299 -52 403 -156s156 -238 156 -401c0 -164 -52 -298 -156 -403c-105 -105 -239 -157 -403 -157zM414 307c59 -56 129 -84 211 -84s153 28 212 84s89 133 89 230s-29 173 -88 228
s-130 83 -213 83c-82 0 -152 -28 -211 -83s-88 -131 -88 -228c0 -98 29 -175 88 -230z" />
    <glyph glyph-name="OE" unicode="&#x152;" horiz-adv-x="2603" 
d="M1718 281h748c26 0 39 -13 39 -39v-203c0 -26 -13 -39 -39 -39h-1010c-26 0 -39 13 -39 39v209c-133 -181 -331 -272 -594 -273c-223 0 -400 66 -531 199c-132 133 -198 310 -198 533c0 224 66 404 199 539s309 202 530 202c265 0 463 -93 594 -279v226c0 26 13 39 39 39
h1004c26 0 39 -13 39 -39v-201c0 -26 -13 -39 -39 -39h-742v-311h625c26 0 39 -13 39 -39v-166c0 -26 -13 -39 -39 -39h-625v-319zM823 254c129 0 232 39 309 118c77 78 115 190 115 335c0 146 -39 260 -116 342c-78 81 -180 122 -307 122s-230 -41 -307 -122
c-77 -82 -116 -196 -116 -342c0 -145 38 -256 114 -335c75 -79 178 -118 308 -118z" />
    <glyph glyph-name="oe" unicode="&#x153;" horiz-adv-x="2142" 
d="M1548 1096c154 0 280 -51 379 -154s148 -237 148 -403c0 -19 -1 -34 -2 -45c-4 -25 -18 -37 -43 -37h-742c19 -167 132 -256 316 -256c117 0 213 46 286 137c19 19 38 20 56 2l94 -92c18 -21 16 -42 -6 -64c-115 -138 -266 -207 -455 -207c-213 0 -384 91 -481 244
c-99 -153 -269 -244 -473 -244c-165 0 -299 52 -402 156s-155 239 -155 404c0 164 52 298 155 402c103 103 237 155 402 155c208 0 377 -91 473 -244c93 153 250 246 450 246zM1559 874c-148 0 -254 -84 -275 -235h535c-19 153 -115 235 -260 235zM419 302
c55 -55 124 -83 206 -83s151 28 207 84c55 56 83 134 83 234c0 99 -27 177 -82 232s-125 83 -208 83c-82 0 -151 -28 -206 -83s-83 -133 -83 -232c0 -101 28 -180 83 -235z" />
    <glyph glyph-name="Racute" unicode="&#x154;" horiz-adv-x="1394" 
d="M725 1567h-121c-33 0 -52 28 -41 57l119 318c9 26 28 39 55 38h156c36 0 56 -33 43 -65l-160 -316c-8 -22 -25 -33 -51 -32zM1034 588l283 -541c16 -24 4 -47 -29 -47h-225c-21 0 -35 10 -43 29l-252 499h-293v-489c0 -26 -13 -39 -39 -39h-223c-26 0 -39 13 -39 39v1356
c0 26 13 39 39 39h555c151 0 274 -41 369 -122c94 -81 141 -190 141 -325c0 -177 -91 -323 -244 -399zM768 1182h-293v-402h293c69 0 124 20 164 60c39 39 59 86 59 141s-20 102 -60 142c-41 39 -95 59 -163 59z" />
    <glyph glyph-name="racute" unicode="&#x155;" horiz-adv-x="921" 
d="M526 1198h-120c-33 0 -53 28 -41 57l118 318c9 26 28 39 56 39h155c36 0 58 -33 43 -66l-159 -315c-8 -22 -25 -33 -52 -33zM885 1079c30 -9 37 -27 20 -53l-135 -225c-8 -12 -18 -18 -31 -19c-8 0 -38 9 -67 9c-145 0 -213 -87 -236 -267v-485c0 -26 -13 -39 -39 -39
h-219c-26 0 -39 13 -39 39l-2 991c0 26 13 39 39 39h209c19 0 32 -13 39 -39l14 -121c73 116 177 177 312 183c53 -1 98 -5 135 -13z" />
    <glyph glyph-name="uni0156" unicode="&#x156;" horiz-adv-x="1394" 
d="M1034 588l283 -541c16 -24 4 -47 -29 -47h-225c-21 0 -35 10 -43 29l-252 499h-293v-489c0 -26 -13 -39 -39 -39h-223c-26 0 -39 13 -39 39v1356c0 26 13 39 39 39h555c151 0 274 -41 369 -122c94 -81 141 -190 141 -325c0 -177 -91 -323 -244 -399zM768 1182h-293v-402
h293c69 0 124 20 164 60c39 39 59 86 59 141s-20 102 -60 142c-41 39 -95 59 -163 59zM723 -145c107 0 160 -75 160 -226c0 -169 -96 -289 -287 -360c-8 -3 -22 4 -25 12l-16 49c-4 13 1 24 16 31c37 11 72 29 107 56c34 27 53 55 57 85c8 47 -4 61 -59 58
c-65 -5 -115 54 -115 138c0 43 16 79 47 110s70 47 115 47z" />
    <glyph glyph-name="uni0157" unicode="&#x157;" horiz-adv-x="921" 
d="M885 1079c30 -9 37 -27 20 -53l-135 -225c-8 -12 -18 -18 -31 -19c-8 0 -38 9 -67 9c-145 0 -213 -87 -236 -267v-485c0 -26 -13 -39 -39 -39h-219c-26 0 -39 13 -39 39l-2 991c0 26 13 39 39 39h209c19 0 32 -13 39 -39l14 -121c73 116 177 177 312 183
c53 -1 98 -5 135 -13zM287 -145c107 0 160 -75 159 -226c0 -169 -95 -289 -286 -360c-8 -3 -22 4 -25 12l-16 49c-4 13 1 24 16 31c37 11 72 29 107 56c34 27 53 55 57 85c8 47 -4 61 -59 58c-65 -5 -115 54 -115 138c0 43 16 79 47 110s70 47 115 47z" />
    <glyph glyph-name="Rcaron" unicode="&#x158;" horiz-adv-x="1394" 
d="M561 1593l-254 361c-16 21 -1 47 27 47h112c33 0 57 -10 72 -31l129 -168l133 170c13 19 37 29 70 29h111c27 0 42 -26 26 -47l-256 -361c-8 -15 -22 -23 -43 -22h-82c-22 -1 -37 7 -45 22zM1034 588l283 -541c16 -24 4 -47 -29 -47h-225c-21 0 -35 10 -43 29l-252 499
h-293v-489c0 -26 -13 -39 -39 -39h-223c-26 0 -39 13 -39 39v1356c0 26 13 39 39 39h555c151 0 274 -41 369 -122c94 -81 141 -190 141 -325c0 -177 -91 -323 -244 -399zM768 1182h-293v-402h293c69 0 124 20 164 60c39 39 59 86 59 141s-20 102 -60 142
c-41 39 -95 59 -163 59z" />
    <glyph glyph-name="rcaron" unicode="&#x159;" horiz-adv-x="921" 
d="M489 1202h-81c-22 0 -37 8 -46 23l-253 360c-16 21 -1 47 26 47h113c33 0 56 -10 71 -30l130 -168l133 170c13 19 36 29 69 28h111c27 0 43 -24 26 -47l-256 -360c-8 -15 -22 -23 -43 -23zM885 1079c30 -9 37 -27 20 -53l-135 -225c-8 -12 -18 -18 -31 -19
c-8 0 -38 9 -67 9c-145 0 -213 -87 -236 -267v-485c0 -26 -13 -39 -39 -39h-219c-26 0 -39 13 -39 39l-2 991c0 26 13 39 39 39h209c19 0 32 -13 39 -39l14 -121c73 116 177 177 312 183c53 -1 98 -5 135 -13z" />
    <glyph glyph-name="Sacute" unicode="&#x15a;" horiz-adv-x="1241" 
d="M694 1567h-121c-33 0 -52 28 -41 57l119 318c9 26 28 39 56 38h155c36 0 56 -33 43 -65l-160 -316c-8 -22 -25 -33 -51 -32zM643 -25c-111 0 -215 21 -312 63c-98 41 -177 94 -237 159c-13 18 -15 36 -6 55l98 156c13 25 32 27 56 8c117 -111 238 -166 362 -166
c69 0 128 15 175 44s71 71 71 126c0 45 -18 80 -54 104c-37 23 -98 45 -184 66c-47 12 -83 22 -109 30c-27 7 -63 20 -109 37c-47 17 -84 35 -112 55c-56 39 -123 97 -151 178c-15 40 -22 85 -22 134c0 129 47 232 142 309s219 115 372 115c173 0 334 -52 481 -156
c19 -12 24 -30 14 -53l-82 -164c-11 -21 -28 -26 -53 -16c-129 83 -247 125 -354 125c-131 0 -219 -56 -219 -152c0 -52 22 -90 71 -113c25 -12 46 -21 65 -26c18 -5 43 -12 75 -19c42 -9 77 -18 106 -25s63 -18 104 -31c40 -14 73 -28 100 -42c27 -15 55 -34 85 -58
c60 -48 94 -97 118 -173c11 -39 17 -80 17 -125c0 -134 -46 -242 -139 -323s-216 -122 -369 -122z" />
    <glyph glyph-name="sacute" unicode="&#x15b;" horiz-adv-x="1013" 
d="M584 1198h-121c-33 0 -52 28 -41 57l119 318c9 26 28 39 55 39h156c36 0 56 -33 43 -66l-160 -315c-8 -22 -25 -33 -51 -33zM510 -18c-94 0 -179 14 -255 43s-136 65 -179 110c-18 18 -19 36 -4 55l75 121c13 22 33 25 58 8c35 -31 81 -56 137 -75s111 -29 166 -29
c112 0 176 41 176 113c0 49 -48 81 -91 92c-21 5 -57 13 -108 22c-130 23 -230 59 -299 108s-104 121 -104 216c0 103 39 183 116 241s181 87 314 87c145 0 272 -39 381 -117c22 -13 25 -32 8 -55l-76 -117c-13 -19 -32 -23 -55 -12c-73 49 -154 74 -244 73
c-116 0 -174 -32 -174 -96c0 -44 47 -73 93 -85c23 -6 55 -13 98 -21c9 -1 17 -3 22 -5c130 -27 227 -64 292 -111s97 -119 97 -214c0 -105 -39 -190 -116 -255c-78 -65 -187 -97 -328 -97z" />
    <glyph glyph-name="Scedilla" unicode="&#x15e;" horiz-adv-x="1241" 
d="M1151 420c0 -129 -43 -233 -128 -313c-85 -81 -200 -125 -343 -132l-25 -65c124 -18 186 -79 187 -182c0 -139 -124 -220 -324 -220c-38 0 -57 13 -57 39v62c0 22 14 34 41 37h26c15 0 28 0 39 1c10 1 23 3 40 7c44 11 77 32 77 84c0 27 -10 46 -30 57
c-21 11 -59 22 -115 31c-23 4 -32 15 -25 33l35 123c-91 11 -177 36 -257 75s-146 85 -198 140c-13 18 -15 36 -6 55l98 156c13 25 32 27 56 8c117 -111 238 -166 362 -166c69 0 128 15 175 44s71 71 71 126c0 45 -18 80 -54 104c-37 23 -98 45 -184 66
c-47 12 -83 22 -109 30c-27 7 -63 20 -109 37c-47 17 -84 35 -112 55c-56 39 -123 97 -151 178c-15 40 -22 85 -22 134c0 129 47 232 142 309s219 115 372 115c173 0 334 -52 481 -156c19 -12 24 -30 14 -53l-82 -164c-11 -21 -28 -26 -53 -16c-129 83 -247 125 -354 125
c-131 0 -219 -56 -219 -152c0 -52 22 -90 71 -113c25 -12 46 -21 65 -26c18 -5 43 -12 75 -19c42 -9 77 -18 106 -25s63 -18 104 -31c40 -14 73 -28 100 -42c27 -15 55 -34 85 -58c86 -68 131 -157 135 -298z" />
    <glyph glyph-name="scedilla" unicode="&#x15f;" horiz-adv-x="1013" 
d="M954 334c0 -97 -33 -177 -100 -240c-67 -64 -162 -101 -287 -110l-28 -74c124 -18 186 -79 186 -182c0 -139 -124 -220 -324 -220c-38 0 -57 13 -57 39v62c0 22 14 34 41 37h26c15 0 28 0 39 1c10 1 23 3 40 7c44 11 77 32 77 84c0 27 -10 46 -30 57
c-21 11 -59 22 -115 31c-23 4 -32 15 -25 33l37 127c-155 13 -275 63 -358 149c-18 18 -19 36 -4 55l75 121c13 22 33 25 58 8c35 -31 81 -56 137 -75s111 -29 166 -29c112 0 176 41 176 113c0 49 -48 81 -91 92c-21 5 -57 13 -108 22c-130 23 -230 59 -299 108
s-104 121 -104 216c0 103 39 183 116 241s181 87 314 87c145 0 272 -39 381 -117c22 -13 25 -32 8 -55l-76 -117c-13 -19 -32 -23 -55 -12c-73 49 -154 74 -244 73c-116 0 -174 -32 -174 -96c0 -44 47 -73 93 -85c23 -6 55 -13 98 -21c9 -1 17 -3 22 -5
c130 -27 227 -64 292 -111s97 -119 97 -214z" />
    <glyph glyph-name="Scaron" unicode="&#x160;" horiz-adv-x="1241" 
d="M530 1593l-254 361c-16 21 0 47 27 47h113c33 0 56 -10 71 -31l129 -168l134 170c13 19 36 29 69 29h111c27 0 43 -26 26 -47l-256 -361c-8 -15 -22 -23 -43 -22h-82c-22 -1 -37 7 -45 22zM621 874c42 -9 77 -18 106 -25s63 -18 104 -31c40 -14 73 -28 100 -42
c27 -15 55 -34 85 -58c60 -48 94 -97 118 -173c11 -39 17 -80 17 -125c0 -134 -46 -242 -139 -323s-216 -122 -369 -122c-111 0 -215 21 -312 63c-98 41 -177 94 -237 159c-13 18 -15 36 -6 55l98 156c13 25 32 27 56 8c117 -111 238 -166 362 -166c69 0 128 15 175 44
s71 71 71 126c0 45 -18 80 -54 104c-37 23 -98 45 -184 66c-47 12 -83 22 -109 30c-27 7 -63 20 -109 37c-47 17 -84 35 -112 55c-56 39 -123 97 -151 178c-15 40 -22 85 -22 134c0 129 47 232 142 309s219 115 372 115c173 0 334 -52 481 -156c19 -12 24 -30 14 -53
l-82 -164c-11 -21 -28 -26 -53 -16c-129 83 -247 125 -354 125c-131 0 -219 -56 -219 -152c0 -52 22 -90 71 -113c25 -12 46 -21 65 -26c19 -6 44 -12 75 -19z" />
    <glyph glyph-name="scaron" unicode="&#x161;" horiz-adv-x="1013" 
d="M420 1225l-254 360c-16 21 -1 47 27 47h112c33 0 57 -10 72 -30l129 -168l133 170c13 19 37 29 70 28h110c27 0 43 -24 27 -47l-256 -360c-8 -15 -22 -23 -43 -23h-82c-22 0 -37 8 -45 23zM565 659c130 -27 227 -64 292 -111s97 -119 97 -214c0 -105 -39 -190 -116 -255
c-78 -65 -187 -97 -328 -97c-94 0 -179 14 -255 43s-136 65 -179 110c-18 18 -19 36 -4 55l75 121c13 22 33 25 58 8c35 -31 81 -56 137 -75s111 -29 166 -29c112 0 176 41 176 113c0 49 -48 81 -91 92c-21 5 -57 13 -108 22c-130 23 -230 59 -299 108s-104 121 -104 216
c0 103 39 183 116 241s181 87 314 87c145 0 272 -39 381 -117c22 -13 25 -32 8 -55l-76 -117c-13 -19 -32 -23 -55 -12c-73 49 -154 74 -244 73c-116 0 -174 -32 -174 -96c0 -44 47 -73 93 -85c23 -6 55 -13 98 -21c9 -2 17 -4 22 -5z" />
    <glyph glyph-name="uni0162" unicode="&#x162;" horiz-adv-x="1368" 
d="M98 1434h1172c26 0 39 -13 39 -39v-203c0 -26 -13 -39 -39 -39h-434v-1114c0 -26 -13 -39 -39 -39h-49l-35 -90c124 -18 186 -79 186 -182c0 -139 -124 -220 -324 -220c-38 0 -57 13 -57 39v62c0 22 14 34 41 37h26c15 0 28 0 39 1c10 1 23 3 40 7c44 11 77 32 77 84
c0 27 -10 46 -30 57c-21 11 -59 22 -115 31c-23 4 -32 15 -25 33l41 141h-41c-26 0 -39 13 -39 39v1114h-434c-26 0 -39 13 -39 39v203c0 26 13 39 39 39z" />
    <glyph glyph-name="uni0163" unicode="&#x163;" horiz-adv-x="894" 
d="M793 213l51 -129c8 -22 2 -39 -19 -51c-67 -31 -139 -49 -217 -53l-26 -70c124 -18 186 -79 186 -182c0 -139 -124 -220 -324 -220c-38 0 -57 13 -57 39v62c0 22 14 34 41 37h26c15 0 28 0 39 1c10 1 23 3 40 7c44 11 77 32 77 84c0 27 -10 46 -30 57
c-21 11 -59 22 -115 31c-23 4 -32 15 -25 33l37 125c-186 30 -279 173 -278 428v415h-129c-26 0 -39 13 -39 39v164c0 26 13 39 39 39h129v238c0 26 13 39 39 39h221c26 0 39 -13 39 -39v-238h274c26 0 39 -13 39 -39v-164c0 -26 -13 -39 -39 -39h-274v-442
c0 -125 50 -166 151 -166c31 0 62 6 92 17c26 7 43 -1 52 -23z" />
    <glyph glyph-name="Tcaron" unicode="&#x164;" horiz-adv-x="1368" 
d="M598 1593l-254 361c-16 21 -1 47 27 47h112c33 0 57 -10 72 -31l129 -168l133 170c13 19 37 29 70 29h110c27 0 43 -26 27 -47l-256 -361c-8 -15 -22 -23 -43 -22h-82c-22 -1 -37 7 -45 22zM98 1434h1172c26 0 39 -13 39 -39v-203c0 -26 -13 -39 -39 -39h-434v-1114
c0 -26 -13 -39 -39 -39h-226c-26 0 -39 13 -39 39v1114h-434c-26 0 -39 13 -39 39v203c0 26 13 39 39 39z" />
    <glyph glyph-name="tcaron" unicode="&#x165;" horiz-adv-x="894" 
d="M772 1583h178c36 0 54 -31 41 -63l-153 -328c-7 -15 -18 -23 -35 -23h-150c-33 0 -54 27 -43 60l125 327c5 18 18 27 37 27zM793 213l51 -129c8 -22 2 -39 -19 -51c-75 -37 -161 -55 -258 -56c-263 0 -368 146 -368 435v415h-129c-26 0 -39 13 -39 39v164
c0 26 13 39 39 39h129v238c0 26 13 39 39 39h221c26 0 39 -13 39 -39v-238h274c26 0 39 -13 39 -39v-164c0 -26 -13 -39 -39 -39h-274v-442c0 -125 50 -166 151 -166c31 0 62 6 92 17c27 7 44 -1 52 -23z" />
    <glyph glyph-name="Tbar" unicode="&#x166;" horiz-adv-x="1368" 
d="M98 1434h1172c26 0 39 -13 39 -39v-203c0 -26 -13 -39 -39 -39h-434v-352h168c21 0 38 -18 38 -39v-90c0 -21 -17 -39 -38 -39h-168v-594c0 -26 -13 -39 -39 -39h-226c-26 0 -39 13 -39 39v594h-167c-26 0 -39 13 -39 39v88c0 26 13 39 39 39h167v354h-434
c-26 0 -39 13 -39 39v203c0 26 13 39 39 39z" />
    <glyph glyph-name="tbar" unicode="&#x167;" horiz-adv-x="894" 
d="M793 213l51 -129c8 -22 2 -39 -19 -51c-75 -37 -161 -55 -258 -56c-263 0 -368 146 -368 435v41h-84c-26 0 -39 13 -39 39v88c0 26 13 39 39 38h84v209h-129c-26 0 -39 13 -39 39v164c0 26 13 39 39 39h129v238c0 26 13 39 39 39h221c26 0 39 -13 39 -39v-238h274
c26 0 39 -13 39 -39v-164c0 -26 -13 -39 -39 -39h-274v-206h256c21 0 39 -18 39 -39v-90c0 -21 -18 -39 -39 -39h-256v-68c0 -125 50 -166 151 -166c31 0 62 6 92 17c26 7 43 -1 52 -23z" />
    <glyph glyph-name="Utilde" unicode="&#x168;" horiz-adv-x="1476" 
d="M514 1606c-11 -19 -26 -26 -45 -19l-86 37c-15 5 -21 17 -18 35c11 61 35 111 73 150c37 38 83 57 137 57c45 0 101 -18 167 -53c65 -36 109 -54 132 -54c35 0 66 23 93 70c9 18 23 23 41 16l88 -35c15 -5 21 -17 18 -36c-9 -63 -33 -113 -72 -152s-85 -59 -137 -59
c-45 0 -102 19 -170 56s-113 56 -135 56c-31 1 -60 -22 -86 -69zM739 -20c-186 0 -332 61 -439 182s-161 284 -161 489v744c0 26 13 39 39 39h223c26 0 39 -13 39 -39v-744c0 -247 100 -371 299 -370c198 0 297 123 297 370v744c0 26 13 39 39 39h223c26 0 39 -13 39 -39
v-744c0 -205 -54 -368 -161 -489s-253 -182 -437 -182z" />
    <glyph glyph-name="utilde" unicode="&#x169;" horiz-adv-x="1318" 
d="M383 1229l-86 37c-15 5 -21 17 -18 34c11 61 35 111 73 150c37 38 83 57 137 57c45 0 101 -18 167 -53c65 -35 109 -53 132 -53c35 0 66 23 93 69c9 18 23 24 41 17l88 -35c15 -5 21 -18 18 -37c-9 -63 -33 -113 -72 -152s-85 -59 -137 -59c-45 0 -102 19 -170 57
c-68 37 -113 56 -135 56c-31 0 -60 -23 -86 -70c-11 -19 -26 -25 -45 -18zM920 1069h223c26 0 39 -13 39 -39v-991c0 -26 -13 -39 -39 -39h-207c-22 0 -35 13 -39 39l-14 104c-101 -112 -226 -168 -373 -168c-257 0 -395 180 -395 512v543c0 26 13 39 39 39h223
c26 0 39 -13 39 -39v-543c0 -153 80 -243 217 -243c141 0 239 99 248 307v479c0 26 13 39 39 39z" />
    <glyph glyph-name="Umacron" unicode="&#x16a;" horiz-adv-x="1476" 
d="M1057 1602h-635c-21 0 -39 17 -39 38v132c0 26 13 39 39 38l635 2c21 0 39 -17 39 -38v-134c0 -21 -18 -38 -39 -38zM739 -20c-186 0 -332 61 -439 182s-161 284 -161 489v744c0 26 13 39 39 39h223c26 0 39 -13 39 -39v-744c0 -247 100 -371 299 -370
c198 0 297 123 297 370v744c0 26 13 39 39 39h223c26 0 39 -13 39 -39v-744c0 -205 -54 -368 -161 -489s-253 -182 -437 -182z" />
    <glyph glyph-name="umacron" unicode="&#x16b;" horiz-adv-x="1318" 
d="M971 1243h-635c-21 0 -39 18 -39 39v131c0 26 13 39 39 39l635 2c21 0 39 -16 39 -39v-133c0 -21 -18 -39 -39 -39zM920 1069h223c26 0 39 -13 39 -39v-991c0 -26 -13 -39 -39 -39h-207c-22 0 -35 13 -39 39l-14 104c-101 -112 -226 -168 -373 -168
c-257 0 -395 180 -395 512v543c0 26 13 39 39 39h223c26 0 39 -13 39 -39v-543c0 -153 80 -243 217 -243c141 0 239 99 248 307v479c0 26 13 39 39 39z" />
    <glyph glyph-name="Uring" unicode="&#x16e;" horiz-adv-x="1476" 
d="M739 1532c-71 0 -128 22 -171 67c-44 44 -66 102 -66 173s22 128 66 173c43 44 101 66 172 66s128 -22 172 -65c43 -44 65 -102 65 -174c0 -71 -22 -128 -67 -173s-102 -67 -171 -67zM658 1688c20 -21 47 -31 82 -31c34 0 61 10 82 30c20 19 30 48 30 85
c0 71 -44 114 -112 114c-69 0 -113 -41 -113 -112c0 -37 10 -65 31 -86zM739 -20c-186 0 -332 61 -439 182s-161 284 -161 489v744c0 26 13 39 39 39h223c26 0 39 -13 39 -39v-744c0 -247 100 -371 299 -370c198 0 297 123 297 370v744c0 26 13 39 39 39h223
c26 0 39 -13 39 -39v-744c0 -205 -54 -368 -161 -489s-253 -182 -437 -182z" />
    <glyph glyph-name="uring" unicode="&#x16f;" horiz-adv-x="1318" 
d="M653 1174c-71 0 -128 22 -171 67c-44 44 -66 102 -66 173s22 128 66 173c43 44 101 66 172 66s128 -22 172 -65c43 -44 65 -102 65 -175c0 -71 -22 -128 -67 -172c-45 -45 -102 -67 -171 -67zM736 1497c-21 21 -48 31 -82 31c-35 0 -62 -10 -82 -31
c-21 -21 -31 -48 -31 -82c0 -73 44 -117 113 -117c68 0 112 42 112 115c0 35 -10 63 -30 84zM920 1069h223c26 0 39 -13 39 -39v-991c0 -26 -13 -39 -39 -39h-207c-22 0 -35 13 -39 39l-14 104c-101 -112 -226 -168 -373 -168c-257 0 -395 180 -395 512v543
c0 26 13 39 39 39h223c26 0 39 -13 39 -39v-543c0 -153 80 -243 217 -243c141 0 239 99 248 307v479c0 26 13 39 39 39z" />
    <glyph glyph-name="Uhungarumlaut" unicode="&#x170;" horiz-adv-x="1476" 
d="M602 1556h-129c-33 0 -52 27 -41 58l119 317c9 26 28 39 55 39h166c36 0 57 -33 41 -65l-158 -316c-11 -22 -28 -33 -53 -33zM1022 1556h-129c-33 0 -54 27 -43 58l119 317c9 26 28 39 55 39h166c36 0 56 -33 43 -65l-160 -316c-8 -22 -25 -33 -51 -33zM739 -20
c-186 0 -332 61 -439 182s-161 284 -161 489v744c0 26 13 39 39 39h223c26 0 39 -13 39 -39v-744c0 -247 100 -371 299 -370c198 0 297 123 297 370v744c0 26 13 39 39 39h223c26 0 39 -13 39 -39v-744c0 -205 -54 -368 -161 -489s-253 -182 -437 -182z" />
    <glyph glyph-name="uhungarumlaut" unicode="&#x171;" horiz-adv-x="1318" 
d="M516 1198h-129c-33 0 -52 28 -41 57l119 318c9 26 28 39 55 39h166c36 0 57 -33 41 -66l-158 -315c-11 -22 -28 -33 -53 -33zM936 1198h-129c-33 0 -54 28 -43 57l119 318c9 26 28 39 55 39h166c36 0 56 -33 43 -66l-160 -315c-8 -22 -25 -33 -51 -33zM920 1069h223
c26 0 39 -13 39 -39v-991c0 -26 -13 -39 -39 -39h-207c-22 0 -35 13 -39 39l-14 104c-101 -112 -226 -168 -373 -168c-257 0 -395 180 -395 512v543c0 26 13 39 39 39h223c26 0 39 -13 39 -39v-543c0 -153 80 -243 217 -243c141 0 239 99 248 307v479c0 26 13 39 39 39z" />
    <glyph glyph-name="Uogonek" unicode="&#x172;" horiz-adv-x="1476" 
d="M1075 1434h223c26 0 39 -13 39 -39v-744c0 -191 -46 -346 -139 -465s-221 -186 -385 -202c-4 -52 -27 -102 -68 -149c-42 -47 -63 -83 -63 -107c0 -57 60 -81 172 -52c18 4 30 -1 35 -14l24 -80c3 -13 -1 -24 -12 -31c-49 -22 -101 -34 -156 -35s-106 16 -151 50
s-68 81 -68 141c0 41 12 77 35 109c23 33 48 62 75 89s42 52 46 77c-168 13 -300 80 -397 199s-146 276 -146 470v744c0 26 13 39 39 39h223c26 0 39 -13 39 -39v-744c0 -247 100 -371 299 -370c198 0 297 123 297 370v744c0 26 13 39 39 39z" />
    <glyph glyph-name="uogonek" unicode="&#x173;" horiz-adv-x="1318" 
d="M1257 -299l25 -80c3 -13 -1 -24 -12 -31c-49 -22 -102 -34 -157 -35s-105 16 -150 50s-68 81 -68 141s31 115 64 146c32 32 72 75 85 108h-108c-22 0 -35 13 -39 39l-14 104c-101 -112 -226 -168 -373 -168c-257 0 -395 180 -395 512v543c0 26 13 39 39 39h223
c26 0 39 -13 39 -39v-543c0 -153 80 -243 217 -243c141 0 239 99 248 307v479c0 26 13 39 39 39h223c26 0 39 -13 39 -39v-991c5 -139 -137 -204 -131 -272c0 -57 60 -81 172 -52c18 4 29 -1 34 -14z" />
    <glyph glyph-name="Wcircumflex" unicode="&#x174;" horiz-adv-x="2148" 
d="M874 1571h-112c-27 0 -43 25 -27 49l254 358c8 15 22 23 43 23h82c22 0 37 -7 45 -21l256 -360c16 -21 1 -49 -26 -49h-111c-31 0 -55 10 -72 31l-131 167l-129 -167c-17 -21 -41 -31 -72 -31zM1839 1434h221c31 0 43 -24 35 -45l-440 -1356c-7 -22 -22 -33 -45 -33h-193
c-19 0 -34 10 -43 31l-301 809l-301 -809c-9 -21 -24 -31 -43 -31h-192c-23 0 -38 11 -45 33l-437 1356c-8 24 6 45 33 45h223c23 0 37 -10 41 -31l289 -932l326 879c8 22 23 33 45 32h129c21 0 35 -11 43 -32l317 -889l295 942c5 21 20 31 43 31z" />
    <glyph glyph-name="wcircumflex" unicode="&#x175;" horiz-adv-x="1669" 
d="M635 1202h-113c-27 0 -43 25 -26 49l254 359c8 15 22 23 43 22h81c22 0 37 -7 46 -20l256 -361c16 -21 0 -49 -27 -49h-111c-31 0 -55 10 -71 31l-131 168l-129 -168c-17 -21 -41 -31 -72 -31zM1395 1069h215c27 0 37 -15 30 -45l-344 -993c-9 -21 -24 -31 -43 -31h-180
c-19 0 -34 10 -43 31l-205 575l-194 -575c-9 -21 -24 -31 -45 -31h-178c-22 0 -36 11 -43 33l-336 993c-7 29 4 43 32 43h215c25 0 40 -11 46 -33l200 -647l191 619c5 22 20 33 45 32h143c22 0 37 -11 45 -32l197 -635l207 663c5 22 20 33 45 33z" />
    <glyph glyph-name="Ycircumflex" unicode="&#x176;" horiz-adv-x="1482" 
d="M545 1571h-113c-27 0 -43 25 -26 49l253 358c8 15 22 23 43 23h82c22 0 37 -7 45 -21l256 -360c16 -21 1 -49 -26 -49h-111c-31 0 -55 10 -71 31l-132 167l-129 -167c-17 -21 -40 -31 -71 -31zM1126 1434h285c36 0 43 -27 27 -50l-543 -761v-584c0 -26 -13 -39 -39 -39
h-223c-26 0 -39 13 -39 39v586l-545 759c-21 27 -8 50 25 50h284c22 0 38 -8 48 -25l339 -516l336 516c9 17 24 25 45 25z" />
    <glyph glyph-name="ycircumflex" unicode="&#x177;" horiz-adv-x="1157" 
d="M379 1202h-113c-27 0 -43 25 -26 49l254 359c8 15 22 23 43 22h81c22 0 37 -7 46 -20l256 -361c16 -21 0 -49 -27 -49h-111c-31 0 -55 10 -71 31l-131 168l-129 -168c-17 -21 -41 -31 -72 -31zM868 1069h234c31 0 39 -24 31 -45l-441 -1137c-76 -196 -212 -309 -381 -309
c-78 0 -150 21 -215 62c-21 12 -25 30 -14 53l61 137c11 21 29 27 54 20c31 -13 61 -20 90 -20c73 0 122 49 166 172l2 4l-430 1018c-13 21 3 45 30 45h232c22 0 37 -10 45 -31l256 -659l235 659c8 21 23 31 45 31z" />
    <glyph glyph-name="Ydieresis" unicode="&#x178;" horiz-adv-x="1482" 
d="M626 1615c-28 -28 -61 -42 -99 -42c-39 0 -72 14 -100 42s-42 62 -42 102c0 39 14 73 42 101s61 42 100 42c38 0 71 -14 99 -42s42 -62 42 -101c0 -40 -14 -74 -42 -102zM965 1573c-39 0 -73 14 -101 43c-29 29 -43 62 -43 101c0 38 14 71 42 100s62 43 102 43
c38 0 71 -14 99 -42s42 -62 42 -101c0 -40 -14 -74 -42 -102s-61 -42 -99 -42zM1126 1434h285c36 0 43 -27 27 -50l-543 -761v-584c0 -26 -13 -39 -39 -39h-223c-26 0 -39 13 -39 39v586l-545 759c-21 27 -8 50 25 50h284c22 0 38 -8 48 -25l339 -516l336 516
c9 17 24 25 45 25z" />
    <glyph glyph-name="Zacute" unicode="&#x179;" horiz-adv-x="1499" 
d="M823 1567h-121c-33 0 -52 28 -40 57l118 318c9 26 28 39 56 38h155c36 0 56 -33 43 -65l-160 -316c-8 -22 -25 -33 -51 -32zM537 270h837c26 0 39 -13 39 -39v-192c0 -26 -13 -39 -39 -39h-1255c-26 0 -39 13 -39 39v123c0 18 6 33 18 45l860 956h-817
c-26 0 -39 13 -39 39v193c0 26 13 39 39 39h1225c26 0 39 -13 39 -39v-129c0 -17 -6 -32 -19 -47z" />
    <glyph glyph-name="zacute" unicode="&#x17a;" horiz-adv-x="1091" 
d="M623 1198h-121c-33 0 -52 28 -41 57l119 318c9 26 28 39 55 39h156c36 0 56 -33 43 -66l-160 -315c-8 -22 -25 -33 -51 -33zM461 258h518c26 0 39 -13 39 -39v-180c0 -26 -13 -39 -39 -39h-875c-26 0 -39 13 -38 39v129c0 19 6 35 18 47l541 598h-500
c-26 0 -39 13 -39 39v180c0 26 13 39 39 39h852c26 0 39 -13 39 -39v-143c0 -18 -7 -34 -21 -47z" />
    <glyph glyph-name="Zdotaccent" unicode="&#x17b;" horiz-adv-x="1499" 
d="M845 1619c-28 -28 -61 -42 -99 -42c-39 0 -72 14 -100 42s-42 62 -42 102c0 39 14 73 42 101s61 42 100 42c38 0 71 -14 99 -42s42 -62 42 -101c0 -40 -14 -74 -42 -102zM537 270h837c26 0 39 -13 39 -39v-192c0 -26 -13 -39 -39 -39h-1255c-26 0 -39 13 -39 39v123
c0 18 6 33 18 45l860 956h-817c-26 0 -39 13 -39 39v193c0 26 13 39 39 39h1225c26 0 39 -13 39 -39v-129c0 -17 -6 -32 -19 -47z" />
    <glyph glyph-name="zdotaccent" unicode="&#x17c;" horiz-adv-x="1091" 
d="M644 1250c-28 -28 -61 -42 -99 -42c-39 0 -72 14 -100 42s-42 62 -42 102c0 39 14 73 42 101s61 42 100 42c38 0 71 -14 99 -42s42 -62 42 -101c0 -40 -14 -74 -42 -102zM461 258h518c26 0 39 -13 39 -39v-180c0 -26 -13 -39 -39 -39h-875c-26 0 -39 13 -38 39v129
c0 19 6 35 18 47l541 598h-500c-26 0 -39 13 -39 39v180c0 26 13 39 39 39h852c26 0 39 -13 39 -39v-143c0 -18 -7 -34 -21 -47z" />
    <glyph glyph-name="Zcaron" unicode="&#x17d;" horiz-adv-x="1499" 
d="M659 1593l-253 361c-16 21 -1 47 26 47h113c33 0 56 -10 71 -31l129 -168l134 170c13 19 36 29 69 29h111c27 0 43 -26 26 -47l-256 -361c-8 -15 -22 -23 -43 -22h-81c-23 -1 -38 7 -46 22zM537 270h837c26 0 39 -13 39 -39v-192c0 -26 -13 -39 -39 -39h-1255
c-26 0 -39 13 -39 39v123c0 18 6 33 18 45l860 956h-817c-26 0 -39 13 -39 39v193c0 26 13 39 39 39h1225c26 0 39 -13 39 -39v-129c0 -17 -6 -32 -19 -47z" />
    <glyph glyph-name="zcaron" unicode="&#x17e;" horiz-adv-x="1091" 
d="M459 1225l-254 360c-16 21 -1 47 26 47h113c33 0 57 -10 72 -30l129 -168l133 170c13 19 37 29 70 28h110c27 0 43 -24 27 -47l-256 -360c-8 -15 -22 -23 -43 -23h-82c-22 0 -37 8 -45 23zM461 258h518c26 0 39 -13 39 -39v-180c0 -26 -13 -39 -39 -39h-875
c-26 0 -39 13 -38 39v129c0 19 6 35 18 47l541 598h-500c-26 0 -39 13 -39 39v180c0 26 13 39 39 39h852c26 0 39 -13 39 -39v-143c0 -18 -7 -34 -21 -47z" />
    <glyph glyph-name="Ohorn" unicode="&#x1a0;" horiz-adv-x="1646" 
d="M1546 1434h103c17 0 25 -8 24 -25v-106c0 -75 -17 -129 -52 -162s-85 -53 -151 -62c55 -109 82 -233 82 -372c0 -223 -66 -400 -197 -533c-132 -133 -309 -199 -532 -199s-400 66 -531 199c-132 133 -198 310 -198 533c0 224 66 404 199 539s309 202 530 202
c239 0 424 -77 557 -231c52 0 88 6 109 19s31 40 31 83v90c0 17 9 25 26 25zM501 373c84 -79 192 -119 323 -119s238 40 323 119s127 191 127 334c0 145 -43 258 -128 341c-85 82 -193 123 -323 123c-129 0 -235 -41 -320 -123c-85 -83 -128 -196 -128 -341
c0 -143 42 -255 126 -334z" />
    <glyph glyph-name="ohorn" unicode="&#x1a1;" horiz-adv-x="1249" 
d="M1204 1141h103c17 0 25 -8 24 -25v-106c0 -148 -70 -205 -198 -222c34 -79 51 -163 51 -251c0 -164 -52 -298 -157 -403s-239 -157 -402 -157c-165 0 -299 52 -402 156s-155 239 -155 404c0 164 52 298 155 402c103 103 237 155 402 155c172 0 311 -57 417 -170
c51 0 86 7 106 20s30 40 30 82v90c0 17 9 25 26 25zM414 307c59 -56 129 -84 211 -84s153 28 212 84s89 133 89 230s-29 173 -88 228s-130 83 -213 83c-82 0 -152 -28 -211 -83s-88 -131 -88 -228c0 -98 29 -175 88 -230z" />
    <glyph glyph-name="Uhorn" unicode="&#x1af;" horiz-adv-x="1476" 
d="M1475 1651h102c17 0 25 -8 25 -25v-106c0 -85 -23 -143 -68 -174c-45 -32 -111 -50 -197 -54v-641c0 -205 -53 -368 -160 -489s-253 -182 -438 -182c-186 0 -332 61 -439 182s-161 284 -161 489v744c0 26 13 39 39 39h223c26 0 39 -13 39 -39v-744
c0 -247 100 -371 299 -370c198 0 297 123 297 370v744c0 26 13 39 39 39h223c56 0 95 6 117 18s33 40 33 84v90c0 17 9 25 27 25z" />
    <glyph glyph-name="uhorn" unicode="&#x1b0;" horiz-adv-x="1318" 
d="M1319 1286h102c17 0 25 -8 25 -24v-107c0 -85 -22 -143 -67 -174s-111 -49 -197 -53v-889c0 -26 -13 -39 -39 -39h-207c-22 0 -35 13 -39 39l-14 104c-101 -112 -226 -168 -373 -168c-257 0 -395 180 -395 512v543c0 26 13 39 39 39h223c26 0 39 -13 39 -39v-543
c0 -153 80 -243 217 -243c141 0 239 99 248 307v479c0 26 13 39 39 39h223c56 0 95 6 117 19c21 12 32 40 32 83v91c0 17 9 25 27 24z" />
    <glyph glyph-name="uni01CD" unicode="&#x1cd;" horiz-adv-x="1492" 
d="M676 1593l-254 361c-16 21 -1 47 27 47h112c33 0 57 -10 72 -31l129 -168l133 170c13 19 37 29 70 29h110c27 0 43 -26 27 -47l-256 -361c-8 -15 -22 -23 -43 -22h-82c-22 -1 -37 7 -45 22zM877 1405l565 -1358c13 -31 3 -47 -31 -47h-244c-22 0 -36 10 -43 29l-96 235
h-553l-104 -235c-8 -19 -23 -29 -45 -29h-246c-31 0 -40 18 -29 47l602 1358c8 19 22 29 43 29h138c22 0 36 -10 43 -29zM942 485l-182 508l-195 -508h377z" />
    <glyph glyph-name="uni01CE" unicode="&#x1ce;" horiz-adv-x="1366" 
d="M592 1225l-254 360c-16 21 -1 47 27 47h112c33 0 57 -10 72 -30l129 -168l133 170c13 19 37 29 70 28h110c27 0 43 -24 27 -47l-256 -360c-8 -15 -22 -23 -43 -23h-82c-22 0 -37 8 -45 23zM991 1069h199c26 0 39 -13 39 -39v-991c0 -26 -13 -39 -39 -39h-199
c-19 0 -32 13 -39 39l-16 131c-98 -130 -220 -195 -365 -195c-138 0 -256 51 -353 152s-146 237 -146 408s49 307 147 409c97 101 213 152 346 152c143 0 268 -61 373 -183l14 117c4 26 17 39 39 39zM649 217c82 0 151 27 208 80s85 131 85 232s-29 180 -86 237
s-128 86 -211 86c-82 0 -151 -28 -206 -84s-83 -134 -83 -233c0 -100 28 -178 84 -234s126 -84 209 -84z" />
    <glyph glyph-name="uni01CF" unicode="&#x1cf;" horiz-adv-x="649" 
d="M526 2001h111c27 0 43 -26 27 -47l-256 -361c-8 -15 -22 -23 -43 -22h-82c-22 0 -37 7 -45 22l-254 361c-16 21 -1 47 26 47h113c33 0 57 -10 72 -31l129 -168l133 170c13 19 36 29 69 29zM213 1434h223c26 0 39 -13 39 -39v-1356c0 -26 -13 -39 -39 -39h-223
c-26 0 -39 13 -39 39v1356c0 26 13 39 39 39z" />
    <glyph glyph-name="uni01D0" unicode="&#x1d0;" horiz-adv-x="577" 
d="M492 1624h110c27 0 43 -26 27 -47l-256 -360c-8 -15 -22 -23 -43 -23h-82c-22 0 -37 8 -45 23l-254 360c-16 21 -1 47 26 47h113c33 0 57 -10 72 -31l129 -168l133 170c13 19 37 29 70 29zM176 1069h225c26 0 39 -13 39 -39v-991c0 -26 -13 -39 -39 -39h-225
c-26 0 -39 13 -39 39v991c0 26 13 39 39 39z" />
    <glyph glyph-name="uni01D1" unicode="&#x1d1;" horiz-adv-x="1646" 
d="M737 1593l-254 361c-16 21 -1 47 27 47h113c33 0 56 -10 71 -31l129 -168l133 170c13 19 37 29 70 29h111c27 0 43 -26 26 -47l-256 -361c-8 -15 -22 -23 -43 -22h-82c-22 -1 -37 7 -45 22zM823 1448c223 0 400 -68 532 -203c131 -135 197 -315 197 -538
s-66 -400 -197 -533c-132 -133 -309 -199 -532 -199s-400 66 -531 199c-132 133 -198 310 -198 533c0 224 66 404 199 539c132 135 309 202 530 202zM501 373c84 -79 192 -119 323 -119s238 40 323 119s127 191 127 334c0 145 -43 258 -128 341c-85 82 -193 123 -323 123
c-129 0 -235 -41 -320 -123c-85 -83 -128 -196 -128 -341c0 -143 42 -255 126 -334z" />
    <glyph glyph-name="uni01D2" unicode="&#x1d2;" horiz-adv-x="1249" 
d="M539 1225l-254 360c-16 21 -1 47 26 47h113c33 0 57 -10 72 -30l129 -168l133 170c13 19 36 29 69 28h111c27 0 43 -24 27 -47l-256 -360c-8 -15 -22 -23 -43 -23h-82c-22 0 -37 8 -45 23zM223 939c103 103 237 155 402 155s299 -52 403 -156s156 -238 156 -401
c0 -164 -52 -298 -157 -403s-239 -157 -402 -157c-165 0 -299 52 -402 156s-155 239 -155 404c0 164 52 298 155 402zM414 307c59 -56 129 -84 211 -84s153 28 212 84s89 133 89 230s-29 173 -88 228s-130 83 -213 83c-82 0 -152 -28 -211 -83s-88 -131 -88 -228
c0 -98 29 -175 88 -230z" />
    <glyph glyph-name="uni01D3" unicode="&#x1d3;" horiz-adv-x="1476" 
d="M653 1583l-254 361c-16 21 0 47 27 47h113c33 0 56 -10 71 -31l129 -168l133 170c13 19 37 29 70 29h111c27 0 43 -26 26 -47l-256 -361c-8 -15 -22 -23 -43 -22h-82c-22 -1 -37 7 -45 22zM1075 1434h223c26 0 39 -13 39 -39v-744c0 -205 -53 -368 -160 -489
s-253 -182 -438 -182c-186 0 -332 61 -439 182s-161 284 -161 489v744c0 26 13 39 39 39h223c26 0 39 -13 39 -39v-744c0 -247 100 -371 299 -370c198 0 297 123 297 370v744c0 26 13 39 39 39z" />
    <glyph glyph-name="uni01D4" unicode="&#x1d4;" horiz-adv-x="1318" 
d="M567 1225l-254 360c-16 21 -1 47 27 47h113c33 0 56 -10 71 -30l129 -168l133 170c13 19 37 29 70 28h111c27 0 43 -24 26 -47l-256 -360c-8 -15 -22 -23 -43 -23h-82c-22 0 -37 8 -45 23zM920 1069h223c26 0 39 -13 39 -39v-991c0 -26 -13 -39 -39 -39h-207
c-22 0 -35 13 -39 39l-14 104c-101 -112 -226 -168 -373 -168c-257 0 -395 180 -395 512v543c0 26 13 39 39 39h223c26 0 39 -13 39 -39v-543c0 -153 80 -243 217 -243c141 0 239 99 248 307v479c0 26 13 39 39 39z" />
    <glyph glyph-name="uni01D5" unicode="&#x1d5;" horiz-adv-x="1476" 
d="M1057 1991h-635c-21 0 -39 16 -39 39v131c0 26 13 39 39 39l635 2c21 0 39 -18 39 -39v-133c0 -21 -18 -39 -39 -39zM620 1605c-28 -28 -61 -42 -99 -42c-39 0 -72 14 -100 42s-42 62 -42 101s14 73 42 101s61 42 100 42c38 0 71 -14 99 -42s42 -62 42 -101
s-14 -73 -42 -101zM1058 1605c-28 -28 -61 -42 -99 -42c-39 0 -72 14 -101 42s-43 62 -43 101s14 73 43 101s62 42 101 42c38 0 71 -14 99 -42s42 -62 42 -101s-14 -73 -42 -101zM739 -20c-186 0 -332 61 -439 182s-161 284 -161 489v744c0 26 13 39 39 39h223
c26 0 39 -13 39 -39v-744c0 -247 100 -371 299 -370c198 0 297 123 297 370v744c0 26 13 39 39 39h223c26 0 39 -13 39 -39v-744c0 -205 -54 -368 -161 -489s-253 -182 -437 -182z" />
    <glyph glyph-name="uni01D6" unicode="&#x1d6;" horiz-adv-x="1318" 
d="M971 1632h-635c-21 0 -39 18 -39 39v131c0 26 13 39 39 39l635 2c21 0 39 -16 39 -39v-133c0 -21 -18 -39 -39 -39zM534 1246c-28 -28 -61 -42 -99 -42c-39 0 -72 14 -100 42s-42 62 -42 102c0 39 14 73 42 101s61 42 100 42c38 0 71 -14 99 -42c27 -28 41 -62 41 -101
c0 -40 -14 -74 -41 -102zM772 1448c29 29 62 43 101 43c38 0 71 -14 99 -42s42 -62 42 -101c0 -40 -14 -74 -42 -102s-61 -42 -99 -42c-39 0 -72 14 -101 43s-43 62 -43 101c0 38 14 71 43 100zM920 1069h223c26 0 39 -13 39 -39v-991c0 -26 -13 -39 -39 -39h-207
c-22 0 -35 13 -39 39l-14 104c-101 -112 -226 -168 -373 -168c-257 0 -395 180 -395 512v543c0 26 13 39 39 39h223c26 0 39 -13 39 -39v-543c0 -153 80 -243 217 -243c141 0 239 99 248 307v479c0 26 13 39 39 39z" />
    <glyph glyph-name="uni01D7" unicode="&#x1d7;" horiz-adv-x="1476" 
d="M817 1946h-121c-33 0 -52 26 -41 57l119 317c9 26 28 39 55 39h156c36 0 56 -33 43 -65l-160 -316c-8 -22 -25 -33 -51 -32zM620 1605c-28 -28 -61 -42 -99 -42c-39 0 -72 14 -100 42s-42 62 -42 101s14 73 42 101s61 42 100 42c38 0 71 -14 99 -42s42 -62 42 -101
s-14 -73 -42 -101zM1058 1605c-28 -28 -61 -42 -99 -42c-39 0 -72 14 -101 42s-43 62 -43 101s14 73 43 101s62 42 101 42c38 0 71 -14 99 -42s42 -62 42 -101s-14 -73 -42 -101zM739 -20c-186 0 -332 61 -439 182s-161 284 -161 489v744c0 26 13 39 39 39h223
c26 0 39 -13 39 -39v-744c0 -247 100 -371 299 -370c198 0 297 123 297 370v744c0 26 13 39 39 39h223c26 0 39 -13 39 -39v-744c0 -205 -54 -368 -161 -489s-253 -182 -437 -182z" />
    <glyph glyph-name="uni01D8" unicode="&#x1d8;" horiz-adv-x="1318" 
d="M731 1587h-121c-33 0 -52 27 -41 58l119 317c9 26 28 39 55 39h156c36 0 56 -33 43 -66l-160 -315c-8 -22 -25 -33 -51 -33zM534 1246c-28 -28 -61 -42 -99 -42c-39 0 -72 14 -100 42s-42 62 -42 102c0 39 14 73 42 101s61 42 100 42c38 0 71 -14 99 -42
c27 -28 41 -62 41 -101c0 -40 -14 -74 -41 -102zM772 1247c-29 29 -43 62 -43 101c0 38 14 71 43 100s62 43 101 43c38 0 71 -14 99 -42s42 -62 42 -101c0 -40 -14 -74 -42 -102s-61 -42 -99 -42c-39 0 -72 14 -101 43zM920 1069h223c26 0 39 -13 39 -39v-991
c0 -26 -13 -39 -39 -39h-207c-22 0 -35 13 -39 39l-14 104c-101 -112 -226 -168 -373 -168c-257 0 -395 180 -395 512v543c0 26 13 39 39 39h223c26 0 39 -13 39 -39v-543c0 -153 80 -243 217 -243c141 0 239 99 248 307v479c0 26 13 39 39 39z" />
    <glyph glyph-name="uni01D9" unicode="&#x1d9;" horiz-adv-x="1476" 
d="M653 1972l-254 361c-16 21 0 47 27 47h113c33 0 56 -10 71 -31l129 -168l133 170c13 19 37 29 70 29h111c27 0 43 -26 26 -47l-256 -361c-8 -15 -22 -23 -43 -22h-82c-22 -1 -37 7 -45 22zM620 1605c-28 -28 -61 -42 -99 -42c-39 0 -72 14 -100 42s-42 62 -42 101
s14 73 42 101s61 42 100 42c38 0 71 -14 99 -42s42 -62 42 -101s-14 -73 -42 -101zM858 1807c29 28 62 42 101 42c38 0 71 -14 99 -42s42 -62 42 -101s-14 -73 -42 -101s-61 -42 -99 -42c-39 0 -72 14 -101 42s-43 62 -43 101s14 73 43 101zM1075 1434h223
c26 0 39 -13 39 -39v-744c0 -205 -53 -368 -160 -489s-253 -182 -438 -182c-186 0 -332 61 -439 182s-161 284 -161 489v744c0 26 13 39 39 39h223c26 0 39 -13 39 -39v-744c0 -247 100 -371 299 -370c198 0 297 123 297 370v744c0 26 13 39 39 39z" />
    <glyph glyph-name="uni01DA" unicode="&#x1da;" horiz-adv-x="1318" 
d="M567 1614l-254 360c-16 21 -1 47 27 47h113c33 0 56 -10 71 -30l129 -168l133 170c13 19 37 29 70 28h111c27 0 43 -24 26 -47l-256 -360c-8 -15 -22 -23 -43 -23h-82c-22 0 -37 8 -45 23zM534 1246c-28 -28 -61 -42 -99 -42c-39 0 -72 14 -100 42s-42 62 -42 102
c0 39 14 73 42 101s61 42 100 42c38 0 71 -14 99 -42c27 -28 41 -62 41 -101c0 -40 -14 -74 -41 -102zM772 1448c29 29 62 43 101 43c38 0 71 -14 99 -42s42 -62 42 -101c0 -40 -14 -74 -42 -102s-61 -42 -99 -42c-39 0 -72 14 -101 43s-43 62 -43 101c0 38 14 71 43 100z
M920 1069h223c26 0 39 -13 39 -39v-991c0 -26 -13 -39 -39 -39h-207c-22 0 -35 13 -39 39l-14 104c-101 -112 -226 -168 -373 -168c-257 0 -395 180 -395 512v543c0 26 13 39 39 39h223c26 0 39 -13 39 -39v-543c0 -153 80 -243 217 -243c141 0 239 99 248 307v479
c0 26 13 39 39 39z" />
    <glyph glyph-name="uni01DB" unicode="&#x1db;" horiz-adv-x="1476" 
d="M774 1946h-121c-26 0 -43 11 -51 32l-160 316c-13 33 8 65 43 65h156c27 0 46 -13 55 -39l119 -317c11 -31 -8 -57 -41 -57zM620 1605c-28 -28 -61 -42 -99 -42c-39 0 -72 14 -100 42s-42 62 -42 101s14 73 42 101s61 42 100 42c38 0 71 -14 99 -42s42 -62 42 -101
s-14 -73 -42 -101zM1058 1605c-28 -28 -61 -42 -99 -42c-39 0 -72 14 -101 42s-43 62 -43 101s14 73 43 101s62 42 101 42c38 0 71 -14 99 -42s42 -62 42 -101s-14 -73 -42 -101zM739 -20c-186 0 -332 61 -439 182s-161 284 -161 489v744c0 26 13 39 39 39h223
c26 0 39 -13 39 -39v-744c0 -247 100 -371 299 -370c198 0 297 123 297 370v744c0 26 13 39 39 39h223c26 0 39 -13 39 -39v-744c0 -205 -54 -368 -161 -489s-253 -182 -437 -182z" />
    <glyph glyph-name="uni01DC" unicode="&#x1dc;" horiz-adv-x="1318" 
d="M516 1620l-160 315c-13 33 8 66 43 66h156c27 0 46 -13 55 -39l119 -317c11 -31 -8 -58 -41 -58h-121c-26 0 -43 11 -51 33zM534 1246c-28 -28 -61 -42 -99 -42c-39 0 -72 14 -100 42s-42 62 -42 102c0 39 14 73 42 101s61 42 100 42c38 0 71 -14 99 -42
c27 -28 41 -62 41 -101c0 -40 -14 -74 -41 -102zM972 1246c-28 -28 -61 -42 -99 -42c-39 0 -72 14 -101 43s-43 62 -43 101c0 38 14 71 43 100s62 43 101 43c38 0 71 -14 99 -42s42 -62 42 -101c0 -40 -14 -74 -42 -102zM920 1069h223c26 0 39 -13 39 -39v-991
c0 -26 -13 -39 -39 -39h-207c-22 0 -35 13 -39 39l-14 104c-101 -112 -226 -168 -373 -168c-257 0 -395 180 -395 512v543c0 26 13 39 39 39h223c26 0 39 -13 39 -39v-543c0 -153 80 -243 217 -243c141 0 239 99 248 307v479c0 26 13 39 39 39z" />
    <glyph glyph-name="uni0218" unicode="&#x218;" horiz-adv-x="1241" 
d="M643 -25c-111 0 -215 21 -312 63c-98 41 -177 94 -237 159c-13 18 -15 36 -6 55l98 156c13 25 32 27 56 8c117 -111 238 -166 362 -166c69 0 128 15 175 44s71 71 71 126c0 45 -18 80 -54 104c-37 23 -98 45 -184 66c-47 12 -83 22 -109 30c-27 7 -63 20 -109 37
c-47 17 -84 35 -112 55c-56 39 -123 97 -151 178c-15 40 -22 85 -22 134c0 129 47 232 142 309s219 115 372 115c173 0 334 -52 481 -156c19 -12 24 -30 14 -53l-82 -164c-11 -21 -28 -26 -53 -16c-129 83 -247 125 -354 125c-131 0 -219 -56 -219 -152
c0 -52 22 -90 71 -113c25 -12 46 -21 65 -26c18 -5 43 -12 75 -19c42 -9 77 -18 106 -25s63 -18 104 -31c40 -14 73 -28 100 -42c27 -15 55 -34 85 -58c60 -48 94 -97 118 -173c11 -39 17 -80 17 -125c0 -134 -46 -242 -139 -323s-216 -122 -369 -122zM504 -731
c-8 -3 -22 4 -25 12l-16 49c-4 13 1 24 16 31c37 11 72 29 107 56c34 27 53 55 57 85c8 47 -4 61 -59 58c-65 -5 -115 54 -115 138c0 43 16 79 47 110s70 47 115 47c107 0 160 -75 160 -226c0 -169 -96 -289 -287 -360z" />
    <glyph glyph-name="uni0219" unicode="&#x219;" horiz-adv-x="1013" 
d="M510 -18c-94 0 -179 14 -255 43s-136 65 -179 110c-18 18 -19 36 -4 55l75 121c13 22 33 25 58 8c35 -31 81 -56 137 -75s111 -29 166 -29c112 0 176 41 176 113c0 49 -48 81 -91 92c-21 5 -57 13 -108 22c-130 23 -230 59 -299 108s-104 121 -104 216
c0 103 39 183 116 241s181 87 314 87c145 0 272 -39 381 -117c22 -13 25 -32 8 -55l-76 -117c-13 -19 -32 -23 -55 -12c-73 49 -154 74 -244 73c-116 0 -174 -32 -174 -96c0 -44 47 -73 93 -85c23 -6 55 -13 98 -21c9 -1 17 -3 22 -5c130 -27 227 -64 292 -111
s97 -119 97 -214c0 -105 -39 -190 -116 -255c-78 -65 -187 -97 -328 -97zM387 -731c-8 -3 -21 4 -25 12l-16 49c-4 13 1 24 16 31c37 11 72 29 107 56c34 27 53 55 57 85c8 47 -4 61 -59 58c-65 -5 -115 54 -115 138c0 43 16 79 47 110s70 47 115 47c107 0 160 -75 160 -226
c0 -169 -96 -289 -287 -360z" />
    <glyph glyph-name="uni021A" unicode="&#x21a;" horiz-adv-x="1368" 
d="M98 1434h1172c26 0 39 -13 39 -39v-203c0 -26 -13 -39 -39 -39h-434v-1114c0 -26 -13 -39 -39 -39h-226c-26 0 -39 13 -39 39v1114h-434c-26 0 -39 13 -39 39v203c0 26 13 39 39 39zM688 -145c107 0 160 -75 160 -226c0 -169 -96 -289 -287 -360c-8 -3 -21 4 -24 12
l-17 49c-4 13 2 24 17 31c37 11 72 29 106 56s53 55 57 85c8 47 -4 61 -59 58c-65 -5 -115 54 -115 138c0 43 16 79 47 110s70 47 115 47z" />
    <glyph glyph-name="uni021B" unicode="&#x21b;" horiz-adv-x="894" 
d="M793 213l51 -129c8 -22 2 -39 -19 -51c-75 -37 -161 -55 -258 -56c-263 0 -368 146 -368 435v415h-129c-26 0 -39 13 -39 39v164c0 26 13 39 39 39h129v238c0 26 13 39 39 39h221c26 0 39 -13 39 -39v-238h274c26 0 39 -13 39 -39v-164c0 -26 -13 -39 -39 -39h-274v-442
c0 -125 50 -166 151 -166c31 0 62 6 92 17c26 7 43 -1 52 -23zM557 -145c107 0 160 -75 160 -226c0 -169 -96 -289 -287 -360c-8 -3 -21 4 -24 12l-17 49c-4 13 2 24 17 31c37 11 72 29 106 56s53 55 57 85c8 47 -4 61 -59 58c-65 -5 -115 54 -115 138c0 43 16 79 47 110
s70 47 115 47z" />
    <glyph glyph-name="gravecomb" unicode="&#x300;" 
d="M-123 1110h-121c-26 0 -43 11 -51 33l-160 315c-13 33 8 66 43 66h156c27 0 46 -13 55 -39l119 -318c11 -31 -8 -57 -41 -57z" />
    <glyph glyph-name="acutecomb" unicode="&#x301;" 
d="M-283 1110h-120c-33 0 -53 28 -41 57l118 318c9 26 28 39 56 39h155c36 0 58 -33 43 -66l-159 -315c-8 -22 -25 -33 -52 -33z" />
    <glyph glyph-name="uni0302" unicode="&#x302;" 
d="M-301 1538l256 -360c16 -21 1 -50 -27 -50h-110c-31 0 -55 10 -72 31l-131 168l-129 -168c-17 -21 -41 -31 -72 -31h-112c-27 0 -43 25 -27 50l254 358c8 15 22 23 43 23h82c22 0 37 -7 45 -21z" />
    <glyph glyph-name="tildecomb" unicode="&#x303;" 
d="M-698 1165c-11 -19 -26 -25 -45 -18l-86 37c-15 5 -22 17 -19 35c21 123 102 206 211 206c45 0 101 -18 166 -53s110 -53 133 -53c35 0 66 23 92 70c9 18 23 23 41 16l88 -35c15 -5 22 -18 19 -37c-9 -63 -34 -113 -73 -152s-84 -59 -136 -59c-45 0 -102 19 -171 57
c-68 37 -113 56 -134 56c-31 0 -60 -23 -86 -70z" />
    <glyph glyph-name="uni0304" unicode="&#x304;" 
d="M-176 1212h-635c-21 0 -39 18 -39 39v131c0 26 13 39 39 39l635 2c21 0 39 -16 39 -39v-133c0 -21 -18 -39 -39 -39z" />
    <glyph glyph-name="uni0306" unicode="&#x306;" 
d="M-434 1126c-100 0 -183 33 -248 98s-102 132 -109 203c-4 35 10 53 41 54h121c21 0 32 -9 35 -27c5 -42 21 -79 47 -110c26 -32 64 -48 113 -48c51 0 88 16 113 48c25 31 41 68 47 110c4 18 16 27 36 27h117c33 0 47 -19 43 -56c-7 -73 -43 -141 -110 -204
c-66 -63 -148 -95 -246 -95z" />
    <glyph glyph-name="uni0307" unicode="&#x307;" 
d="M-155 1105c-28 -28 -61 -42 -99 -42s-71 14 -99 42s-42 62 -42 102c0 39 14 73 42 101s61 42 99 42s71 -14 99 -42s42 -62 42 -101c0 -40 -14 -74 -42 -102z" />
    <glyph glyph-name="uni0308" unicode="&#x308;" 
d="M-593 1105c-28 -28 -61 -42 -100 -42c-38 0 -71 14 -99 42s-42 62 -42 102c0 39 14 73 42 101s61 42 99 42c39 0 72 -14 100 -42s42 -62 42 -101c0 -40 -14 -74 -42 -102zM-155 1105c-28 -28 -61 -42 -99 -42s-71 14 -100 42s-43 62 -43 102c0 39 14 73 43 101
s62 42 100 42s71 -14 99 -42s42 -62 42 -101c0 -40 -14 -74 -42 -102z" />
    <glyph glyph-name="hookabovecomb" unicode="&#x309;" 
d="M-422 1452v76c0 19 14 36 33 33c86 -5 157 -29 213 -72s84 -101 84 -176c0 -91 -51 -166 -152 -223c-21 -12 -35 -8 -43 12l-35 74c-8 13 -4 26 13 38c42 26 63 58 63 97c0 63 -64 104 -143 112c-22 0 -33 10 -33 29z" />
    <glyph glyph-name="uni030A" unicode="&#x30a;" 
d="M-336 1085c-71 0 -128 22 -172 67c-43 45 -65 103 -65 174s22 128 65 173c44 44 101 66 172 66s129 -22 172 -65c44 -44 66 -102 66 -175c0 -71 -22 -128 -67 -173s-102 -67 -171 -67zM-418 1241c21 -21 48 -31 82 -31s61 10 82 30s31 48 31 85c0 71 -45 115 -113 115
c-71 0 -113 -42 -113 -113c0 -37 10 -65 31 -86z" />
    <glyph glyph-name="uni030B" unicode="&#x30b;" 
d="M-723 1110h-129c-33 0 -52 28 -41 57l119 318c9 26 28 39 55 39h166c36 0 57 -33 41 -66l-158 -315c-11 -22 -28 -33 -53 -33zM-303 1110h-129c-33 0 -54 28 -43 57l119 318c9 26 28 39 55 39h166c36 0 56 -33 43 -66l-160 -315c-8 -22 -25 -33 -51 -33z" />
    <glyph glyph-name="uni030C" unicode="&#x30c;" 
d="M-182 1559h110c27 0 43 -25 27 -48l-256 -360c-8 -15 -22 -23 -43 -23h-82c-22 0 -37 8 -45 23l-254 360c-16 21 -1 48 27 48h112c33 0 57 -10 72 -31l129 -168l133 170c13 19 37 29 70 29z" />
    <glyph glyph-name="uni0312" unicode="&#x312;" 
d="M-274 1083c-104 0 -158 89 -158 226c0 172 96 294 287 366c11 3 24 -4 24 -12l19 -49c4 -13 -2 -24 -17 -31c-79 -24 -151 -76 -166 -147c-8 -39 8 -57 60 -54c33 3 60 -9 82 -36c23 -27 34 -60 34 -99c0 -47 -16 -86 -48 -117c-31 -31 -70 -47 -117 -47z" />
    <glyph glyph-name="uni031B" unicode="&#x31b;" 
d="M-412 1010v141c56 0 95 6 117 19c22 12 33 40 33 83v90c0 17 9 25 26 25h103c17 0 25 -8 24 -25v-106c0 -91 -26 -152 -77 -182s-126 -45 -226 -45z" />
    <glyph glyph-name="dotbelowcomb" unicode="&#x323;" 
d="M-151 -349c-44 -45 -117 -45 -163 0s-46 116 0 162s119 46 163 0c45 -46 45 -117 0 -162z" />
    <glyph glyph-name="uni0326" unicode="&#x326;" 
d="M-391 -731c-8 -3 -22 4 -25 12l-16 49c-4 13 1 24 16 31c37 11 72 29 106 56c35 27 54 55 58 85c8 47 -4 61 -59 58c-65 -5 -115 54 -115 138c0 43 16 79 47 110s70 47 115 47c107 0 160 -75 160 -226c0 -169 -96 -289 -287 -360z" />
    <glyph glyph-name="uni0327" unicode="&#x327;" 
d="M-233 0l-35 -90c124 -18 186 -79 186 -182c0 -139 -124 -220 -324 -220c-38 0 -57 13 -57 39v62c0 22 14 34 41 37h25c16 0 29 0 39 1c11 1 24 3 40 7c45 11 78 32 78 84c0 27 -10 46 -31 57c-20 11 -58 22 -114 31c-23 4 -32 15 -25 33l41 141h136z" />
    <glyph glyph-name="uni0328" unicode="&#x328;" 
d="M-84 -336l25 -80c3 -13 -2 -23 -13 -30c-49 -22 -102 -34 -157 -35s-105 15 -150 49s-67 81 -67 141c0 68 39 128 78 163c40 35 79 83 79 130h129c6 -139 -136 -204 -131 -272c0 -57 60 -81 172 -52c18 4 30 -1 35 -14z" />
    <glyph glyph-name="uni0335" unicode="&#x335;" 
d="M-195 412h-639c-26 0 -39 13 -38 39v88c0 26 13 39 38 39l639 2c19 0 39 -18 39 -39v-90c0 -21 -16 -39 -39 -39z" />
    <glyph glyph-name="uni0336" unicode="&#x336;" 
d="M-174 379h-815c-26 0 -39 13 -39 39v131c0 21 16 39 39 39h815c19 0 37 -18 37 -39l2 -131c0 -21 -20 -39 -39 -39z" />
    <glyph glyph-name="uni0337" unicode="&#x337;" 
d="M-45 883l-709 -523v199l709 522v-198z" />
    <glyph glyph-name="uni0338" unicode="&#x338;" 
d="M-854 -76h-152l850 1618h152z" />
    <glyph glyph-name="Wgrave" unicode="&#x1e80;" horiz-adv-x="2148" 
d="M938 1599l-160 316c-13 33 8 65 43 65h156c27 0 46 -13 55 -38l119 -318c11 -31 -8 -57 -41 -57h-121c-26 -1 -43 10 -51 32zM1839 1434h221c31 0 43 -24 35 -45l-440 -1356c-7 -22 -22 -33 -45 -33h-193c-19 0 -34 10 -43 31l-301 809l-301 -809c-9 -21 -24 -31 -43 -31
h-192c-23 0 -38 11 -45 33l-437 1356c-8 24 6 45 33 45h223c23 0 37 -10 41 -31l289 -932l326 879c8 22 23 33 45 32h129c21 0 35 -11 43 -32l317 -889l295 942c5 21 20 31 43 31z" />
    <glyph glyph-name="wgrave" unicode="&#x1e81;" horiz-adv-x="1669" 
d="M698 1231l-159 315c-13 33 7 66 43 66h155c27 0 46 -13 56 -39l118 -318c11 -31 -8 -57 -41 -57h-120c-27 0 -44 11 -52 33zM1395 1069h215c27 0 37 -15 30 -45l-344 -993c-9 -21 -24 -31 -43 -31h-180c-19 0 -34 10 -43 31l-205 575l-194 -575c-9 -21 -24 -31 -45 -31
h-178c-22 0 -36 11 -43 33l-336 993c-7 29 4 43 32 43h215c25 0 40 -11 46 -33l200 -647l191 619c5 22 20 33 45 32h143c22 0 37 -11 45 -32l197 -635l207 663c5 22 20 33 45 33z" />
    <glyph glyph-name="Wacute" unicode="&#x1e82;" horiz-adv-x="2148" 
d="M1153 1567h-121c-33 0 -52 28 -41 57l119 318c9 26 28 39 55 38h156c36 0 56 -33 43 -65l-160 -316c-8 -22 -25 -33 -51 -32zM1839 1434h221c31 0 43 -24 35 -45l-440 -1356c-7 -22 -22 -33 -45 -33h-193c-19 0 -34 10 -43 31l-301 809l-301 -809c-9 -21 -24 -31 -43 -31
h-192c-23 0 -38 11 -45 33l-437 1356c-8 24 6 45 33 45h223c23 0 37 -10 41 -31l289 -932l326 879c8 22 23 33 45 32h129c21 0 35 -11 43 -32l317 -889l295 942c5 21 20 31 43 31z" />
    <glyph glyph-name="wacute" unicode="&#x1e83;" horiz-adv-x="1669" 
d="M913 1198h-120c-33 0 -53 28 -41 57l118 318c9 26 28 39 56 39h155c36 0 58 -33 43 -66l-159 -315c-8 -22 -25 -33 -52 -33zM1395 1069h215c27 0 37 -15 30 -45l-344 -993c-9 -21 -24 -31 -43 -31h-180c-19 0 -34 10 -43 31l-205 575l-194 -575c-9 -21 -24 -31 -45 -31
h-178c-22 0 -36 11 -43 33l-336 993c-7 29 4 43 32 43h215c25 0 40 -11 46 -33l200 -647l191 619c5 22 20 33 45 32h143c22 0 37 -11 45 -32l197 -635l207 663c5 22 20 33 45 33z" />
    <glyph glyph-name="Wdieresis" unicode="&#x1e84;" horiz-adv-x="2148" 
d="M955 1615c-28 -28 -61 -42 -99 -42s-71 14 -99 42s-42 62 -42 102c0 39 14 73 42 101s61 42 99 42s71 -14 99 -42s42 -62 42 -101c0 -40 -14 -74 -42 -102zM1394 1615c-28 -28 -61 -42 -99 -42c-39 0 -72 14 -101 43s-43 62 -43 101c0 38 14 71 43 100s62 43 101 43
c38 0 71 -14 99 -42s42 -62 42 -101c0 -40 -14 -74 -42 -102zM1839 1434h221c31 0 43 -24 35 -45l-440 -1356c-7 -22 -22 -33 -45 -33h-193c-19 0 -34 10 -43 31l-301 809l-301 -809c-9 -21 -24 -31 -43 -31h-192c-23 0 -38 11 -45 33l-437 1356c-8 24 6 45 33 45h223
c23 0 37 -10 41 -31l289 -932l326 879c8 22 23 33 45 32h129c21 0 35 -11 43 -32l317 -889l295 942c5 21 20 31 43 31z" />
    <glyph glyph-name="wdieresis" unicode="&#x1e85;" horiz-adv-x="1669" 
d="M716 1246c-28 -28 -61 -42 -99 -42c-39 0 -72 14 -100 42s-42 62 -42 102c0 39 14 73 42 101s61 42 100 42c38 0 71 -14 99 -42s42 -62 42 -101c0 -40 -14 -74 -42 -102zM1055 1204c-39 0 -73 14 -101 43c-29 29 -43 62 -43 101c0 38 14 71 42 100s62 43 102 43
c38 0 71 -14 99 -42s42 -62 42 -101c0 -40 -14 -74 -42 -102s-61 -42 -99 -42zM1395 1069h215c27 0 37 -15 30 -45l-344 -993c-9 -21 -24 -31 -43 -31h-180c-19 0 -34 10 -43 31l-205 575l-194 -575c-9 -21 -24 -31 -45 -31h-178c-22 0 -36 11 -43 33l-336 993
c-7 29 4 43 32 43h215c25 0 40 -11 46 -33l200 -647l191 619c5 22 20 33 45 32h143c22 0 37 -11 45 -32l197 -635l207 663c5 22 20 33 45 33z" />
    <glyph glyph-name="uni1EA0" unicode="&#x1ea0;" horiz-adv-x="1492" 
d="M877 1405l565 -1358c13 -31 3 -47 -31 -47h-244c-22 0 -36 10 -43 29l-96 235h-553l-104 -235c-8 -19 -23 -29 -45 -29h-246c-31 0 -40 18 -29 47l602 1358c8 19 22 29 43 29h138c22 0 36 -10 43 -29zM942 485l-182 508l-195 -508h377zM674 -187c47 46 118 46 163 0
c44 -46 44 -117 0 -162c-45 -45 -116 -45 -163 0s-47 116 0 162z" />
    <glyph glyph-name="uni1EA1" unicode="&#x1ea1;" horiz-adv-x="1366" 
d="M991 1069h199c26 0 39 -13 39 -39v-991c0 -26 -13 -39 -39 -39h-199c-19 0 -32 13 -39 39l-16 131c-98 -130 -220 -195 -365 -195c-138 0 -256 51 -353 152s-146 237 -146 408s49 307 147 409c97 101 213 152 346 152c143 0 268 -61 373 -183l14 117c4 26 17 39 39 39z
M649 217c82 0 151 27 208 80s85 131 85 232s-29 180 -86 237s-128 86 -211 86c-82 0 -151 -28 -206 -84s-83 -134 -83 -233c0 -100 28 -178 84 -234s126 -84 209 -84zM596 -187c47 46 118 46 163 0s45 -117 0 -162s-116 -45 -163 0s-47 116 0 162z" />
    <glyph glyph-name="uni1EA2" unicode="&#x1ea2;" horiz-adv-x="1492" 
d="M639 1880c-22 0 -33 10 -33 29v76c0 19 14 35 33 32c86 -5 157 -29 213 -71c56 -43 84 -102 84 -177c0 -91 -51 -166 -152 -223c-21 -12 -35 -8 -43 13l-34 73c-8 13 -4 26 12 39c42 26 63 58 63 96c0 63 -64 105 -143 113zM877 1405l565 -1358c13 -31 3 -47 -31 -47
h-244c-22 0 -36 10 -43 29l-96 235h-553l-104 -235c-8 -19 -23 -29 -45 -29h-246c-31 0 -40 18 -29 47l602 1358c8 19 22 29 43 29h138c22 0 36 -10 43 -29zM942 485l-182 508l-195 -508h377z" />
    <glyph glyph-name="uni1EA3" unicode="&#x1ea3;" horiz-adv-x="1366" 
d="M555 1511c-22 0 -33 10 -33 29v76c0 19 14 36 33 33c86 -5 157 -29 213 -72s84 -101 84 -176c0 -91 -51 -166 -152 -223c-21 -12 -35 -8 -43 12l-34 74c-8 13 -4 26 12 39c42 26 63 58 63 96c0 63 -64 104 -143 112zM991 1069h199c26 0 39 -13 39 -39v-991
c0 -26 -13 -39 -39 -39h-199c-19 0 -32 13 -39 39l-16 131c-98 -130 -220 -195 -365 -195c-138 0 -256 51 -353 152s-146 237 -146 408s49 307 147 409c97 101 213 152 346 152c143 0 268 -61 373 -183l14 117c4 26 17 39 39 39zM649 217c82 0 151 27 208 80s85 131 85 232
s-29 180 -86 237s-128 86 -211 86c-82 0 -151 -28 -206 -84s-83 -134 -83 -233c0 -100 28 -178 84 -234s126 -84 209 -84z" />
    <glyph glyph-name="uni1EA4" unicode="&#x1ea4;" horiz-adv-x="1492" 
d="M840 2083h-121c-33 0 -52 28 -41 57l119 318c9 26 28 39 55 39h156c36 0 56 -33 43 -66l-160 -315c-8 -22 -25 -33 -51 -33zM561 1571h-112c-27 0 -43 25 -27 49l254 358c8 15 22 23 43 23h82c22 0 37 -7 45 -21l256 -360c16 -21 1 -49 -27 -49h-110c-31 0 -55 10 -72 31
l-131 167l-129 -167c-17 -21 -41 -31 -72 -31zM877 1405l565 -1358c13 -31 3 -47 -31 -47h-244c-22 0 -36 10 -43 29l-96 235h-553l-104 -235c-8 -19 -23 -29 -45 -29h-246c-31 0 -40 18 -29 47l602 1358c8 19 22 29 43 29h138c22 0 36 -10 43 -29zM942 485l-182 508
l-195 -508h377z" />
    <glyph glyph-name="uni1EA5" unicode="&#x1ea5;" horiz-adv-x="1366" 
d="M756 1714h-121c-33 0 -52 27 -41 58l119 317c9 26 28 39 55 39h156c36 0 56 -33 43 -66l-160 -315c-8 -22 -25 -33 -51 -33zM477 1202h-112c-27 0 -43 25 -27 49l254 359c8 15 22 23 43 22h82c22 0 37 -7 45 -20l256 -361c16 -21 1 -49 -27 -49h-110c-31 0 -55 10 -72 31
l-131 168l-129 -168c-17 -21 -41 -31 -72 -31zM991 1069h199c26 0 39 -13 39 -39v-991c0 -26 -13 -39 -39 -39h-199c-19 0 -32 13 -39 39l-16 131c-98 -130 -220 -195 -365 -195c-138 0 -256 51 -353 152s-146 237 -146 408s49 307 147 409c97 101 213 152 346 152
c143 0 268 -61 373 -183l14 117c4 26 17 39 39 39zM649 217c82 0 151 27 208 80s85 131 85 232s-29 180 -86 237s-128 86 -211 86c-82 0 -151 -28 -206 -84s-83 -134 -83 -233c0 -100 28 -178 84 -234s126 -84 209 -84z" />
    <glyph glyph-name="uni1EA6" unicode="&#x1ea6;" horiz-adv-x="1492" 
d="M625 2116l-160 315c-13 33 7 66 43 66h156c27 0 46 -13 55 -39l119 -318c11 -31 -9 -57 -41 -57h-121c-26 0 -43 11 -51 33zM561 1571h-112c-27 0 -43 25 -27 49l254 358c8 15 22 23 43 23h82c22 0 37 -7 45 -21l256 -360c16 -21 1 -49 -27 -49h-110c-31 0 -55 10 -72 31
l-131 167l-129 -167c-17 -21 -41 -31 -72 -31zM877 1405l565 -1358c13 -31 3 -47 -31 -47h-244c-22 0 -36 10 -43 29l-96 235h-553l-104 -235c-8 -19 -23 -29 -45 -29h-246c-31 0 -40 18 -29 47l602 1358c8 19 22 29 43 29h138c22 0 36 -10 43 -29zM942 485l-182 508
l-195 -508h377z" />
    <glyph glyph-name="uni1EA7" unicode="&#x1ea7;" horiz-adv-x="1366" 
d="M541 1747l-160 315c-13 33 7 66 43 66h156c27 0 46 -13 55 -39l119 -317c11 -31 -9 -58 -41 -58h-121c-26 0 -43 11 -51 33zM477 1202h-112c-27 0 -43 25 -27 49l254 359c8 15 22 23 43 22h82c22 0 37 -7 45 -20l256 -361c16 -21 1 -49 -27 -49h-110c-31 0 -55 10 -72 31
l-131 168l-129 -168c-17 -21 -41 -31 -72 -31zM991 1069h199c26 0 39 -13 39 -39v-991c0 -26 -13 -39 -39 -39h-199c-19 0 -32 13 -39 39l-16 131c-98 -130 -220 -195 -365 -195c-138 0 -256 51 -353 152s-146 237 -146 408s49 307 147 409c97 101 213 152 346 152
c143 0 268 -61 373 -183l14 117c4 26 17 39 39 39zM649 217c82 0 151 27 208 80s85 131 85 232s-29 180 -86 237s-128 86 -211 86c-82 0 -151 -28 -206 -84s-83 -134 -83 -233c0 -100 28 -178 84 -234s126 -84 209 -84z" />
    <glyph glyph-name="uni1EA8" unicode="&#x1ea8;" horiz-adv-x="1492" 
d="M639 2396c-22 0 -33 10 -33 29v76c0 19 14 35 33 32c86 -5 157 -29 213 -71c56 -43 84 -101 84 -176c0 -91 -51 -166 -152 -224c-21 -12 -35 -8 -43 13l-34 73c-8 13 -4 26 12 39c42 26 63 58 63 97c0 63 -64 104 -143 112zM561 1571h-112c-27 0 -43 25 -27 49l254 358
c8 15 22 23 43 23h82c22 0 37 -7 45 -21l256 -360c16 -21 1 -49 -27 -49h-110c-31 0 -55 10 -72 31l-131 167l-129 -167c-17 -21 -41 -31 -72 -31zM877 1405l565 -1358c13 -31 3 -47 -31 -47h-244c-22 0 -36 10 -43 29l-96 235h-553l-104 -235c-8 -19 -23 -29 -45 -29h-246
c-31 0 -40 18 -29 47l602 1358c8 19 22 29 43 29h138c22 0 36 -10 43 -29zM942 485l-182 508l-195 -508h377z" />
    <glyph glyph-name="uni1EA9" unicode="&#x1ea9;" horiz-adv-x="1366" 
d="M555 2028c-22 0 -33 9 -33 28v76c0 19 14 36 33 33c86 -5 157 -29 213 -71c56 -43 84 -102 84 -177c0 -91 -51 -166 -152 -223c-21 -12 -35 -8 -43 12l-34 74c-8 13 -4 26 12 39c42 26 63 58 63 96c0 63 -64 105 -143 113zM477 1202h-112c-27 0 -43 25 -27 49l254 359
c8 15 22 23 43 22h82c22 0 37 -7 45 -20l256 -361c16 -21 1 -49 -27 -49h-110c-31 0 -55 10 -72 31l-131 168l-129 -168c-17 -21 -41 -31 -72 -31zM991 1069h199c26 0 39 -13 39 -39v-991c0 -26 -13 -39 -39 -39h-199c-19 0 -32 13 -39 39l-16 131
c-98 -130 -220 -195 -365 -195c-138 0 -256 51 -353 152s-146 237 -146 408s49 307 147 409c97 101 213 152 346 152c143 0 268 -61 373 -183l14 117c4 26 17 39 39 39zM649 217c82 0 151 27 208 80s85 131 85 232s-29 180 -86 237s-128 86 -211 86c-82 0 -151 -28 -206 -84
s-83 -134 -83 -233c0 -100 28 -178 84 -234s126 -84 209 -84z" />
    <glyph glyph-name="uni1EAA" unicode="&#x1eaa;" horiz-adv-x="1492" 
d="M492 2114l-86 36c-15 5 -22 17 -19 35c21 123 102 207 211 207c45 0 101 -18 166 -53s110 -53 133 -53c35 0 66 23 92 69c9 18 23 24 41 17l88 -35c15 -5 22 -18 19 -37c-9 -63 -33 -113 -72 -152s-85 -59 -137 -59c-45 0 -102 19 -170 57c-69 37 -114 56 -135 56
c-31 0 -60 -23 -86 -70c-11 -19 -26 -25 -45 -18zM719 2001h82c22 0 37 -7 45 -21l256 -360c16 -21 1 -49 -27 -49h-110c-31 0 -55 10 -72 31l-131 167l-129 -167c-17 -21 -41 -31 -72 -31h-112c-27 0 -43 25 -27 49l254 358c8 15 22 23 43 23zM877 1405l565 -1358
c13 -31 3 -47 -31 -47h-244c-22 0 -36 10 -43 29l-96 235h-553l-104 -235c-8 -19 -23 -29 -45 -29h-246c-31 0 -40 18 -29 47l602 1358c8 19 22 29 43 29h138c22 0 36 -10 43 -29zM942 485l-182 508l-195 -508h377z" />
    <glyph glyph-name="uni1EAB" unicode="&#x1eab;" horiz-adv-x="1366" 
d="M408 1745l-86 37c-15 5 -22 17 -19 35c21 123 102 206 211 206c45 0 101 -18 166 -53s110 -53 133 -53c35 0 66 23 92 70c9 18 23 23 41 16l88 -35c15 -5 22 -18 19 -37c-9 -63 -33 -113 -72 -152s-85 -59 -137 -59c-45 0 -102 19 -170 57c-69 37 -114 56 -135 56
c-31 0 -60 -23 -86 -70c-11 -19 -26 -25 -45 -18zM635 1632h82c22 0 37 -7 45 -20l256 -361c16 -21 1 -49 -27 -49h-110c-31 0 -55 10 -72 31l-131 168l-129 -168c-17 -21 -41 -31 -72 -31h-112c-27 0 -43 25 -27 49l254 359c8 15 22 23 43 22zM991 1069h199
c26 0 39 -13 39 -39v-991c0 -26 -13 -39 -39 -39h-199c-19 0 -32 13 -39 39l-16 131c-98 -130 -220 -195 -365 -195c-138 0 -256 51 -353 152s-146 237 -146 408s49 307 147 409c97 101 213 152 346 152c143 0 268 -61 373 -183l14 117c4 26 17 39 39 39zM649 217
c82 0 151 27 208 80s85 131 85 232s-29 180 -86 237s-128 86 -211 86c-82 0 -151 -28 -206 -84s-83 -134 -83 -233c0 -100 28 -178 84 -234s126 -84 209 -84z" />
    <glyph glyph-name="uni1EAC" unicode="&#x1eac;" horiz-adv-x="1492" 
d="M561 1571h-112c-27 0 -43 25 -27 49l254 358c8 15 22 23 43 23h82c22 0 37 -7 45 -21l256 -360c16 -21 1 -49 -27 -49h-110c-31 0 -55 10 -72 31l-131 167l-129 -167c-17 -21 -41 -31 -72 -31zM877 1405l565 -1358c13 -31 3 -47 -31 -47h-244c-22 0 -36 10 -43 29
l-96 235h-553l-104 -235c-8 -19 -23 -29 -45 -29h-246c-31 0 -40 18 -29 47l602 1358c8 19 22 29 43 29h138c22 0 36 -10 43 -29zM942 485l-182 508l-195 -508h377zM674 -187c47 46 118 46 163 0c44 -46 44 -117 0 -162c-45 -45 -116 -45 -163 0s-47 116 0 162z" />
    <glyph glyph-name="uni1EAD" unicode="&#x1ead;" horiz-adv-x="1366" 
d="M477 1202h-112c-27 0 -43 25 -27 49l254 359c8 15 22 23 43 22h82c22 0 37 -7 45 -20l256 -361c16 -21 1 -49 -27 -49h-110c-31 0 -55 10 -72 31l-131 168l-129 -168c-17 -21 -41 -31 -72 -31zM991 1069h199c26 0 39 -13 39 -39v-991c0 -26 -13 -39 -39 -39h-199
c-19 0 -32 13 -39 39l-16 131c-98 -130 -220 -195 -365 -195c-138 0 -256 51 -353 152s-146 237 -146 408s49 307 147 409c97 101 213 152 346 152c143 0 268 -61 373 -183l14 117c4 26 17 39 39 39zM649 217c82 0 151 27 208 80s85 131 85 232s-29 180 -86 237
s-128 86 -211 86c-82 0 -151 -28 -206 -84s-83 -134 -83 -233c0 -100 28 -178 84 -234s126 -84 209 -84zM596 -187c47 46 118 46 163 0s45 -117 0 -162s-116 -45 -163 0s-47 116 0 162z" />
    <glyph glyph-name="uni1EAE" unicode="&#x1eae;" horiz-adv-x="1492" 
d="M840 1987h-121c-33 0 -52 26 -41 57l119 317c9 26 28 39 55 39h156c36 0 56 -33 43 -65l-160 -316c-8 -22 -25 -33 -51 -32zM762 1561c-100 0 -183 32 -248 97s-101 133 -108 204c-4 35 9 53 40 53h121c21 0 32 -9 35 -27c5 -42 21 -79 47 -110s64 -47 113 -47
c51 0 89 16 114 47s40 68 46 110c4 18 16 27 36 27h117c33 0 47 -18 43 -55c-7 -73 -43 -141 -109 -204c-67 -63 -149 -95 -247 -95zM877 1405l565 -1358c13 -31 3 -47 -31 -47h-244c-22 0 -36 10 -43 29l-96 235h-553l-104 -235c-8 -19 -23 -29 -45 -29h-246
c-31 0 -40 18 -29 47l602 1358c8 19 22 29 43 29h138c22 0 36 -10 43 -29zM942 485l-182 508l-195 -508h377z" />
    <glyph glyph-name="uni1EAF" unicode="&#x1eaf;" horiz-adv-x="1366" 
d="M756 1618h-121c-33 0 -52 28 -41 57l119 318c9 26 28 39 55 39h156c36 0 56 -33 43 -66l-160 -315c-8 -22 -25 -33 -51 -33zM678 1192c-100 0 -183 32 -248 97s-101 133 -108 204c-4 35 9 53 40 53h121c21 0 32 -9 35 -26c5 -42 21 -79 47 -110c26 -32 64 -48 113 -48
c51 0 89 16 114 47s40 68 46 111c4 18 16 27 36 26h117c33 0 47 -18 43 -55c-7 -73 -43 -141 -109 -204c-67 -63 -149 -95 -247 -95zM991 1069h199c26 0 39 -13 39 -39v-991c0 -26 -13 -39 -39 -39h-199c-19 0 -32 13 -39 39l-16 131c-98 -130 -220 -195 -365 -195
c-138 0 -256 51 -353 152s-146 237 -146 408s49 307 147 409c97 101 213 152 346 152c143 0 268 -61 373 -183l14 117c4 26 17 39 39 39zM649 217c82 0 151 27 208 80s85 131 85 232s-29 180 -86 237s-128 86 -211 86c-82 0 -151 -28 -206 -84s-83 -134 -83 -233
c0 -100 28 -178 84 -234s126 -84 209 -84z" />
    <glyph glyph-name="uni1EB0" unicode="&#x1eb0;" horiz-adv-x="1492" 
d="M625 2019l-160 316c-13 33 7 65 43 65h156c27 0 46 -13 55 -39l119 -317c11 -31 -9 -57 -41 -57h-121c-26 -1 -43 10 -51 32zM762 1561c-100 0 -183 32 -248 97s-101 133 -108 204c-4 35 9 53 40 53h121c21 0 32 -9 35 -27c5 -42 21 -79 47 -110s64 -47 113 -47
c51 0 89 16 114 47s40 68 46 110c4 18 16 27 36 27h117c33 0 47 -18 43 -55c-7 -73 -43 -141 -109 -204c-67 -63 -149 -95 -247 -95zM877 1405l565 -1358c13 -31 3 -47 -31 -47h-244c-22 0 -36 10 -43 29l-96 235h-553l-104 -235c-8 -19 -23 -29 -45 -29h-246
c-31 0 -40 18 -29 47l602 1358c8 19 22 29 43 29h138c22 0 36 -10 43 -29zM942 485l-182 508l-195 -508h377z" />
    <glyph glyph-name="uni1EB1" unicode="&#x1eb1;" horiz-adv-x="1366" 
d="M541 1651l-160 315c-13 33 7 66 43 66h156c27 0 46 -13 55 -39l119 -318c11 -31 -9 -57 -41 -57h-121c-26 0 -43 11 -51 33zM678 1192c-100 0 -183 32 -248 97s-101 133 -108 204c-4 35 9 53 40 53h121c21 0 32 -9 35 -26c5 -42 21 -79 47 -110c26 -32 64 -48 113 -48
c51 0 89 16 114 47s40 68 46 111c4 18 16 27 36 26h117c33 0 47 -18 43 -55c-7 -73 -43 -141 -109 -204c-67 -63 -149 -95 -247 -95zM991 1069h199c26 0 39 -13 39 -39v-991c0 -26 -13 -39 -39 -39h-199c-19 0 -32 13 -39 39l-16 131c-98 -130 -220 -195 -365 -195
c-138 0 -256 51 -353 152s-146 237 -146 408s49 307 147 409c97 101 213 152 346 152c143 0 268 -61 373 -183l14 117c4 26 17 39 39 39zM649 217c82 0 151 27 208 80s85 131 85 232s-29 180 -86 237s-128 86 -211 86c-82 0 -151 -28 -206 -84s-83 -134 -83 -233
c0 -100 28 -178 84 -234s126 -84 209 -84z" />
    <glyph glyph-name="uni1EB2" unicode="&#x1eb2;" horiz-adv-x="1492" 
d="M639 2300c-22 0 -33 10 -33 29v75c0 19 14 36 33 33c86 -5 157 -29 213 -71c56 -43 84 -102 84 -177c0 -91 -51 -166 -152 -223c-21 -12 -35 -8 -43 12l-34 74c-8 13 -4 26 12 39c42 26 63 58 63 96c0 63 -64 105 -143 113zM762 1561c-100 0 -183 32 -248 97
s-101 133 -108 204c-4 35 9 53 40 53h121c21 0 32 -9 35 -27c5 -42 21 -79 47 -110s64 -47 113 -47c51 0 89 16 114 47s40 68 46 110c4 18 16 27 36 27h117c33 0 47 -18 43 -55c-7 -73 -43 -141 -109 -204c-67 -63 -149 -95 -247 -95zM877 1405l565 -1358
c13 -31 3 -47 -31 -47h-244c-22 0 -36 10 -43 29l-96 235h-553l-104 -235c-8 -19 -23 -29 -45 -29h-246c-31 0 -40 18 -29 47l602 1358c8 19 22 29 43 29h138c22 0 36 -10 43 -29zM942 485l-182 508l-195 -508h377z" />
    <glyph glyph-name="uni1EB3" unicode="&#x1eb3;" horiz-adv-x="1366" 
d="M555 1931c-22 0 -33 10 -33 29v76c0 19 14 36 33 32c86 -5 157 -29 213 -71c56 -43 84 -101 84 -176c0 -91 -51 -166 -152 -224c-21 -12 -35 -8 -43 13l-34 73c-8 13 -4 26 12 39c42 26 63 58 63 97c0 63 -64 104 -143 112zM678 1192c-100 0 -183 32 -248 97
s-101 133 -108 204c-4 35 9 53 40 53h121c21 0 32 -9 35 -26c5 -42 21 -79 47 -110c26 -32 64 -48 113 -48c51 0 89 16 114 47s40 68 46 111c4 18 16 27 36 26h117c33 0 47 -18 43 -55c-7 -73 -43 -141 -109 -204c-67 -63 -149 -95 -247 -95zM991 1069h199
c26 0 39 -13 39 -39v-991c0 -26 -13 -39 -39 -39h-199c-19 0 -32 13 -39 39l-16 131c-98 -130 -220 -195 -365 -195c-138 0 -256 51 -353 152s-146 237 -146 408s49 307 147 409c97 101 213 152 346 152c143 0 268 -61 373 -183l14 117c4 26 17 39 39 39zM649 217
c82 0 151 27 208 80s85 131 85 232s-29 180 -86 237s-128 86 -211 86c-82 0 -151 -28 -206 -84s-83 -134 -83 -233c0 -100 28 -178 84 -234s126 -84 209 -84z" />
    <glyph glyph-name="uni1EB4" unicode="&#x1eb4;" horiz-adv-x="1492" 
d="M492 2017l-86 37c-15 5 -22 17 -19 35c21 123 102 207 211 207c45 0 101 -18 166 -53c65 -36 110 -54 133 -54c35 0 66 23 92 70c9 18 23 23 41 16l88 -34c15 -5 22 -18 19 -37c-9 -63 -33 -113 -72 -152s-85 -59 -137 -59c-45 0 -102 19 -170 56c-69 37 -114 56 -135 56
c-31 0 -60 -23 -86 -69c-11 -19 -26 -26 -45 -19zM958 1915h117c33 0 47 -18 43 -55c-7 -73 -43 -141 -109 -204c-67 -63 -149 -95 -247 -95c-100 0 -183 32 -248 97s-101 133 -108 204c-4 35 9 53 40 53h121c21 0 32 -9 35 -27c5 -42 21 -79 47 -110s64 -47 113 -47
c51 0 89 16 114 47s40 68 46 110c3 18 15 27 36 27zM877 1405l565 -1358c13 -31 3 -47 -31 -47h-244c-22 0 -36 10 -43 29l-96 235h-553l-104 -235c-8 -19 -23 -29 -45 -29h-246c-31 0 -40 18 -29 47l602 1358c8 19 22 29 43 29h138c22 0 36 -10 43 -29zM942 485l-182 508
l-195 -508h377z" />
    <glyph glyph-name="uni1EB5" unicode="&#x1eb5;" horiz-adv-x="1366" 
d="M408 1649l-86 37c-15 5 -22 17 -19 34c21 123 102 207 211 207c45 0 101 -18 166 -53s110 -53 133 -53c35 0 66 23 92 69c9 18 23 24 41 17l88 -35c15 -5 22 -18 19 -37c-9 -63 -33 -113 -72 -152s-85 -59 -137 -59c-45 0 -102 19 -170 57c-69 37 -114 56 -135 56
c-31 0 -60 -23 -86 -70c-11 -19 -26 -25 -45 -18zM874 1546h117c33 0 47 -18 43 -55c-7 -73 -43 -141 -109 -204c-67 -63 -149 -95 -247 -95c-100 0 -183 32 -248 97s-101 133 -108 204c-4 35 9 53 40 53h121c21 0 32 -9 35 -26c5 -42 21 -79 47 -110c26 -32 64 -48 113 -48
c51 0 89 16 114 47s40 68 46 111c3 17 15 26 36 26zM991 1069h199c26 0 39 -13 39 -39v-991c0 -26 -13 -39 -39 -39h-199c-19 0 -32 13 -39 39l-16 131c-98 -130 -220 -195 -365 -195c-138 0 -256 51 -353 152s-146 237 -146 408s49 307 147 409c97 101 213 152 346 152
c143 0 268 -61 373 -183l14 117c4 26 17 39 39 39zM649 217c82 0 151 27 208 80s85 131 85 232s-29 180 -86 237s-128 86 -211 86c-82 0 -151 -28 -206 -84s-83 -134 -83 -233c0 -100 28 -178 84 -234s126 -84 209 -84z" />
    <glyph glyph-name="uni1EB6" unicode="&#x1eb6;" horiz-adv-x="1492" 
d="M762 1561c-100 0 -183 32 -248 97s-101 133 -108 204c-4 35 9 53 40 53h121c21 0 32 -9 35 -27c5 -42 21 -79 47 -110s64 -47 113 -47c51 0 89 16 114 47s40 68 46 110c4 18 16 27 36 27h117c33 0 47 -18 43 -55c-7 -73 -43 -141 -109 -204c-67 -63 -149 -95 -247 -95z
M877 1405l565 -1358c13 -31 3 -47 -31 -47h-244c-22 0 -36 10 -43 29l-96 235h-553l-104 -235c-8 -19 -23 -29 -45 -29h-246c-31 0 -40 18 -29 47l602 1358c8 19 22 29 43 29h138c22 0 36 -10 43 -29zM942 485l-182 508l-195 -508h377zM674 -187c47 46 118 46 163 0
c44 -46 44 -117 0 -162c-45 -45 -116 -45 -163 0s-47 116 0 162z" />
    <glyph glyph-name="uni1EB7" unicode="&#x1eb7;" horiz-adv-x="1366" 
d="M678 1192c-100 0 -183 32 -248 97s-101 133 -108 204c-4 35 9 53 40 53h121c21 0 32 -9 35 -26c5 -42 21 -79 47 -110c26 -32 64 -48 113 -48c51 0 89 16 114 47s40 68 46 111c4 18 16 27 36 26h117c33 0 47 -18 43 -55c-7 -73 -43 -141 -109 -204
c-67 -63 -149 -95 -247 -95zM991 1069h199c26 0 39 -13 39 -39v-991c0 -26 -13 -39 -39 -39h-199c-19 0 -32 13 -39 39l-16 131c-98 -130 -220 -195 -365 -195c-138 0 -256 51 -353 152s-146 237 -146 408s49 307 147 409c97 101 213 152 346 152c143 0 268 -61 373 -183
l14 117c4 26 17 39 39 39zM649 217c82 0 151 27 208 80s85 131 85 232s-29 180 -86 237s-128 86 -211 86c-82 0 -151 -28 -206 -84s-83 -134 -83 -233c0 -100 28 -178 84 -234s126 -84 209 -84zM596 -187c47 46 118 46 163 0s45 -117 0 -162s-116 -45 -163 0s-47 116 0 162z
" />
    <glyph glyph-name="uni1EB8" unicode="&#x1eb8;" horiz-adv-x="1359" 
d="M475 281h748c26 0 39 -13 39 -39v-203c0 -26 -13 -39 -39 -39h-1010c-26 0 -39 13 -39 39v1356c0 26 13 39 39 39h1004c26 0 39 -13 38 -39v-201c0 -26 -13 -39 -38 -39h-742v-311h625c26 0 39 -13 39 -39v-166c0 -26 -13 -39 -39 -39h-625v-319zM619 -187
c46 46 118 46 163 0c44 -46 44 -117 0 -162c-45 -45 -117 -45 -163 0s-46 116 0 162z" />
    <glyph glyph-name="uni1EB9" unicode="&#x1eb9;" horiz-adv-x="1198" 
d="M604 1096c154 0 280 -51 379 -154c98 -103 147 -237 147 -403c0 -19 -1 -34 -2 -45c-4 -25 -18 -37 -43 -37h-741c27 -171 132 -256 315 -256c117 0 213 46 287 137c19 19 38 20 55 2l95 -92c18 -21 16 -42 -6 -64c-115 -138 -266 -207 -455 -207
c-168 0 -304 52 -409 155s-158 236 -158 398c0 159 49 293 147 402s228 164 389 164zM614 874c-148 0 -253 -84 -274 -235h534c-19 153 -115 235 -260 235zM531 -187c46 46 117 46 162 0s45 -117 0 -162s-116 -45 -162 0s-46 116 0 162z" />
    <glyph glyph-name="uni1EBA" unicode="&#x1eba;" horiz-adv-x="1359" 
d="M578 1880c-22 0 -33 10 -33 29v76c0 19 13 35 33 32c86 -5 157 -29 213 -71c55 -43 83 -102 83 -177c0 -91 -50 -166 -151 -223c-21 -12 -35 -8 -43 13l-35 73c-8 13 -4 26 12 39c42 26 63 58 64 96c0 63 -64 105 -143 113zM475 281h748c26 0 39 -13 39 -39v-203
c0 -26 -13 -39 -39 -39h-1010c-26 0 -39 13 -39 39v1356c0 26 13 39 39 39h1004c26 0 39 -13 38 -39v-201c0 -26 -13 -39 -38 -39h-742v-311h625c26 0 39 -13 39 -39v-166c0 -26 -13 -39 -39 -39h-625v-319z" />
    <glyph glyph-name="uni1EBB" unicode="&#x1ebb;" horiz-adv-x="1198" 
d="M481 1511c-22 0 -33 10 -32 29v76c0 19 13 36 32 33c86 -5 157 -29 213 -72s84 -101 84 -176c0 -91 -50 -166 -151 -223c-21 -12 -35 -8 -43 12l-35 74c-8 13 -4 26 12 39c42 26 63 58 64 96c0 63 -65 104 -144 112zM604 1096c154 0 280 -51 379 -154
c98 -103 147 -237 147 -403c0 -19 -1 -34 -2 -45c-4 -25 -18 -37 -43 -37h-741c27 -171 132 -256 315 -256c117 0 213 46 287 137c19 19 38 20 55 2l95 -92c18 -21 16 -42 -6 -64c-115 -138 -266 -207 -455 -207c-168 0 -304 52 -409 155s-158 236 -158 398
c0 159 49 293 147 402s228 164 389 164zM614 874c-148 0 -253 -84 -274 -235h534c-19 153 -115 235 -260 235z" />
    <glyph glyph-name="uni1EBC" unicode="&#x1ebc;" horiz-adv-x="1359" 
d="M430 1597l-86 37c-15 5 -21 17 -18 35c21 123 102 207 211 207c45 0 101 -18 166 -53c65 -36 110 -54 133 -54c35 0 66 23 92 70c9 18 23 23 41 16l88 -34c15 -5 21 -18 18 -37c-9 -63 -33 -113 -72 -152s-85 -59 -137 -59c-45 0 -102 19 -170 57c-68 37 -113 56 -135 56
c-31 0 -60 -23 -86 -70c-11 -19 -26 -26 -45 -19zM475 281h748c26 0 39 -13 39 -39v-203c0 -26 -13 -39 -39 -39h-1010c-26 0 -39 13 -39 39v1356c0 26 13 39 39 39h1004c26 0 39 -13 38 -39v-201c0 -26 -13 -39 -38 -39h-742v-311h625c26 0 39 -13 39 -39v-166
c0 -26 -13 -39 -39 -39h-625v-319z" />
    <glyph glyph-name="uni1EBD" unicode="&#x1ebd;" horiz-adv-x="1198" 
d="M334 1229l-86 37c-15 5 -22 17 -19 34c21 123 102 207 211 207c45 0 101 -18 167 -53c65 -35 109 -53 132 -53c35 0 66 23 92 69c9 18 23 24 41 17l89 -35c15 -5 21 -18 18 -37c-9 -63 -33 -113 -72 -152s-85 -59 -137 -59c-45 0 -102 19 -170 57c-68 37 -113 56 -135 56
c-31 0 -60 -23 -86 -70c-11 -19 -26 -25 -45 -18zM604 1096c154 0 280 -51 379 -154c98 -103 147 -237 147 -403c0 -19 -1 -34 -2 -45c-4 -25 -18 -37 -43 -37h-741c27 -171 132 -256 315 -256c117 0 213 46 287 137c19 19 38 20 55 2l95 -92c18 -21 16 -42 -6 -64
c-115 -138 -266 -207 -455 -207c-168 0 -304 52 -409 155s-158 236 -158 398c0 159 49 293 147 402s228 164 389 164zM614 874c-148 0 -253 -84 -274 -235h534c-19 153 -115 235 -260 235z" />
    <glyph glyph-name="uni1EBE" unicode="&#x1ebe;" horiz-adv-x="1359" 
d="M778 2083h-121c-33 0 -52 28 -41 57l119 318c9 26 28 39 56 39h155c36 0 56 -33 43 -66l-160 -315c-8 -22 -25 -33 -51 -33zM500 1571h-113c-27 0 -43 25 -27 49l254 358c8 15 22 23 43 23h82c22 0 37 -7 45 -21l256 -360c16 -21 1 -49 -26 -49h-111c-31 0 -55 10 -72 31
l-131 167l-129 -167c-17 -21 -40 -31 -71 -31zM475 281h748c26 0 39 -13 39 -39v-203c0 -26 -13 -39 -39 -39h-1010c-26 0 -39 13 -39 39v1356c0 26 13 39 39 39h1004c26 0 39 -13 38 -39v-201c0 -26 -13 -39 -38 -39h-742v-311h625c26 0 39 -13 39 -39v-166
c0 -26 -13 -39 -39 -39h-625v-319z" />
    <glyph glyph-name="uni1EBF" unicode="&#x1ebf;" horiz-adv-x="1198" 
d="M682 1714h-121c-33 0 -52 27 -41 58l119 317c9 26 28 39 55 39h156c36 0 56 -33 43 -66l-160 -315c-8 -22 -25 -33 -51 -33zM403 1202h-112c-27 0 -43 25 -27 49l254 359c8 15 22 23 43 22h82c22 0 37 -7 45 -20l256 -361c16 -21 1 -49 -26 -49h-111c-31 0 -55 10 -72 31
l-131 168l-129 -168c-17 -21 -41 -31 -72 -31zM604 1096c154 0 280 -51 379 -154c98 -103 147 -237 147 -403c0 -19 -1 -34 -2 -45c-4 -25 -18 -37 -43 -37h-741c27 -171 132 -256 315 -256c117 0 213 46 287 137c19 19 38 20 55 2l95 -92c18 -21 16 -42 -6 -64
c-115 -138 -266 -207 -455 -207c-168 0 -304 52 -409 155s-158 236 -158 398c0 159 49 293 147 402s228 164 389 164zM614 874c-148 0 -253 -84 -274 -235h534c-19 153 -115 235 -260 235z" />
    <glyph glyph-name="uni1EC0" unicode="&#x1ec0;" horiz-adv-x="1359" 
d="M563 2116l-160 315c-13 33 8 66 43 66h156c27 0 46 -13 55 -39l119 -318c11 -31 -8 -57 -41 -57h-121c-26 0 -43 11 -51 33zM500 1571h-113c-27 0 -43 25 -27 49l254 358c8 15 22 23 43 23h82c22 0 37 -7 45 -21l256 -360c16 -21 1 -49 -26 -49h-111c-31 0 -55 10 -72 31
l-131 167l-129 -167c-17 -21 -40 -31 -71 -31zM475 281h748c26 0 39 -13 39 -39v-203c0 -26 -13 -39 -39 -39h-1010c-26 0 -39 13 -39 39v1356c0 26 13 39 39 39h1004c26 0 39 -13 38 -39v-201c0 -26 -13 -39 -38 -39h-742v-311h625c26 0 39 -13 39 -39v-166
c0 -26 -13 -39 -39 -39h-625v-319z" />
    <glyph glyph-name="uni1EC1" unicode="&#x1ec1;" horiz-adv-x="1198" 
d="M467 1747l-160 315c-13 33 8 66 43 66h156c27 0 46 -13 55 -39l119 -317c11 -31 -8 -58 -41 -58h-121c-26 0 -43 11 -51 33zM403 1202h-112c-27 0 -43 25 -27 49l254 359c8 15 22 23 43 22h82c22 0 37 -7 45 -20l256 -361c16 -21 1 -49 -26 -49h-111c-31 0 -55 10 -72 31
l-131 168l-129 -168c-17 -21 -41 -31 -72 -31zM604 1096c154 0 280 -51 379 -154c98 -103 147 -237 147 -403c0 -19 -1 -34 -2 -45c-4 -25 -18 -37 -43 -37h-741c27 -171 132 -256 315 -256c117 0 213 46 287 137c19 19 38 20 55 2l95 -92c18 -21 16 -42 -6 -64
c-115 -138 -266 -207 -455 -207c-168 0 -304 52 -409 155s-158 236 -158 398c0 159 49 293 147 402s228 164 389 164zM614 874c-148 0 -253 -84 -274 -235h534c-19 153 -115 235 -260 235z" />
    <glyph glyph-name="uni1EC2" unicode="&#x1ec2;" horiz-adv-x="1359" 
d="M578 2396c-22 0 -33 10 -33 29v76c0 19 13 35 33 32c86 -5 157 -29 213 -71c55 -43 83 -101 83 -176c0 -91 -50 -166 -151 -224c-21 -12 -35 -8 -43 13l-35 73c-8 13 -4 26 12 39c42 26 63 58 64 97c0 63 -64 104 -143 112zM500 1571h-113c-27 0 -43 25 -27 49l254 358
c8 15 22 23 43 23h82c22 0 37 -7 45 -21l256 -360c16 -21 1 -49 -26 -49h-111c-31 0 -55 10 -72 31l-131 167l-129 -167c-17 -21 -40 -31 -71 -31zM475 281h748c26 0 39 -13 39 -39v-203c0 -26 -13 -39 -39 -39h-1010c-26 0 -39 13 -39 39v1356c0 26 13 39 39 39h1004
c26 0 39 -13 38 -39v-201c0 -26 -13 -39 -38 -39h-742v-311h625c26 0 39 -13 39 -39v-166c0 -26 -13 -39 -39 -39h-625v-319z" />
    <glyph glyph-name="uni1EC3" unicode="&#x1ec3;" horiz-adv-x="1198" 
d="M481 2028c-22 0 -33 9 -32 28v76c0 19 13 36 32 33c86 -5 157 -29 213 -71c56 -43 84 -102 84 -177c0 -91 -50 -166 -151 -223c-21 -12 -35 -8 -43 12l-35 74c-8 13 -4 26 12 39c42 26 63 58 64 96c0 63 -65 105 -144 113zM403 1202h-112c-27 0 -43 25 -27 49l254 359
c8 15 22 23 43 22h82c22 0 37 -7 45 -20l256 -361c16 -21 1 -49 -26 -49h-111c-31 0 -55 10 -72 31l-131 168l-129 -168c-17 -21 -41 -31 -72 -31zM604 1096c154 0 280 -51 379 -154c98 -103 147 -237 147 -403c0 -19 -1 -34 -2 -45c-4 -25 -18 -37 -43 -37h-741
c27 -171 132 -256 315 -256c117 0 213 46 287 137c19 19 38 20 55 2l95 -92c18 -21 16 -42 -6 -64c-115 -138 -266 -207 -455 -207c-168 0 -304 52 -409 155s-158 236 -158 398c0 159 49 293 147 402s228 164 389 164zM614 874c-148 0 -253 -84 -274 -235h534
c-19 153 -115 235 -260 235z" />
    <glyph glyph-name="uni1EC4" unicode="&#x1ec4;" horiz-adv-x="1359" 
d="M430 2114l-86 36c-15 5 -21 17 -18 35c21 123 102 207 211 207c45 0 101 -18 166 -53s110 -53 133 -53c35 0 66 23 92 69c9 18 23 24 41 17l88 -35c15 -5 21 -18 18 -37c-9 -63 -33 -113 -72 -152s-85 -59 -137 -59c-45 0 -102 19 -170 57c-68 37 -113 56 -135 56
c-31 0 -60 -23 -86 -70c-11 -19 -26 -25 -45 -18zM657 2001h82c22 0 37 -7 45 -21l256 -360c16 -21 1 -49 -26 -49h-111c-31 0 -55 10 -72 31l-131 167l-129 -167c-17 -21 -40 -31 -71 -31h-113c-27 0 -43 25 -27 49l254 358c8 15 22 23 43 23zM475 281h748
c26 0 39 -13 39 -39v-203c0 -26 -13 -39 -39 -39h-1010c-26 0 -39 13 -39 39v1356c0 26 13 39 39 39h1004c26 0 39 -13 38 -39v-201c0 -26 -13 -39 -38 -39h-742v-311h625c26 0 39 -13 39 -39v-166c0 -26 -13 -39 -39 -39h-625v-319z" />
    <glyph glyph-name="uni1EC5" unicode="&#x1ec5;" horiz-adv-x="1198" 
d="M334 1745l-86 37c-15 5 -22 17 -19 35c21 123 102 206 211 206c45 0 101 -18 167 -53c65 -35 109 -53 132 -53c35 0 66 23 92 70c9 18 23 23 41 16l89 -35c15 -5 21 -18 18 -37c-9 -63 -33 -113 -72 -152s-85 -59 -137 -59c-45 0 -102 19 -170 57c-68 37 -113 56 -135 56
c-31 0 -60 -23 -86 -70c-11 -19 -26 -25 -45 -18zM561 1632h82c22 0 37 -7 45 -20l256 -361c16 -21 1 -49 -26 -49h-111c-31 0 -55 10 -72 31l-131 168l-129 -168c-17 -21 -41 -31 -72 -31h-112c-27 0 -43 25 -27 49l254 359c8 15 22 23 43 22zM604 1096
c154 0 280 -51 379 -154c98 -103 147 -237 147 -403c0 -19 -1 -34 -2 -45c-4 -25 -18 -37 -43 -37h-741c27 -171 132 -256 315 -256c117 0 213 46 287 137c19 19 38 20 55 2l95 -92c18 -21 16 -42 -6 -64c-115 -138 -266 -207 -455 -207c-168 0 -304 52 -409 155
s-158 236 -158 398c0 159 49 293 147 402s228 164 389 164zM614 874c-148 0 -253 -84 -274 -235h534c-19 153 -115 235 -260 235z" />
    <glyph glyph-name="uni1EC6" unicode="&#x1ec6;" horiz-adv-x="1359" 
d="M500 1571h-113c-27 0 -43 25 -27 49l254 358c8 15 22 23 43 23h82c22 0 37 -7 45 -21l256 -360c16 -21 1 -49 -26 -49h-111c-31 0 -55 10 -72 31l-131 167l-129 -167c-17 -21 -40 -31 -71 -31zM475 281h748c26 0 39 -13 39 -39v-203c0 -26 -13 -39 -39 -39h-1010
c-26 0 -39 13 -39 39v1356c0 26 13 39 39 39h1004c26 0 39 -13 38 -39v-201c0 -26 -13 -39 -38 -39h-742v-311h625c26 0 39 -13 39 -39v-166c0 -26 -13 -39 -39 -39h-625v-319zM619 -187c46 46 118 46 163 0c44 -46 44 -117 0 -162c-45 -45 -117 -45 -163 0s-46 116 0 162z
" />
    <glyph glyph-name="uni1EC7" unicode="&#x1ec7;" horiz-adv-x="1198" 
d="M403 1202h-112c-27 0 -43 25 -27 49l254 359c8 15 22 23 43 22h82c22 0 37 -7 45 -20l256 -361c16 -21 1 -49 -26 -49h-111c-31 0 -55 10 -72 31l-131 168l-129 -168c-17 -21 -41 -31 -72 -31zM604 1096c154 0 280 -51 379 -154c98 -103 147 -237 147 -403
c0 -19 -1 -34 -2 -45c-4 -25 -18 -37 -43 -37h-741c27 -171 132 -256 315 -256c117 0 213 46 287 137c19 19 38 20 55 2l95 -92c18 -21 16 -42 -6 -64c-115 -138 -266 -207 -455 -207c-168 0 -304 52 -409 155s-158 236 -158 398c0 159 49 293 147 402s228 164 389 164z
M614 874c-148 0 -253 -84 -274 -235h534c-19 153 -115 235 -260 235zM531 -187c46 46 117 46 162 0s45 -117 0 -162s-116 -45 -162 0s-46 116 0 162z" />
    <glyph glyph-name="uni1EC8" unicode="&#x1ec8;" horiz-adv-x="649" 
d="M168 1909v76c0 19 13 35 33 32c86 -5 157 -29 213 -71c56 -43 84 -102 84 -177c0 -91 -51 -166 -152 -223c-21 -12 -35 -8 -43 13l-35 73c-8 13 -4 26 13 39c42 26 63 58 63 96c0 63 -64 105 -143 113c-22 0 -33 10 -33 29zM436 0h-223c-26 0 -39 13 -39 39v1356
c0 26 13 39 39 39h223c26 0 39 -13 39 -39v-1356c0 -26 -13 -39 -39 -39z" />
    <glyph glyph-name="uni1EC9" unicode="&#x1ec9;" horiz-adv-x="577" 
d="M133 1532v76c0 19 14 35 33 32c86 -5 157 -29 213 -71c56 -43 84 -101 84 -176c0 -91 -51 -166 -152 -224c-21 -12 -35 -8 -43 13l-35 73c-8 13 -4 26 13 39c42 26 63 58 63 97c0 63 -64 104 -143 112c-22 0 -33 10 -33 29zM401 0h-225c-26 0 -39 13 -39 39v991
c0 26 13 39 39 39h225c26 0 39 -13 39 -39v-991c0 -26 -13 -39 -39 -39z" />
    <glyph glyph-name="uni1ECA" unicode="&#x1eca;" horiz-adv-x="649" 
d="M436 0h-223c-26 0 -39 13 -39 39v1356c0 26 13 39 39 39h223c26 0 39 -13 39 -39v-1356c0 -26 -13 -39 -39 -39zM405 -349c-45 -45 -117 -45 -163 0s-46 116 0 162s118 46 163 0c44 -46 44 -117 0 -162z" />
    </font>
</defs>
</svg>
